<svg width="149" height="42" viewBox="0 0 149 42" fill="none" xmlns="http://www.w3.org/2000/svg">
<g clip-path="url(#clip0_3010_5216)">
<path d="M8.04761 33.4979H29.6525L33.7035 28.9068M31.543 28.9068L28.5723 25.9362H23.7112" stroke="white" stroke-width="1.91447" stroke-linecap="round" stroke-linejoin="round"/>
<path d="M5.66568 27.6835C5.30395 28.624 5.99817 29.6348 7.00583 29.6348H7.42247C8.03214 29.6348 8.57535 29.2498 8.77728 28.6745L12.6842 17.5443C12.8451 17.0858 12.9273 16.6034 12.9273 16.1176V15.8217C12.9273 15.0287 12.2845 14.3859 11.4915 14.3859H4.67873C3.88819 14.3859 3.24733 15.0267 3.24733 15.8173C3.24733 16.6078 3.88819 17.2487 4.67873 17.2487H9.67907L5.66568 27.6835Z" fill="white" stroke="white" stroke-width="0.957236"/>
<path d="M14.2501 22.4644L14.25 22.4644L14.2537 22.4697C14.7565 23.2024 15.4248 23.7684 16.2485 24.166C17.0699 24.5625 17.9648 24.7581 18.9261 24.7581C19.8867 24.7581 20.776 24.5628 21.5857 24.1653C22.4087 23.7677 23.0765 23.202 23.579 22.4697C24.0937 21.7198 24.3436 20.8451 24.3436 19.8655C24.3436 19.1494 24.2173 18.5083 23.943 17.9598C23.6838 17.4414 23.3477 17.0001 22.932 16.6438C22.7556 16.4926 22.5738 16.3558 22.3866 16.2338C22.6609 15.9993 22.9078 15.7268 23.1273 15.4178L22.7372 15.1405L23.1273 15.4178C23.5467 14.8276 23.7408 14.1091 23.7408 13.2933C23.7408 12.4342 23.5252 11.6652 23.0778 11.0066C22.6525 10.3487 22.0728 9.84497 21.3499 9.49795C20.6278 9.15137 19.8164 8.98415 18.9261 8.98415C18.0473 8.98415 17.2376 9.1519 16.5056 9.49637L16.5056 9.49636L16.5023 9.49795C15.7788 9.84524 15.1934 10.3489 14.7556 11.0056L14.7556 11.0056L14.7542 11.0077C14.3182 11.6692 14.1113 12.4517 14.1113 13.3322C14.1113 14.0863 14.2938 14.7681 14.6731 15.36L14.677 15.366L14.6811 15.3719C14.8966 15.687 15.1404 15.9663 15.4125 16.2083C15.2245 16.3319 15.041 16.4708 14.8618 16.6244L14.8618 16.6243L14.8553 16.63C14.4505 16.9899 14.1282 17.4407 13.8839 17.9718C13.6268 18.5172 13.5086 19.1539 13.5086 19.8655C13.5086 20.8422 13.7505 21.715 14.2501 22.4644ZM19.7298 14.6718L19.7298 14.6717L19.7224 14.6763C19.492 14.8204 19.2309 14.8953 18.9261 14.8953C18.4077 14.8953 18.0188 14.7316 17.717 14.4214C17.4174 14.1006 17.2658 13.7148 17.2658 13.235C17.2658 12.7375 17.4198 12.3753 17.7032 12.1013L17.7032 12.1014L17.7089 12.0956C17.9922 11.8124 18.3805 11.6525 18.9261 11.6525C19.4556 11.6525 19.8386 11.8105 20.1237 12.0956L20.1237 12.0957L20.1295 12.1013C20.4129 12.3753 20.5669 12.7375 20.5669 13.235C20.5669 13.5398 20.4919 13.8107 20.3434 14.0582C20.1894 14.3149 19.9865 14.5178 19.7298 14.6718ZM20.571 21.2966L20.5709 21.2965L20.5665 21.3011C20.1966 21.681 19.6706 21.8953 18.9261 21.8953C18.182 21.8953 17.6463 21.6811 17.2617 21.2966C16.863 20.8978 16.663 20.4122 16.663 19.8072C16.663 19.1635 16.8751 18.6823 17.2824 18.3157L17.2828 18.3153C17.7185 17.9222 18.2556 17.7192 18.9261 17.7192C19.5966 17.7192 20.1247 17.9221 20.5455 18.3113C20.9592 18.694 21.1697 19.1791 21.1697 19.8072C21.1697 20.4122 20.9697 20.8978 20.571 21.2966Z" fill="white" stroke="white" stroke-width="0.957236"/>
<path d="M30.4194 16.1337L30.4152 16.1409L30.4113 16.1483L28.109 20.4661C27.5991 21.4225 28.2921 22.5775 29.376 22.5775H29.7581C30.2674 22.5775 30.7465 22.3074 30.9983 21.8514C31.4061 21.1126 31.8695 20.2061 32.2878 19.3809C32.3549 19.2484 32.4208 19.1182 32.4851 18.9912C32.8243 18.321 33.1185 17.7398 33.3147 17.3809L33.3159 17.3785C33.8483 16.3917 34.2729 15.5689 34.5884 14.9119C34.9155 14.2575 35.1588 13.6993 35.3113 13.2427C35.4725 12.7854 35.5806 12.3753 35.6252 12.019L35.6255 12.0166C35.6666 11.6738 35.6872 11.3307 35.6872 10.9874C35.6872 9.92103 35.4584 8.98183 34.9763 8.19222C34.5047 7.40688 33.8644 6.80129 33.061 6.38421C32.273 5.9554 31.3974 5.74489 30.4447 5.74489C29.3597 5.74489 28.3883 5.95114 27.5444 6.38021C26.7044 6.80733 26.0402 7.41145 25.5641 8.1906C25.0843 8.97567 24.8522 9.88118 24.8522 10.8902C24.8522 11.8158 25.0492 12.6701 25.4504 13.4438L25.4503 13.4439L25.4554 13.4533C25.8704 14.2118 26.4458 14.8233 27.1764 15.2817L27.1764 15.2817L27.1822 15.2853C27.9271 15.7381 28.7801 15.9577 29.7253 15.9577C30.0226 15.9577 30.3001 15.9405 30.5542 15.9024C30.507 15.9829 30.4621 16.06 30.4194 16.1337ZM31.8595 12.5527L31.8594 12.5527L31.8551 12.5566C31.4332 12.9363 30.9092 13.1338 30.2503 13.1338C29.8585 13.1338 29.492 13.0476 29.1449 12.8746C28.8244 12.7086 28.5571 12.4651 28.3416 12.1327C28.153 11.8228 28.0455 11.423 28.0455 10.9096C28.0455 10.2123 28.2555 9.66525 28.6568 9.23219C29.0439 8.81458 29.5755 8.58824 30.3086 8.58824C30.9486 8.58824 31.4564 8.80467 31.8674 9.23671L31.8673 9.23674L31.8715 9.24097C32.277 9.65695 32.4939 10.2046 32.4939 10.9291C32.4939 11.6784 32.2659 12.1958 31.8595 12.5527Z" fill="white" stroke="white" stroke-width="0.957236"/>
<path d="M13.8383 32.1021C11.9937 32.0959 12.072 30.9032 13.0343 29.4076C14.1735 27.6294 15.5839 26.7394 17.2505 26.7449C17.9248 26.7472 18.3815 26.8755 18.5929 27.1371C18.6491 27.2001 18.693 27.2908 18.7274 27.3915C18.8808 27.8415 18.8565 28.5666 18.381 28.565H17.8211C17.5158 28.564 17.497 28.3652 17.497 28.3652C17.497 27.8251 17.1194 27.8266 16.6868 27.8251C16.2416 27.8236 16.006 27.9416 15.6066 28.3652C15.2224 28.7815 15.1194 28.9396 14.7964 29.4455C13.9837 30.5837 13.6104 31.0628 14.5263 31.0659C14.9716 31.0673 15.4382 30.7479 15.8766 30.5257C16.0988 30.412 16.2838 30.3951 16.4137 30.4386C16.5167 30.473 16.5748 30.5748 16.6239 30.6716C16.6657 30.7542 16.7235 30.8401 16.6989 30.9293C16.6578 31.0777 16.4915 31.2846 16.3021 31.387C15.5026 31.869 14.6908 32.105 13.8383 32.1021Z" fill="white"/>
<path d="M17.5364 32.0502C17.091 32.0488 16.9396 31.9214 17.1074 31.6684L19.9834 27.2176C20.1513 26.9646 20.4452 26.8387 20.8908 26.8402L20.9925 26.8405C21.4379 26.842 21.5894 26.9693 21.4215 27.2223L18.7845 31.3035C18.7537 31.3513 18.7456 31.4103 18.7624 31.4646C18.8033 31.5964 18.7883 31.7466 18.6821 31.8347C18.5074 31.9795 18.257 32.0514 17.9197 32.0502H17.5364Z" fill="white"/>
<path d="M22.2828 32.0574C21.9649 32.0564 21.8079 31.9887 21.8091 31.8621C21.4991 32.0399 21.0898 32.1279 20.5939 32.1263C19.5385 32.1227 19.3205 31.6376 19.9396 30.6707L21.2126 28.7074C21.3804 28.4546 21.674 28.3289 22.119 28.3303H22.221C22.221 28.3303 22.8178 28.4586 22.65 28.7116L21.3938 30.6609C21.0684 31.1744 21.0405 31.4278 21.3202 31.4287C21.7783 31.4303 22.1993 31.1409 22.5839 30.5606L23.7694 28.7153C23.9373 28.4624 24.6758 28.3402 24.6758 28.3402L24.7774 28.3405C25.2222 28.342 25.3735 28.4691 25.2058 28.7219L23.2924 31.6808C23.1248 31.9335 22.8312 32.0591 22.3863 32.0576L22.283 32.0573L22.2828 32.0574Z" fill="white"/>
<path d="M27.6132 27.1767C28.0586 27.1782 28.1974 27.3054 28.0296 27.5585L27.476 28.5515C27.8394 28.3662 28.2108 28.278 28.6053 28.2793C29.7888 28.2832 29.9688 28.9328 29.1349 30.2203C28.3009 31.5079 27.2973 32.1535 26.1138 32.1495C25.6558 32.148 25.3701 32.0426 25.259 31.8259C25.0298 31.9893 24.8008 32.0705 24.5589 32.0698L24.4572 32.0695C23.9991 32.0679 23.8477 31.9406 24.0155 31.6875L26.5915 27.5537C26.7593 27.3007 27.0661 27.1749 27.5115 27.1764L27.6132 27.1767ZM27.6969 30.2145C28.2214 29.3886 28.1794 29.1803 27.7595 29.1789C27.327 29.1774 26.9365 29.3843 26.412 30.2103C25.8875 31.0362 25.9766 31.3379 26.4092 31.3394C26.8291 31.3408 27.1724 31.0404 27.6969 30.2145Z" fill="white"/>
<circle cx="10.4797" cy="31.3395" r="0.810186" fill="white"/>
</g>
<path d="M49.2442 30C49.1482 30 49.0762 29.976 49.0282 29.928C48.9962 29.864 48.9962 29.776 49.0282 29.664L53.5882 16.248C53.6202 16.152 53.5882 16.104 53.4922 16.104H49.9162C49.8362 16.104 49.7962 16.144 49.7962 16.224V17.184C49.7962 17.264 49.7642 17.336 49.7002 17.4C49.6522 17.448 49.5882 17.472 49.5082 17.472H47.3242C47.2442 17.472 47.1722 17.448 47.1082 17.4C47.0602 17.336 47.0362 17.264 47.0362 17.184L47.0602 13.488C47.0602 13.408 47.0842 13.344 47.1322 13.296C47.1962 13.232 47.2682 13.2 47.3482 13.2H56.9002C56.9802 13.2 57.0442 13.232 57.0922 13.296C57.1562 13.344 57.1882 13.408 57.1882 13.488V15.912C57.1882 16.056 57.1722 16.176 57.1402 16.272L52.5562 29.76C52.5082 29.92 52.4042 30 52.2442 30H49.2442ZM69.3603 22.68C69.6963 23.384 69.8643 24.192 69.8643 25.104C69.8643 25.984 69.7043 26.768 69.3843 27.456C69.0003 28.304 68.4083 28.976 67.6083 29.472C66.8243 29.952 65.8963 30.192 64.8243 30.192C63.7683 30.192 62.8323 29.96 62.0163 29.496C61.2003 29.016 60.5923 28.336 60.1923 27.456C59.8883 26.752 59.7363 25.968 59.7363 25.104C59.7363 24.176 59.8963 23.376 60.2163 22.704C60.4723 22.112 60.8803 21.64 61.4403 21.288C61.5043 21.24 61.5043 21.184 61.4403 21.12C60.9603 20.768 60.5923 20.336 60.3363 19.824C60.0003 19.168 59.8323 18.432 59.8323 17.616C59.8323 16.64 60.0643 15.8 60.5283 15.096C60.9283 14.408 61.5043 13.872 62.2563 13.488C63.0083 13.088 63.8563 12.888 64.8003 12.888C65.7603 12.888 66.6083 13.08 67.3443 13.464C68.0803 13.832 68.6563 14.368 69.0723 15.072C69.5363 15.808 69.7683 16.664 69.7683 17.64C69.7683 18.44 69.5923 19.176 69.2403 19.848C68.9363 20.376 68.5603 20.792 68.1123 21.096C68.0483 21.16 68.0483 21.216 68.1123 21.264C68.6723 21.6 69.0883 22.072 69.3603 22.68ZM63.3603 16.848C63.2323 17.184 63.1683 17.52 63.1683 17.856C63.1683 18.272 63.2483 18.656 63.4083 19.008C63.6803 19.648 64.1443 19.968 64.8003 19.968C65.4723 19.968 65.9443 19.64 66.2163 18.984C66.3603 18.664 66.4323 18.28 66.4323 17.832C66.4323 17.496 66.3683 17.16 66.2403 16.824C66.1283 16.52 65.9443 16.272 65.6883 16.08C65.4323 15.888 65.1363 15.792 64.8003 15.792C64.4643 15.792 64.1683 15.888 63.9123 16.08C63.6563 16.256 63.4723 16.512 63.3603 16.848ZM66.2403 26.232C66.4163 25.848 66.5043 25.392 66.5043 24.864C66.5043 24.352 66.4243 23.896 66.2643 23.496C66.1363 23.16 65.9443 22.896 65.6883 22.704C65.4483 22.512 65.1523 22.416 64.8003 22.416C64.0963 22.416 63.6163 22.776 63.3603 23.496C63.2003 23.832 63.1203 24.28 63.1203 24.84C63.1203 25.32 63.2003 25.776 63.3603 26.208C63.4883 26.544 63.6723 26.808 63.9123 27C64.1683 27.192 64.4643 27.288 64.8003 27.288C65.1363 27.288 65.4243 27.2 65.6643 27.024C65.9203 26.832 66.1123 26.568 66.2403 26.232ZM82.806 25.872C82.806 27.184 82.35 28.232 81.438 29.016C80.526 29.8 79.318 30.192 77.814 30.192C76.374 30.192 75.206 29.8 74.31 29.016C73.414 28.232 72.966 27.192 72.966 25.896V25.2C72.966 25.12 72.99 25.056 73.038 25.008C73.102 24.944 73.174 24.912 73.254 24.912H76.062C76.142 24.912 76.206 24.944 76.254 25.008C76.318 25.056 76.35 25.12 76.35 25.2V25.56C76.35 26.056 76.486 26.464 76.758 26.784C77.046 27.088 77.398 27.24 77.814 27.24C78.278 27.24 78.654 27.08 78.942 26.76C79.246 26.44 79.398 26.032 79.398 25.536V23.232C79.398 23.184 79.382 23.16 79.35 23.16C79.318 23.144 79.286 23.152 79.254 23.184C78.694 23.68 77.982 23.928 77.118 23.928C76.142 23.928 75.31 23.68 74.622 23.184C73.934 22.672 73.438 21.976 73.134 21.096C72.798 20.344 72.63 19.48 72.63 18.504C72.63 17.688 72.742 16.944 72.966 16.272C73.27 15.232 73.83 14.432 74.646 13.872C75.462 13.312 76.486 13.032 77.718 13.032C78.758 13.032 79.654 13.256 80.406 13.704C81.158 14.136 81.718 14.768 82.086 15.6L82.134 15.72C82.566 16.44 82.782 17.32 82.782 18.36L82.806 25.872ZM77.742 21.192C78.43 21.192 78.902 20.856 79.158 20.184C79.318 19.784 79.398 19.24 79.398 18.552C79.398 18.008 79.342 17.536 79.23 17.136C79.006 16.336 78.51 15.936 77.742 15.936C76.99 15.936 76.486 16.344 76.23 17.16C76.118 17.592 76.062 18.064 76.062 18.576C76.062 19.216 76.142 19.752 76.302 20.184C76.574 20.856 77.054 21.192 77.742 21.192ZM88.0481 30.096C87.5041 30.096 87.0481 29.92 86.6801 29.568C86.3281 29.2 86.1521 28.744 86.1521 28.2C86.1521 27.64 86.3281 27.184 86.6801 26.832C87.0321 26.48 87.4881 26.304 88.0481 26.304C88.6081 26.304 89.0641 26.48 89.4161 26.832C89.7681 27.184 89.9441 27.64 89.9441 28.2C89.9441 28.744 89.7601 29.2 89.3921 29.568C89.0401 29.92 88.5921 30.096 88.0481 30.096ZM98.9938 30.192C97.9058 30.192 96.9458 29.976 96.1138 29.544C95.2818 29.112 94.6338 28.496 94.1698 27.696C93.7218 26.896 93.4978 25.968 93.4978 24.912V18.24C93.4978 17.2 93.7218 16.288 94.1698 15.504C94.6338 14.704 95.2818 14.088 96.1138 13.656C96.9458 13.224 97.9058 13.008 98.9938 13.008C100.082 13.008 101.042 13.224 101.874 13.656C102.706 14.072 103.346 14.664 103.794 15.432C104.258 16.2 104.49 17.096 104.49 18.12V18.24C104.49 18.32 104.458 18.392 104.394 18.456C104.346 18.52 104.282 18.552 104.202 18.552L101.394 18.672C101.202 18.672 101.106 18.584 101.106 18.408V18.096C101.106 17.44 100.914 16.912 100.53 16.512C100.146 16.112 99.6338 15.912 98.9938 15.912C98.3538 15.912 97.8418 16.112 97.4578 16.512C97.0738 16.912 96.8818 17.44 96.8818 18.096V25.128C96.8818 25.784 97.0738 26.312 97.4578 26.712C97.8418 27.096 98.3538 27.288 98.9938 27.288C99.6338 27.288 100.146 27.096 100.53 26.712C100.914 26.312 101.106 25.784 101.106 25.128V24.816C101.106 24.64 101.202 24.552 101.394 24.552L104.202 24.672C104.282 24.672 104.346 24.704 104.394 24.768C104.458 24.816 104.49 24.88 104.49 24.96V25.032C104.49 26.056 104.258 26.96 103.794 27.744C103.346 28.528 102.706 29.136 101.874 29.568C101.042 29.984 100.082 30.192 98.9938 30.192ZM108.381 30C108.301 30 108.229 29.976 108.165 29.928C108.117 29.864 108.093 29.792 108.093 29.712V13.488C108.093 13.408 108.117 13.344 108.165 13.296C108.229 13.232 108.301 13.2 108.381 13.2H111.189C111.269 13.2 111.333 13.232 111.381 13.296C111.445 13.344 111.477 13.408 111.477 13.488V26.976C111.477 27.056 111.517 27.096 111.597 27.096H118.029C118.109 27.096 118.173 27.128 118.221 27.192C118.285 27.24 118.317 27.304 118.317 27.384V29.712C118.317 29.792 118.285 29.864 118.221 29.928C118.173 29.976 118.109 30 118.029 30H108.381ZM126.886 30.192C125.798 30.192 124.838 29.968 124.006 29.52C123.174 29.072 122.526 28.448 122.062 27.648C121.614 26.832 121.39 25.896 121.39 24.84V13.488C121.39 13.408 121.414 13.344 121.462 13.296C121.526 13.232 121.598 13.2 121.678 13.2H124.486C124.566 13.2 124.63 13.232 124.678 13.296C124.742 13.344 124.774 13.408 124.774 13.488V25.008C124.774 25.696 124.966 26.248 125.35 26.664C125.734 27.08 126.246 27.288 126.886 27.288C127.526 27.288 128.038 27.08 128.422 26.664C128.806 26.248 128.998 25.696 128.998 25.008V13.488C128.998 13.408 129.022 13.344 129.07 13.296C129.134 13.232 129.206 13.2 129.286 13.2H132.094C132.174 13.2 132.238 13.232 132.286 13.296C132.35 13.344 132.382 13.408 132.382 13.488V24.84C132.382 25.896 132.15 26.832 131.686 27.648C131.238 28.448 130.598 29.072 129.766 29.52C128.934 29.968 127.974 30.192 126.886 30.192ZM147.112 25.344C147.112 26.864 146.616 28.024 145.624 28.824C144.648 29.608 143.384 30 141.832 30H136.456C136.376 30 136.304 29.976 136.24 29.928C136.192 29.864 136.168 29.792 136.168 29.712V13.488C136.168 13.408 136.192 13.344 136.24 13.296C136.304 13.232 136.376 13.2 136.456 13.2H141.472C143.184 13.2 144.512 13.584 145.456 14.352C146.4 15.104 146.872 16.256 146.872 17.808C146.872 19.392 146.256 20.536 145.024 21.24C144.944 21.288 144.936 21.336 145 21.384C146.408 22.184 147.112 23.504 147.112 25.344ZM139.672 16.104C139.592 16.104 139.552 16.144 139.552 16.224V19.992C139.552 20.072 139.592 20.112 139.672 20.112H141.496C142.136 20.112 142.64 19.936 143.008 19.584C143.376 19.232 143.56 18.744 143.56 18.12C143.56 17.48 143.376 16.984 143.008 16.632C142.656 16.28 142.152 16.104 141.496 16.104H139.672ZM141.688 27.072C142.328 27.072 142.824 26.888 143.176 26.52C143.544 26.136 143.728 25.6 143.728 24.912C143.728 24.224 143.544 23.688 143.176 23.304C142.824 22.904 142.328 22.704 141.688 22.704H139.672C139.592 22.704 139.552 22.744 139.552 22.824V26.952C139.552 27.032 139.592 27.072 139.672 27.072H141.688Z" fill="white"/>
<defs>
<clipPath id="clip0_3010_5216">
<rect width="42" height="42" fill="white"/>
</clipPath>
</defs>
</svg>
