<svg width="92" height="32" viewBox="0 0 92 32" fill="none" xmlns="http://www.w3.org/2000/svg">
<path d="M17.6121 26.2028C18.2932 23.5514 18.9694 20.918 19.6463 18.2846C20.602 14.5576 21.5586 10.8303 22.5161 7.10273C22.5813 6.84542 22.6937 6.79063 22.9323 6.79479C24.4331 6.82115 25.9346 6.83641 27.4354 6.85097C29.0999 6.86623 30.7628 6.87941 32.424 6.8905C32.5627 6.8905 32.7015 6.93281 32.8402 6.91131C33.4914 6.80658 33.9422 7.13255 34.375 7.55907C34.9256 8.10212 35.5158 8.60424 36.07 9.14312C36.1844 9.25478 36.2905 9.46006 36.278 9.60779C36.149 10.8145 36.0006 12.0192 35.8342 13.2204C35.7343 13.9292 35.6088 14.6373 35.4395 15.3323C35.3806 15.575 35.1906 15.8143 34.9998 15.989C34.7509 16.2179 34.4353 16.3733 34.16 16.5758C33.7612 16.8678 33.7556 16.9919 34.0906 17.3276C34.3639 17.605 34.7085 17.8373 34.8889 18.1633C35.0331 18.4241 35.0366 18.8027 34.9998 19.1162C34.8473 20.4339 34.6635 21.7433 34.4748 23.0541C34.3583 23.8642 34.1974 24.6687 34.0823 25.4815C33.988 26.1383 33.9318 26.7992 33.8534 27.4588C33.8076 27.8444 33.8284 28.2633 33.6773 28.6038C33.5261 28.9443 33.2306 29.2419 32.9428 29.4957C32.1563 30.1892 31.3234 30.8308 30.5452 31.534C30.1901 31.8551 29.8316 31.93 29.3836 31.8725C29.0479 31.8288 28.7025 31.8537 28.3613 31.8572C28.1074 31.8572 27.8536 31.8919 27.5984 31.8856C26.5144 31.8586 25.4297 31.7941 24.3457 31.7948C21.4724 31.7948 18.5997 31.8246 15.7271 31.8413C15.2902 31.8413 14.8525 31.8413 14.4156 31.8413C14.0785 31.8413 13.9593 31.6713 14.0258 31.3558C14.1486 30.7788 14.2561 30.1969 14.4101 29.6282C14.6667 28.6794 14.9517 27.7383 15.2312 26.7958C15.3588 26.3658 15.5717 26.2076 16.0128 26.2035C16.5316 26.1993 17.0511 26.2028 17.6121 26.2028ZM29.2802 19.6835C29.1617 19.6569 29.0414 19.6388 28.9203 19.6294C27.6673 19.6017 26.4143 19.5786 25.1613 19.5601C24.9865 19.5601 24.8679 19.6135 24.8381 19.8312C24.7299 20.6198 24.6266 21.4111 24.4671 22.1893C24.2188 23.4011 23.9434 24.6072 23.6411 25.8075C23.5599 26.1279 23.6778 26.1355 23.9115 26.1348C25.2147 26.1348 26.5186 26.1244 27.821 26.1411C28.1151 26.1411 28.2004 26.0072 28.2371 25.7652C28.3758 24.9017 28.5146 24.0376 28.6609 23.1755C28.8599 22.0263 29.0687 20.8764 29.2795 19.6863L29.2802 19.6835ZM26.1135 14.6519H30.0265L30.8448 11.1787H26.6663C26.4832 12.3306 26.3022 13.4646 26.1128 14.6547L26.1135 14.6519Z" fill="white"/>
<path d="M44.3585 11.3042V15.446C44.4279 15.4508 44.5243 15.4633 44.6234 15.4633C45.8933 15.4633 47.1639 15.471 48.4344 15.4633C49.0226 15.4585 49.6135 15.4474 50.1974 15.3898C50.8133 15.3295 51.278 15.5729 51.7183 15.9661C52.4923 16.6597 53.2975 17.3137 54.0653 18.0107C54.204 18.1355 54.2872 18.3887 54.2872 18.5822C54.2872 20.0254 54.2484 21.4687 54.2463 22.9112C54.2463 24.7935 54.2297 26.6765 54.2914 28.5566C54.3157 29.2994 54.0001 29.7911 53.5132 30.26C53.2421 30.5214 53.0132 30.8259 52.7455 31.0922C52.287 31.5486 51.8272 31.9161 51.081 31.9085C48.1487 31.8808 45.2164 31.9238 42.2841 31.9349C41.6052 31.9349 40.9088 32.0077 40.2548 31.8745C39.8533 31.7934 39.51 31.3967 39.1563 31.1214C38.9628 30.9702 38.8296 30.7281 38.6209 30.6144C38.177 30.3723 37.937 29.9611 37.7276 29.5546C37.5889 29.2904 37.5847 28.9305 37.6014 28.6205C37.6416 27.8888 37.729 27.1599 37.7997 26.4303C37.8829 25.5758 37.9384 24.7179 38.0633 23.869C38.1395 23.3378 38.2776 23.2781 38.8095 23.2844C39.5592 23.2934 40.3089 23.2934 41.0587 23.2955C41.7709 23.2955 42.4825 23.2851 43.1941 23.3024C43.7121 23.3149 43.7635 23.3808 43.7586 23.885C43.7524 24.4717 43.7336 25.0584 43.7281 25.6445C43.7281 25.8026 43.7524 25.96 43.7669 26.1397C45.2095 26.1397 46.6285 26.1431 48.0474 26.1293C48.1203 26.1293 48.2555 25.9802 48.2555 25.8997C48.2687 24.6513 48.2742 23.403 48.2597 22.1546C48.2527 21.6046 48.1959 21.0546 48.1605 20.4804C48.1152 20.4674 48.0687 20.4591 48.0218 20.4554C46.6014 20.4305 45.1783 20.4409 43.7628 20.3687C43.1622 20.3389 42.7301 20.5366 42.3348 20.9395C42.1389 21.1507 41.921 21.3404 41.6849 21.5054C41.5705 21.5803 41.3291 21.6143 41.2362 21.545C40.3616 20.893 39.5023 20.2182 38.6507 19.5379C38.6022 19.4953 38.5629 19.4434 38.5351 19.3852C38.5074 19.3271 38.4917 19.2638 38.4891 19.1994C38.5446 18.0412 38.6112 16.8837 38.6888 15.7269C38.7519 14.7892 38.8275 13.8543 38.9094 12.9167C38.9912 11.979 39.0862 11.0441 39.1646 10.103C39.2263 9.3692 39.27 8.63405 39.3255 7.90029C39.3321 7.72807 39.3553 7.5569 39.3949 7.38915C39.476 7.09301 39.6279 6.92795 39.9962 6.92933C44.2579 6.94459 48.5197 6.93904 52.7815 6.93904C53.4799 6.93904 53.6713 7.13254 53.672 7.84064C53.672 8.72976 53.672 9.61888 53.672 10.508C53.672 10.9519 53.412 11.23 52.9695 11.2355C51.0183 11.2619 49.0672 11.285 47.116 11.3049C46.2193 11.3111 45.3218 11.3042 44.3585 11.3042Z" fill="white"/>
<path d="M66.6724 15.471C66.4983 14.4307 66.3298 13.4382 66.1716 12.4471C66.1413 12.2638 66.135 12.0773 66.1529 11.8923C66.1807 11.6149 66.0565 11.5122 65.8061 11.5116H62.3551C62.4064 11.9908 62.4647 12.3847 62.4855 12.78C62.5042 13.1469 62.4855 13.5159 62.4765 13.8841C62.4695 14.1685 62.3183 14.2906 62.0319 14.2857C61.0533 14.2698 60.0741 14.2573 59.0948 14.26C58.7633 14.26 58.4318 14.3134 58.0995 14.3363C57.1744 14.4008 57.0377 14.1089 56.9379 13.2801C56.8193 12.2994 56.7527 11.3118 56.6639 10.3277C56.6168 9.80267 56.6937 9.36089 57.1647 8.99193C57.8714 8.4371 58.506 7.79349 59.1953 7.21578C59.3856 7.05693 59.6214 6.9627 59.8688 6.94668C62.3858 6.90507 64.9027 6.88195 67.4193 6.87733C67.7379 6.883 68.0477 6.98265 68.3098 7.16376C69.1136 7.7394 69.896 8.34832 70.6491 8.98846C70.9075 9.20942 71.0974 9.49961 71.1963 9.82487C71.4675 10.8277 71.6901 11.8445 71.8954 12.8633C72.1895 14.3259 72.4412 15.7976 72.7339 17.261C72.8393 17.7881 72.4849 18.0932 72.2366 18.4442C71.8316 19.0129 71.3884 19.5538 70.9467 20.0962C70.5555 20.5754 69.9882 20.5983 69.4375 20.6011C68.0178 20.6094 66.594 20.5955 65.1771 20.5914C64.6174 20.5914 64.0584 20.5914 63.4537 20.5914C63.6902 22.4417 63.9232 24.2671 64.1618 26.1355H64.5633C67.7044 26.1355 70.8454 26.1397 73.9864 26.132C74.5413 26.132 74.6106 26.1799 74.7861 26.7368C75.017 27.4588 75.1419 28.2147 75.2972 28.9561C75.4359 29.6344 75.567 30.3162 75.6863 30.9993C75.7227 31.2032 75.7304 31.4112 75.7092 31.6172C75.6794 31.8947 75.4422 31.9467 75.2237 31.9501C73.9666 31.9705 72.7089 31.9837 71.4509 31.9897C69.717 31.9959 67.9887 31.9994 66.2583 31.9897C65.5086 31.9841 64.7596 31.9342 64.0106 31.9099C63.3896 31.8891 62.7687 31.8727 62.1477 31.8607C61.5291 31.8482 60.9098 31.8371 60.2911 31.8399C59.875 31.8399 59.4637 31.8641 59.0504 31.8898C58.8174 31.9044 58.7036 31.783 58.6745 31.5805C58.6155 31.1262 58.5746 30.6685 58.5302 30.2121C58.4415 29.3105 58.3513 28.4089 58.2688 27.5115C58.2112 26.8831 58.1724 26.252 58.112 25.6237C58.0059 24.5182 57.8852 23.4141 57.7784 22.3093C57.6994 21.4978 57.6321 20.6857 57.5593 19.8735C57.535 19.5996 57.5357 19.3187 57.4809 19.0524C57.3873 18.5954 57.5073 18.2625 57.8679 17.9427C58.5148 17.3727 59.1295 16.7673 59.7093 16.1291C60.2114 15.5743 60.8529 15.5479 61.4993 15.5389C63.0251 15.5181 64.5508 15.5348 66.0725 15.5292C66.2733 15.5198 66.4735 15.5004 66.6724 15.471Z" fill="white"/>
<path d="M19.423 11.8008L6.69031 8.18672C5.48563 7.84481 4.27957 7.50983 3.07905 7.15404C2.9095 7.10225 2.76145 6.99658 2.65738 6.85305C1.79323 5.53533 0.949888 4.20234 0.0912872 2.88254C-0.0300821 2.69667 -0.0307756 2.57392 0.0912872 2.39221C0.343042 2.01007 0.551104 1.60088 0.8091 1.22151C0.852055 1.17315 0.905916 1.13572 0.96622 1.11232C1.02652 1.08893 1.09154 1.08023 1.15587 1.08697C7.18226 2.62246 13.2061 4.16512 19.2274 5.71495C19.6366 5.81968 20.0409 5.95214 20.4557 6.02358C20.6936 6.06519 20.7109 6.17546 20.67 6.3537C20.3352 7.81845 19.9991 9.28298 19.6616 10.7473C19.5832 11.0913 19.5055 11.436 19.423 11.8008Z" fill="white"/>
<path d="M72.8754 11.522C72.4974 9.57033 71.3989 8.09865 69.9154 6.79271L71.5833 6.31348C77.852 4.51582 84.1209 2.71748 90.39 0.918439C90.6244 0.849085 90.7749 0.858101 90.9261 1.09807C91.214 1.55372 91.5503 1.97955 91.8687 2.41579C92.0469 2.65991 92.0406 2.89017 91.8687 3.14192C91.0364 4.357 90.218 5.57902 89.3858 6.79271C89.3072 6.91674 89.1907 7.01209 89.0536 7.06458C83.68 8.55153 78.303 10.0288 72.8754 11.522Z" fill="white"/>
<path d="M3.70808 9.15214L19.0956 13.296C18.8244 14.4806 18.5574 15.645 18.2835 16.8386C17.2355 16.6306 16.2119 16.4294 15.1917 16.2144C12.903 15.7366 10.6102 15.2574 8.32566 14.758C8.1223 14.7047 7.94396 14.5821 7.82145 14.4112C7.26177 13.579 6.76103 12.71 6.18123 11.8951C5.81435 11.386 5.35662 10.938 4.92038 10.4823C4.51119 10.0517 4.07634 9.64594 3.65259 9.22912L3.70808 9.15214Z" fill="white"/>
<path d="M88.0542 9.17988C87.4792 9.81446 86.8953 10.4054 86.3758 11.0483C85.9001 11.6371 85.4874 12.2786 85.0581 12.9042C84.7391 13.3695 84.452 13.8571 84.1218 14.3141C84.0095 14.4652 83.8494 14.574 83.6676 14.6228C80.5716 15.2879 77.4729 15.9405 74.3741 16.5917C74.2646 16.6146 74.1564 16.6479 74.0114 16.6854C73.8679 16.2325 73.7132 15.79 73.5884 15.3392C73.4171 14.7199 73.2721 14.0908 73.1071 13.4722C73.0377 13.2128 73.0752 13.09 73.3845 13.0255C74.0641 12.8868 74.7313 12.6788 75.4034 12.5047C77.1955 12.0324 78.989 11.565 80.7797 11.0878C82.2486 10.6973 83.7147 10.2965 85.1823 9.89977C86.0945 9.65287 87.0065 9.40666 87.9183 9.16115C87.9642 9.16093 88.01 9.16723 88.0542 9.17988Z" fill="white"/>
<path d="M78.4182 21.3868L79.403 22.88C78.8482 22.9244 78.3495 22.9702 77.8481 23.0035C77.0325 23.0583 76.2155 23.0936 75.4006 23.1588C74.8187 23.2053 74.2389 23.2781 73.6605 23.3558C73.1965 23.4189 73.1133 23.3738 73.0162 22.9182C72.9011 22.3724 72.7582 21.83 72.6889 21.2787C72.6667 21.0322 72.7299 20.7857 72.8678 20.5803C73.3811 19.8766 73.7913 19.1031 74.0856 18.2833C74.1224 18.1785 74.2875 18.0752 74.4068 18.0523C75.3458 17.8935 76.2883 17.7589 77.2281 17.6098C78.4626 17.4143 79.6964 17.2097 80.9309 17.0134C82.0405 16.8372 83.146 16.6666 84.2931 16.5314C82.5926 18.157 81.5883 20.2668 80.2817 22.1941L78.4591 21.3279C78.4452 21.3473 78.4314 21.3667 78.4182 21.3868Z" fill="white"/>
<path d="M12.3475 22.8204L13.4509 21.3008C12.6485 21.3494 12.2025 21.9708 11.5555 22.174L7.67579 16.4717L17.9998 18.1508L16.8298 23.3093L12.3475 22.8204Z" fill="white"/>
</svg>
