<svg width="92" height="34" viewBox="0 0 92 34" fill="none" xmlns="http://www.w3.org/2000/svg">
<path d="M34.1224 10.097C33.233 12.8932 29.3337 12.7668 29.3337 12.7668C29.3337 12.7668 28.1286 12.4375 27.4657 10.5295C26.801 8.62153 16.5773 2.91713 11.1573 16.2393C6.85874 29.9334 16.7036 27.358 16.7036 27.358L19.422 22.3601L28.5026 22.201C28.4909 24.6846 26.0087 29.8398 23.9303 31.6225C23.9303 31.6225 14.9062 35.6057 5.61468 31.3644C-3.67684 27.123 0.177912 15.7925 5.61468 9.55239C11.0496 3.31225 20.5324 0.978877 28.0543 2.52378C35.5763 4.06869 35.0118 7.30266 34.1224 10.097Z" fill="white"/>
<path d="M26.2216 15.0539L27.9318 17.147C27.9318 17.147 30.904 20.1976 30.6403 21.981L17.3999 21.981C16.7519 21.981 16.3527 21.2673 16.6925 20.712L18.2262 18.2006C18.3822 17.9461 18.6588 17.7895 18.9578 17.7877L22.7754 17.7735L25.102 15.0432C25.3972 14.6961 25.932 14.7015 26.2216 15.0539Z" fill="white"/>
<path d="M92 10.0719L90.1423 6.92348H80.1725L77.2057 9.81708L76.0324 17.341L77.334 19.0748L75.5589 20.9668L74.2053 28.0807L76.0294 31.2994H85.8372L88.804 28.4234L90.1729 20.9551L88.4527 19.0338L90.6465 17.2825L92 10.069V10.0719ZM82.7177 28.1774H79.2528L80.3925 21.6199H83.8268L82.7177 28.1774ZM84.8106 16.5561H81.3397L82.4702 9.99866H85.9197L84.8106 16.5561Z" fill="white"/>
<path d="M74.8 10.0719L72.9423 6.92348H62.9725L60.0057 9.81708L58.8324 17.341L60.134 19.0748L57.983 20.7735L57.0053 28.0807L58.8294 31.2994H68.6372L71.604 28.4234L72.9728 20.9551L71.2526 19.0338L73.4464 17.2825L74.8 10.069V10.0719ZM65.5177 28.1774H62.0528L63.1925 21.6199H66.6268L65.5177 28.1774ZM67.6106 16.5561H64.1397L65.2702 9.99866H68.7197L67.6106 16.5561Z" fill="white"/>
<path fill-rule="evenodd" clip-rule="evenodd" d="M59.0881 7.23095L59.1959 6.96564C59.1947 6.93621 59.194 6.90679 59.1934 6.87765C59.1928 6.84789 59.1922 6.81833 59.1909 6.78948C59.1735 6.48476 58.9674 6.23718 58.6545 6.13958C58.3689 6.0515 58.0311 6.13006 57.8598 6.37288C57.7881 6.47505 57.7467 6.59543 57.7017 6.72611C57.6796 6.79029 57.6566 6.85695 57.6288 6.92517C56.3125 7.09419 54.954 7.27035 53.5831 7.4489C53.4142 7.00602 53.2455 6.5641 53.077 6.12283C52.7131 5.16939 52.3503 4.219 51.9887 3.26861C52.4655 3.03293 52.6394 2.66632 52.4705 2.28067C52.3165 1.92834 51.9042 1.74742 51.5292 1.87121C51.0921 2.01404 50.9456 2.38303 51.1046 2.94485C50.4489 3.27166 49.7932 3.59902 49.1365 3.92693C48.4256 4.28187 47.7117 4.6383 46.9968 4.99452L46.0968 3.96286C45.5135 3.29442 44.9319 2.62777 44.3494 1.95929C44.3651 1.93954 44.3791 1.92262 44.3919 1.90715C44.4052 1.89102 44.4174 1.87625 44.4288 1.86169C44.6896 1.54269 44.6499 1.10466 44.3394 0.849943C44.019 0.588079 43.5571 0.621408 43.269 0.926121C43.2554 0.939214 43.2423 0.952903 43.2293 0.966591C43.2162 0.980279 43.2032 0.993968 43.1895 1.00706C43.1679 1.05816 43.1472 1.11006 43.1263 1.1623C43.1111 1.20008 43.0959 1.23811 43.0803 1.27607C43.0728 1.5903 43.1672 1.85454 43.4627 2.02595C43.4987 2.04544 43.5357 2.06305 43.5662 2.07758C43.5841 2.08608 43.5998 2.0936 43.6117 2.09974C43.4106 3.54952 43.2119 4.98024 43.0107 6.41811C47.4296 7.2067 51.5854 8.72998 55.4855 11.0507C56.3448 9.84137 57.1917 8.65109 58.0361 7.46556C58.0727 7.47584 58.1061 7.48642 58.1377 7.49643C58.1939 7.51424 58.2444 7.53021 58.2969 7.53936C58.6267 7.59878 58.8772 7.45886 59.0881 7.23095ZM49.7188 7.60602L49.7361 7.59967C49.7569 7.59212 49.7684 7.58792 49.7784 7.58221L49.9555 7.46047C50.3185 7.21103 50.6807 6.96212 51.0375 6.70616C51.0772 6.67759 51.1021 6.58951 51.0921 6.53714C51.0179 6.16792 50.9372 5.80026 50.8566 5.43289L50.7991 5.17069C50.7939 5.14442 50.7841 5.11814 50.7727 5.08797C50.7676 5.07439 50.7623 5.06003 50.7569 5.04452L50.6154 5.14208C50.213 5.41966 49.8198 5.69084 49.4307 5.9658C49.4009 5.98722 49.386 6.05864 49.3934 6.09911C49.4294 6.28419 49.4697 6.46789 49.5099 6.65126C49.5224 6.70837 49.535 6.76572 49.5474 6.82281C49.6045 7.08229 49.6616 7.34177 49.7188 7.6084V7.60602ZM44.5331 5.96818L44.5484 5.94821C44.8129 5.60158 45.0596 5.27832 45.303 4.95167C45.3254 4.92311 45.313 4.85883 45.2981 4.82074C45.1515 4.47318 45.0025 4.128 44.851 3.78281C44.8446 3.76898 44.8341 3.75812 44.822 3.74575C44.8155 3.73898 44.8084 3.7317 44.8014 3.7233C44.553 4.04706 44.3146 4.36129 44.0762 4.67791C44.0513 4.71124 44.0215 4.77075 44.034 4.8017C44.1476 5.07831 44.2664 5.35241 44.3905 5.63858C44.4373 5.74637 44.4849 5.85618 44.5331 5.96818ZM54.7208 9.75332L54.7338 9.63509C54.7758 9.25108 54.8147 8.89516 54.8597 8.54158C54.8646 8.50111 54.8944 8.44636 54.9292 8.4297C55.3092 8.25353 55.6916 8.08213 56.1014 7.89883L56.068 8.19288C56.0311 8.51935 55.9957 8.83161 55.9574 9.14387C55.9524 9.17244 55.9226 9.21052 55.8928 9.22481C55.6138 9.35158 55.3348 9.47709 55.0442 9.6078L54.7208 9.75332Z" fill="white"/>
<path d="M55.1802 11.3619C51.3782 9.16974 47.3155 7.66068 42.9673 6.8228C42.9276 7.068 42.8928 7.29416 42.8556 7.53936C47.09 8.3678 51.0537 9.84137 54.7616 11.9696L54.8118 11.8966C54.9368 11.7149 55.0556 11.542 55.1802 11.3619Z" fill="white"/>
<path d="M44.6491 12.1947V9.25658C47.3582 9.40088 49.9353 10.4431 51.9533 12.2104L49.8218 14.2873C48.3738 13.0652 46.5596 12.3313 44.6491 12.1947Z" fill="white"/>
<path d="M37.2276 15.1958C35.9736 16.607 35.2204 18.375 35.0803 20.2369H32.0655C32.2133 17.5963 33.2827 15.0844 35.0965 13.1175L37.2276 15.1958Z" fill="white"/>
<path d="M35.0803 21.52H32.0655C32.2133 24.1605 33.2827 26.6725 35.0965 28.6394L37.2276 26.5611C35.9736 25.1499 35.2204 23.3819 35.0803 21.52Z" fill="white"/>
<path d="M50.754 26.5611C52.0081 25.1499 52.7612 23.3819 52.9013 21.52H55.9161C55.7681 24.1602 54.6987 26.6717 52.8852 28.6383L50.754 26.5611Z" fill="white"/>
<path d="M50.754 15.1958C52.0081 16.607 52.7612 18.375 52.9013 20.2369H55.9161C55.7681 17.5962 54.6984 15.0843 52.8844 13.1175L50.754 15.1958Z" fill="white"/>
<path d="M43.3325 12.1947C41.422 12.3313 39.6078 13.0652 38.1598 14.2873L36.0272 12.2104C38.0454 10.4429 40.623 9.40063 43.3325 9.25658V12.1947Z" fill="white"/>
<path d="M49.8218 27.4695C48.3738 28.6917 46.5596 29.4256 44.6491 29.5622V32.5003C47.3587 32.356 49.9363 31.3136 51.9544 29.5457L49.8218 27.4695Z" fill="white"/>
<path d="M38.1598 27.4695C39.6078 28.6917 41.422 29.4256 43.3324 29.5622V32.5003C40.6234 32.356 38.0462 31.3138 36.0283 29.5464L38.1598 27.4695Z" fill="white"/>
<path fill-rule="evenodd" clip-rule="evenodd" d="M43.9908 13.4544C42.4841 13.4544 41.0113 13.8898 39.7585 14.7056C38.5057 15.5213 37.5293 16.6808 36.9528 18.0374C36.3762 19.3939 36.2253 20.8867 36.5193 22.3268C36.8132 23.7669 37.5387 25.0898 38.6041 26.128C39.6695 27.1663 41.0269 27.8734 42.5046 28.1598C43.9823 28.4463 45.5141 28.2993 46.9061 27.7374C48.298 27.1755 49.4878 26.2239 50.3249 25.003C51.1619 23.7821 51.6087 22.3468 51.6087 20.8784C51.6064 18.9101 50.8031 17.0231 49.375 15.6313C47.9468 14.2395 46.0105 13.4566 43.9908 13.4544ZM46.6569 23.9362C47.7348 23.7027 48.4992 22.9405 48.684 21.9045C48.8324 21.0726 48.6476 20.305 48.18 19.5938C47.788 18.998 47.2672 18.5122 46.7101 18.0586C46.4884 17.877 46.2646 17.6974 46.0405 17.5177C45.6984 17.2432 45.3556 16.9683 45.0189 16.6845C44.7165 16.4295 44.4365 16.1504 44.1593 15.8686C43.8961 15.6002 43.5994 15.5922 43.3474 15.8686C42.8323 16.4302 42.2323 16.9054 41.6352 17.3783L41.5862 17.4172C41.5479 17.4475 41.5095 17.4778 41.4711 17.508C40.9187 17.9441 40.3684 18.3785 39.8867 18.8879C39.4695 19.3334 39.1083 19.8165 38.9291 20.3936C38.6351 21.3329 38.7135 22.2293 39.3379 23.0371C39.7131 23.5229 40.2339 23.7993 40.8442 23.9362C41.6898 24.1268 42.4458 23.9362 43.129 23.4424C43.1542 23.4236 43.1766 23.4075 43.2242 23.4021C43.1821 23.5209 43.1419 23.6402 43.1016 23.7595C43.0428 23.934 42.9838 24.1087 42.919 24.2824C42.6978 24.8729 42.4402 25.4445 42.0846 25.9759C42.0776 25.9844 42.0738 25.9938 42.07 26.0037C42.0677 26.0096 42.0653 26.0156 42.0622 26.0216H42.1266C42.2013 26.0108 42.276 25.9989 42.3506 25.987C42.5 25.9631 42.6493 25.9393 42.7986 25.9249C43.6498 25.8391 44.4981 25.8766 45.3409 26.0055C45.3521 26.0081 45.3773 26.0216 45.3773 26.0216H45.4389C45.3809 25.9138 45.3192 25.8072 45.2574 25.7006C45.1316 25.4831 45.0055 25.2653 44.9097 25.0366C44.7564 24.6803 44.6228 24.3152 44.4891 23.9498C44.4274 23.7813 44.3658 23.6128 44.3021 23.4451C44.3007 23.4384 44.3007 23.4317 44.3007 23.4246C44.3007 23.4176 44.3007 23.4102 44.2993 23.4021C44.3696 23.4437 44.4384 23.4852 44.5065 23.5263C44.6013 23.5836 44.6948 23.64 44.7893 23.6947C45.3773 24.0248 46.0017 24.0758 46.6569 23.9362Z" fill="white"/>
</svg>
