<svg width="126" height="42" viewBox="0 0 126 42" fill="none" xmlns="http://www.w3.org/2000/svg">
<path d="M12.8851 8.63008L13.5674 8.78094C15.1015 8.98911 17.7208 8.61496 18.7393 7.75393L18.5922 6.87586C18.1934 6.63773 17.0606 6.30435 15.7205 6.87586C14.3803 7.44738 13.2475 8.22527 12.8486 8.54278L12.8851 8.63008Z" fill="white"/>
<path d="M24.5763 21.3243L25.5374 24.6714C26.4129 24.302 27.3814 23.8891 28.3183 23.4773L26.9695 19.6574L31.0378 7.27468L27.6874 8.2272L24.5763 18.7049V8.70346L21.4652 9.65598V26.433C22.3314 26.1079 23.1283 25.7612 23.7092 25.4471L23.7789 25.4094L24.5763 25.0754V21.3243Z" fill="white"/>
<path d="M16.4771 27.6931L14.9318 27.4171L14.764 13.2279C15.4968 13.1064 15.7933 13.2329 16.226 13.4177C16.6413 13.5949 17.1819 13.8257 18.3537 13.9423V27.4037C17.6077 27.5833 16.9461 27.6931 16.4771 27.6931Z" fill="white"/>
<path fill-rule="evenodd" clip-rule="evenodd" d="M2.79871 13.9423L3.03802 36.0884L6.14913 35.1358L5.90981 25.3725L8.54229 34.6596L12.3713 33.9452L9.49955 24.6581C9.62351 24.5572 9.76498 24.4487 9.91655 24.3324C10.8379 23.6257 12.132 22.633 12.132 21.3243C12.132 19.8003 11.8129 16.3236 11.6534 15.1329C10.9227 12.166 8.23399 12.4529 2.79871 13.9423ZM5.90919 15.8474V22.9913C8.55691 22.754 9.05385 21.7602 9.02029 18.2287C8.7806 15.4958 8.67391 15.1547 5.90919 15.8474Z" fill="white"/>
<path d="M12.8853 8.79106L13.5661 8.94159C15.1008 9.14984 17.7215 8.77531 18.7392 7.91357L19.0709 9.89416C19.3103 9.97353 19.8846 10.2275 20.2675 10.6085C20.7462 11.0848 20.7462 12.5136 20.0282 12.9898C19.5559 13.3032 18.3584 13.1011 17.3218 12.9263C16.7828 12.8353 16.2873 12.7517 15.9598 12.7517C15.7013 12.7517 15.3729 12.7865 15.0266 12.8231C14.0906 12.9221 13.0233 13.035 12.8486 12.5136C12.6572 11.9421 13.5666 11.6404 14.0452 11.5611L12.8853 8.79106Z" fill="white"/>
<path d="M30.2752 27.7239L30.205 27.7485L29.6777 26.2597L29.8146 26.2117C30.002 26.146 30.1429 26.1686 30.2375 26.2795C30.3335 26.3872 30.4229 26.5576 30.5054 26.7906C30.5937 27.0399 30.6348 27.2377 30.6286 27.3839C30.6225 27.5301 30.5047 27.6434 30.2752 27.7239Z" fill="white"/>
<path fill-rule="evenodd" clip-rule="evenodd" d="M35.3875 31.369L39.5487 30.8527L37.068 27.5165L37.874 22.5577L35.4469 23.5875C35.1274 22.6771 34.2915 21.7267 32.7427 22.5946C31.1007 23.5147 26.7605 25.162 24.3811 26.0651L24.0016 26.2092C22.0648 27.1732 18.8606 28.5535 17.8094 28.8553C17.323 28.9949 15.9294 28.8813 15.2311 28.1735L18.0638 36.0885C18.1695 36.3741 18.7121 36.8977 20.0371 36.707C21.3621 36.5163 27.4294 33.6375 30.2975 32.2219C30.6561 32.0449 31.0832 31.7968 31.5352 31.5342C32.8181 30.7888 34.3018 29.9268 34.992 30.2427C35.1565 30.318 35.2834 30.3881 35.3805 30.454L35.3875 31.369ZM28.065 25.564L30.0517 31.08L31.267 30.6538L30.5962 28.8529L31.0984 28.6768C31.4403 28.5569 31.6769 28.3888 31.8082 28.1725C31.9419 27.9553 31.9964 27.6966 31.9716 27.3962C31.946 27.0935 31.8671 26.7557 31.7351 26.3829C31.5981 25.9962 31.4368 25.6782 31.2511 25.429C31.0654 25.1797 30.8451 25.0147 30.5901 24.9339C30.3374 24.8523 30.0401 24.8714 29.6983 24.9913L28.065 25.564ZM27.5208 32.0939L25.6364 26.7737L26.8306 26.3549L28.715 31.6751L27.5208 32.0939ZM21.2775 28.5616L24.0648 33.5014L25.7507 32.9101L24.4593 27.2512L23.2827 27.6639L24.2354 31.2295L22.4541 28.1489L21.2775 28.5616ZM22.1908 34.102C21.9678 34.1802 21.782 34.181 21.6336 34.1043C21.4826 34.0205 21.3754 33.8891 21.312 33.7101L21.2626 33.5706C21.1967 33.3845 21.1974 33.2152 21.2647 33.0629C21.332 32.9105 21.4772 32.7952 21.7002 32.717C21.9304 32.6363 22.1161 32.6355 22.2574 32.7147C22.4058 32.7914 22.513 32.9228 22.5789 33.1089L22.6284 33.2485C22.6917 33.4274 22.691 33.5967 22.6262 33.7562C22.5661 33.906 22.4209 34.0213 22.1908 34.102Z" fill="white"/>
<path d="M17.8038 36.48L13.6569 36.5338L14.5458 32.479L11.7684 28.2844L14.5349 28.2316L17.8038 36.48Z" fill="white"/>
<path d="M55.9942 30C55.8182 30 55.7062 29.92 55.6582 29.76L53.2342 23.136C53.2022 23.072 53.1622 23.04 53.1142 23.04H51.6022C51.5222 23.04 51.4822 23.08 51.4822 23.16V29.712C51.4822 29.792 51.4502 29.864 51.3862 29.928C51.3382 29.976 51.2742 30 51.1942 30H48.3862C48.3062 30 48.2342 29.976 48.1702 29.928C48.1222 29.864 48.0982 29.792 48.0982 29.712V13.488C48.0982 13.408 48.1222 13.344 48.1702 13.296C48.2342 13.232 48.3062 13.2 48.3862 13.2H54.2422C55.1862 13.2 56.0262 13.416 56.7622 13.848C57.4982 14.264 58.0662 14.856 58.4662 15.624C58.8662 16.392 59.0662 17.272 59.0662 18.264C59.0662 19.288 58.8422 20.176 58.3942 20.928C57.9462 21.68 57.3142 22.24 56.4982 22.608C56.4182 22.64 56.3942 22.696 56.4262 22.776L59.1622 29.664C59.1782 29.696 59.1862 29.736 59.1862 29.784C59.1862 29.928 59.0982 30 58.9222 30H55.9942ZM51.6022 16.104C51.5222 16.104 51.4822 16.144 51.4822 16.224V20.328C51.4822 20.408 51.5222 20.448 51.6022 20.448H53.6902C54.2822 20.448 54.7622 20.256 55.1302 19.872C55.4982 19.472 55.6822 18.944 55.6822 18.288C55.6822 17.616 55.4982 17.088 55.1302 16.704C54.7622 16.304 54.2822 16.104 53.6902 16.104H51.6022ZM62.8574 30C62.7774 30 62.7054 29.976 62.6414 29.928C62.5934 29.864 62.5694 29.792 62.5694 29.712V13.488C62.5694 13.408 62.5934 13.344 62.6414 13.296C62.7054 13.232 62.7774 13.2 62.8574 13.2H65.6654C65.7454 13.2 65.8094 13.232 65.8574 13.296C65.9214 13.344 65.9534 13.408 65.9534 13.488V29.712C65.9534 29.792 65.9214 29.864 65.8574 29.928C65.8094 29.976 65.7454 30 65.6654 30H62.8574ZM70.2037 30C70.1237 30 70.0517 29.976 69.9877 29.928C69.9397 29.864 69.9157 29.792 69.9157 29.712V13.488C69.9157 13.408 69.9397 13.344 69.9877 13.296C70.0517 13.232 70.1237 13.2 70.2037 13.2H73.0117C73.0917 13.2 73.1557 13.232 73.2037 13.296C73.2677 13.344 73.2997 13.408 73.2997 13.488V19.872C73.2997 19.92 73.3157 19.952 73.3477 19.968C73.3957 19.984 73.4277 19.968 73.4437 19.92L77.7397 13.392C77.8197 13.264 77.9317 13.2 78.0757 13.2H81.1717C81.2837 13.2 81.3557 13.232 81.3877 13.296C81.4357 13.36 81.4277 13.44 81.3637 13.536L76.9237 20.424C76.9077 20.472 76.9077 20.528 76.9237 20.592L81.6277 29.664C81.6597 29.728 81.6757 29.776 81.6757 29.808C81.6757 29.936 81.5877 30 81.4117 30H78.3397C78.1957 30 78.0837 29.928 78.0037 29.784L74.5957 23.208C74.5797 23.16 74.5557 23.136 74.5237 23.136C74.4917 23.136 74.4597 23.16 74.4277 23.208L73.3477 24.768C73.3157 24.832 73.2997 24.88 73.2997 24.912V29.712C73.2997 29.792 73.2677 29.864 73.2037 29.928C73.1557 29.976 73.0917 30 73.0117 30H70.2037ZM86.4408 30.096C85.8968 30.096 85.4408 29.92 85.0728 29.568C84.7208 29.2 84.5448 28.744 84.5448 28.2C84.5448 27.64 84.7208 27.184 85.0728 26.832C85.4248 26.48 85.8808 26.304 86.4408 26.304C87.0008 26.304 87.4568 26.48 87.8088 26.832C88.1608 27.184 88.3368 27.64 88.3368 28.2C88.3368 28.744 88.1528 29.2 87.7848 29.568C87.4328 29.92 86.9848 30.096 86.4408 30.096ZM95.1279 30C94.9519 30 94.8399 29.92 94.7919 29.76L90.6159 13.512V13.416C90.6159 13.272 90.7039 13.2 90.8799 13.2H93.9279C94.1039 13.2 94.2079 13.288 94.2399 13.464L96.6639 24.624C96.6799 24.688 96.7039 24.72 96.7359 24.72C96.7679 24.72 96.7919 24.688 96.8079 24.624L99.2079 13.464C99.2399 13.288 99.3439 13.2 99.5199 13.2H102.472C102.696 13.2 102.784 13.304 102.736 13.512L98.5119 29.76C98.4639 29.92 98.3519 30 98.1759 30H95.1279ZM106.328 30C106.248 30 106.176 29.976 106.112 29.928C106.064 29.864 106.04 29.792 106.04 29.712V13.488C106.04 13.408 106.064 13.344 106.112 13.296C106.176 13.232 106.248 13.2 106.328 13.2H109.136C109.216 13.2 109.28 13.232 109.328 13.296C109.392 13.344 109.424 13.408 109.424 13.488V29.712C109.424 29.792 109.392 29.864 109.328 29.928C109.28 29.976 109.216 30 109.136 30H106.328ZM119.411 13.176C120.371 13.176 121.219 13.392 121.955 13.824C122.707 14.256 123.283 14.864 123.683 15.648C124.099 16.432 124.307 17.328 124.307 18.336C124.307 19.328 124.099 20.208 123.683 20.976C123.283 21.728 122.707 22.312 121.955 22.728C121.219 23.144 120.371 23.352 119.411 23.352H116.819C116.739 23.352 116.699 23.392 116.699 23.472V29.712C116.699 29.792 116.667 29.864 116.603 29.928C116.555 29.976 116.491 30 116.411 30H113.603C113.523 30 113.451 29.976 113.387 29.928C113.339 29.864 113.315 29.792 113.315 29.712V13.464C113.315 13.384 113.339 13.32 113.387 13.272C113.451 13.208 113.523 13.176 113.603 13.176H119.411ZM118.859 20.664C119.483 20.664 119.979 20.464 120.347 20.064C120.731 19.648 120.923 19.096 120.923 18.408C120.923 17.704 120.731 17.144 120.347 16.728C119.979 16.312 119.483 16.104 118.859 16.104H116.819C116.739 16.104 116.699 16.144 116.699 16.224V20.544C116.699 20.624 116.739 20.664 116.819 20.664H118.859Z" fill="white"/>
</svg>
