<svg width="140" height="42" viewBox="0 0 140 42" fill="none" xmlns="http://www.w3.org/2000/svg">
<path d="M7.00133 35.4195C7.20404 35.1558 7.36081 34.8824 7.49325 34.5926C7.61218 34.333 7.70678 34.0651 7.77705 33.789C7.80543 33.675 7.70813 33.4099 7.54325 33.3151C7.40541 33.2368 7.2581 33.1915 7.1189 33.1214C6.68374 32.9003 6.28236 32.6297 5.93369 32.2835C5.69584 32.0473 5.6134 31.7588 5.67557 31.4278C5.69043 31.3454 5.72422 31.2932 5.82558 31.3206C6.19722 31.4195 6.56616 31.3824 6.93916 31.3014C7.42568 31.197 7.85408 30.9594 8.2933 30.7437C8.32168 30.73 8.34601 30.7052 8.3825 30.6778C8.11626 30.5555 7.88652 30.4195 7.69732 30.2231C7.47028 29.9882 7.47298 29.8797 7.67569 29.6242C7.93787 29.2959 8.18113 28.9539 8.44061 28.6242C8.60278 28.4182 8.77847 28.2217 8.94875 28.0226C9.01767 27.9429 9.23796 27.9401 9.31499 28.0157C9.7461 28.436 10.2826 28.6118 10.8529 28.5349C11.5773 28.436 12.2665 28.1915 12.7706 27.6036C13.0274 27.3042 13.2504 26.9635 13.2179 26.5459C13.1801 26.0418 13.0652 25.9333 12.5679 25.8838C12.1044 25.8371 11.653 25.9457 11.1989 26.0322C10.9259 26.0844 10.6475 26.1201 10.3691 26.1503C10.0407 26.1847 9.71501 26.1778 9.38797 26.1723C8.86091 26.1641 8.49331 25.8825 8.30411 25.4209C8.12032 24.9718 8.17302 24.502 8.28114 24.0446C8.4325 23.399 8.78793 22.8646 9.20958 22.3674C9.88665 21.5707 10.7232 20.9979 11.6516 20.5569C12.1192 20.3344 12.6138 20.1861 13.1301 20.1174C13.5234 20.0652 13.918 20.0281 14.3126 20.0583C14.6437 20.0844 14.9532 20.2026 15.2059 20.4374C15.2573 20.4841 15.3073 20.5295 15.3654 20.5693C15.564 20.7067 15.537 20.9539 15.3356 21.0721C14.7721 21.4031 14.2085 21.7341 13.6423 22.0597C13.4788 22.1531 13.3274 22.1545 13.1423 22.0459C12.8922 21.899 12.5963 21.9264 12.3246 22.0102C11.6841 22.2094 11.1043 22.5212 10.6421 23.0253C10.4597 23.2245 10.3597 23.469 10.3286 23.7396C10.3123 23.8825 10.4529 24.0075 10.6543 23.9992C10.8854 23.9896 11.1165 23.9525 11.3462 23.9209C11.7449 23.8646 12.1354 23.7547 12.5355 23.7012C12.9463 23.6448 13.3558 23.6339 13.7666 23.6448C14.3004 23.6586 14.7491 23.8564 15.1275 24.263C15.4411 24.5995 15.5221 24.9951 15.5546 25.4209C15.5694 25.6229 15.5532 25.8275 15.5573 26.0294C15.5789 26.9237 15.3289 27.7314 14.8194 28.4594C14.3572 29.1201 13.7788 29.6476 13.0963 30.0651C12.5665 30.3893 12.0098 30.6448 11.4111 30.8C11.1408 30.8701 10.8651 30.9264 10.5826 30.9195C10.4718 30.9168 10.3597 30.9085 10.2515 30.969C10.3799 31.1311 10.5732 31.1627 10.7556 31.2162C11.2165 31.3495 11.6692 31.2519 12.1098 31.1352C12.9652 30.9085 13.7977 30.6022 14.5978 30.2217C15.4289 29.8261 16.2398 29.3866 17.0655 28.9827C17.9047 28.572 18.7521 28.1805 19.5967 27.7836C19.9603 27.6132 20.3387 27.4772 20.6738 27.2492C20.7036 27.2286 20.7373 27.219 20.7617 27.2451C20.7941 27.2781 20.7509 27.3042 20.7387 27.3275C20.2603 28.1915 19.8886 29.1022 19.6008 30.0473C19.4846 30.4305 19.3656 30.8124 19.2508 31.1956C19.2413 31.2286 19.2386 31.2588 19.1913 31.2684C19.1805 30.9237 19.1291 30.5844 19.1116 30.241C19.0926 29.8701 19.0994 29.4992 19.0872 29.1297C19.0791 28.8934 18.994 28.7629 18.821 28.7272C18.6913 28.6998 18.5791 28.7533 18.5264 28.877C18.271 29.4717 18.0534 30.0802 17.8507 30.697C17.6831 31.208 17.5209 31.7204 17.4006 32.2451C17.3939 32.2739 17.3709 32.3 17.3533 32.3289C17.2723 32.1585 17.2844 31.9731 17.2831 31.8041C17.2804 31.3289 17.2358 30.855 17.2425 30.3797C17.2425 30.2877 17.225 30.1984 17.1804 30.1215C17.1249 30.0294 17.0371 29.9621 16.9249 30.002C16.8074 30.0432 16.7668 30.1531 16.7587 30.2698C16.7249 30.708 16.7101 31.1462 16.7506 31.5871C16.779 31.8921 16.7938 32.1984 16.856 32.4992C16.902 32.719 16.9195 32.9497 17.1493 33.0857C17.4047 33.2368 17.5844 33.1723 17.6669 32.8852C17.8926 32.094 18.102 31.2986 18.3764 30.5239C18.425 30.3866 18.4669 30.2465 18.5129 30.105C18.5534 30.1215 18.5737 30.1421 18.571 30.1791C18.5494 30.414 18.5886 30.6462 18.6075 30.8783C18.6332 31.1943 18.6683 31.5102 18.7926 31.811C18.894 32.0555 19.2683 32.1242 19.4481 32.0706C19.5183 32.05 19.5237 31.9758 19.544 31.9154C19.6994 31.4401 19.8251 30.9552 19.9954 30.4855C20.2914 29.6682 20.5698 28.8454 20.9346 28.0555C21.0387 27.8316 21.1252 27.5995 21.1833 27.3577C21.1914 27.322 21.2063 27.2753 21.1928 27.2465C21.0928 27.0473 21.2563 27.0267 21.3671 26.9814C21.859 26.7836 22.3483 26.5775 22.8456 26.3989C23.3632 26.2121 23.8794 26.0185 24.4038 25.8481C24.9538 25.6696 25.5079 25.5075 26.0688 25.3729C26.5107 25.2671 26.9607 25.1888 27.4121 25.1215C28.2608 24.9951 29.1136 25.0185 29.9636 25.0377C30.5136 25.0501 31.0704 25.0954 31.6042 25.263C31.7664 25.3138 31.9259 25.377 32.0651 25.4882C32.2597 25.6435 32.2556 25.8358 32.2246 26.0583C32.1921 26.2877 32.1867 26.3715 32.2205 26.6146C32.2732 26.6641 32.3205 26.675 32.4016 26.6489C32.8165 26.5157 33.2408 26.4347 33.6733 26.3742C34.0355 26.3234 34.3963 26.2973 34.7585 26.3165C35.3518 26.3481 35.9167 26.491 36.4073 26.8509C36.5235 26.936 36.6221 27.0514 36.7167 27.1627C36.7938 27.2547 36.7208 27.333 36.6613 27.4003C36.5073 27.5761 36.291 27.6544 36.0937 27.7602C35.6923 27.9772 35.3383 28.2533 35.0666 28.627C34.9423 28.7987 34.9572 28.9676 35.1153 29.1146C35.4883 29.4621 35.8167 29.8495 36.0505 30.3055C36.2221 30.6407 36.4829 30.9291 36.5667 31.311C36.5762 31.355 36.5992 31.4003 36.5721 31.4333C36.537 31.4772 36.4978 31.4264 36.4586 31.4182C36.1221 31.3371 35.8356 31.1311 35.4991 31.0459C35.1815 30.9649 34.8666 30.9044 34.5369 30.8838C33.703 30.833 32.9111 31.0102 32.134 31.2849C31.8448 31.3866 31.561 31.5061 31.2867 31.6434C30.5461 32.0129 29.7758 32.2986 28.9676 32.469C28.5541 32.5555 28.1378 32.6434 27.7135 32.6311C27.4175 32.6228 27.1148 32.5514 26.9012 32.3453C26.5891 32.0459 26.5255 31.7368 26.8499 31.3495C27.1567 30.9827 27.558 30.8371 28.0229 30.8206C28.5743 30.8 29.1041 30.9127 29.6379 31.0239C30.0096 31.1022 30.3853 31.1448 30.7731 31.094C31.1069 31.05 31.4448 31.039 31.7407 30.8563C32.0475 30.6668 32.1813 30.3921 31.9854 30.05C31.9043 29.9085 31.7624 29.8193 31.6313 29.7423C31.2164 29.4978 30.761 29.3728 30.2852 29.3042C29.8163 29.2368 29.3446 29.2245 28.8757 29.2478C28.4757 29.2671 28.0756 29.3124 27.6756 29.366C27.108 29.4429 26.5485 29.5596 25.9877 29.6737C25.5079 29.7712 25.0471 29.936 24.5903 30.116C24.0916 30.3138 23.6024 30.5322 23.1145 30.7547C22.3239 31.1132 21.5523 31.5088 20.7819 31.9085C20.0305 32.2986 19.2805 32.6943 18.5291 33.0844C17.7817 33.4731 17.0398 33.8728 16.2816 34.2382C15.6208 34.5569 14.9545 34.8659 14.2477 35.0747C13.8031 35.2052 13.3571 35.3082 12.8922 35.3398C12.5868 35.3604 12.2963 35.3316 12.003 35.267C11.7165 35.2039 11.4854 35.0761 11.4205 34.7574C11.3624 34.4731 11.184 34.2245 11.18 33.9223C11.18 33.8659 11.1529 33.7753 11.0813 33.7574C11.0043 33.7368 10.934 33.7574 10.8664 33.8247C10.1826 34.4896 9.38932 34.9717 8.48521 35.2561C8.01085 35.4058 7.52298 35.469 7.00538 35.4223L7.00133 35.4195ZM21.1914 30.0143C21.1914 30.0857 21.1874 30.1572 21.1914 30.2286C21.2225 30.6297 21.505 30.9017 21.909 30.7945C22.3347 30.6805 22.6442 30.4237 22.9077 30.0844C22.9523 30.0253 22.9537 29.914 23.0294 29.9085C23.1091 29.9031 23.147 30.0088 23.2091 30.0569C23.2875 30.116 23.3794 30.1544 23.4726 30.1201C23.5335 30.0981 23.5483 30.0253 23.5564 29.958C23.6173 29.4676 23.6997 28.9786 23.8497 28.5088C24.0767 27.7973 24.493 27.219 25.0849 26.7726C25.1241 26.7424 25.1701 26.6709 25.2187 26.7149C25.2647 26.7575 25.243 26.8289 25.2106 26.8921C25.0619 27.1888 24.9579 27.5047 24.8552 27.8179C24.7416 28.1682 24.6862 28.5308 24.7876 28.8962C24.8471 29.1132 24.9944 29.2561 25.2106 29.3042C25.4836 29.366 25.7512 29.3 26.0052 29.2066C26.4377 29.0459 26.762 28.7382 27.004 28.3481C27.1188 28.164 27.2188 27.9649 27.1823 27.7314C27.1675 27.638 27.1404 27.5473 27.031 27.5322C26.931 27.5171 26.8931 27.572 26.8526 27.6682C26.7485 27.9195 26.631 28.1695 26.4918 28.4031C26.358 28.627 26.1985 28.8371 25.9485 28.947C25.7579 29.0308 25.5958 28.9662 25.5322 28.7698C25.4525 28.5226 25.5133 28.2849 25.5836 28.0473C25.7066 27.638 25.8931 27.2533 26.0255 26.8481C26.108 26.5954 26.0539 26.3976 25.8404 26.322C25.6079 26.2396 25.3552 26.2218 25.1376 26.3701C24.8335 26.5775 24.5727 26.8371 24.347 27.1338C24.2957 27.2011 24.2362 27.2602 24.1795 27.3234C24.1173 27.263 24.1403 27.1723 24.1038 27.1036C24.0767 27.0528 24.0497 26.9965 24.0105 26.958C23.8659 26.8165 23.7092 26.8481 23.62 27.0336C23.574 27.1283 23.547 27.2327 23.5051 27.3261C23.3186 27.7423 23.1902 28.1737 23.101 28.6201C23.078 28.7396 23.0767 28.9333 23.0132 28.9594C22.8388 29.0308 22.8713 29.1737 22.8456 29.289C22.7645 29.6627 22.6294 30.0074 22.3712 30.2932C22.2672 30.4085 22.1334 30.5349 21.9807 30.4745C21.8279 30.4127 21.8374 30.23 21.8374 30.0775C21.8401 29.6407 21.9699 29.2259 22.055 28.8028C22.0901 28.6283 22.1307 28.4539 22.0969 28.2739C22.0739 28.1489 21.9198 27.9992 21.805 27.9896C21.6482 27.9759 21.5914 28.0926 21.5523 28.208C21.486 28.4072 21.4347 28.6132 21.3779 28.8165C21.2685 29.2107 21.2063 29.6091 21.1887 30.0157L21.1914 30.0143ZM15.5721 34.0473C15.9046 34.0308 16.0911 33.833 16.1033 33.5184C16.1127 33.2835 15.8492 33.0088 15.587 33.0267C15.2843 33.0459 15.0762 33.2382 15.0721 33.5528C15.0681 33.8165 15.3275 34.0363 15.5721 34.0473ZM21.9185 27.8248C22.1063 27.8248 22.3131 27.719 22.4037 27.5967C22.4888 27.4827 22.4726 27.2726 22.282 27.1984C22.1104 27.1297 21.9671 27.2163 21.8225 27.2739C21.6915 27.3261 21.6104 27.4992 21.6455 27.627C21.6888 27.7808 21.8171 27.811 21.9171 27.8261L21.9185 27.8248Z" fill="white"/>
<path d="M29.6649 19.6476C29.4744 18.9072 29.2987 18.1627 29.0892 17.4278C28.9649 16.991 28.873 16.546 28.7554 16.1092C28.723 15.9869 28.7338 15.8619 28.7311 15.7424C28.7284 15.6449 28.8365 15.5748 28.9379 15.5446C29.4055 15.4059 29.8731 15.2671 30.3312 15.0954C30.5082 15.0295 30.7055 15.1408 30.7745 15.3317C30.9285 15.7616 31.1042 16.1833 31.2367 16.6243C31.4353 17.285 31.6691 17.9347 31.8799 18.5913C32.1651 19.4814 32.3705 20.3949 32.5935 21.3015C32.6516 21.5377 32.703 21.7753 32.7557 22.013C32.8232 22.3152 32.7124 22.4731 32.4124 22.5569C31.7502 22.741 31.092 22.9374 30.4312 23.1242C30.2582 23.1737 30.0893 23.2698 29.8974 23.1847C29.8622 23.1696 29.8312 23.1558 29.8055 23.1297C29.5798 22.9113 29.3582 22.6902 29.1298 22.4759C28.6568 22.035 28.1838 21.594 27.7189 21.1449C27.4675 20.9031 27.204 20.6723 26.9526 20.4278C26.612 20.0982 26.2661 19.7726 25.9214 19.4457C25.9106 19.4361 25.8944 19.4333 25.8674 19.4196C25.8241 19.5858 25.9012 19.7314 25.935 19.8729C26.0255 20.2534 26.0566 20.6407 26.1188 21.0254C26.1877 21.4471 26.2336 21.8715 26.2999 22.2932C26.362 22.6943 26.4147 23.0981 26.4769 23.4992C26.5107 23.7176 26.4945 23.9333 26.5039 24.1503C26.5093 24.2918 26.4499 24.3921 26.3161 24.4443C25.7579 24.6572 25.1998 24.8729 24.6403 25.083C24.5727 25.1091 24.497 25.1119 24.4241 25.1229C24.2294 25.1531 24.1389 25.0665 24.1119 24.7685C24.07 24.3028 23.9902 23.8426 23.9416 23.3797C23.8889 22.8797 23.7983 22.3825 23.7564 21.8811C23.724 21.4993 23.6618 21.1229 23.647 20.7383C23.6348 20.3907 23.5632 20.0473 23.5281 19.7012C23.5051 19.4704 23.4848 19.241 23.4632 19.0103C23.4172 18.5473 23.3956 18.0831 23.3605 17.6201C23.347 17.4375 23.4416 17.3413 23.597 17.2877C24.2957 17.0501 24.9944 16.8138 25.6944 16.5817C25.8728 16.5226 26.0282 16.5748 26.1728 16.7026C26.5282 17.013 26.9012 17.3028 27.2702 17.5968C27.5743 17.8399 27.8608 18.105 28.1567 18.3578C28.4878 18.6421 28.827 18.9182 29.1514 19.2108C29.3176 19.3605 29.5001 19.4938 29.6663 19.6462L29.6649 19.6476Z" fill="white"/>
<path d="M18.2101 20.4004C18.2587 21.5597 18.2371 22.7204 18.2452 23.8811C18.2466 24.1146 18.2817 24.3564 18.3925 24.5611C18.5466 24.8454 18.8142 24.9951 19.1291 25.0226C19.5183 25.0556 19.8386 24.866 20.1305 24.6339C20.4291 24.3976 20.6467 24.0885 20.7873 23.7341C20.9535 23.3152 21.0535 22.8852 20.9711 22.4196C20.9265 22.1682 20.9008 21.9086 20.894 21.6476C20.8765 21.0185 20.8238 20.3907 20.7913 19.763C20.7711 19.3537 20.7805 18.9443 20.7711 18.5364C20.767 18.3715 20.9035 18.2905 21.0319 18.2479C21.5198 18.0831 22.0022 17.9045 22.4833 17.7218C22.7009 17.6394 22.8293 17.6627 22.9347 17.7891C22.9942 17.8605 22.9793 17.9443 22.9955 18.0158C23.0361 18.1957 23.0874 18.3743 23.1347 18.5528C23.1699 18.6861 23.1496 18.8234 23.1536 18.9539C23.1645 19.2809 23.1807 19.6078 23.2036 19.932C23.228 20.2863 23.2293 20.6435 23.2915 20.9938C23.3037 21.0652 23.2537 21.1243 23.2591 21.1984C23.2726 21.3825 23.278 21.5666 23.2874 21.7506C23.3104 22.241 23.2766 22.7341 23.2537 23.2231C23.2172 23.9773 22.9131 24.649 22.4928 25.263C22.1117 25.8179 21.6481 26.2891 21.0954 26.6764C20.5183 27.0816 19.9021 27.3866 19.2169 27.5404C18.5763 27.6847 17.9371 27.697 17.3317 27.3935C16.9451 27.1998 16.6613 26.888 16.4438 26.5102C16.164 26.024 16.064 25.4965 16.0302 24.9388C15.9991 24.4306 16.0424 23.9209 16.0005 23.4168C15.9572 22.8907 15.9708 22.366 15.9802 21.8413C15.987 21.4471 16.0005 21.0542 16.0086 20.66C16.0113 20.5652 16.0356 20.4704 16.041 20.3715C16.0451 20.274 16.11 20.1943 16.1924 20.1572C16.7222 19.9265 17.2533 19.7026 17.7857 19.48C18.0276 19.3784 18.2087 19.5089 18.2087 19.7754C18.2087 19.9842 18.2101 20.1916 18.2101 20.4004Z" fill="white"/>
<path d="M15.5887 9.43524C15.6291 9.43216 15.636 9.45971 15.6478 9.47751C15.8923 9.84327 16.1351 10.2102 16.3805 10.5753C16.417 10.6297 16.4281 10.6566 16.348 10.6735C16.2343 10.6975 16.1237 10.7367 16.0107 10.7649C15.8935 10.794 15.8393 10.7615 15.8155 10.6444C15.7359 10.2503 15.6591 9.85542 15.5816 9.46074C15.5803 9.45406 15.5857 9.44568 15.5887 9.43524Z" fill="white"/>
<path d="M7.57159 15.1891C7.60746 15.162 7.63003 15.1947 7.65377 15.2098C7.90299 15.3685 8.15052 15.53 8.40092 15.6868C8.44891 15.7167 8.45935 15.7397 8.42449 15.7852C8.34333 15.8915 8.20777 15.9203 8.11566 16.011C8.10017 16.0262 8.08299 16.0087 8.07087 15.9899C7.90416 15.7296 7.73645 15.4698 7.5694 15.2094C7.56654 15.205 7.57075 15.1959 7.57159 15.1891Z" fill="white"/>
<path d="M11.1935 12.127C11.3776 12.3349 11.599 12.5015 11.7997 12.6909C11.8765 12.7633 11.9575 12.8311 12.0357 12.902C12.0895 12.9507 12.0919 12.9894 12.0178 13.024C11.8912 13.083 11.7672 13.1479 11.6425 13.2109C11.5904 13.2373 11.5517 13.245 11.5266 13.1719C11.4173 12.8523 11.304 12.5343 11.1925 12.2156C11.1824 12.1865 11.1669 12.1561 11.1935 12.127Z" fill="white"/>
<path d="M11.1935 12.127C11.1903 12.1292 11.1858 12.1313 11.1852 12.1342C11.1814 12.1485 11.178 12.1488 11.1769 12.1347C11.1767 12.1326 11.1876 12.1296 11.1935 12.127Z" fill="white"/>
<path fill-rule="evenodd" clip-rule="evenodd" d="M22.455 17.2244C22.3329 17.2422 22.2141 17.2803 22.097 17.3252C21.6579 17.4937 21.2164 17.6554 20.7708 17.8057C20.6458 17.8479 20.5294 17.9052 20.4271 17.9784L17.7869 18.9602C17.7115 18.9746 17.6351 18.9972 17.5583 19.0286C17.4248 19.0829 17.2917 19.1381 17.1588 19.1938L17.1428 19.1997C16.905 19.2994 16.6691 19.4009 16.4319 19.5023C16.2916 19.5622 16.1514 19.6221 16.0109 19.6817C15.8877 19.7341 15.7762 19.8071 15.6849 19.9062C15.6474 19.9471 15.6228 19.9456 15.5812 19.9163C15.1804 19.6331 14.7295 19.534 14.2479 19.5256C12.838 19.5008 11.5725 19.9436 10.4115 20.7315C10.2628 20.8325 10.1173 20.9385 9.97381 21.047C9.92531 21.0836 9.90089 21.0947 9.85998 21.0341C9.22632 20.0953 8.49167 19.24 7.75718 18.3848C7.55516 18.1496 7.35316 17.9144 7.15327 17.6775C6.72594 17.171 6.23226 16.7297 5.73961 16.2894C5.69705 16.2514 5.6545 16.2133 5.612 16.1753C5.47796 16.0551 5.37659 15.9141 5.29863 15.7525C5.22723 15.6046 5.23379 15.4641 5.3227 15.326C5.50827 15.0383 5.76406 14.8274 6.04779 14.6501C6.28455 14.5022 6.52075 14.3533 6.75695 14.2044C7.43528 13.7768 8.11361 13.3493 8.80518 12.9437C8.81369 12.9387 8.82193 12.9332 8.83016 12.9277C8.84148 12.9201 8.8528 12.9125 8.86479 12.9064C8.95421 12.8603 8.96936 12.8229 8.88921 12.7345C8.56994 12.3827 8.54838 12.0123 8.8168 11.6914C8.93568 11.5493 9.07039 11.4238 9.22195 11.3174C9.42485 11.1748 9.6498 11.0763 9.87423 10.9779C9.90628 10.9639 9.93831 10.9499 9.97027 10.9357C10.9338 10.5092 11.9081 10.1094 12.8875 9.72172C12.8921 9.71988 12.8967 9.71809 12.9012 9.71635C12.964 9.69205 13.0096 9.6744 12.9725 9.57556C12.7856 9.07647 12.9361 8.70644 13.4182 8.48017C13.772 8.31401 14.1497 8.21791 14.5259 8.12221L14.5377 8.11921C14.7924 8.05433 15.0469 7.98832 15.3015 7.92231C16.2441 7.67783 17.1867 7.43334 18.1424 7.24615C18.2924 7.21676 18.4424 7.18714 18.5924 7.15752C19.4766 6.98293 20.361 6.80831 21.2534 6.67997C21.342 6.66718 21.4303 6.65162 21.5185 6.63605C21.7253 6.59957 21.9319 6.56311 22.1434 6.56239C22.9089 6.55965 23.4201 6.9516 23.6185 7.70194C24.1064 9.54869 24.5136 11.4136 24.8664 13.292C24.9137 13.5437 24.9625 13.795 25.0113 14.0464C25.1266 14.6397 25.2419 15.233 25.3364 15.8304C25.3413 15.8614 25.3503 15.8943 25.3594 15.9274C25.3807 16.0054 25.4023 16.0841 25.371 16.14L22.455 17.2244ZM16.6969 11.0999C16.6638 11.0283 16.6121 10.9881 16.5558 10.998C16.4182 11.0066 16.2985 11.0472 16.1821 11.0868C16.1032 11.1137 16.026 11.14 15.9459 11.1553C15.9235 11.1596 15.8978 11.1818 15.9109 11.2072C15.9442 11.2709 15.9448 11.3388 15.9455 11.4067C15.946 11.4532 15.9464 11.4997 15.9574 11.5449C15.9784 11.6321 16.0175 11.6676 16.1072 11.627C16.1632 11.6018 16.2315 11.5721 16.275 11.6434C16.3236 11.7234 16.3698 11.8098 16.3497 11.9094C16.3419 11.9486 16.3026 11.9593 16.2686 11.9687C16.2647 11.9698 16.2608 11.9708 16.2571 11.9719C16.1714 11.9969 16.0841 12.0157 15.9967 12.0345C15.8524 12.0656 15.7081 12.0967 15.5711 12.1559C15.564 12.159 15.5561 12.1612 15.5485 12.1614C15.484 12.1634 15.4435 12.1196 15.4566 12.0667C15.4646 12.0343 15.4426 12.0006 15.4209 11.9672C15.3835 11.9097 15.347 11.8536 15.4667 11.8084C15.5682 11.7701 15.5898 11.7033 15.5745 11.6046C15.4436 10.7577 15.2926 9.91479 15.1309 9.07356C15.1295 9.0664 15.1271 9.05922 15.1247 9.05207C15.1207 9.03991 15.1166 9.02787 15.1178 9.01623C15.1203 8.99216 15.1063 8.96796 15.0923 8.94382C15.0667 8.89964 15.0412 8.85568 15.1173 8.81307C15.3411 8.68761 15.4465 8.69035 15.5537 8.81974C16.1791 9.5747 16.7072 10.3974 17.1917 11.2503C17.2321 11.3215 17.2824 11.3609 17.3626 11.3189C17.4596 11.2681 17.4928 11.3176 17.5141 11.4059C17.5722 11.6462 17.5706 11.6513 17.3229 11.7131C17.268 11.7268 17.2131 11.74 17.1582 11.7533C17.0509 11.7792 16.9435 11.8051 16.8369 11.8341C16.7498 11.8577 16.7128 11.8233 16.7035 11.7401C16.7027 11.7327 16.702 11.7252 16.7014 11.7177C16.6996 11.6975 16.6978 11.6773 16.6929 11.658C16.6748 11.5874 16.6655 11.5517 16.6783 11.5288C16.6917 11.5052 16.729 11.4954 16.8052 11.4752C16.8477 11.4639 16.8837 11.4393 16.8453 11.3929C16.7933 11.3303 16.7633 11.2572 16.7332 11.1841C16.7215 11.1558 16.7099 11.1275 16.6969 11.0999ZM10.1098 16.1956C10.0195 16.1839 9.97883 16.136 9.94417 16.0791C9.90611 16.0166 9.85896 15.9901 9.79077 16.0411C9.71853 16.0952 9.6473 16.0845 9.5759 16.033C9.55725 16.0196 9.53861 16.0061 9.51997 15.9925C9.41848 15.919 9.31687 15.8453 9.21117 15.7783C8.99966 15.6443 8.78621 15.5135 8.57275 15.3826C8.22455 15.1692 7.87633 14.9558 7.53653 14.7283C7.34743 14.6018 7.16439 14.6366 7.02008 14.8136C6.96956 14.8755 6.98034 14.925 7.02951 14.9797C7.03761 14.9888 7.04581 14.9977 7.05401 15.0067C7.09881 15.0559 7.14399 15.1054 7.17786 15.1617C7.40716 15.5421 7.63503 15.9234 7.8629 16.3047C7.9938 16.5238 8.12471 16.7428 8.25589 16.9617C8.30287 17.0401 8.30472 17.0973 8.20824 17.1383C8.14846 17.1638 8.14812 17.2148 8.18854 17.2643C8.19675 17.2744 8.20571 17.2839 8.21465 17.2934C8.22989 17.3097 8.2451 17.3259 8.25656 17.3446C8.3022 17.4192 8.35221 17.4209 8.42091 17.3728C8.56682 17.2708 8.71474 17.1717 8.86266 17.0726C8.89638 17.05 8.93011 17.0275 8.9638 17.0048C9.02998 16.9605 9.0714 16.9198 9.00287 16.8364C8.89173 16.701 8.86193 16.6832 8.77605 16.7707C8.6996 16.8487 8.64353 16.8357 8.58627 16.7572C8.58046 16.7492 8.57456 16.7412 8.56866 16.7332C8.53954 16.6939 8.51023 16.6542 8.48894 16.6107C8.43758 16.5056 8.45678 16.4114 8.55697 16.3555C8.64573 16.306 8.72602 16.2459 8.80641 16.1858C8.82866 16.1692 8.85092 16.1525 8.87338 16.1361C8.97374 16.0626 9.06972 16.0765 9.15981 16.1559C9.18369 16.1769 9.20626 16.1996 9.22882 16.2223C9.2395 16.233 9.25019 16.2438 9.26101 16.2543C9.31793 16.3096 9.33645 16.3628 9.26101 16.4198C9.1982 16.4674 9.18877 16.5193 9.25983 16.5704C9.28526 16.5888 9.3053 16.6112 9.31995 16.641C9.3442 16.6903 9.3841 16.694 9.42688 16.6648C9.57668 16.5622 9.72626 16.4593 9.88208 16.3522C9.95634 16.3011 10.032 16.2491 10.1098 16.1956ZM12.4944 13.4388C12.403 13.3536 12.2962 13.3014 12.1679 13.291C11.9716 13.3029 11.8202 13.4109 11.6868 13.5489C11.6399 13.5973 11.6557 13.6615 11.6803 13.7166C11.6894 13.737 11.6991 13.7569 11.7088 13.7768C11.7348 13.8301 11.7607 13.8833 11.7749 13.9439C11.7911 14.0135 11.8377 13.9884 11.8771 13.9671C11.8835 13.9636 11.8898 13.9603 11.8956 13.9574C12.0379 13.889 12.0851 13.9068 12.1487 14.0473C12.1753 14.1062 12.1666 14.1455 12.11 14.1738C12.0344 14.2114 11.9569 14.2451 11.8793 14.2787C11.736 14.3409 11.5927 14.4031 11.4612 14.4908C11.4274 14.5134 11.3917 14.5009 11.3696 14.4666C11.3675 14.4633 11.3654 14.46 11.3632 14.4567C11.3336 14.4105 11.3038 14.364 11.2809 14.3143C11.2556 14.2599 11.2709 14.207 11.3293 14.1895C11.4368 14.1575 11.422 14.0909 11.4011 14.0055C11.2542 13.4031 11.0426 12.8225 10.8247 12.2442C10.8085 12.2012 10.793 12.1579 10.7776 12.1145C10.7311 11.9837 10.6845 11.8528 10.6157 11.7311C10.578 11.6645 10.5972 11.6106 10.6635 11.5726C10.6884 11.5583 10.7124 11.5425 10.7365 11.5266C10.7516 11.5167 10.7667 11.5067 10.7821 11.4971C10.9111 11.4165 10.9848 11.4199 11.098 11.5212C11.4194 11.809 11.7214 12.1172 12.0235 12.4254C12.0759 12.4789 12.1283 12.5323 12.1807 12.5856C12.2463 12.6522 12.3119 12.7187 12.3775 12.7853C12.5545 12.9647 12.7315 13.1442 12.9073 13.3249C12.9597 13.3788 13.0203 13.4068 13.0852 13.3726C13.1756 13.3249 13.2106 13.3695 13.2448 13.4433C13.2773 13.5132 13.2938 13.5476 13.2849 13.5727C13.276 13.5975 13.2423 13.6131 13.1746 13.6449C13.1051 13.6776 13.0358 13.7106 12.9665 13.7437C12.8637 13.7926 12.7609 13.8417 12.6576 13.8895C12.6488 13.8936 12.6397 13.8993 12.6305 13.9051C12.5948 13.9277 12.5573 13.9514 12.5232 13.8847C12.5191 13.8765 12.5148 13.8684 12.5105 13.8603C12.4723 13.7885 12.435 13.7181 12.5062 13.637C12.5182 13.6235 12.5378 13.6153 12.5565 13.6074C12.5852 13.5954 12.6116 13.5844 12.6044 13.5564C12.5956 13.5226 12.5617 13.4949 12.5284 13.4678C12.5166 13.4582 12.5049 13.4486 12.4944 13.4388ZM12.7843 14.9591C12.8021 14.9689 12.8211 14.9793 12.8418 14.99C12.8634 14.7535 12.9452 14.5707 13.1577 14.4742C13.5639 14.2897 13.8845 14.6313 13.8966 14.9772C13.9045 15.2029 13.833 15.4035 13.7259 15.5945C13.6714 15.6918 13.6157 15.7883 13.56 15.8848C13.5236 15.9479 13.4872 16.0111 13.4511 16.0744C13.424 16.122 13.3889 16.1628 13.331 16.148C13.2023 16.1153 13.0714 16.0929 12.9405 16.0704C12.731 16.0345 12.5216 15.9985 12.3212 15.9206C12.1388 15.8497 12.0125 15.727 11.9583 15.5346C11.902 15.3354 11.9339 15.156 12.0967 15.02C12.2701 14.875 12.4658 14.8228 12.6832 14.9089C12.7165 14.9221 12.7481 14.9394 12.7843 14.9591ZM17.7812 13.8085C17.6301 13.8597 17.4764 13.8863 17.3018 13.8114C17.3616 13.9899 17.4989 14.0255 17.6353 14.0608C17.6601 14.0672 17.6849 14.0736 17.7091 14.0808C17.5977 14.1669 17.1831 14.2982 16.8593 14.3501C16.884 14.305 16.9147 14.2633 16.9453 14.2218C17.0203 14.12 17.0948 14.0188 17.0802 13.8691C17.0643 13.8873 17.0494 13.9049 17.035 13.9219C17.0051 13.9573 16.9774 13.99 16.9472 14.0199C16.8162 14.1491 16.6607 14.1757 16.4947 14.1094C16.2278 14.0031 16.0374 13.6088 16.201 13.3305C16.3128 13.1405 16.4171 12.9462 16.5215 12.7518C16.5696 12.6622 16.6177 12.5727 16.6665 12.4836C16.6687 12.4795 16.6709 12.4753 16.6731 12.471C16.6928 12.4331 16.7132 12.3939 16.769 12.4345C16.9272 12.5492 17.1023 12.6309 17.2774 12.7126C17.4055 12.7724 17.5337 12.8322 17.6553 12.905C17.9344 13.0721 18.0151 13.2415 17.9619 13.5667C17.9435 13.6783 17.8932 13.7707 17.7812 13.8085ZM10.6529 18.249C10.6296 18.2569 10.6051 18.2654 10.5787 18.2748C10.6949 18.3698 10.8058 18.3462 10.9241 18.3208C10.9666 18.3117 11.0101 18.3023 11.0552 18.2983C10.8122 18.5118 10.5676 18.6845 10.3023 18.8494C10.2941 18.7989 10.3049 18.7499 10.3156 18.7012C10.3316 18.6282 10.3475 18.5558 10.2991 18.4797C10.2822 18.5003 10.2657 18.5206 10.2496 18.5404C10.2129 18.5855 10.1777 18.6288 10.1414 18.6709C9.92464 18.9216 9.53296 18.8692 9.39168 18.5712C9.30496 18.3883 9.38916 18.2466 9.5109 18.1271C9.58668 18.0526 9.58382 18.0114 9.50821 17.9433C9.30075 17.7565 9.32146 17.4493 9.55536 17.2917C9.72257 17.1789 9.90679 17.176 10.0886 17.2611C10.154 17.2915 10.2023 17.3463 10.2245 17.4168C10.2567 17.5188 10.3104 17.5222 10.3901 17.4682C10.4985 17.3946 10.6192 17.3718 10.7464 17.4035C10.9208 17.4469 11.0564 17.6034 11.0672 17.7677C11.0783 17.9378 10.9525 18.1297 10.7794 18.2026C10.7396 18.2193 10.6988 18.2333 10.6529 18.249Z" fill="white"/>
<path d="M52.9642 30.192C51.8602 30.192 50.8922 30 50.0602 29.616C49.2282 29.216 48.5802 28.664 48.1162 27.96C47.6682 27.24 47.4442 26.416 47.4442 25.488V24.864C47.4442 24.784 47.4682 24.72 47.5162 24.672C47.5802 24.608 47.6522 24.576 47.7322 24.576H50.4922C50.5722 24.576 50.6362 24.608 50.6842 24.672C50.7482 24.72 50.7802 24.784 50.7802 24.864V25.32C50.7802 25.88 50.9882 26.352 51.4042 26.736C51.8202 27.104 52.3802 27.288 53.0842 27.288C53.7082 27.288 54.1802 27.128 54.5002 26.808C54.8362 26.488 55.0042 26.08 55.0042 25.584C55.0042 25.216 54.9002 24.904 54.6922 24.648C54.4842 24.376 54.1882 24.128 53.8042 23.904C53.4362 23.664 52.8602 23.344 52.0762 22.944C51.1162 22.464 50.3322 22.016 49.7242 21.6C49.1162 21.184 48.5962 20.648 48.1642 19.992C47.7322 19.336 47.5162 18.544 47.5162 17.616C47.5162 16.688 47.7322 15.88 48.1642 15.192C48.6122 14.488 49.2362 13.952 50.0362 13.584C50.8362 13.2 51.7482 13.008 52.7722 13.008C53.8442 13.008 54.7962 13.216 55.6282 13.632C56.4602 14.032 57.1082 14.6 57.5722 15.336C58.0362 16.072 58.2682 16.92 58.2682 17.88V18.36C58.2682 18.44 58.2362 18.512 58.1722 18.576C58.1242 18.624 58.0602 18.648 57.9802 18.648H55.2202C55.1402 18.648 55.0682 18.624 55.0042 18.576C54.9562 18.512 54.9322 18.44 54.9322 18.36V17.928C54.9322 17.352 54.7322 16.872 54.3322 16.488C53.9322 16.104 53.3882 15.912 52.7002 15.912C52.1242 15.912 51.6682 16.064 51.3322 16.368C51.0122 16.656 50.8522 17.064 50.8522 17.592C50.8522 17.96 50.9482 18.28 51.1402 18.552C51.3322 18.824 51.6282 19.088 52.0282 19.344C52.4282 19.584 53.0362 19.904 53.8522 20.304L54.3562 20.592C55.2842 21.104 56.0042 21.552 56.5162 21.936C57.0442 22.304 57.4842 22.776 57.8362 23.352C58.1882 23.928 58.3642 24.624 58.3642 25.44C58.3642 26.896 57.8682 28.056 56.8762 28.92C55.9002 29.768 54.5962 30.192 52.9642 30.192ZM67.2089 30.192C66.1209 30.192 65.1609 29.968 64.3289 29.52C63.4969 29.072 62.8489 28.448 62.3849 27.648C61.9369 26.832 61.7129 25.896 61.7129 24.84V13.488C61.7129 13.408 61.7369 13.344 61.7849 13.296C61.8489 13.232 61.9209 13.2 62.0009 13.2H64.8089C64.8889 13.2 64.9529 13.232 65.0009 13.296C65.0649 13.344 65.0969 13.408 65.0969 13.488V25.008C65.0969 25.696 65.2889 26.248 65.6729 26.664C66.0569 27.08 66.5689 27.288 67.2089 27.288C67.8489 27.288 68.3609 27.08 68.7449 26.664C69.1289 26.248 69.3209 25.696 69.3209 25.008V13.488C69.3209 13.408 69.3449 13.344 69.3929 13.296C69.4569 13.232 69.5289 13.2 69.6089 13.2H72.4169C72.4969 13.2 72.5609 13.232 72.6089 13.296C72.6729 13.344 72.7049 13.408 72.7049 13.488V24.84C72.7049 25.896 72.4729 26.832 72.0089 27.648C71.5609 28.448 70.9209 29.072 70.0889 29.52C69.2569 29.968 68.2969 30.192 67.2089 30.192ZM84.7477 13.488C84.7477 13.408 84.7717 13.344 84.8197 13.296C84.8837 13.232 84.9557 13.2 85.0357 13.2H87.8197C87.8997 13.2 87.9637 13.232 88.0117 13.296C88.0757 13.344 88.1077 13.408 88.1077 13.488V29.712C88.1077 29.792 88.0757 29.864 88.0117 29.928C87.9637 29.976 87.8997 30 87.8197 30H84.8917C84.7317 30 84.6197 29.928 84.5557 29.784L79.9717 20.016C79.9397 19.968 79.9077 19.944 79.8757 19.944C79.8437 19.944 79.8277 19.976 79.8277 20.04L79.8517 29.712C79.8517 29.792 79.8197 29.864 79.7557 29.928C79.7077 29.976 79.6437 30 79.5637 30H76.7797C76.6997 30 76.6277 29.976 76.5637 29.928C76.5157 29.864 76.4917 29.792 76.4917 29.712V13.488C76.4917 13.408 76.5157 13.344 76.5637 13.296C76.6277 13.232 76.6997 13.2 76.7797 13.2H79.6837C79.8437 13.2 79.9557 13.272 80.0197 13.416L84.6037 23.184C84.6357 23.232 84.6677 23.256 84.6997 23.256C84.7317 23.256 84.7477 23.224 84.7477 23.16V13.488ZM93.7199 30.096C93.1759 30.096 92.7199 29.92 92.3519 29.568C91.9999 29.2 91.8239 28.744 91.8239 28.2C91.8239 27.64 91.9999 27.184 92.3519 26.832C92.7039 26.48 93.1599 26.304 93.7199 26.304C94.2799 26.304 94.7359 26.48 95.0879 26.832C95.4399 27.184 95.6159 27.64 95.6159 28.2C95.6159 28.744 95.4319 29.2 95.0639 29.568C94.7119 29.92 94.2639 30.096 93.7199 30.096ZM101.903 30C101.743 30 101.639 29.92 101.591 29.76L97.823 13.512V13.416C97.823 13.272 97.911 13.2 98.087 13.2H101.039C101.231 13.2 101.335 13.288 101.351 13.464L103.175 22.68C103.191 22.728 103.215 22.752 103.247 22.752C103.279 22.752 103.303 22.728 103.319 22.68L105.071 13.464C105.087 13.288 105.191 13.2 105.383 13.2H108.047C108.223 13.2 108.327 13.288 108.359 13.464L110.279 22.68C110.295 22.728 110.319 22.752 110.351 22.752C110.383 22.752 110.407 22.728 110.423 22.68L112.151 13.464C112.167 13.288 112.271 13.2 112.463 13.2H115.295C115.503 13.2 115.583 13.304 115.535 13.512L112.031 29.736C111.999 29.912 111.895 30 111.719 30H109.007C108.831 30 108.727 29.912 108.695 29.736L106.751 20.088C106.735 20.04 106.711 20.016 106.679 20.016C106.647 20.016 106.623 20.04 106.607 20.088L104.855 29.736C104.839 29.912 104.735 30 104.543 30H101.903ZM119.092 30C119.012 30 118.94 29.976 118.876 29.928C118.828 29.864 118.804 29.792 118.804 29.712V13.488C118.804 13.408 118.828 13.344 118.876 13.296C118.94 13.232 119.012 13.2 119.092 13.2H121.9C121.98 13.2 122.044 13.232 122.092 13.296C122.156 13.344 122.188 13.408 122.188 13.488V29.712C122.188 29.792 122.156 29.864 122.092 29.928C122.044 29.976 121.98 30 121.9 30H119.092ZM134.406 13.488C134.406 13.408 134.43 13.344 134.478 13.296C134.542 13.232 134.614 13.2 134.694 13.2H137.478C137.558 13.2 137.622 13.232 137.67 13.296C137.734 13.344 137.766 13.408 137.766 13.488V29.712C137.766 29.792 137.734 29.864 137.67 29.928C137.622 29.976 137.558 30 137.478 30H134.55C134.39 30 134.278 29.928 134.214 29.784L129.63 20.016C129.598 19.968 129.566 19.944 129.534 19.944C129.502 19.944 129.486 19.976 129.486 20.04L129.51 29.712C129.51 29.792 129.478 29.864 129.414 29.928C129.366 29.976 129.302 30 129.222 30H126.438C126.358 30 126.286 29.976 126.222 29.928C126.174 29.864 126.15 29.792 126.15 29.712V13.488C126.15 13.408 126.174 13.344 126.222 13.296C126.286 13.232 126.358 13.2 126.438 13.2H129.342C129.502 13.2 129.614 13.272 129.678 13.416L134.262 23.184C134.294 23.232 134.326 23.256 134.358 23.256C134.39 23.256 134.406 23.224 134.406 23.16V13.488Z" fill="white"/>
</svg>
