<svg width="26" height="26" viewBox="0 0 26 26" fill="none" xmlns="http://www.w3.org/2000/svg">
<path d="M5.41325 8.67415L1.99148 12.0959C1.49112 12.5963 1.49112 13.4103 1.99148 13.9107L5.41322 17.3324C5.91358 17.8328 6.72762 17.8328 7.22798 17.3324L10.6497 13.9106C11.1501 13.4103 11.1501 12.5962 10.6498 12.0959L7.22801 8.67414C6.72757 8.17386 5.91361 8.17378 5.41325 8.67415ZM18.7765 8.67418L15.3547 12.0959C14.8544 12.5963 14.8544 13.4104 15.3547 13.9107L18.7765 17.3324C19.2768 17.8328 20.0909 17.8328 20.5912 17.3324L24.013 13.9107C24.5133 13.4103 24.5133 12.5962 24.013 12.0959L20.5912 8.67414C20.0909 8.17378 19.2769 8.17382 18.7765 8.67418Z" fill="#009349"/>
<path d="M8.67322 5.41422L12.095 1.99246C12.5953 1.4921 13.4094 1.4921 13.9097 1.99245L17.3315 5.41419C17.8318 5.91455 17.8318 6.7286 17.3315 7.22896L13.9097 10.6507C13.4094 11.1511 12.5953 11.1511 12.095 10.6507L8.67321 7.22899C8.17285 6.72863 8.17286 5.91459 8.67322 5.41422Z" fill="#009349"/>
<path d="M8.67322 18.967L12.095 15.5452C12.5953 15.0449 13.4094 15.0449 13.9097 15.5452L17.3315 18.967C17.8318 19.4673 17.8318 20.2814 17.3315 20.7817L13.9097 24.2035C13.4094 24.7039 12.5953 24.7039 12.095 24.2035L8.67321 20.7818C8.17285 20.2814 8.17286 19.4674 8.67322 18.967Z" fill="#009349"/>
</svg>
