<svg width="24" height="24" viewBox="0 0 24 24" fill="none" xmlns="http://www.w3.org/2000/svg">
<path d="M19.9523 6.29109L15.9315 5.33782C15.7959 5.30609 15.6663 5.40888 15.6663 5.54809V18.2801C15.6663 18.8939 15.117 19.088 14.5034 19.082H7.49032C7.40351 19.0812 7.33278 19.386 7.33301 19.4728C7.33379 19.8716 7.61836 20.2272 8.02439 20.3032L17.0198 21.9842C17.0722 21.9941 17.1247 21.9987 17.1763 21.9987C17.5833 21.9987 17.9332 21.708 18.0079 21.3073L20.6296 7.2791C20.7153 6.82023 20.4112 6.37701 19.9523 6.29109Z" fill="#009349"/>
<path d="M13.2337 16.7717L13.4535 15.5722H13.0137L13.2337 16.7717Z" fill="#009349"/>
<path d="M5.65833 5.10894H6.09829L5.87831 3.90953L5.65833 5.10894Z" fill="#009349"/>
<path d="M14.4377 2H4.88425C4.39669 2 4 2.39669 4 2.88425V17.7824C4 18.27 4.39669 18.6667 4.88425 18.6667H14.4377C14.9253 18.6667 15.322 18.27 15.322 17.7824V2.88425C15.322 2.39669 14.9253 2 14.4377 2ZM6.28056 6.00964L6.18421 5.50785H5.57243L5.4797 6.00964C5.47282 6.04043 5.45568 6.05769 5.42477 6.05769H5.057C5.01932 6.05769 5.00206 6.03693 5.01232 5.99926L5.58281 3.35618C5.5897 3.32189 5.61034 3.30812 5.64125 3.30812H6.11901C6.14992 3.30812 6.17057 3.32189 6.17733 3.35618L6.74794 5.99926C6.75482 6.03693 6.74106 6.05769 6.69988 6.05769H6.3355C6.30459 6.05769 6.28732 6.04043 6.28056 6.00964ZM12.0979 11.72C11.4234 12.1918 10.4327 11.9658 9.7547 11.233C9.8192 12.0951 10.1313 12.9277 10.6938 13.5879C10.912 13.844 11.1549 14.0631 11.4243 14.2416H7.89755C8.16699 14.0631 8.40983 13.844 8.62807 13.5879C9.19051 12.9277 9.50264 12.095 9.56714 11.233C8.88911 11.9658 7.89848 12.1918 7.22395 11.72C6.46952 11.1923 6.3972 10.2832 7.06252 9.33191C7.72784 8.38059 9.6608 6.67192 9.6608 6.19976C9.6608 6.67204 11.5938 8.38059 12.2591 9.33191C12.9244 10.2832 12.8524 11.1922 12.0979 11.72ZM14.1031 14.682L13.5325 17.3251C13.5256 17.3594 13.505 17.3731 13.474 17.3731H12.9964C12.9656 17.3731 12.9448 17.3594 12.9379 17.3251L12.3673 14.682C12.3572 14.6443 12.3742 14.6236 12.4122 14.6236H12.7799C12.8107 14.6236 12.8279 14.6408 12.8348 14.6716L12.9276 15.1734H13.5393L13.6356 14.6716C13.6425 14.6408 13.6597 14.6236 13.6905 14.6236H14.055C14.0962 14.6236 14.1099 14.6443 14.1031 14.682Z" fill="#009349"/>
</svg>
