<svg width="24" height="24" viewBox="0 0 24 24" fill="none" xmlns="http://www.w3.org/2000/svg">
<path d="M10.2221 1.00711C11.3073 1.12043 12.0865 1.90213 12.5946 2.77299C12.7357 3.01457 12.7972 3.49659 13.2373 3.36027C13.795 3.18713 13.3241 2.42154 13.1381 2.11496C12.9874 1.86704 12.8013 1.63984 12.6158 1.41666C13.1292 1.12733 13.8115 1.5202 14.2103 1.84749C15.178 2.64069 15.5566 3.59323 15.494 4.82301C15.4804 5.08645 15.2607 5.52418 15.6387 5.67489C16.3181 5.94581 16.1498 5.01685 16.4085 4.8512C16.5751 4.74421 16.9248 4.69934 17.0702 4.84314C17.4459 5.2153 17.0424 5.97629 16.8616 6.37031C16.6702 6.78848 16.4274 7.19055 16.2254 7.60469C15.0622 5.95731 13.3129 4.2156 11.0539 4.55554C10.0218 4.71085 9.28748 5.24809 8.37712 5.65878C7.96359 5.84515 7.51225 5.9901 7.09045 6.17474C6.7738 6.31336 6.01999 6.7695 5.74765 6.81264C5.31757 6.88051 4.84142 6.11549 4.72622 5.7744C4.4657 5.0042 4.56554 4.40024 5.19411 3.85552C6.25629 2.93462 7.86611 2.76378 9.16992 3.26076C9.43399 3.36142 10.0454 3.78247 10.2114 3.80375C10.5671 3.84977 10.7963 3.44137 10.57 3.14917C10.4903 3.04621 10.1205 2.84029 9.98576 2.76896C9.37255 2.4434 8.70263 2.26566 8.00671 2.21562C8.21703 1.57657 8.73276 1.18945 9.38023 1.00884C9.65021 1.02897 9.9574 0.98123 10.2221 1.00884V1.00711Z" fill="#009349"/>
<path d="M7.43067 9.13588C7.42949 9.11632 7.31665 9.0611 7.45253 9.07146C9.58163 10.9558 9.2508 14.4266 8.46155 16.866C7.92159 18.5364 7.16424 19.967 5.14797 20.1096C3.13171 20.2523 2.59707 17.6621 3.90915 16.6181C4.20748 16.3811 4.72676 16.3138 4.57494 15.8387C4.3853 15.2445 3.48439 15.9164 3.2221 16.143C3.51216 13.7611 6.42342 13.3142 7.43067 11.378C7.40468 10.6326 7.46612 9.88019 7.43067 9.13588Z" fill="#009349"/>
<path d="M19.5259 18.946L19.3061 18.6647C18.3231 18.1159 18.3166 19.1996 18.1305 19.8088C17.8257 20.8067 17.2834 21.738 16.5355 22.4823C16.5225 22.0837 16.6347 21.3451 16.2371 21.0915C15.6293 20.7038 15.3498 21.3474 15.0084 21.6862C14.765 21.9272 14.4489 22.1826 14.1618 22.3713C13.997 22.4794 13.509 22.7791 13.3448 22.8269C13.2621 22.851 13.2863 22.8136 13.2798 22.7642C13.2367 22.4461 13.3353 22.0089 13.011 21.7742C12.5 21.4044 11.9908 22.0066 11.5654 22.2591C10.9433 22.6284 10.196 22.9223 9.4694 23C9.68975 22.3799 9.67321 21.4435 8.74867 21.5879C8.54309 21.6201 7.31135 22.1033 7.25405 22.0515C7.4236 21.4274 7.41355 20.7791 7.34148 20.1418C8.17859 19.6397 8.62579 18.7038 8.9708 17.837C9.56865 16.334 9.83213 14.7378 9.89238 13.1278C10.8784 11.8554 12.5484 11.7703 13.4931 10.4226C14.9363 8.36453 13.6035 6.24721 11.2866 5.81581L10.1789 5.62254C11.0337 5.27512 11.8342 5.17331 12.7156 5.5029C14.4542 6.15288 15.0674 7.64496 16.1609 8.87647C16.5402 9.30384 17.0288 9.68578 17.4234 10.1062C18.4348 11.1836 19.3883 12.5549 19.7805 13.9785C20.2289 15.6069 19.9123 17.336 19.5259 18.946Z" fill="#009349"/>
<path d="M9.77897 12.0464C9.61474 10.4088 8.8946 9.09389 7.52463 8.13847C7.11464 7.8526 7.0792 7.89114 6.7212 7.4977C6.65798 7.4281 6.52624 7.41659 6.54456 7.30385C7.11937 7.10196 7.7184 6.68666 8.30739 6.53999C10.1701 6.07465 14.0803 6.71197 13.1351 9.38436C12.7334 10.5198 11.7438 10.8908 10.7401 11.4091L9.77897 12.0464ZM10.1228 6.92652C8.57855 7.11231 8.82312 9.44303 10.417 9.28198C12.0091 9.1215 11.7397 6.73153 10.1228 6.92652Z" fill="#009349"/>
<path d="M6.63318 9.57706V10.0631C5.73758 9.91701 4.20397 9.85488 3.37927 9.4672C3.25285 9.47927 3.12642 9.49135 3 9.50228C3.17487 8.45484 4.15494 7.89919 5.161 7.74676C5.91422 7.63172 6.30176 8.10051 6.49671 8.68319C6.593 8.97137 6.63318 9.27393 6.63318 9.57706Z" fill="#009349"/>
</svg>
