<svg width="25" height="24" viewBox="0 0 25 24" fill="none" xmlns="http://www.w3.org/2000/svg">
<path d="M10.7238 7.71689C9.19836 9.29316 7.92172 10.9901 6.93155 12.7524C6.87877 12.8429 6.82852 12.9309 6.78324 13.0189L2.90337 12.4877C2.67944 12.457 2.58731 12.1832 2.74713 12.0233L6.97196 7.79697C7.02323 7.74568 7.09277 7.71687 7.16528 7.71687L10.7238 7.71689Z" fill="#009349"/>
<path d="M16.9488 13.9441V17.5037C16.9488 17.5762 16.92 17.6458 16.8687 17.6971L12.6439 21.9235C12.484 22.0834 12.2103 21.9912 12.1797 21.7672L11.6487 17.8885C11.7367 17.8433 11.8246 17.7955 11.9101 17.7452L12.2946 17.5264V17.5214C13.9181 16.5661 15.4812 15.3644 16.9488 13.9441Z" fill="#009349"/>
<path d="M16.76 13.0774C16.8252 13.0123 16.8886 12.9489 16.9502 12.8837C20.1565 9.61121 22.1648 5.88444 22.6583 2.76792C22.7286 2.32394 22.3482 1.94338 21.9061 2.01193C18.7838 2.50223 15.0601 4.50961 11.7888 7.72039C11.7237 7.78212 11.6586 7.84727 11.5952 7.91069C9.92955 9.5735 8.58091 11.358 7.587 13.1306C7.51504 13.254 7.44821 13.3757 7.38311 13.4957L11.1788 17.2893C11.297 17.2259 11.4204 17.1608 11.542 17.0905L11.5403 17.0888C13.3105 16.0962 15.0944 14.7437 16.76 13.0774ZM14.2204 10.4512C13.4853 9.71578 13.4853 8.52265 14.2187 7.78897C14.9539 7.05698 16.1466 7.05698 16.8783 7.78897C17.6134 8.52436 17.6117 9.71576 16.8766 10.4512C16.1449 11.1831 14.9539 11.1849 14.2204 10.4512Z" fill="#009349"/>
<path d="M9.56626 17.4814C9.56626 18.7376 7.71942 20.136 6.46396 19.957C7.11629 19.522 7.47231 18.8668 7.58126 18.0279C6.36275 19.3602 4.71571 20.2293 2.81128 20.8202C5.7138 17.9166 3.96107 16.6426 6.98241 14.8966L9.56626 17.4814Z" fill="#009349"/>
</svg>
