<svg width="24" height="24" viewBox="0 0 24 24" fill="none" xmlns="http://www.w3.org/2000/svg">
<path d="M18.9907 4.74844C17.8704 3.61875 16.3751 3 14.7907 3C13.3329 3 11.9501 3.52969 10.8673 4.48594C8.51885 2.45625 4.97979 2.52656 2.76729 4.71094C1.63292 5.83125 1.00479 7.33125 1.0001 8.92969C0.990729 10.5281 1.61417 12.0281 2.73917 13.1578L9.68135 20.1187C10.0001 20.4375 10.422 20.6109 10.8673 20.6109C11.3126 20.6109 11.7345 20.4328 12.0485 20.1187L13.7407 18.4219L12.4564 17.1328C11.7064 16.3594 11.2985 15.3328 11.3032 14.2359C11.3079 13.1391 11.7251 12.1125 12.4751 11.3438C13.9423 9.84844 16.1876 9.55312 17.7439 10.9453C18.4657 10.2891 19.3564 10.0594 20.3267 10.0594C20.4251 10.0594 20.5235 10.0641 20.622 10.0687C20.9782 8.20312 20.4345 6.19219 18.9907 4.74844ZM6.92042 7.24219C6.47042 7.24219 6.05323 7.41094 5.74385 7.72031C5.41104 8.04375 5.22823 8.47969 5.22823 8.94844C5.22823 9.3375 4.90948 9.65156 4.5251 9.65156C4.13135 9.64219 3.82198 9.33281 3.82198 8.93906C3.82198 8.1 4.15948 7.3125 4.75948 6.71719C5.33135 6.14531 6.1001 5.83125 6.92042 5.83125C7.30948 5.83125 7.62354 6.15 7.62354 6.53438C7.62354 6.93281 7.30479 7.24219 6.92042 7.24219Z" fill="#009349"/>
<path d="M21.986 12.175C21.4 11.5891 20.6219 11.2656 19.7969 11.2656C19.0375 11.2656 18.3157 11.5422 17.7485 12.0391C16.525 10.9797 14.6782 11.0172 13.5251 12.1562C12.9344 12.7422 12.6063 13.525 12.6016 14.3594C12.5969 15.1938 12.9204 15.9766 13.511 16.5672L17.1344 20.2C17.2985 20.3641 17.5188 20.4578 17.7532 20.4578C17.9829 20.4578 18.2032 20.3641 18.3719 20.2L21.9954 16.5672C23.1954 15.3578 23.1954 13.3844 21.986 12.175Z" fill="#009349"/>
</svg>
