<svg width="25" height="24" viewBox="0 0 25 24" fill="none" xmlns="http://www.w3.org/2000/svg">
<path d="M21.2055 7C21.2777 5.71234 21.7753 4.46955 22.631 3.55476C22.8748 3.29416 22.9481 2.90283 22.8158 2.56213C22.6843 2.2215 22.3731 2 22.0286 2H19.326C18.1289 2 16.9041 2.37743 15.8809 3.02329C17.9251 3.8861 20.3809 5 21.2055 7Z" fill="#009349"/>
<path d="M7.92773 8.48129C8.23541 8.48129 8.48437 8.73183 8.48437 9.04146C8.48437 9.35108 8.23541 9.60162 7.92773 9.60162H4.90766C6.22504 10.9797 8.10857 11.8423 10.1543 11.8423H11.0871C11.7139 13.1661 13.056 14.1203 14.6074 14.1203C14.9151 14.1203 15.1641 13.8698 15.1641 13.5601V12.142C15.8359 12.5343 16.2773 13.3052 16.2773 14.1203C16.2773 15.3561 15.2788 16.361 14.0508 16.361H13.661C13.0201 15.006 11.6573 14.1203 10.1543 14.1203C9.94882 14.1203 9.7602 14.2341 9.66341 14.4162C9.56663 14.5984 9.57754 14.8194 9.69113 14.9912C10.9186 16.844 10.9186 19.2763 9.69113 21.1291C9.57751 21.3009 9.56667 21.5219 9.66341 21.704C9.76016 21.8862 9.94878 22 10.1543 22C11.6573 22 13.0201 21.1143 13.661 19.7593H14.0508C18.3479 19.7593 21.8809 16.1667 21.8809 11.8423C21.8809 7.51799 18.3479 4 14.0508 4H3.4375C3.12983 4 2.88086 4.25054 2.88086 4.56017C2.88086 6.0042 3.30587 7.348 4.02928 8.48133L7.92773 8.48129ZM11.9873 7.19683C11.7699 6.97803 11.7699 6.62352 11.9873 6.40472C12.2047 6.18592 12.557 6.18592 12.7744 6.40472C13.6056 7.2406 13.6056 8.60161 12.7744 9.43749C12.557 9.65629 12.2047 9.65629 11.9873 9.43749C11.7699 9.21869 11.7699 8.86418 11.9873 8.64538C12.3841 8.24606 12.3841 7.59615 11.9873 7.19683ZM9.76075 7.19683C9.54333 6.97803 9.54333 6.62352 9.76075 6.40472C9.97818 6.18592 10.3305 6.18592 10.5479 6.40472C11.379 7.2406 11.379 8.60161 10.5479 9.43749C10.3305 9.65629 9.97818 9.65629 9.76075 9.43749C9.54333 9.21869 9.54333 8.86418 9.76075 8.64538C10.1576 8.24606 10.1576 7.59615 9.76075 7.19683ZM7.92773 6.24063C8.23515 6.24063 8.48437 6.49143 8.48437 6.80079C8.48437 7.11015 8.23515 7.36096 7.92773 7.36096C7.62032 7.36096 7.37109 7.11015 7.37109 6.80079C7.37109 6.49143 7.62032 6.24063 7.92773 6.24063Z" fill="#009349"/>
</svg>
