<svg width="24" height="24" viewBox="0 0 24 24" fill="none" xmlns="http://www.w3.org/2000/svg">
<path d="M11.3302 6.48388C10.4209 6.4208 9.74707 5.76364 8.90345 5.43244C3.46371 3.31903 1.19578 9.838 0.921875 13.7757V15.3423C0.9657 16.1677 1.141 17.6765 1.67785 18.3442C3.44727 20.5365 6.35066 16.6303 7.53393 15.5263C7.77496 15.3633 8.07078 15.2424 8.3666 15.2161C9.52247 15.2792 10.7277 15.2372 11.9219 15.2056V6.50491C11.7137 6.50491 11.511 6.50491 11.3302 6.48388ZM9.29239 11.2206H7.74757V12.6033C7.29837 12.9135 6.70674 12.903 6.24658 12.6243V11.2206H4.78393C4.55385 10.7475 4.48263 10.1955 4.80584 9.73811H6.2904V8.29763C6.76699 8.10837 7.38054 8.10837 7.83522 8.36072V9.73811H9.22666C9.62656 10.2113 9.53343 10.7054 9.29239 11.2206Z" fill="#009349"/>
<path d="M22.9044 13.9177C22.7182 9.67515 20.0558 2.82498 14.3586 5.67965C14.008 5.8584 13.6629 6.14229 13.3123 6.28423C12.9233 6.44721 12.4084 6.49978 11.9208 6.50504V15.2058C13.1041 15.169 14.2819 15.1374 15.4104 15.2163C15.7281 15.2373 16.002 15.3424 16.265 15.5054C17.2401 16.3886 18.9821 18.6387 20.2914 18.9384C22.9592 19.5535 22.9702 15.5002 22.9044 13.9177ZM15.9746 12.7822C14.6982 12.635 14.6818 10.7371 15.9363 10.5321C17.7495 10.2324 17.881 13.003 15.9746 12.7822ZM15.3173 9.3124C14.2052 8.18209 16.0294 6.59967 17.0812 7.76151C18.0892 8.87079 16.3581 10.3638 15.3173 9.3124ZM20.0065 11C18.9602 12.0619 17.2401 10.5531 18.2426 9.44909C19.2944 8.29249 21.124 9.87492 20.0065 11Z" fill="#009349"/>
</svg>
