<svg width="25" height="24" viewBox="0 0 25 24" fill="none" xmlns="http://www.w3.org/2000/svg">
<path d="M3.88623 19.1059V19.6875C3.88634 19.9361 3.98514 20.1745 4.16093 20.3503C4.33673 20.5261 4.57512 20.6249 4.82373 20.625H17.5737C17.8223 20.6249 18.0607 20.5261 18.2365 20.3503C18.4123 20.1745 18.5111 19.9361 18.5112 19.6875V19.1059C18.8223 19.0602 19.1068 18.9047 19.3132 18.6674C19.5195 18.4302 19.6341 18.1269 19.6362 17.8125V13.875H20.9487C21.2967 13.8746 21.6303 13.7362 21.8763 13.4901C22.1224 13.2441 22.2608 12.9105 22.2612 12.5625V8.70126C22.5839 8.57072 22.8512 8.33201 23.0172 8.02604C23.1832 7.72007 23.2376 7.36589 23.1711 7.0242C23.1046 6.6825 22.9214 6.37458 22.6527 6.15318C22.3841 5.93179 22.0468 5.81072 21.6987 5.81072C21.3506 5.81072 21.0134 5.93179 20.7447 6.15318C20.4761 6.37458 20.2928 6.6825 20.2264 7.0242C20.1599 7.36589 20.2143 7.72007 20.3803 8.02604C20.5463 8.33201 20.8135 8.57072 21.1362 8.70126V12.5625C21.1361 12.6122 21.1164 12.6598 21.0812 12.695C21.0461 12.7301 20.9984 12.7499 20.9487 12.75H19.6362V7.3125C19.6346 6.96492 19.4958 6.63204 19.25 6.38626C19.0042 6.14048 18.6713 6.00166 18.3237 6H17.6988L17.3697 5.01288C17.32 4.86354 17.2244 4.73365 17.0967 4.6416C16.969 4.54955 16.8156 4.50001 16.6582 4.5H15.6687L15.1326 3.4172C15.0706 3.29193 14.9747 3.1865 14.856 3.11278C14.7372 3.03906 14.6002 3 14.4604 3H7.93707C7.79728 3.00001 7.66028 3.03907 7.54151 3.11279C7.42274 3.1865 7.32693 3.29194 7.26489 3.4172L6.72873 4.5H5.5968C5.42953 4.49999 5.26706 4.55589 5.13521 4.65883C5.00337 4.76176 4.90971 4.90581 4.86914 5.06809L4.63623 6H4.07373C3.72615 6.00166 3.39327 6.14048 3.14749 6.38626C2.90171 6.63204 2.76289 6.96492 2.76123 7.3125V17.8125C2.76333 18.1269 2.87794 18.4302 3.0843 18.6674C3.29065 18.9047 3.57513 19.0602 3.88623 19.1059ZM17.9487 15.5625H12.3237V9.5625H17.9487V15.5625ZM4.44873 9.5625H10.0737V15.5625H4.44873V9.5625Z" fill="#009349"/>
<path d="M3.88623 19.1059V19.6875C3.88634 19.9361 3.98514 20.1745 4.16093 20.3503C4.33673 20.5261 4.57512 20.6249 4.82373 20.625H17.5737C17.8223 20.6249 18.0607 20.5261 18.2365 20.3503C18.4123 20.1745 18.5111 19.9361 18.5112 19.6875V19.1059C18.8223 19.0602 19.1068 18.9047 19.3132 18.6674C19.5195 18.4302 19.6341 18.1269 19.6362 17.8125V13.875H20.9487C21.2967 13.8746 21.6303 13.7362 21.8763 13.4901C22.1224 13.2441 22.2608 12.9105 22.2612 12.5625V8.70126C22.5839 8.57072 22.8512 8.33201 23.0172 8.02604C23.1832 7.72007 23.2376 7.36589 23.1711 7.0242C23.1046 6.6825 22.9214 6.37458 22.6527 6.15318C22.3841 5.93179 22.0468 5.81072 21.6987 5.81072C21.3506 5.81072 21.0134 5.93179 20.7447 6.15318C20.4761 6.37458 20.2928 6.6825 20.2264 7.0242C20.1599 7.36589 20.2143 7.72007 20.3803 8.02604C20.5463 8.33201 20.8135 8.57072 21.1362 8.70126V12.5625C21.1361 12.6122 21.1164 12.6598 21.0812 12.695C21.0461 12.7301 20.9984 12.7499 20.9487 12.75H19.6362V7.3125C19.6346 6.96492 19.4958 6.63204 19.25 6.38626C19.0042 6.14048 18.6713 6.00166 18.3237 6H17.6988L17.3697 5.01288C17.32 4.86354 17.2244 4.73365 17.0967 4.6416C16.969 4.54955 16.8156 4.50001 16.6582 4.5H15.6687L15.1326 3.4172C15.0706 3.29193 14.9747 3.1865 14.856 3.11278C14.7372 3.03906 14.6002 3 14.4604 3H7.93707C7.79728 3.00001 7.66028 3.03907 7.54151 3.11279C7.42274 3.1865 7.32693 3.29194 7.26489 3.4172L6.72873 4.5H5.5968C5.42953 4.49999 5.26706 4.55589 5.13521 4.65883C5.00337 4.76176 4.90971 4.90581 4.86914 5.06809L4.63623 6H4.07373C3.72615 6.00166 3.39327 6.14048 3.14749 6.38626C2.90171 6.63204 2.76289 6.96492 2.76123 7.3125V17.8125C2.76333 18.1269 2.87794 18.4302 3.0843 18.6674C3.29065 18.9047 3.57513 19.0602 3.88623 19.1059ZM17.9487 15.5625H12.3237V9.5625H17.9487V15.5625ZM4.44873 9.5625H10.0737V15.5625H4.44873V9.5625Z" fill="#009349"/>
<path d="M9.01252 11.7356H8.22718C8.16635 11.7357 8.10685 11.7178 8.05607 11.6843C8.00529 11.6508 7.96547 11.6032 7.94154 11.5472L7.56195 10.6612C7.53801 10.6052 7.49817 10.5575 7.44737 10.524C7.39657 10.4905 7.33706 10.4727 7.2762 10.4727C7.21535 10.4727 7.15583 10.4905 7.10504 10.524C7.05424 10.5575 7.0144 10.6052 6.99045 10.6612L6.61088 11.5472C6.58693 11.6032 6.54707 11.6509 6.49626 11.6844C6.44544 11.7179 6.38591 11.7357 6.32505 11.7356H5.53992C5.47843 11.7357 5.41832 11.7539 5.36719 11.7881C5.31606 11.8223 5.27622 11.8708 5.25268 11.9277C5.22915 11.9845 5.22298 12.047 5.23497 12.1073C5.24695 12.1676 5.27655 12.223 5.32002 12.2666L5.90833 12.8551C5.94629 12.8931 5.97378 12.9403 5.98812 12.992C6.00246 13.0437 6.00317 13.0983 5.99018 13.1504L5.71204 14.2629C5.69728 14.322 5.7002 14.3841 5.72045 14.4416C5.7407 14.4991 5.77739 14.5493 5.82596 14.5861C5.87452 14.6229 5.93283 14.6446 5.99363 14.6486C6.05444 14.6525 6.11506 14.6385 6.16797 14.6083L7.12198 14.0629C7.16893 14.0361 7.22207 14.022 7.27616 14.022C7.33024 14.022 7.38339 14.0361 7.43034 14.0629L8.38449 14.6083C8.4374 14.6386 8.49801 14.6526 8.55881 14.6486C8.61961 14.6447 8.67792 14.623 8.72647 14.5862C8.77503 14.5493 8.8117 14.4991 8.83193 14.4416C8.85215 14.3841 8.85505 14.322 8.84025 14.2629L8.56229 13.1504C8.54931 13.0984 8.55001 13.0438 8.56432 12.9921C8.57862 12.9403 8.60606 12.8932 8.64396 12.8552L9.23246 12.2666C9.27594 12.2231 9.30555 12.1677 9.31754 12.1073C9.32953 12.047 9.32337 11.9845 9.29983 11.9277C9.27629 11.8708 9.23643 11.8223 9.18529 11.7881C9.13415 11.7539 9.07403 11.7357 9.01252 11.7356Z" fill="#009349"/>
<path d="M13.754 12.8551C13.792 12.8931 13.8194 12.9403 13.8337 12.992C13.848 13.0438 13.8487 13.0983 13.8357 13.1504L13.5577 14.2629C13.5429 14.322 13.5458 14.3841 13.566 14.4416C13.5863 14.4991 13.6229 14.5493 13.6715 14.5861C13.7201 14.6229 13.7784 14.6446 13.8392 14.6486C13.9 14.6525 13.9606 14.6385 14.0135 14.6083L14.9677 14.0629C15.0146 14.0361 15.0677 14.022 15.1218 14.022C15.1759 14.022 15.2291 14.0361 15.276 14.0629L16.23 14.6083C16.2829 14.6385 16.3435 14.6525 16.4043 14.6486C16.4652 14.6447 16.5235 14.6229 16.572 14.5861C16.6206 14.5493 16.6573 14.4991 16.6775 14.4416C16.6978 14.3842 16.7007 14.322 16.6859 14.2629L16.408 13.1504C16.3949 13.0984 16.3956 13.0438 16.4099 12.992C16.4242 12.9403 16.4517 12.8931 16.4897 12.8552L17.078 12.2666C17.1214 12.2231 17.151 12.1677 17.163 12.1074C17.175 12.047 17.1688 11.9845 17.1453 11.9277C17.1218 11.8709 17.0819 11.8223 17.0308 11.7881C16.9797 11.754 16.9196 11.7357 16.8581 11.7357H16.0729C16.012 11.7357 15.9525 11.7179 15.9017 11.6844C15.8509 11.6509 15.811 11.6032 15.7871 11.5473L15.4075 10.6612C15.3835 10.6053 15.3437 10.5576 15.2929 10.5241C15.2422 10.4906 15.1827 10.4727 15.1218 10.4727C15.061 10.4727 15.0015 10.4906 14.9507 10.5241C14.8999 10.5576 14.8601 10.6053 14.8362 10.6612L14.4564 11.5473C14.4325 11.6032 14.3927 11.6509 14.3419 11.6844C14.2911 11.7179 14.2316 11.7357 14.1708 11.7357H13.3854C13.3239 11.7357 13.2638 11.754 13.2127 11.7882C13.1616 11.8223 13.1218 11.8709 13.0982 11.9277C13.0747 11.9846 13.0686 12.0471 13.0806 12.1074C13.0926 12.1677 13.1222 12.2231 13.1657 12.2666L13.754 12.8551Z" fill="#009349"/>
<path d="M9.01252 11.7356H8.22718C8.16635 11.7357 8.10685 11.7178 8.05607 11.6843C8.00529 11.6508 7.96547 11.6032 7.94154 11.5472L7.56195 10.6612C7.53801 10.6052 7.49817 10.5575 7.44737 10.524C7.39657 10.4905 7.33706 10.4727 7.2762 10.4727C7.21535 10.4727 7.15583 10.4905 7.10504 10.524C7.05424 10.5575 7.0144 10.6052 6.99045 10.6612L6.61088 11.5472C6.58693 11.6032 6.54707 11.6509 6.49626 11.6844C6.44544 11.7179 6.38591 11.7357 6.32505 11.7356H5.53992C5.47843 11.7357 5.41832 11.7539 5.36719 11.7881C5.31606 11.8223 5.27622 11.8708 5.25268 11.9277C5.22915 11.9845 5.22298 12.047 5.23497 12.1073C5.24695 12.1676 5.27655 12.223 5.32002 12.2666L5.90833 12.8551C5.94629 12.8931 5.97378 12.9403 5.98812 12.992C6.00246 13.0437 6.00317 13.0983 5.99018 13.1504L5.71204 14.2629C5.69728 14.322 5.7002 14.3841 5.72045 14.4416C5.7407 14.4991 5.77739 14.5493 5.82596 14.5861C5.87452 14.6229 5.93283 14.6446 5.99363 14.6486C6.05444 14.6525 6.11506 14.6385 6.16797 14.6083L7.12198 14.0629C7.16893 14.0361 7.22207 14.022 7.27616 14.022C7.33024 14.022 7.38339 14.0361 7.43034 14.0629L8.38449 14.6083C8.4374 14.6386 8.49801 14.6526 8.55881 14.6486C8.61961 14.6447 8.67792 14.623 8.72647 14.5862C8.77503 14.5493 8.8117 14.4991 8.83193 14.4416C8.85215 14.3841 8.85505 14.322 8.84025 14.2629L8.56229 13.1504C8.54931 13.0984 8.55001 13.0438 8.56432 12.9921C8.57862 12.9403 8.60606 12.8932 8.64396 12.8552L9.23246 12.2666C9.27594 12.2231 9.30555 12.1677 9.31754 12.1073C9.32953 12.047 9.32337 11.9845 9.29983 11.9277C9.27629 11.8708 9.23643 11.8223 9.18529 11.7881C9.13415 11.7539 9.07403 11.7357 9.01252 11.7356Z" fill="#009349"/>
<path d="M13.754 12.8551C13.792 12.8931 13.8194 12.9403 13.8337 12.992C13.848 13.0438 13.8487 13.0983 13.8357 13.1504L13.5577 14.2629C13.5429 14.322 13.5458 14.3841 13.566 14.4416C13.5863 14.4991 13.6229 14.5493 13.6715 14.5861C13.7201 14.6229 13.7784 14.6446 13.8392 14.6486C13.9 14.6525 13.9606 14.6385 14.0135 14.6083L14.9677 14.0629C15.0146 14.0361 15.0677 14.022 15.1218 14.022C15.1759 14.022 15.2291 14.0361 15.276 14.0629L16.23 14.6083C16.2829 14.6385 16.3435 14.6525 16.4043 14.6486C16.4652 14.6447 16.5235 14.6229 16.572 14.5861C16.6206 14.5493 16.6573 14.4991 16.6775 14.4416C16.6978 14.3842 16.7007 14.322 16.6859 14.2629L16.408 13.1504C16.3949 13.0984 16.3956 13.0438 16.4099 12.992C16.4242 12.9403 16.4517 12.8931 16.4897 12.8552L17.078 12.2666C17.1214 12.2231 17.151 12.1677 17.163 12.1074C17.175 12.047 17.1688 11.9845 17.1453 11.9277C17.1218 11.8709 17.0819 11.8223 17.0308 11.7881C16.9797 11.754 16.9196 11.7357 16.8581 11.7357H16.0729C16.012 11.7357 15.9525 11.7179 15.9017 11.6844C15.8509 11.6509 15.811 11.6032 15.7871 11.5473L15.4075 10.6612C15.3835 10.6053 15.3437 10.5576 15.2929 10.5241C15.2422 10.4906 15.1827 10.4727 15.1218 10.4727C15.061 10.4727 15.0015 10.4906 14.9507 10.5241C14.8999 10.5576 14.8601 10.6053 14.8362 10.6612L14.4564 11.5473C14.4325 11.6032 14.3927 11.6509 14.3419 11.6844C14.2911 11.7179 14.2316 11.7357 14.1708 11.7357H13.3854C13.3239 11.7357 13.2638 11.754 13.2127 11.7882C13.1616 11.8223 13.1218 11.8709 13.0982 11.9277C13.0747 11.9846 13.0686 12.0471 13.0806 12.1074C13.0926 12.1677 13.1222 12.2231 13.1657 12.2666L13.754 12.8551Z" fill="#009349"/>
</svg>
