<svg width="24" height="24" viewBox="0 0 24 24" fill="none" xmlns="http://www.w3.org/2000/svg">
<path fill-rule="evenodd" clip-rule="evenodd" d="M21 12C21 16.9706 16.9706 21 12 21C7.02944 21 3 16.9706 3 12C3 7.02944 7.02944 3 12 3C16.9706 3 21 7.02944 21 12ZM17.7857 12C17.7857 15.1954 15.1954 17.7857 12 17.7857C8.80464 17.7857 6.21429 15.1954 6.21429 12C6.21429 8.80464 8.80464 6.21429 12 6.21429C15.1954 6.21429 17.7857 8.80464 17.7857 12Z" fill="#009349"/>
<path fill-rule="evenodd" clip-rule="evenodd" d="M10.5811 15.3399C10.9838 15.5122 11.4536 15.5984 11.9906 15.5984C12.5336 15.5984 13.0065 15.5122 13.4092 15.3399C13.818 15.1609 14.1353 14.9122 14.3611 14.594C14.5868 14.2692 14.6997 13.8913 14.6997 13.4603C14.6997 13.0294 14.5868 12.6647 14.3611 12.3664C14.1999 12.1426 13.9878 11.9599 13.7248 11.8182C13.8983 11.7016 14.0433 11.5627 14.1597 11.4018C14.3672 11.1167 14.4709 10.7785 14.4709 10.3874C14.4709 9.97634 14.3641 9.62496 14.1506 9.33324C13.9431 9.0349 13.6533 8.80617 13.2811 8.64706C12.915 8.48131 12.4848 8.39844 11.9906 8.39844C11.5085 8.39844 11.0814 8.48131 10.7092 8.64706C10.337 8.80617 10.0472 9.0349 9.83971 9.33324C9.63226 9.62496 9.52853 9.97634 9.52853 10.3874C9.52853 10.7785 9.6292 11.1167 9.83056 11.4018C9.95041 11.5626 10.0967 11.7014 10.2695 11.818C10.0084 11.9597 9.79496 12.1425 9.6292 12.3664C9.40954 12.6647 9.29971 13.0294 9.29971 13.4603C9.29971 13.8913 9.41259 14.2692 9.63836 14.594C9.86412 14.9122 10.1784 15.1609 10.5811 15.3399ZM12.8692 14.1465C12.6556 14.3255 12.3628 14.415 11.9906 14.415C11.6245 14.415 11.3346 14.3255 11.1211 14.1465C10.9075 13.9675 10.8007 13.7222 10.8007 13.4106C10.8007 13.099 10.9075 12.857 11.1211 12.6846C11.3346 12.5056 11.6245 12.4161 11.9906 12.4161C12.3628 12.4161 12.6556 12.5056 12.8692 12.6846C13.0889 12.857 13.1987 13.099 13.1987 13.4106C13.1987 13.7222 13.0889 13.9675 12.8692 14.1465ZM12.7228 11.0835C12.5458 11.236 12.3017 11.3123 11.9906 11.3123C11.6855 11.3123 11.4445 11.236 11.2675 11.0835C11.0906 10.931 11.0021 10.7222 11.0021 10.457C11.0021 10.1785 11.0936 9.96308 11.2767 9.81059C11.4597 9.65811 11.6977 9.58186 11.9906 9.58186C12.2895 9.58186 12.5306 9.65811 12.7136 9.81059C12.9028 9.96308 12.9973 10.1785 12.9973 10.457C12.9973 10.7222 12.9058 10.931 12.7228 11.0835Z" fill="#009349"/>
</svg>
