<svg width="25" height="24" viewBox="0 0 25 24" fill="none" xmlns="http://www.w3.org/2000/svg">
<path fill-rule="evenodd" clip-rule="evenodd" d="M18.7737 11.6586C18.6314 11.5608 18.4891 11.5119 18.2995 11.5119C18.1335 11.5119 17.9675 11.5608 17.8253 11.6586C17.683 11.7565 17.5882 11.8787 17.517 12.0744C17.4696 12.1967 17.4222 12.3434 17.3985 12.4902H19.1767C19.153 12.3434 19.1293 12.1967 19.0819 12.0499C19.0345 11.8787 18.9159 11.7565 18.7737 11.6586Z" fill="#009349"/>
<path fill-rule="evenodd" clip-rule="evenodd" d="M19.6746 8.60156H9.90616C8.8155 8.60156 7.93823 9.482 7.93823 10.5581V13.4929C7.93823 14.569 8.8155 15.4494 9.90616 15.4494H19.6983C20.789 15.4494 21.6663 14.569 21.6663 13.4929V10.5581C21.6426 9.45754 20.7653 8.60156 19.6746 8.60156ZM12.3957 14.4222H9.90616V9.94667H10.4278V13.8597H12.3957V14.4222ZM13.4152 14.4222H12.9173V11.0228H13.4152V14.4222ZM13.4152 10.2646C13.3441 10.338 13.273 10.3869 13.1781 10.3869C13.0833 10.3869 12.9884 10.338 12.941 10.2646C12.8699 10.1912 12.8462 10.0934 12.8462 9.97113C12.8462 9.84885 12.8699 9.75102 12.941 9.67765C13.0121 9.60428 13.0833 9.55537 13.1781 9.55537C13.273 9.55537 13.3441 9.60428 13.4152 9.67765C13.4864 9.75102 13.5101 9.84885 13.5101 9.94667C13.5101 10.069 13.4626 10.1668 13.4152 10.2646ZM15.5965 14.4222H15.0986L13.8894 11.0228H14.411L15.3594 13.7374L16.3315 11.0228H16.8294L15.5965 14.4222ZM19.6746 12.8325C19.6746 12.857 19.6746 12.9059 19.6746 12.9304H17.4459C17.4696 13.0771 17.4933 13.2238 17.5644 13.3706C17.6593 13.5418 17.7778 13.6885 17.9201 13.7863C18.0624 13.8842 18.252 13.9331 18.4417 13.9331C18.6077 13.9331 18.7499 13.9086 18.8922 13.8353C19.0345 13.7619 19.153 13.6641 19.2479 13.5173L19.5324 13.9086C19.4138 14.0798 19.2479 14.2266 19.0582 14.3244C18.8685 14.4222 18.6788 14.4711 18.4417 14.4711C18.1572 14.4711 17.8964 14.3978 17.6593 14.251C17.4459 14.1043 17.2562 13.9086 17.1377 13.6396C17.0191 13.3706 16.948 13.0771 16.948 12.7347C16.948 12.3923 16.9954 12.0988 17.114 11.8298C17.2325 11.5608 17.3985 11.3651 17.6119 11.2184C17.8253 11.0717 18.0624 10.9983 18.3232 10.9983C18.584 10.9983 18.8211 11.0717 19.0345 11.2184C19.2479 11.3651 19.3901 11.5608 19.5087 11.8298C19.6272 12.0988 19.6746 12.3923 19.6746 12.7347C19.6746 12.7592 19.6746 12.8081 19.6746 12.8325Z" fill="#009349"/>
<path d="M9.5747 7.73684H17.8257V4.76087C17.802 3.78261 17.0907 3 16.1898 3C12.8941 3 9.5747 3 6.27902 3C5.80482 3 5.42547 3.19565 5.09353 3.58696C4.76159 3.9538 4.66675 4.41848 4.66675 4.90761V19.019C4.66675 19.1902 4.66675 19.3614 4.69046 19.5326C4.88014 20.413 5.49659 21 6.35015 21C9.62212 21 12.8941 21 16.1423 21C16.4743 21 16.8062 20.9266 17.0907 20.7065C17.5886 20.3397 17.8495 19.8016 17.8495 19.1168V16.2632H9.5747C8.22323 16.2632 7.13258 15.0082 7.13258 13.6141V10.4103C7.13258 9.0163 8.22323 7.73684 9.5747 7.73684ZM15.4073 18.3832C15.4785 18.3098 15.5733 18.2364 15.6444 18.163C15.7156 18.1141 15.7867 18.0408 15.8341 17.9674C15.8578 17.9429 15.8578 17.9185 15.8815 17.894C15.929 17.7962 16.0712 17.7962 16.1423 17.894C16.1898 17.9918 16.2846 18.0652 16.3557 18.1386C16.4269 18.212 16.498 18.2853 16.5691 18.3342C16.664 18.4076 16.7351 18.5054 16.7588 18.6277C16.8062 18.8478 16.7351 19.1902 16.4269 19.288C16.332 19.3125 16.2609 19.3125 16.1898 19.288C16.1898 19.288 16.1898 19.288 16.166 19.288C16.2135 19.4348 16.2609 19.5815 16.332 19.7038H15.7156C15.763 19.5571 15.8104 19.4348 15.8578 19.288H15.8341C15.6919 19.3125 15.5496 19.288 15.431 19.1902C15.3125 19.0924 15.2651 18.9946 15.2414 18.8478C15.2177 18.7011 15.2888 18.5299 15.4073 18.3832ZM6.4687 6.49728C6.51612 6.35054 6.58725 6.17935 6.65838 6.00815C6.63467 6.00815 6.63467 6.00815 6.61096 6.00815C6.44499 6.00815 6.27902 6.00815 6.13676 5.88587C6.01821 5.78804 5.94708 5.66576 5.92337 5.49457C5.87595 5.25 5.97079 5.05435 6.11305 4.90761C6.20789 4.80978 6.30273 4.73641 6.39757 4.66304C6.4687 4.58967 6.53983 4.5163 6.61096 4.41848C6.63467 4.39402 6.65838 4.36957 6.65838 4.34511C6.72951 4.22283 6.89548 4.22283 6.96661 4.34511C7.03774 4.46739 7.13258 4.54076 7.22742 4.63859C7.32226 4.71196 7.39339 4.78533 7.48823 4.88315C7.58307 4.98098 7.6779 5.0788 7.70161 5.22554C7.77274 5.47011 7.67791 5.86141 7.32226 5.9837C7.20371 6.03261 7.10887 6.03261 7.01403 6.03261C7.01403 6.03261 7.01403 6.03261 6.99032 6.03261C7.03774 6.2038 7.10887 6.35054 7.15629 6.52174H6.4687V6.49728Z" fill="#009349"/>
</svg>
