<svg width="24" height="24" viewBox="0 0 24 24" fill="none" xmlns="http://www.w3.org/2000/svg">
<path d="M11.5 7.1C11.1 6.5 10.6 6 9.9 5.6C9.2 5.2 8.6 5.1 7.9 5C7.2 5 6.4 5.1 5.8 5.3C5.1 5.6 4.5 6 4 6.5C3.5 7 3.1 7.6 2.8 8.3C2.6 8.9 2.5 9.7 2.5 10.4C2.6 11.1 2.8 11.8 3.1 12.4C3.5 13.1 4 13.6 4.6 14C4.8 12.2 5.6 10.6 6.9 9.3C8.2 8 9.8 7.3 11.5 7.1Z" fill="#009349"/>
<path d="M12.5 6.7C13.3 5.4 14.6 4.6 16.1 4.2C15.8 3.5 15.3 3 14.6 2.6C14 2.2 13.2 2 12.5 2C11.8 2 11 2.2 10.4 2.6C9.8 3 9.3 3.5 8.9 4.2C10.4 4.5 11.7 5.4 12.5 6.7Z" fill="#009349"/>
<path d="M22.2 8.3C21.9 7.6 21.5 7 21 6.5C20.5 6 19.9 5.6 19.2 5.3C18.6 5.1 17.8 5 17.1 5C16.4 5.1 15.7 5.3 15.1 5.6C14.4 6 13.9 6.5 13.5 7.1C15.3 7.3 16.9 8.1 18.2 9.4C19.5 10.7 20.3 12.3 20.5 14.1C21.1 13.7 21.6 13.1 21.9 12.5C22.3 11.9 22.5 11.2 22.5 10.5C22.5 9.7 22.4 8.9 22.2 8.3Z" fill="#009349"/>
<path d="M13.1 15.9C13.3 16.1 13.3 16.4 13.3 16.7C13.3 17 13.2 17.2 13.1 17.4C13 17.6 12.7 17.6 12.4 17.6C12.1 17.6 11.9 17.5 11.7 17.4C11.6 17.2 11.5 17 11.5 16.7C11.5 16.4 11.6 16.1 11.7 15.9C11.9 15.7 12.1 15.6 12.4 15.6C12.7 15.6 13 15.7 13.1 15.9Z" fill="#009349"/>
<path d="M17.5 10C16.1 8.7 14.4 8 12.5 8C10.6 8 8.9 8.7 7.5 10C6.2 11.4 5.5 13.1 5.5 15C5.5 16.9 6.2 18.6 7.5 20C8.8 21.3 10.6 22 12.5 22C14.4 22 16.1 21.3 17.5 20C18.8 18.7 19.5 16.9 19.5 15C19.5 13.1 18.8 11.4 17.5 10ZM14.9 16.6C14.9 17.4 14.7 18.1 14.3 18.5C13.9 19 13.2 19.2 12.5 19.2C11.8 19.2 11 19 10.6 18.5C10.2 18.1 10 17.4 10 16.6C10 16.2 10 15.8 10.2 15.4C10.2 15 10.4 14.6 10.5 14.2L12.2 10.5H14L12.3 14C12.4 14 12.5 14 12.6 14C13.3 14 13.9 14.2 14.2 14.7C14.7 15.1 14.9 15.8 14.9 16.6Z" fill="#009349"/>
<path d="M11.5 7.1C11.1 6.5 10.6 6 9.9 5.6C9.2 5.2 8.6 5.1 7.9 5C7.2 5 6.4 5.1 5.8 5.3C5.1 5.6 4.5 6 4 6.5C3.5 7 3.1 7.6 2.8 8.3C2.6 8.9 2.5 9.7 2.5 10.4C2.6 11.1 2.8 11.8 3.1 12.4C3.5 13.1 4 13.6 4.6 14C4.8 12.2 5.6 10.6 6.9 9.3C8.2 8 9.8 7.3 11.5 7.1Z" fill="#009349"/>
</svg>
