<svg width="24" height="24" viewBox="0 0 24 24" fill="none" xmlns="http://www.w3.org/2000/svg">
<path fill-rule="evenodd" clip-rule="evenodd" d="M11.6677 20.9996C11.9426 20.9996 12.1924 20.8384 12.3071 20.5867C12.3686 20.5041 12.4096 20.4009 12.4096 20.2977V11.7913C12.4096 11.5229 12.1841 11.3164 11.9381 11.3164H3.47151C3.205 11.3164 3 11.5229 3 11.7913V20.2977C3 20.6831 3.31021 20.9996 3.69288 20.9996H11.6677ZM3.88151 19.8847H11.5076V13.7527H3.88151V19.8847ZM11.5076 12.2042H3.88151V13.3604H11.5076V12.2042Z" fill="#009349"/>
<path d="M5.02954 14.0834H6.11605V15.1776H5.02954V14.0834Z" fill="#009349"/>
<path d="M9.27308 14.0834H10.3596V15.1776H9.27308V14.0834Z" fill="#009349"/>
<path d="M7.16155 14.0834H8.24806V15.1776H7.16155V14.0834Z" fill="#009349"/>
<path d="M5.02954 16.0035H6.11605V17.0978H5.02954V16.0035Z" fill="#009349"/>
<path d="M9.27308 16.0035H10.3596V17.0978H9.27308V16.0035Z" fill="#009349"/>
<path d="M7.16155 16.0035H8.24806V17.0978H7.16155V16.0035Z" fill="#009349"/>
<path d="M5.02954 17.9649H6.11605V19.0592H5.02954V17.9649Z" fill="#009349"/>
<path d="M9.27308 17.9649H10.3596V19.0592H9.27308V17.9649Z" fill="#009349"/>
<path d="M7.16155 17.9649H8.24806V19.0592H7.16155V17.9649Z" fill="#009349"/>
<path d="M10.9346 8.87986C10.9346 9.08633 10.9961 9.27214 11.0986 9.41667C11.2216 9.58184 11.3651 9.68508 11.5701 9.76766C11.7751 9.85025 12.0211 9.89154 12.2876 9.89154C12.5541 9.89154 12.8001 9.85025 13.0051 9.76766C13.2101 9.68508 13.3741 9.5612 13.4766 9.41667C13.5996 9.2515 13.6406 9.08633 13.6406 8.87986C13.6406 8.65275 13.5791 8.46693 13.4356 8.30176C13.3126 8.13658 13.1281 8.03335 12.8821 7.97141C13.0871 7.90947 13.2511 7.80624 13.3536 7.66171C13.4766 7.51719 13.5381 7.33137 13.5381 7.14555C13.5381 6.95973 13.4766 6.77391 13.3741 6.62939C13.2716 6.48486 13.1076 6.36098 12.9231 6.2784C12.7386 6.19581 12.5131 6.15452 12.2671 6.15452C12.0211 6.15452 11.7956 6.19581 11.6111 6.2784C11.4266 6.36098 11.2626 6.46421 11.1601 6.62939C11.0576 6.77391 10.9961 6.95973 10.9961 7.14555C10.9961 7.33137 11.0576 7.51719 11.1806 7.66171C11.3036 7.80624 11.4676 7.90947 11.6521 7.99206C11.4266 8.054 11.2421 8.15723 11.0986 8.3224C10.9961 8.46693 10.9346 8.65275 10.9346 8.87986ZM11.6316 7.22814C11.6316 7.06296 11.6931 6.91844 11.7956 6.83585C11.9186 6.75327 12.0621 6.69133 12.2671 6.69133C12.4721 6.69133 12.6156 6.73262 12.7386 6.83585C12.8616 6.91844 12.9026 7.06296 12.9026 7.22814C12.9026 7.39331 12.8411 7.51719 12.7181 7.62042C12.5951 7.72365 12.4516 7.78559 12.2466 7.82689C12.0416 7.80624 11.8981 7.72365 11.7751 7.62042C11.6931 7.51719 11.6316 7.39331 11.6316 7.22814ZM11.7546 8.42564C11.8981 8.3224 12.0621 8.26046 12.2876 8.21917C12.5131 8.23982 12.6976 8.3224 12.8206 8.42564C12.9641 8.52887 13.0256 8.6734 13.0256 8.83857C13.0256 9.02439 12.9641 9.14827 12.8206 9.2515C12.6976 9.35473 12.5131 9.39602 12.2876 9.39602C12.0621 9.39602 11.8776 9.35473 11.7546 9.2515C11.6316 9.14827 11.5496 9.02439 11.5496 8.83857C11.5496 8.6734 11.6111 8.52887 11.7546 8.42564Z" fill="#009349"/>
<path d="M17.2692 13.9176H14.7271V14.4544H16.5516L14.9116 17.572H15.6086L17.2692 14.4131V13.9176Z" fill="#009349"/>
<path fill-rule="evenodd" clip-rule="evenodd" d="M14.173 20.4492C13.6718 20.2559 13.2041 19.9783 12.8001 19.6365V11.8734C13.6816 11.1508 14.7886 10.7172 15.9981 10.7172C16.1621 10.7172 16.3466 10.7172 16.5106 10.7378C16.7156 10.7585 16.9206 10.7998 17.1256 10.8411C19.3397 11.3572 21.0002 13.36 21.0002 15.755C21.0002 17.7829 19.8123 19.5199 18.1041 20.3221C18.0646 20.3324 18.0221 20.3488 17.9766 20.3718C17.3123 20.7063 15.4172 20.9289 14.173 20.4492ZM16.0186 12.7819C14.3786 12.7819 13.0666 14.1239 13.0666 15.755C13.0666 17.386 14.3786 18.7074 16.0186 18.7074C17.6586 18.7074 18.9707 17.386 18.9707 15.755C18.9707 14.1032 17.6381 12.7819 16.0186 12.7819Z" fill="#009349"/>
<path d="M8.16706 10.8826H11.5086C10.7296 10.6555 10.0531 10.1187 9.66357 9.3341C8.94607 7.86819 9.54057 6.09259 10.9961 5.36996C12.4516 4.64733 14.2146 5.24608 14.9321 6.73263C15.6496 8.19854 15.0551 9.97414 13.5996 10.6968C13.2101 10.9032 12.7796 10.9858 12.3491 11.0065C12.5131 11.0891 12.6566 11.2336 12.7181 11.4194C13.6611 10.6968 14.8091 10.3045 15.9981 10.3045C16.1826 10.3045 16.3876 10.3251 16.5516 10.3251C16.6131 10.3251 16.6746 10.3458 16.7361 10.3458C17.4331 8.98311 17.4946 7.31074 16.7771 5.80354C15.5471 3.32595 12.5541 2.29362 10.0736 3.51177C7.59305 4.72992 6.56804 7.76496 7.79805 10.2632C7.90055 10.4903 8.02356 10.6968 8.16706 10.8826Z" fill="#009349"/>
</svg>
