<svg width="24" height="24" viewBox="0 0 24 24" fill="none" xmlns="http://www.w3.org/2000/svg">
<path d="M12 2C10.6198 2 9.32422 2.26042 8.11328 2.78125C6.88932 3.3151 5.82487 4.03451 4.91992 4.93945C4.01497 5.8444 3.30208 6.90234 2.78125 8.11328C2.26042 9.32422 2 10.6198 2 12C2 13.3802 2.26042 14.6758 2.78125 15.8867C3.30208 17.1107 4.01497 18.1751 4.91992 19.0801C5.82487 19.985 6.88932 20.6979 8.11328 21.2188C9.32422 21.7396 10.6198 22 12 22C13.3802 22 14.6758 21.7396 15.8867 21.2188C17.1107 20.6979 18.1751 19.985 19.0801 19.0801C19.985 18.1751 20.6979 17.1107 21.2188 15.8867C21.7396 14.6758 22 13.3802 22 12C22 10.6198 21.7396 9.32422 21.2188 8.11328C20.6979 6.90234 19.985 5.8444 19.0801 4.93945C18.1751 4.03451 17.1107 3.3151 15.8867 2.78125C14.6758 2.26042 13.3802 2 12 2ZM17 18.7188C16.9219 18.5365 16.86 18.3411 16.8145 18.1328C16.7689 17.9245 16.7461 17.7096 16.7461 17.4883C16.7461 17.2669 16.7689 17.0488 16.8145 16.834C16.86 16.6191 16.9219 16.4206 17 16.2383C16.8958 16.2513 16.7949 16.2611 16.6973 16.2676C16.5996 16.2741 16.4987 16.2773 16.3945 16.2773C15.9648 16.2773 15.5482 16.2318 15.1445 16.1406C14.7409 16.0495 14.3568 15.9258 13.9922 15.7695C13.9271 16.2513 13.6862 16.7754 13.2695 17.3418C12.8529 17.9082 12.3971 18.2044 11.9023 18.2305H11.9219C12.3646 18.4258 12.7585 18.6927 13.1035 19.0312C13.4486 19.3698 13.7188 19.7604 13.9141 20.2031H13.9727C13.6471 20.2943 13.3118 20.3594 12.9668 20.3984C12.6217 20.4375 12.2669 20.457 11.9023 20.457C11.3424 20.457 10.8021 20.4049 10.2812 20.3008C9.7474 20.1966 9.23633 20.0436 8.74805 19.8418C8.25977 19.64 7.79427 19.3958 7.35156 19.1094C6.92188 18.8229 6.51823 18.5039 6.14062 18.1523C6.36198 17.918 6.61589 17.7227 6.90234 17.5664C7.1888 17.4102 7.5013 17.306 7.83984 17.2539C7.67057 16.9805 7.53711 16.6875 7.43945 16.375C7.3418 16.0625 7.29297 15.7305 7.29297 15.3789C7.29297 15.1055 7.32552 14.8385 7.39062 14.5781C7.45573 14.3177 7.54036 14.0768 7.64453 13.8555C7.5013 13.9076 7.34831 13.9434 7.18555 13.9629C7.02279 13.9824 6.85677 13.9922 6.6875 13.9922C6.33594 13.9922 6.00065 13.9434 5.68164 13.8457C5.36263 13.748 5.07292 13.6146 4.8125 13.4453V13.4648C4.72135 13.6992 4.60417 13.9173 4.46094 14.1191C4.31771 14.321 4.14844 14.5 3.95312 14.6562C3.8099 14.2526 3.70247 13.8359 3.63086 13.4062C3.55924 12.9766 3.52344 12.5339 3.52344 12.0781C3.53646 11.6615 3.57227 11.248 3.63086 10.8379C3.68945 10.4277 3.77083 10.0469 3.875 9.69531H3.91406C4.10938 9.69531 4.28516 9.73763 4.44141 9.82227C4.59766 9.9069 4.73438 10.0208 4.85156 10.1641C4.76042 9.86458 4.9362 9.42839 5.37891 8.85547C5.82161 8.28255 6.3099 7.93099 6.84375 7.80078C6.59635 7.60547 6.39779 7.36133 6.24805 7.06836C6.09831 6.77539 6.02344 6.45964 6.02344 6.12109C6.59635 5.5612 7.2474 5.08594 7.97656 4.69531C8.70573 4.30469 9.5 4.02474 10.3594 3.85547C10.3594 3.85547 10.7467 3.90755 11.5215 4.01172C12.2962 4.11588 12.8724 4.47396 13.25 5.08594C13.5495 4.76042 14.0638 4.61719 14.793 4.65625C15.5221 4.69531 15.8867 4.71484 15.8867 4.71484L15.9258 4.75391C16.6289 5.14453 17.2637 5.6263 17.8301 6.19922C18.3965 6.77214 18.8815 7.42969 19.2852 8.17188C19.2852 8.17188 19.1289 8.52018 18.8164 9.2168C18.5039 9.91341 18.0482 10.2878 17.4492 10.3398C17.8008 10.5742 18.084 10.8835 18.2988 11.2676C18.5137 11.6517 18.6211 12.0716 18.6211 12.5273C18.6211 12.6445 18.6146 12.7585 18.6016 12.8691C18.5885 12.9798 18.569 13.0872 18.543 13.1914C18.6732 13.1393 18.8066 13.097 18.9434 13.0645C19.0801 13.0319 19.2201 13.0156 19.3633 13.0156C19.5195 13.0156 19.666 13.0319 19.8027 13.0645C19.9395 13.097 20.0664 13.1393 20.1836 13.1914V13.2305C20.1055 13.7904 19.9753 14.3307 19.793 14.8516C19.6107 15.3724 19.3828 15.8639 19.1094 16.3262C18.8359 16.7884 18.5234 17.2214 18.1719 17.625C17.8073 18.0286 17.4102 18.3932 16.9805 18.7188H17Z" fill="#009349"/>
<path d="M13.1133 5.61328C12.8659 5.96484 12.5339 6.29036 12.1172 6.58984C11.7005 6.88932 11.2383 7.14323 10.7305 7.35156C10.2227 7.5599 9.69531 7.71615 9.14844 7.82031C8.58854 7.92448 8.04818 7.95052 7.52734 7.89844C8.10026 8.67969 8.44857 9.47396 8.57227 10.2812C8.69596 11.0885 8.52995 12.0586 8.07422 13.1914C8.47786 12.9701 8.95312 12.8529 9.5 12.8398C10.0469 12.8268 10.5938 12.8952 11.1406 13.0449C11.6875 13.1947 12.2018 13.4193 12.6836 13.7188C13.1654 14.0052 13.5365 14.3372 13.7969 14.7148C13.8099 13.9076 13.9694 13.0905 14.2754 12.2637C14.5814 11.4368 15.3594 10.737 16.6094 10.1641C16.2188 10.0339 15.8281 9.79297 15.4375 9.44141C15.0599 9.10286 14.7083 8.71224 14.3828 8.26953C14.0573 7.82682 13.7839 7.36458 13.5625 6.88281C13.3281 6.41406 13.1784 5.99089 13.1133 5.61328Z" fill="#009349"/>
</svg>
