<svg width="25" height="24" viewBox="0 0 25 24" fill="none" xmlns="http://www.w3.org/2000/svg">
<path d="M8.80195 15.6642H15.8647C17.2767 15.6642 18.4253 14.2438 18.4253 12.4984C18.4253 10.7524 17.2767 9.33203 15.8648 9.33203H8.80195C7.39003 9.33203 6.24146 10.7524 6.24146 12.4984C6.24146 14.2438 7.39003 15.6642 8.80195 15.6642Z" fill="#009349"/>
<path d="M16.4343 20H17.2807C20.4992 20 23.1322 16.8996 23.3332 12.982L19.1812 12.982C19.0098 14.8 17.8794 16.2608 16.4342 16.5698L16.4343 20Z" fill="#009349"/>
<path d="M15.655 20V16.6296H9.01086V20L15.655 20Z" fill="#009349"/>
<path d="M8.23167 20V16.5698C6.78648 16.2608 5.6561 14.8 5.48468 12.982H1.33353C1.53445 16.8995 4.16671 20 7.38529 20H8.23167Z" fill="#009349"/>
<path d="M1.33353 12.0184H5.48472C5.65615 10.2005 6.78653 8.73894 8.23172 8.43061V5.00016L7.38529 5C4.16666 5 1.53435 8.10077 1.33353 12.0184Z" fill="#009349"/>
<path d="M9.01092 5.00016V8.37019H15.655V5.00016H9.01092Z" fill="#009349"/>
<path d="M16.4339 5.00016L17.2807 5C20.4994 5 23.1324 8.10061 23.3332 12.0183L19.1812 12.0184C19.0098 10.2005 17.8794 8.73894 16.4342 8.43061L16.4339 5.00016Z" fill="#009349"/>
</svg>
