<svg width="16" height="16" viewBox="0 0 16 16" fill="none" xmlns="http://www.w3.org/2000/svg">
<path d="M13.3009 4.19407L10.6203 3.55856C10.53 3.5374 10.4436 3.60593 10.4436 3.69874L10.4436 12.1868C10.4436 12.5959 10.0774 12.7253 9.6683 12.7214L4.9929 12.7214C4.93502 12.7208 4.88787 12.924 4.88802 12.9819C4.88854 13.2477 5.07826 13.4848 5.34894 13.5355L11.3459 14.6561C11.3808 14.6628 11.4158 14.6658 11.4502 14.6658C11.7216 14.6658 11.9548 14.472 12.0046 14.2049L13.7524 4.85275C13.8096 4.54683 13.6068 4.25135 13.3009 4.19407Z" fill="#6CFE00"/>
<path d="M8.82179 11.1812L8.96836 10.3815L8.67513 10.3815L8.82179 11.1812Z" fill="white"/>
<path d="M3.77157 3.40597L4.06488 3.40597L3.91822 2.60636L3.77157 3.40597Z" fill="white"/>
<path d="M9.62449 1.33334L3.25552 1.33334C2.93048 1.33334 2.66602 1.59781 2.66602 1.92285L2.66601 11.855C2.66601 12.18 2.93048 12.4445 3.25552 12.4445L9.62448 12.4445C9.94952 12.4445 10.214 12.18 10.214 11.855L10.214 1.92285C10.214 1.59781 9.94952 1.33334 9.62449 1.33334ZM4.18639 4.00644L4.12216 3.67191L3.7143 3.67191L3.65248 4.00644C3.6479 4.02696 3.63647 4.03847 3.61586 4.03847L3.37068 4.03847C3.34556 4.03847 3.33406 4.02463 3.3409 3.99952L3.72122 2.23746C3.72581 2.2146 3.73958 2.20543 3.76018 2.20543L4.07869 2.20543C4.0993 2.20543 4.11306 2.2146 4.11757 2.23746L4.49797 3.99952C4.50256 4.02463 4.49339 4.03847 4.46594 4.03847L4.22301 4.03847C4.20241 4.03847 4.1909 4.02697 4.18639 4.00644ZM8.06461 7.81335C7.61492 8.1279 6.9545 7.9772 6.50248 7.4887C6.54548 8.06343 6.75357 8.61848 7.12853 9.05861C7.27402 9.22937 7.43592 9.37541 7.61554 9.49438L5.26438 9.49438C5.44401 9.37541 5.6059 9.22937 5.75139 9.05861C6.12635 8.61848 6.33444 8.06335 6.37744 7.4887C5.92542 7.9772 5.265 8.1279 4.81531 7.81335C4.31236 7.46157 4.26415 6.8555 4.70769 6.22129C5.15124 5.58707 6.43988 4.44796 6.43988 4.13319C6.43988 4.44804 7.72853 5.58707 8.17208 6.22129C8.61562 6.8555 8.56764 7.46149 8.06461 7.81335ZM9.40139 9.788L9.02099 11.5501C9.0164 11.5729 9.00271 11.5821 8.98203 11.5821L8.6636 11.5821C8.64307 11.5821 8.62923 11.5729 8.62464 11.5501L8.24424 9.788C8.23747 9.76289 8.24883 9.74904 8.27418 9.74904L8.51928 9.74904C8.5398 9.74904 8.55131 9.76055 8.5559 9.78108L8.61772 10.1156L9.02557 10.1156L9.08973 9.78108C9.09431 9.76055 9.10582 9.74904 9.12635 9.74904L9.36935 9.74905C9.3968 9.74905 9.40598 9.76289 9.40139 9.788Z" fill="white"/>
</svg>
