<svg width="16" height="16" viewBox="0 0 16 16" fill="none" xmlns="http://www.w3.org/2000/svg">
<path d="M6.81471 0.6714C7.53819 0.746943 8.05767 1.26808 8.39637 1.84865C8.4905 2.00971 8.53146 2.33105 8.82487 2.24017C9.19666 2.12475 8.88276 1.61435 8.75871 1.40996C8.65828 1.24469 8.53422 1.09322 8.41055 0.94443C8.7528 0.751545 9.20768 1.01345 9.47352 1.23165C10.1186 1.76045 10.3711 2.39548 10.3293 3.21533C10.3203 3.39096 10.1738 3.68278 10.4258 3.78325C10.8787 3.96386 10.7665 3.34456 10.939 3.23412C11.0501 3.1628 11.2832 3.13289 11.3801 3.22875C11.6306 3.47686 11.3616 3.98419 11.2411 4.24686C11.1135 4.52564 10.9516 4.79369 10.8169 5.06978C10.0414 3.97153 8.87528 2.81039 7.36924 3.03702C6.6812 3.14055 6.19165 3.49871 5.58475 3.77251C5.30906 3.89675 5.00817 3.99339 4.72696 4.11648C4.51587 4.2089 4.01333 4.51299 3.83176 4.54175C3.54505 4.587 3.22761 4.07698 3.15082 3.84959C2.97713 3.33612 3.04369 2.93348 3.46274 2.57034C4.17086 1.9564 5.24408 1.84251 6.11328 2.17383C6.28933 2.24094 6.69695 2.52164 6.80762 2.53582C7.04471 2.5665 7.19752 2.29424 7.04668 2.09944C6.99351 2.0308 6.74697 1.89351 6.65717 1.84596C6.24837 1.62892 5.80175 1.51043 5.33781 1.47707C5.47802 1.05103 5.82184 0.792959 6.25349 0.67255C6.43347 0.685972 6.63827 0.654144 6.81471 0.67255L6.81471 0.6714Z" fill="white"/>
<path d="M4.95378 6.09058C4.95299 6.07754 4.87777 6.04073 4.96835 6.04763C6.38775 7.30387 6.1672 9.61772 5.64103 11.244C5.28106 12.3576 4.77616 13.3113 3.43198 13.4064C2.08781 13.5015 1.73138 11.7747 2.6061 11.0787C2.80499 10.9207 3.15117 10.8759 3.04996 10.5591C2.92353 10.163 2.32293 10.6109 2.14806 10.762C2.34144 9.17405 4.28228 8.87609 4.95378 7.58534C4.93645 7.08836 4.97741 6.58679 4.95378 6.09058Z" fill="white"/>
<path d="M13.0173 12.6306L12.8708 12.4431C12.2154 12.0773 12.2111 12.7997 12.087 13.2058C11.8838 13.8712 11.5223 14.492 11.0237 14.9882C11.015 14.7225 11.0898 14.2301 10.8248 14.061C10.4195 13.8025 10.2332 14.2316 10.0056 14.4575C9.84331 14.6182 9.63261 14.7884 9.4412 14.9142C9.33132 14.9863 9.00601 15.1861 8.89652 15.2179C8.84139 15.234 8.85753 15.2091 8.8532 15.1761C8.82445 14.964 8.89022 14.6726 8.674 14.5162C8.33333 14.2696 7.99384 14.6711 7.71028 14.8394C7.29556 15.0856 6.79736 15.2816 6.31293 15.3333C6.45983 14.9199 6.44881 14.2957 5.83245 14.3919C5.69539 14.4134 4.87423 14.7355 4.83603 14.701C4.94906 14.2849 4.94237 13.8527 4.89432 13.4279C5.45239 13.0931 5.75053 12.4692 5.98053 11.8913C6.3791 10.8893 6.55475 9.82518 6.59492 8.75185C7.25224 7.90362 8.36563 7.84686 8.99538 6.9484C9.95753 5.57635 9.06903 4.1648 7.52438 3.8772L6.78593 3.74835C7.35582 3.51674 7.88947 3.44886 8.47708 3.66859C9.63616 4.10191 10.045 5.09663 10.774 5.91763C11.0268 6.20255 11.3525 6.45717 11.6156 6.73749C12.2898 7.45573 12.9255 8.36992 13.187 9.319C13.4859 10.4046 13.2748 11.5573 13.0173 12.6306Z" fill="#6CFE00"/>
<path d="M6.51931 8.03093C6.40983 6.93919 5.92973 6.06258 5.01642 5.42564C4.74309 5.23506 4.71946 5.26075 4.4808 4.99846C4.43866 4.95206 4.35083 4.94439 4.36304 4.86923C4.74625 4.73463 5.1456 4.45776 5.53826 4.35998C6.78004 4.04975 9.38686 4.47464 8.75672 6.25623C8.48891 7.0132 7.82923 7.26054 7.16009 7.60604L6.51931 8.03093ZM6.74853 4.61767C5.71903 4.74153 5.88208 6.29535 6.94466 6.18797C8.00606 6.08099 7.82647 4.48768 6.74853 4.61767Z" fill="#6CFE00"/>
<path d="M4.42212 6.3847L4.42212 6.70873C3.82505 6.61133 2.80265 6.56991 2.25284 6.31145C2.16856 6.31951 2.08428 6.32756 2 6.33485C2.11658 5.63655 2.76996 5.26612 3.44067 5.1645C3.94281 5.08781 4.20117 5.40033 4.33114 5.78879C4.39534 5.9809 4.42212 6.18261 4.42212 6.3847Z" fill="#6CFE00"/>
</svg>
