<svg width="16" height="16" viewBox="0 0 16 16" fill="none" xmlns="http://www.w3.org/2000/svg">
<path d="M6.70536 5.14459C5.68839 6.19544 4.8373 7.32675 4.17718 8.50159C4.142 8.56194 4.1085 8.6206 4.07831 8.67926L1.49173 8.32512C1.34244 8.30468 1.28103 8.12215 1.38757 8.01556L4.20413 5.19798C4.23831 5.16379 4.28467 5.14458 4.333 5.14458L6.70536 5.14459Z" fill="#6CFE00"/>
<path d="M10.8554 9.2961L10.8554 11.6691C10.8554 11.7175 10.8361 11.7639 10.802 11.7981L7.98539 14.6157C7.87884 14.7222 7.69638 14.6608 7.67594 14.5115L7.32196 11.9257C7.3806 11.8955 7.43924 11.8636 7.49619 11.8301L7.75252 11.6843L7.75252 11.6809C8.83487 11.0441 9.87696 10.2429 10.8554 9.2961Z" fill="#6CFE00"/>
<path d="M10.7295 8.71828C10.7729 8.67485 10.8152 8.63257 10.8563 8.58914C12.9938 6.40748 14.3327 3.92296 14.6617 1.84528C14.7086 1.54929 14.4549 1.29559 14.1602 1.34129C12.0787 1.66815 9.59624 3.00641 7.41536 5.14693C7.37196 5.18808 7.32855 5.23151 7.28628 5.2738C6.17585 6.38234 5.27676 7.57202 4.61415 8.75371C4.56618 8.836 4.52162 8.91712 4.47822 8.99714L7.00867 11.5262C7.0875 11.4839 7.16975 11.4405 7.25084 11.3937L7.2497 11.3925C8.42982 10.7308 9.61908 9.82911 10.7295 8.71828ZM9.03644 6.96745C8.54635 6.47719 8.54637 5.68177 9.03531 5.19264C9.52541 4.70465 10.3205 4.70465 10.8083 5.19264C11.2984 5.68291 11.2973 6.47717 10.8072 6.96745C10.3194 7.45543 9.5254 7.45659 9.03644 6.96745Z" fill="white"/>
<path d="M5.93366 11.6543C5.93366 12.4917 4.70243 13.424 3.86546 13.3047C4.30034 13.0147 4.53769 12.5778 4.61032 12.0186C3.79799 12.9068 2.69996 13.4862 1.43034 13.8801C3.36535 11.9444 2.19686 11.0951 4.21109 9.93106L5.93366 11.6543Z" fill="white"/>
</svg>
