<svg width="16" height="16" viewBox="0 0 16 16" fill="none" xmlns="http://www.w3.org/2000/svg">
<path d="M12.6598 3.16563C11.913 2.4125 10.9161 2 9.85983 2C8.88796 2 7.96608 2.35313 7.24421 2.99063C5.67859 1.6375 3.31921 1.68438 1.84421 3.14062C1.08796 3.8875 0.66921 4.8875 0.666085 5.95313C0.659835 7.01875 1.07546 8.01875 1.82546 8.77187L6.45358 13.4125C6.66608 13.625 6.94733 13.7406 7.24421 13.7406C7.54108 13.7406 7.82233 13.6219 8.03171 13.4125L9.15983 12.2812L8.30358 11.4219C7.80358 10.9062 7.53171 10.2219 7.53483 9.49063C7.53796 8.75937 7.81608 8.075 8.31608 7.5625C9.29421 6.56563 10.7911 6.36875 11.8286 7.29688C12.3098 6.85938 12.9036 6.70625 13.5505 6.70625C13.6161 6.70625 13.6817 6.70938 13.7473 6.7125C13.9848 5.46875 13.6223 4.12813 12.6598 3.16563ZM4.61296 4.82813C4.31296 4.82813 4.03483 4.94063 3.82858 5.14688C3.60671 5.3625 3.48483 5.65313 3.48483 5.96563C3.48483 6.225 3.27233 6.43437 3.01608 6.43437C2.75358 6.42812 2.54733 6.22187 2.54733 5.95938C2.54733 5.4 2.77233 4.875 3.17233 4.47813C3.55358 4.09687 4.06608 3.8875 4.61296 3.8875C4.87233 3.8875 5.08171 4.1 5.08171 4.35625C5.08171 4.62188 4.86921 4.82813 4.61296 4.82813Z" fill="white"/>
<path d="M14.6567 8.11667C14.266 7.72604 13.7473 7.51042 13.1973 7.51042C12.691 7.51042 12.2098 7.69479 11.8317 8.02604C11.016 7.31979 9.7848 7.34479 9.01605 8.10417C8.6223 8.49479 8.40355 9.01667 8.40042 9.57292C8.3973 10.1292 8.61292 10.651 9.00667 11.0448L11.4223 13.4667C11.5317 13.576 11.6785 13.6385 11.8348 13.6385C11.9879 13.6385 12.1348 13.576 12.2473 13.4667L14.6629 11.0448C15.4629 10.2385 15.4629 8.92292 14.6567 8.11667Z" fill="#6CFE00"/>
</svg>
