<svg width="16" height="16" viewBox="0 0 16 16" fill="none" xmlns="http://www.w3.org/2000/svg">
<path d="M13.5504 4.66668C13.5985 3.80824 13.9303 2.97971 14.5008 2.36985C14.6633 2.19612 14.7121 1.93523 14.6239 1.7081C14.5363 1.48101 14.3288 1.33334 14.0992 1.33334L12.2974 1.33334C11.4994 1.33334 10.6828 1.58496 10.0007 2.01554C11.3635 2.59075 13.0007 3.33334 13.5504 4.66668Z" fill="#6CFE00"/>
<path d="M4.69857 5.6542C4.90368 5.6542 5.06966 5.82123 5.06966 6.02765C5.06966 6.23406 4.90368 6.40109 4.69857 6.40109L2.68519 6.40109C3.56344 7.31984 4.81912 7.89487 6.18294 7.89487L6.80482 7.89487C7.22267 8.77742 8.11743 9.41354 9.15169 9.41354C9.35681 9.41354 9.52279 9.24651 9.52279 9.0401L9.52279 8.09471C9.9707 8.3562 10.265 8.87013 10.265 9.41354C10.265 10.2374 9.59926 10.9073 8.7806 10.9073L8.52076 10.9073C8.09348 10.004 7.18497 9.41354 6.18294 9.41354C6.04596 9.41354 5.92021 9.4894 5.85569 9.61084C5.79117 9.73229 5.79844 9.87962 5.87417 9.99415C6.69245 11.2293 6.69245 12.8509 5.87417 14.0861C5.79841 14.2006 5.79119 14.3479 5.85569 14.4694C5.92018 14.5908 6.04593 14.6667 6.18294 14.6667C7.18497 14.6667 8.09351 14.0762 8.52076 13.1729L8.7806 13.1729C11.6453 13.1729 14.0007 10.7778 14.0007 7.89489C14.0007 5.01201 11.6453 2.66668 8.7806 2.66668L1.70508 2.66668C1.49996 2.66668 1.33398 2.83371 1.33398 3.04012C1.33398 4.00281 1.61733 4.89868 2.0996 5.65423L4.69857 5.6542ZM7.40495 4.7979C7.26 4.65203 7.26 4.41569 7.40495 4.26982C7.5499 4.12396 7.78476 4.12396 7.92971 4.26982C8.4838 4.82708 8.4838 5.73442 7.92971 6.29167C7.78476 6.43754 7.5499 6.43754 7.40495 6.29167C7.26 6.14581 7.26 5.90947 7.40495 5.7636C7.66949 5.49738 7.66949 5.06411 7.40495 4.7979ZM5.92058 4.7979C5.77563 4.65203 5.77563 4.41569 5.92058 4.26982C6.06553 4.12396 6.30038 4.12396 6.44533 4.26982C6.99942 4.82708 6.99942 5.73442 6.44533 6.29167C6.30038 6.43754 6.06553 6.43754 5.92058 6.29167C5.77563 6.14581 5.77563 5.90947 5.92058 5.7636C6.18512 5.49738 6.18512 5.06411 5.92058 4.7979ZM4.69857 4.16043C4.90351 4.16043 5.06966 4.32763 5.06966 4.53387C5.06966 4.74011 4.90351 4.90732 4.69857 4.90732C4.49362 4.90732 4.32747 4.74011 4.32747 4.53387C4.32747 4.32763 4.49362 4.16043 4.69857 4.16043Z" fill="white"/>
</svg>
