<svg width="16" height="16" viewBox="0 0 16 16" fill="none" xmlns="http://www.w3.org/2000/svg">
<path d="M10.0007 4.86001L10.0007 2.00001C10.0007 1.63334 9.70065 1.33334 9.33398 1.33334L6.66732 1.33334C6.30065 1.33334 6.00065 1.63334 6.00065 2.00001L6.00065 4.86001C6.00065 4.94668 6.03398 5.03334 6.10065 5.09334L7.76732 6.76001C7.90065 6.89334 8.10732 6.89334 8.24065 6.76001L9.90732 5.09334C9.96732 5.03334 10.0007 4.95334 10.0007 4.86001ZM6.00065 11.14L6.00065 14C6.00065 14.3667 6.30065 14.6667 6.66732 14.6667L9.33398 14.6667C9.70065 14.6667 10.0007 14.3667 10.0007 14L10.0007 11.14C10.0007 11.0533 9.96732 10.9667 9.90065 10.9067L8.23398 9.24001C8.10065 9.10668 7.89398 9.10668 7.76065 9.24001L6.09398 10.9067C6.03398 10.9667 6.00065 11.0467 6.00065 11.14ZM10.9007 6.10001L9.23398 7.76668C9.10065 7.90001 9.10065 8.10668 9.23398 8.24001L10.9007 9.90668C10.9607 9.96668 11.0473 10.0067 11.134 10.0067L14.0007 10.0067C14.3673 10.0067 14.6673 9.70668 14.6673 9.34001L14.6673 6.67334C14.6673 6.30668 14.3673 6.00668 14.0007 6.00668L11.1407 6.00668C11.0473 6.00001 10.9673 6.03334 10.9007 6.10001Z" fill="white"/>
<path d="M4.86065 6.00001L2.00065 6.00001C1.63398 6.00001 1.33398 6.30001 1.33398 6.66668L1.33398 9.33334C1.33398 9.70001 1.63398 10 2.00065 10L4.86065 10C4.94732 10 5.03398 9.96668 5.09398 9.90001L6.76065 8.23334C6.89398 8.10001 6.89398 7.89334 6.76065 7.76001L5.09398 6.09334C5.03398 6.03334 4.95398 6.00001 4.86065 6.00001Z" fill="#6CFE00"/>
</svg>
