<svg width="16" height="16" viewBox="0 0 16 16" fill="none" xmlns="http://www.w3.org/2000/svg">
<path d="M2.08398 12.7372L2.08398 13.125C2.08405 13.2907 2.14992 13.4497 2.26712 13.5669C2.38431 13.6841 2.54324 13.7499 2.70898 13.75L11.209 13.75C11.3747 13.7499 11.5337 13.6841 11.6508 13.5669C11.768 13.4497 11.8339 13.2907 11.834 13.125L11.834 12.7372C12.0414 12.7068 12.231 12.6031 12.3686 12.445C12.5062 12.2868 12.5826 12.0846 12.584 11.875L12.584 9.25L13.459 9.25C13.691 9.24972 13.9134 9.15744 14.0774 8.99341C14.2414 8.82937 14.3337 8.60698 14.334 8.375L14.334 5.80084C14.5491 5.71382 14.7273 5.55468 14.838 5.3507C14.9486 5.14671 14.9849 4.91059 14.9406 4.6828C14.8962 4.455 14.7741 4.24972 14.595 4.10212C14.4159 3.95453 14.1911 3.87382 13.959 3.87382C13.7269 3.87382 13.5021 3.95453 13.323 4.10212C13.1439 4.24972 13.0217 4.455 12.9774 4.6828C12.9331 4.91059 12.9693 5.14671 13.08 5.3507C13.1907 5.55468 13.3689 5.71382 13.584 5.80084L13.584 8.375C13.5839 8.40813 13.5707 8.43989 13.5473 8.46332C13.5239 8.48675 13.4921 8.49994 13.459 8.5L12.584 8.5L12.584 4.875C12.5829 4.64328 12.4903 4.42136 12.3265 4.25751C12.1626 4.09365 11.9407 4.00111 11.709 4L11.2924 4L11.073 3.34192C11.0398 3.24236 10.9761 3.15577 10.891 3.0944C10.8059 3.03303 10.7036 3.00001 10.5986 3L9.93898 3L9.58156 2.27814C9.5402 2.19462 9.47633 2.12433 9.39714 2.07519C9.31796 2.02604 9.22662 2 9.13343 2L4.78454 2C4.69135 2 4.60002 2.02605 4.52084 2.07519C4.44166 2.12434 4.37779 2.19463 4.33642 2.27814L3.97898 3L3.22436 3C3.11285 2.99999 3.00454 3.03726 2.91664 3.10588C2.82874 3.17451 2.76631 3.27054 2.73926 3.37873L2.58398 4L2.20898 4C1.97726 4.00111 1.75535 4.09365 1.59149 4.25751C1.42764 4.42136 1.33509 4.64328 1.33398 4.875L1.33398 11.875C1.33539 12.0846 1.41179 12.2868 1.54936 12.445C1.68693 12.6031 1.87658 12.7068 2.08398 12.7372ZM11.459 10.375L7.70898 10.375L7.70898 6.375L11.459 6.375L11.459 10.375ZM2.45898 6.375L6.20898 6.375L6.20898 10.375L2.45898 10.375L2.45898 6.375Z" fill="white"/>
<path d="M2.08398 12.7372L2.08398 13.125C2.08405 13.2907 2.14992 13.4497 2.26712 13.5669C2.38431 13.6841 2.54324 13.7499 2.70898 13.75L11.209 13.75C11.3747 13.7499 11.5337 13.6841 11.6508 13.5669C11.768 13.4497 11.8339 13.2907 11.834 13.125L11.834 12.7372C12.0414 12.7068 12.231 12.6031 12.3686 12.445C12.5062 12.2868 12.5826 12.0846 12.584 11.875L12.584 9.25L13.459 9.25C13.691 9.24972 13.9134 9.15744 14.0774 8.99341C14.2414 8.82937 14.3337 8.60698 14.334 8.375L14.334 5.80084C14.5491 5.71382 14.7273 5.55468 14.838 5.3507C14.9486 5.14671 14.9849 4.91059 14.9406 4.6828C14.8962 4.455 14.7741 4.24972 14.595 4.10212C14.4159 3.95453 14.1911 3.87382 13.959 3.87382C13.7269 3.87382 13.5021 3.95453 13.323 4.10212C13.1439 4.24972 13.0217 4.455 12.9774 4.6828C12.9331 4.91059 12.9693 5.14671 13.08 5.3507C13.1907 5.55468 13.3689 5.71382 13.584 5.80084L13.584 8.375C13.5839 8.40813 13.5707 8.43989 13.5473 8.46332C13.5239 8.48675 13.4921 8.49994 13.459 8.5L12.584 8.5L12.584 4.875C12.5829 4.64328 12.4903 4.42136 12.3265 4.25751C12.1626 4.09365 11.9407 4.00111 11.709 4L11.2924 4L11.073 3.34192C11.0398 3.24236 10.9761 3.15577 10.891 3.0944C10.8059 3.03303 10.7036 3.00001 10.5986 3L9.93898 3L9.58156 2.27814C9.5402 2.19462 9.47633 2.12433 9.39714 2.07519C9.31796 2.02604 9.22662 2 9.13343 2L4.78454 2C4.69135 2 4.60002 2.02605 4.52084 2.07519C4.44166 2.12434 4.37779 2.19463 4.33642 2.27814L3.97898 3L3.22436 3C3.11285 2.99999 3.00454 3.03726 2.91664 3.10588C2.82874 3.17451 2.76631 3.27054 2.73926 3.37873L2.58398 4L2.20898 4C1.97726 4.00111 1.75535 4.09365 1.59149 4.25751C1.42764 4.42136 1.33509 4.64328 1.33398 4.875L1.33398 11.875C1.33539 12.0846 1.41179 12.2868 1.54936 12.445C1.68693 12.6031 1.87658 12.7068 2.08398 12.7372ZM11.459 10.375L7.70898 10.375L7.70898 6.375L11.459 6.375L11.459 10.375ZM2.45898 6.375L6.20898 6.375L6.20898 10.375L2.45898 10.375L2.45898 6.375Z" fill="white"/>
<path d="M5.50151 7.82376L4.97795 7.82376C4.9374 7.82377 4.89773 7.81188 4.86388 7.78955C4.83003 7.76722 4.80347 7.73544 4.78752 7.69815L4.53447 7.10745C4.5185 7.07015 4.49194 7.03836 4.45808 7.01602C4.42421 6.99368 4.38454 6.98177 4.34397 6.98177C4.3034 6.98177 4.26372 6.99368 4.22985 7.01602C4.19599 7.03836 4.16943 7.07015 4.15347 7.10745L3.90042 7.69815C3.88445 7.73545 3.85788 7.76724 3.824 7.78957C3.79012 7.8119 3.75044 7.82379 3.70986 7.82376L3.18645 7.82376C3.14545 7.82378 3.10537 7.83595 3.07129 7.85874C3.03721 7.88152 3.01064 7.9139 2.99495 7.95177C2.97926 7.98965 2.97515 8.03133 2.98314 8.07154C2.99113 8.11176 3.01086 8.1487 3.03984 8.1777L3.43205 8.5701C3.45736 8.59541 3.47568 8.62684 3.48525 8.66133C3.49481 8.69583 3.49528 8.73221 3.48662 8.76694L3.30119 9.50857C3.29135 9.54798 3.2933 9.58942 3.3068 9.62773C3.3203 9.66604 3.34476 9.69954 3.37714 9.72407C3.40951 9.7486 3.44838 9.76308 3.48892 9.76571C3.52945 9.76834 3.56987 9.759 3.60515 9.73886L4.24115 9.3753C4.27245 9.35739 4.30788 9.34797 4.34394 9.34797C4.37999 9.34797 4.41542 9.35739 4.44672 9.3753L5.08283 9.73889C5.11809 9.75904 5.15851 9.76838 5.19904 9.76575C5.23957 9.76312 5.27844 9.74864 5.31081 9.7241C5.34318 9.69957 5.36763 9.66606 5.38111 9.62775C5.3946 9.58943 5.39653 9.548 5.38666 9.5086L5.20136 8.76696C5.19271 8.73224 5.19317 8.69587 5.20271 8.66139C5.21225 8.6269 5.23053 8.59546 5.2558 8.57012L5.64814 8.17773C5.67712 8.14872 5.69686 8.11178 5.70486 8.07156C5.71285 8.03134 5.70874 7.98966 5.69305 7.95177C5.67736 7.91389 5.65078 7.88151 5.61669 7.85872C5.5826 7.83594 5.54252 7.82377 5.50151 7.82376Z" fill="#6CFE00"/>
<path d="M8.66252 8.5701C8.68781 8.59542 8.70612 8.62686 8.71566 8.66135C8.7252 8.69584 8.72565 8.73222 8.71697 8.76694L8.53165 9.50857C8.52178 9.54798 8.52371 9.58941 8.5372 9.62772C8.55068 9.66604 8.57513 9.69954 8.6075 9.72408C8.63987 9.74861 8.67874 9.7631 8.71927 9.76572C8.75981 9.76835 8.80022 9.75901 8.83548 9.73886L9.4716 9.3753C9.5029 9.35739 9.53833 9.34797 9.57439 9.34797C9.61044 9.34797 9.64587 9.35739 9.67717 9.3753L10.3132 9.73889C10.3484 9.75903 10.3889 9.76837 10.4294 9.76574C10.4699 9.76311 10.5088 9.74863 10.5412 9.7241C10.5736 9.69957 10.598 9.66607 10.6115 9.62775C10.625 9.58944 10.627 9.54801 10.6171 9.5086L10.4318 8.76696C10.4231 8.73225 10.4235 8.69586 10.4331 8.66136C10.4426 8.62687 10.4609 8.59543 10.4863 8.57012L10.8785 8.17773C10.9075 8.14872 10.9272 8.11178 10.9352 8.07157C10.9432 8.03136 10.9391 7.98968 10.9234 7.9518C10.9077 7.91392 10.8811 7.88155 10.847 7.85876C10.8129 7.83598 10.7729 7.82381 10.7319 7.82379L10.2084 7.82379C10.1678 7.8238 10.1282 7.81191 10.0943 7.78958C10.0604 7.76725 10.0338 7.73547 10.0179 7.69818L9.76482 7.10748C9.74886 7.07019 9.72231 7.0384 9.68846 7.01607C9.65461 6.99373 9.61494 6.98182 9.57439 6.98182C9.53383 6.98182 9.49416 6.99373 9.46031 7.01607C9.42646 7.0384 9.39991 7.07019 9.38395 7.10748L9.13078 7.69818C9.11483 7.73546 9.08827 7.76724 9.05442 7.78957C9.02057 7.8119 8.98091 7.8238 8.94035 7.82379L8.41679 7.82379C8.37579 7.82381 8.33572 7.83599 8.30164 7.85878C8.26756 7.88157 8.24101 7.91395 8.22533 7.95183C8.20965 7.98971 8.20555 8.03139 8.21356 8.0716C8.22156 8.1118 8.2413 8.14874 8.27029 8.17773L8.66252 8.5701Z" fill="#6CFE00"/>
<path d="M5.50151 7.82376L4.97795 7.82376C4.9374 7.82377 4.89773 7.81188 4.86388 7.78955C4.83003 7.76722 4.80347 7.73544 4.78752 7.69815L4.53447 7.10745C4.5185 7.07015 4.49194 7.03836 4.45808 7.01602C4.42421 6.99368 4.38454 6.98177 4.34397 6.98177C4.3034 6.98177 4.26372 6.99368 4.22985 7.01602C4.19599 7.03836 4.16943 7.07015 4.15347 7.10745L3.90042 7.69815C3.88445 7.73545 3.85788 7.76724 3.824 7.78957C3.79012 7.8119 3.75044 7.82379 3.70986 7.82376L3.18645 7.82376C3.14545 7.82378 3.10537 7.83595 3.07129 7.85874C3.03721 7.88152 3.01064 7.9139 2.99495 7.95177C2.97926 7.98965 2.97515 8.03133 2.98314 8.07154C2.99113 8.11176 3.01086 8.1487 3.03984 8.1777L3.43205 8.5701C3.45736 8.59541 3.47568 8.62684 3.48525 8.66133C3.49481 8.69583 3.49528 8.73221 3.48662 8.76694L3.30119 9.50857C3.29135 9.54798 3.2933 9.58942 3.3068 9.62773C3.3203 9.66604 3.34476 9.69954 3.37714 9.72407C3.40951 9.7486 3.44838 9.76308 3.48892 9.76571C3.52945 9.76834 3.56987 9.759 3.60515 9.73886L4.24115 9.3753C4.27245 9.35739 4.30788 9.34797 4.34394 9.34797C4.37999 9.34797 4.41542 9.35739 4.44672 9.3753L5.08283 9.73889C5.11809 9.75904 5.15851 9.76838 5.19904 9.76575C5.23957 9.76312 5.27844 9.74864 5.31081 9.7241C5.34318 9.69957 5.36763 9.66606 5.38111 9.62775C5.3946 9.58943 5.39653 9.548 5.38666 9.5086L5.20136 8.76696C5.19271 8.73224 5.19317 8.69587 5.20271 8.66139C5.21225 8.6269 5.23053 8.59546 5.2558 8.57012L5.64814 8.17773C5.67712 8.14872 5.69686 8.11178 5.70486 8.07156C5.71285 8.03134 5.70874 7.98966 5.69305 7.95177C5.67736 7.91389 5.65078 7.88151 5.61669 7.85872C5.5826 7.83594 5.54252 7.82377 5.50151 7.82376Z" fill="#6CFE00"/>
<path d="M8.66252 8.5701C8.68781 8.59542 8.70612 8.62686 8.71566 8.66135C8.7252 8.69584 8.72565 8.73222 8.71697 8.76694L8.53165 9.50857C8.52178 9.54798 8.52371 9.58941 8.5372 9.62772C8.55068 9.66604 8.57513 9.69954 8.6075 9.72408C8.63987 9.74861 8.67874 9.7631 8.71927 9.76572C8.75981 9.76835 8.80022 9.75901 8.83548 9.73886L9.4716 9.3753C9.5029 9.35739 9.53833 9.34797 9.57439 9.34797C9.61044 9.34797 9.64587 9.35739 9.67717 9.3753L10.3132 9.73889C10.3484 9.75903 10.3889 9.76837 10.4294 9.76574C10.4699 9.76311 10.5088 9.74863 10.5412 9.7241C10.5736 9.69957 10.598 9.66607 10.6115 9.62775C10.625 9.58944 10.627 9.54801 10.6171 9.5086L10.4318 8.76696C10.4231 8.73225 10.4235 8.69586 10.4331 8.66136C10.4426 8.62687 10.4609 8.59543 10.4863 8.57012L10.8785 8.17773C10.9075 8.14872 10.9272 8.11178 10.9352 8.07157C10.9432 8.03136 10.9391 7.98968 10.9234 7.9518C10.9077 7.91392 10.8811 7.88155 10.847 7.85876C10.8129 7.83598 10.7729 7.82381 10.7319 7.82379L10.2084 7.82379C10.1678 7.8238 10.1282 7.81191 10.0943 7.78958C10.0604 7.76725 10.0338 7.73547 10.0179 7.69818L9.76482 7.10748C9.74886 7.07019 9.72231 7.0384 9.68846 7.01607C9.65461 6.99373 9.61494 6.98182 9.57439 6.98182C9.53383 6.98182 9.49416 6.99373 9.46031 7.01607C9.42646 7.0384 9.39991 7.07019 9.38395 7.10748L9.13078 7.69818C9.11483 7.73546 9.08827 7.76724 9.05442 7.78957C9.02057 7.8119 8.98091 7.8238 8.94035 7.82379L8.41679 7.82379C8.37579 7.82381 8.33572 7.83599 8.30164 7.85878C8.26756 7.88157 8.24101 7.91395 8.22533 7.95183C8.20965 7.98971 8.20555 8.03139 8.21356 8.0716C8.22156 8.1118 8.2413 8.14874 8.27029 8.17773L8.66252 8.5701Z" fill="#6CFE00"/>
</svg>
