<svg width="16" height="16" viewBox="0 0 16 16" fill="none" xmlns="http://www.w3.org/2000/svg">
<path fill-rule="evenodd" clip-rule="evenodd" d="M14 8C14 11.3137 11.3137 14 8 14C4.68629 14 2 11.3137 2 8C2 4.68629 4.68629 2 8 2C11.3137 2 14 4.68629 14 8ZM11.8571 8C11.8571 10.1302 10.1302 11.8571 8 11.8571C5.86976 11.8571 4.14286 10.1302 4.14286 8C4.14286 5.86976 5.86976 4.14286 8 4.14286C10.1302 4.14286 11.8571 5.86976 11.8571 8Z" fill="white"/>
<path fill-rule="evenodd" clip-rule="evenodd" d="M7.05405 10.2266C7.32252 10.3415 7.63574 10.399 7.99371 10.399C8.35574 10.399 8.67099 10.3415 8.93947 10.2266C9.21201 10.1072 9.42354 9.9415 9.57405 9.72935C9.72455 9.51277 9.79981 9.26084 9.79981 8.97354C9.79981 8.68625 9.72455 8.44316 9.57405 8.24426C9.4666 8.09509 9.32521 7.97327 9.14987 7.87882C9.26555 7.80105 9.3622 7.70849 9.43981 7.60117C9.57811 7.41111 9.64727 7.1857 9.64727 6.92493C9.64727 6.65089 9.57608 6.41664 9.43371 6.22216C9.2954 6.02327 9.10218 5.87078 8.85405 5.7647C8.60998 5.65421 8.3232 5.59896 7.99371 5.59896C7.67235 5.59896 7.38761 5.65421 7.13947 5.7647C6.89133 5.87078 6.69811 6.02327 6.55981 6.22216C6.4215 6.41664 6.35235 6.65089 6.35235 6.92493C6.35235 7.1857 6.41947 7.41111 6.55371 7.60117C6.63361 7.70841 6.73116 7.8009 6.84635 7.87864C6.67227 7.97312 6.52997 8.09499 6.41947 8.24426C6.27303 8.44316 6.19981 8.68625 6.19981 8.97354C6.19981 9.26084 6.27506 9.51277 6.42557 9.72935C6.57608 9.9415 6.78557 10.1072 7.05405 10.2266ZM8.57947 9.431C8.4371 9.55034 8.24184 9.61001 7.99371 9.61001C7.74964 9.61001 7.55642 9.55034 7.41405 9.431C7.27167 9.31167 7.20049 9.14813 7.20049 8.9404C7.20049 8.73266 7.27167 8.57133 7.41405 8.45642C7.55642 8.33708 7.74964 8.27741 7.99371 8.27741C8.24184 8.27741 8.4371 8.33708 8.57947 8.45642C8.72591 8.57133 8.79913 8.73266 8.79913 8.9404C8.79913 9.14813 8.72591 9.31167 8.57947 9.431ZM8.48184 7.38901C8.36388 7.49067 8.20116 7.5415 7.99371 7.5415C7.79032 7.5415 7.62964 7.49067 7.51167 7.38901C7.39371 7.28736 7.33472 7.14813 7.33472 6.97133C7.33472 6.7857 7.39574 6.64205 7.51778 6.5404C7.63981 6.43874 7.79845 6.38791 7.99371 6.38791C8.19303 6.38791 8.35371 6.43874 8.47574 6.5404C8.60184 6.64205 8.66489 6.7857 8.66489 6.97133C8.66489 7.14813 8.60388 7.28736 8.48184 7.38901Z" fill="#6CFE00"/>
</svg>
