<svg width="16" height="16" viewBox="0 0 16 16" fill="none" xmlns="http://www.w3.org/2000/svg">
<path fill-rule="evenodd" clip-rule="evenodd" d="M12.0713 7.77242C11.9764 7.7072 11.8816 7.67459 11.7551 7.67459C11.6445 7.67459 11.5338 7.7072 11.439 7.77242C11.3442 7.83764 11.2809 7.91916 11.2335 8.04959C11.2019 8.13112 11.1703 8.22894 11.1545 8.32677L12.34 8.32677C12.3242 8.22894 12.3084 8.13112 12.2767 8.03329C12.2451 7.91916 12.1661 7.83764 12.0713 7.77242Z" fill="#6CFE00"/>
<path fill-rule="evenodd" clip-rule="evenodd" d="M12.6719 5.73438L6.15959 5.73438C5.43249 5.73438 4.84765 6.32133 4.84765 7.03872L4.84765 8.99525C4.84765 9.71264 5.43249 10.2996 6.15959 10.2996L12.6877 10.2996C13.4148 10.2996 13.9997 9.71264 13.9997 8.99525L13.9997 7.03872C13.9839 6.30503 13.399 5.73438 12.6719 5.73438ZM7.81929 9.61481L6.15959 9.61481L6.15959 6.63111L6.50734 6.63111L6.50734 9.23981L7.81929 9.23981L7.81929 9.61481ZM8.49897 9.61481L8.16703 9.61481L8.16703 7.34851L8.49897 7.34851L8.49897 9.61481ZM8.49897 6.84307C8.45155 6.89198 8.40413 6.92459 8.3409 6.92459C8.27768 6.92459 8.21445 6.89198 8.18284 6.84307C8.13542 6.79416 8.11961 6.72894 8.11961 6.64742C8.11961 6.5659 8.13542 6.50068 8.18284 6.45177C8.23026 6.40285 8.27768 6.37025 8.3409 6.37025C8.40413 6.37025 8.45155 6.40285 8.49897 6.45177C8.54639 6.50068 8.5622 6.5659 8.5622 6.63111C8.5622 6.71264 8.53058 6.77785 8.49897 6.84307ZM9.95318 9.61481L9.62124 9.61481L8.8151 7.34851L9.16285 7.34851L9.79511 9.15829L10.4432 7.34851L10.7751 7.34851L9.95318 9.61481ZM12.6719 8.55503C12.6719 8.57133 12.6719 8.60394 12.6719 8.62025L11.1861 8.62025C11.2019 8.71807 11.2177 8.8159 11.2651 8.91372C11.3284 9.02785 11.4074 9.12568 11.5022 9.1909C11.5971 9.25611 11.7235 9.28872 11.85 9.28872C11.9606 9.28872 12.0555 9.27242 12.1503 9.22351C12.2451 9.17459 12.3242 9.10938 12.3874 9.01155L12.5771 9.27242C12.498 9.38655 12.3874 9.48438 12.2609 9.54959C12.1345 9.61481 12.008 9.64742 11.85 9.64742C11.6603 9.64742 11.4864 9.59851 11.3284 9.50068C11.1861 9.40285 11.0596 9.27242 10.9806 9.09307C10.9016 8.91372 10.8542 8.71807 10.8542 8.48981C10.8542 8.26155 10.8858 8.0659 10.9648 7.88655C11.0438 7.7072 11.1545 7.57677 11.2967 7.47894C11.439 7.38111 11.5971 7.3322 11.7709 7.3322C11.9448 7.3322 12.1029 7.38111 12.2451 7.47894C12.3874 7.57677 12.4822 7.7072 12.5613 7.88655C12.6403 8.0659 12.6719 8.26155 12.6719 8.48981C12.6719 8.50612 12.6719 8.53872 12.6719 8.55503Z" fill="#6CFE00"/>
<path d="M5.93862 5.1579L11.4393 5.1579L11.4393 3.17391C11.4235 2.52174 10.9493 2 10.3487 2C8.15155 2 5.93862 2 3.74151 2C3.42537 2 3.17247 2.13043 2.95118 2.3913C2.72988 2.63587 2.66666 2.94565 2.66666 3.27174L2.66666 12.6793C2.66666 12.7935 2.66666 12.9076 2.68246 13.0217C2.80891 13.6087 3.21989 14 3.78892 14C5.97024 14 8.15155 14 10.317 14C10.5383 14 10.7596 13.9511 10.9493 13.8043C11.2813 13.5598 11.4551 13.2011 11.4551 12.7446L11.4551 10.8421L5.93862 10.8421C5.03765 10.8421 4.31054 10.0054 4.31054 9.07609L4.31054 6.94022C4.31054 6.01087 5.03765 5.1579 5.93862 5.1579ZM9.82704 12.2554C9.87446 12.2065 9.93769 12.1576 9.98511 12.1087C10.0325 12.0761 10.08 12.0272 10.1116 11.9783C10.1274 11.962 10.1274 11.9457 10.1432 11.9294C10.1748 11.8641 10.2696 11.8641 10.3171 11.9294C10.3487 11.9946 10.4119 12.0435 10.4593 12.0924C10.5067 12.1413 10.5541 12.1902 10.6016 12.2228C10.6648 12.2717 10.7122 12.337 10.728 12.4185C10.7596 12.5652 10.7122 12.7935 10.5067 12.8587C10.4435 12.875 10.3961 12.875 10.3487 12.8587C10.3487 12.8587 10.3487 12.8587 10.3329 12.8587C10.3645 12.9565 10.3961 13.0543 10.4435 13.1359L10.0325 13.1359C10.0641 13.038 10.0958 12.9565 10.1274 12.8587L10.1116 12.8587C10.0167 12.875 9.92189 12.8587 9.84285 12.7935C9.76382 12.7283 9.73221 12.663 9.7164 12.5652C9.70059 12.4674 9.74801 12.3533 9.82704 12.2554ZM3.86796 4.33152C3.89957 4.2337 3.94699 4.11957 3.99441 4.00544C3.9786 4.00544 3.9786 4.00544 3.9628 4.00544C3.85215 4.00544 3.7415 4.00543 3.64666 3.92391C3.56763 3.8587 3.52021 3.77717 3.50441 3.66304C3.47279 3.5 3.53602 3.36957 3.63086 3.27174C3.69408 3.20652 3.75731 3.15761 3.82054 3.1087C3.86796 3.05978 3.91538 3.01087 3.9628 2.94565C3.9786 2.92935 3.99441 2.91304 3.99441 2.89674C4.04183 2.81522 4.15248 2.81522 4.1999 2.89674C4.24732 2.97826 4.31054 3.02717 4.37377 3.09239C4.437 3.1413 4.48442 3.19022 4.54764 3.25543C4.61087 3.32065 4.67409 3.38587 4.6899 3.4837C4.73732 3.64674 4.67409 3.90761 4.437 3.98913C4.35796 4.02174 4.29474 4.02174 4.23151 4.02174C4.23151 4.02174 4.23151 4.02174 4.2157 4.02174C4.24732 4.13587 4.29474 4.2337 4.32635 4.34783L3.86796 4.34783L3.86796 4.33152Z" fill="white"/>
</svg>
