<svg width="16" height="16" viewBox="0 0 16 16" fill="none" xmlns="http://www.w3.org/2000/svg">
<path d="M7.66601 4.73334C7.39935 4.33334 7.06602 4.00001 6.59935 3.73334C6.13268 3.46668 5.73268 3.40001 5.26602 3.33334C4.79935 3.33334 4.26602 3.40001 3.86602 3.53334C3.39935 3.73334 2.99935 4.00001 2.66602 4.33334C2.33268 4.66668 2.06602 5.06668 1.86602 5.53334C1.73268 5.93334 1.66602 6.46668 1.66602 6.93334C1.73268 7.40001 1.86602 7.86668 2.06602 8.26668C2.33268 8.73334 2.66601 9.06668 3.06601 9.33334C3.19935 8.13334 3.73268 7.06668 4.59935 6.20001C5.46601 5.33334 6.53268 4.86668 7.66601 4.73334Z" fill="white"/>
<path d="M8.33268 4.46668C8.86602 3.60001 9.73268 3.06668 10.7327 2.80001C10.5327 2.33334 10.1993 2.00001 9.73268 1.73334C9.33268 1.46668 8.79935 1.33334 8.33268 1.33334C7.86602 1.33334 7.33268 1.46668 6.93268 1.73334C6.53268 2.00001 6.19935 2.33334 5.93268 2.80001C6.93268 3.00001 7.79935 3.60001 8.33268 4.46668Z" fill="white"/>
<path d="M14.7993 5.53334C14.5993 5.06668 14.3327 4.66668 13.9993 4.33334C13.666 4.00001 13.266 3.73334 12.7993 3.53334C12.3993 3.40001 11.866 3.33334 11.3993 3.33334C10.9327 3.40001 10.466 3.53334 10.066 3.73334C9.59935 4.00001 9.26601 4.33334 8.99935 4.73334C10.1993 4.86668 11.266 5.40001 12.1327 6.26668C12.9993 7.13334 13.5327 8.20001 13.666 9.40001C14.066 9.13335 14.3993 8.73335 14.5993 8.33334C14.866 7.93334 14.9993 7.46668 14.9993 7.00001C14.9993 6.46668 14.9327 5.93335 14.7993 5.53334Z" fill="white"/>
<path d="M8.73268 10.6C8.86601 10.7333 8.86601 10.9333 8.86601 11.1333C8.86601 11.3333 8.79935 11.4667 8.73268 11.6C8.66601 11.7333 8.46601 11.7333 8.26601 11.7333C8.06601 11.7333 7.93268 11.6667 7.79935 11.6C7.73268 11.4667 7.66601 11.3333 7.66601 11.1333C7.66601 10.9333 7.73268 10.7333 7.79935 10.6C7.93268 10.4667 8.06601 10.4 8.26601 10.4C8.46601 10.4 8.66601 10.4667 8.73268 10.6Z" fill="white"/>
<path d="M11.666 6.66668C10.7327 5.80001 9.59935 5.33334 8.33268 5.33334C7.06602 5.33334 5.93268 5.80001 4.99935 6.66668C4.13268 7.60001 3.66601 8.73334 3.66601 10C3.66601 11.2667 4.13268 12.4 4.99935 13.3333C5.86601 14.2 7.06601 14.6667 8.33268 14.6667C9.59935 14.6667 10.7327 14.2 11.666 13.3333C12.5327 12.4667 12.9993 11.2667 12.9993 10C12.9993 8.73335 12.5327 7.60001 11.666 6.66668ZM9.93268 11.0667C9.93268 11.6 9.79935 12.0667 9.53268 12.3333C9.26601 12.6667 8.79935 12.8 8.33268 12.8C7.86601 12.8 7.33268 12.6667 7.06601 12.3333C6.79935 12.0667 6.66601 11.6 6.66601 11.0667C6.66601 10.8 6.66601 10.5333 6.79935 10.2667C6.79935 10 6.93268 9.73334 6.99935 9.46668L8.13268 7.00001L9.33268 7.00001L8.19935 9.33334C8.26601 9.33334 8.33268 9.33334 8.39935 9.33334C8.86601 9.33334 9.26601 9.46668 9.46601 9.80001C9.79935 10.0667 9.93268 10.5333 9.93268 11.0667Z" fill="white"/>
<path d="M7.66601 4.73334C7.39935 4.33334 7.06602 4.00001 6.59935 3.73334C6.13268 3.46668 5.73268 3.40001 5.26602 3.33334C4.79935 3.33334 4.26602 3.40001 3.86602 3.53334C3.39935 3.73334 2.99935 4.00001 2.66602 4.33334C2.33268 4.66668 2.06602 5.06668 1.86602 5.53334C1.73268 5.93334 1.66602 6.46668 1.66602 6.93334C1.73268 7.40001 1.86602 7.86668 2.06602 8.26668C2.33268 8.73334 2.66601 9.06668 3.06601 9.33334C3.19935 8.13334 3.73268 7.06668 4.59935 6.20001C5.46601 5.33334 6.53268 4.86668 7.66601 4.73334Z" fill="#6CFE00"/>
</svg>
