<svg width="16" height="16" viewBox="0 0 16 16" fill="none" xmlns="http://www.w3.org/2000/svg">
<path fill-rule="evenodd" clip-rule="evenodd" d="M7.77846 13.9998C7.96175 13.9998 8.12825 13.8922 8.20473 13.7245C8.24573 13.6694 8.27306 13.6006 8.27306 13.5318L8.27306 7.86085C8.27306 7.68191 8.12273 7.54427 7.95873 7.54427L2.31434 7.54427C2.13667 7.54427 2 7.68191 2 7.86085L2 13.5318C2 13.7887 2.20681 13.9998 2.46192 13.9998L7.77846 13.9998ZM2.58767 13.2565L7.67172 13.2565L7.67172 9.16847L2.58767 9.16847L2.58767 13.2565ZM7.67172 8.13614L2.58767 8.13614L2.58767 8.90694L7.67172 8.90694L7.67172 8.13614Z" fill="#6CFE00"/>
<path d="M3.35303 9.3889L4.07737 9.3889L4.07737 10.1184L3.35303 10.1184L3.35303 9.3889Z" fill="#6CFE00"/>
<path d="M6.18205 9.3889L6.90639 9.3889L6.90639 10.1184L6.18205 10.1184L6.18205 9.3889Z" fill="#6CFE00"/>
<path d="M4.77437 9.3889L5.49871 9.3889L5.49871 10.1184L4.77437 10.1184L4.77437 9.3889Z" fill="#6CFE00"/>
<path d="M3.35303 10.669L4.07737 10.669L4.07737 11.3985L3.35303 11.3985L3.35303 10.669Z" fill="#6CFE00"/>
<path d="M6.18205 10.669L6.90639 10.669L6.90639 11.3985L6.18205 11.3985L6.18205 10.669Z" fill="#6CFE00"/>
<path d="M4.77437 10.669L5.49871 10.669L5.49871 11.3985L4.77437 11.3985L4.77437 10.669Z" fill="#6CFE00"/>
<path d="M3.35303 11.9766L4.07737 11.9766L4.07737 12.7061L3.35303 12.7061L3.35303 11.9766Z" fill="#6CFE00"/>
<path d="M6.18205 11.9766L6.90639 11.9766L6.90639 12.7061L6.18205 12.7061L6.18205 11.9766Z" fill="#6CFE00"/>
<path d="M4.77437 11.9766L5.49871 11.9766L5.49871 12.7061L4.77437 12.7061L4.77437 11.9766Z" fill="#6CFE00"/>
<path d="M7.28973 5.91991C7.28973 6.05755 7.33073 6.18143 7.39906 6.27778C7.48107 6.3879 7.57673 6.45672 7.7134 6.51178C7.85007 6.56683 8.01407 6.59436 8.19174 6.59436C8.36941 6.59436 8.53341 6.56683 8.67008 6.51178C8.80675 6.45672 8.91608 6.37413 8.98441 6.27778C9.06641 6.16767 9.09375 6.05755 9.09375 5.91991C9.09375 5.7685 9.05275 5.64462 8.95708 5.53451C8.87508 5.42439 8.75208 5.35557 8.58808 5.31428C8.72474 5.27298 8.83408 5.20416 8.90241 5.10781C8.98441 5.01146 9.02541 4.88758 9.02541 4.7637C9.02541 4.63982 8.98441 4.51594 8.91608 4.41959C8.84775 4.32324 8.73841 4.24066 8.61541 4.1856C8.49241 4.13054 8.34208 4.10301 8.17807 4.10301C8.01407 4.10301 7.86374 4.13054 7.74074 4.1856C7.61773 4.24065 7.5084 4.30948 7.44007 4.41959C7.37173 4.51594 7.33073 4.63982 7.33073 4.7637C7.33073 4.88758 7.37173 5.01146 7.45373 5.10781C7.53573 5.20416 7.64507 5.27298 7.76807 5.32804C7.61773 5.36933 7.49473 5.43815 7.39906 5.54827C7.33073 5.64462 7.28973 5.7685 7.28973 5.91991ZM7.7544 4.81876C7.7544 4.70864 7.7954 4.61229 7.86374 4.55724C7.94574 4.50218 8.04141 4.46088 8.17807 4.46088C8.31474 4.46088 8.41041 4.48841 8.49241 4.55724C8.57441 4.61229 8.60174 4.70864 8.60174 4.81876C8.60174 4.92887 8.56074 5.01146 8.47874 5.08028C8.39674 5.1491 8.30107 5.1904 8.16441 5.21793C8.02774 5.20416 7.93207 5.1491 7.85007 5.08028C7.7954 5.01146 7.7544 4.92887 7.7544 4.81876ZM7.8364 5.61709C7.93207 5.54827 8.0414 5.50698 8.19174 5.47945C8.34207 5.49321 8.46508 5.54827 8.54708 5.61709C8.64274 5.68591 8.68374 5.78226 8.68374 5.89238C8.68374 6.01626 8.64274 6.09885 8.54708 6.16767C8.46508 6.23649 8.34207 6.26402 8.19174 6.26402C8.0414 6.26402 7.9184 6.23649 7.8364 6.16767C7.7544 6.09885 7.69973 6.01626 7.69973 5.89238C7.69973 5.78226 7.74074 5.68591 7.8364 5.61709Z" fill="white"/>
<path d="M11.5128 9.2784L9.81809 9.2784L9.81809 9.63628L11.0344 9.63628L9.94109 11.7147L10.4058 11.7147L11.5128 9.60875L11.5128 9.2784Z" fill="white"/>
<path fill-rule="evenodd" clip-rule="evenodd" d="M9.44868 13.6328C9.11451 13.5039 8.80272 13.3189 8.5334 13.091L8.5334 7.9156C9.12107 7.43385 9.85908 7.1448 10.6654 7.1448C10.7748 7.1448 10.8978 7.1448 11.0071 7.15856C11.1438 7.17233 11.2804 7.19986 11.4171 7.22738C12.8931 7.57149 14.0001 8.90664 14.0001 10.5033C14.0001 11.8553 13.2082 13.0133 12.0694 13.5481C12.0431 13.555 12.0148 13.5659 11.9844 13.5812C11.5415 13.8042 10.2781 13.9526 9.44868 13.6328ZM10.6791 8.52123C9.58574 8.52123 8.71107 9.41592 8.71107 10.5033C8.71107 11.5907 9.58574 12.4716 10.6791 12.4716C11.7724 12.4716 12.6471 11.5907 12.6471 10.5033C12.6471 9.40215 11.7588 8.52123 10.6791 8.52123Z" fill="white"/>
<path d="M5.4447 7.25506L7.67239 7.25506C7.15305 7.10365 6.70205 6.74578 6.44238 6.22273C5.96404 5.24546 6.36038 4.06173 7.33072 3.57997C8.30107 3.09822 9.47641 3.49739 9.95475 4.48842C10.4331 5.46569 10.0367 6.64943 9.06641 7.13118C8.80674 7.26882 8.51973 7.32388 8.23273 7.33765C8.34207 7.3927 8.43773 7.48905 8.47873 7.61293C9.10741 7.13118 9.87275 6.86966 10.6654 6.86966C10.7884 6.86966 10.9251 6.88342 11.0344 6.88342C11.0754 6.88342 11.1164 6.89719 11.1574 6.89719C11.6221 5.98874 11.6631 4.87383 11.1848 3.86903C10.3648 2.2173 8.3694 1.52908 6.71572 2.34118C5.06203 3.15328 4.37869 5.17664 5.1987 6.84213C5.26704 6.99354 5.34904 7.13118 5.4447 7.25506Z" fill="white"/>
</svg>
