<svg width="16" height="16" viewBox="0 0 16 16" fill="none" xmlns="http://www.w3.org/2000/svg">
<path d="M10.8062 5.83757L8.00682 13.3266L8.00085 13.3333L7.9948 13.3265L5.19601 5.83757L10.8062 5.83757ZM10.4214 5.23514L8.00378 2.66666L7.99795 2.66666L5.58104 5.23514L10.4214 5.23514ZM4.2876 5.23514L3.43951 2.96583L1.3444 5.23514L4.2876 5.23514ZM11.7146 5.23514L14.6574 5.23514L12.5629 2.96578L11.7146 5.23514Z" fill="white"/>
<path d="M4.90001 5.04608L7.13901 2.66666L4.01076 2.66666L4.90001 5.04608ZM11.9913 2.66666L8.86248 2.66666L11.1019 5.0459L11.9913 2.66666ZM11.4892 5.83757L9.18519 12.0015L14.6673 5.83757L11.4892 5.83757ZM4.51256 5.83757L1.33398 5.83757L6.81619 12.0016L4.51256 5.83757Z" fill="#6CFE00"/>
</svg>
