<svg width="16" height="16" viewBox="0 0 16 16" fill="none" xmlns="http://www.w3.org/2000/svg">
<path d="M8 1.33398C7.07986 1.33398 6.21614 1.5076 5.40885 1.85482C4.59288 2.21072 3.88324 2.69032 3.27994 3.29362C2.67664 3.89692 2.20138 4.60221 1.85416 5.40951C1.50694 6.2168 1.33333 7.08051 1.33333 8.00065C1.33333 8.92079 1.50694 9.78451 1.85416 10.5918C2.20138 11.4078 2.67664 12.1174 3.27994 12.7207C3.88324 13.324 4.59288 13.7993 5.40885 14.1465C6.21614 14.4937 7.07986 14.6673 7.99999 14.6673C8.92013 14.6673 9.78385 14.4937 10.5911 14.1465C11.4071 13.7993 12.1167 13.324 12.72 12.7207C13.3233 12.1174 13.7986 11.4078 14.1458 10.5918C14.4931 9.78451 14.6667 8.92079 14.6667 8.00065C14.6667 7.08051 14.4931 6.2168 14.1458 5.40951C13.7986 4.60221 13.3233 3.89692 12.72 3.29362C12.1167 2.69032 11.4071 2.21072 10.5911 1.85482C9.78385 1.5076 8.92013 1.33399 8 1.33398ZM11.3333 12.4798C11.2812 12.3583 11.24 12.2281 11.2096 12.0892C11.1792 11.9503 11.1641 11.8071 11.1641 11.6595C11.1641 11.5119 11.1792 11.3665 11.2096 11.2233C11.24 11.0801 11.2812 10.9477 11.3333 10.8262C11.2639 10.8349 11.1966 10.8414 11.1315 10.8457C11.0664 10.85 10.9991 10.8522 10.9297 10.8522C10.6432 10.8522 10.3654 10.8218 10.0963 10.7611C9.82725 10.7003 9.57117 10.6178 9.32812 10.5137C9.28472 10.8349 9.12413 11.1842 8.84635 11.5619C8.56857 11.9395 8.26475 12.1369 7.93489 12.1543L7.94791 12.1543C8.24305 12.2845 8.50564 12.4625 8.73567 12.6882C8.96571 12.9138 9.14583 13.1743 9.27604 13.4694L9.3151 13.4694C9.09808 13.5302 8.87456 13.5736 8.64453 13.5996C8.41449 13.6257 8.17795 13.6387 7.93489 13.6387C7.56163 13.6387 7.20138 13.604 6.85416 13.5345C6.49826 13.4651 6.15755 13.3631 5.83203 13.2285C5.5065 13.094 5.19617 12.9312 4.90104 12.7402C4.61458 12.5493 4.34548 12.3366 4.09374 12.1022C4.24131 11.946 4.41058 11.8158 4.60156 11.7116C4.79253 11.6074 5.00086 11.538 5.22656 11.5033C5.11371 11.321 5.02473 11.1257 4.95963 10.9173C4.89453 10.709 4.86197 10.4876 4.86197 10.2533C4.86197 10.071 4.88367 9.89301 4.92708 9.7194C4.97048 9.54579 5.0269 9.3852 5.09635 9.23763C5.00086 9.27235 4.89887 9.29622 4.79036 9.30925C4.68185 9.32227 4.57117 9.32878 4.45833 9.32878C4.22395 9.32878 4.00043 9.29622 3.78775 9.23112C3.57508 9.16602 3.38194 9.07704 3.20833 8.96419L3.20833 8.97721C3.14756 9.13346 3.06944 9.27886 2.97395 9.41341C2.87847 9.54796 2.76562 9.66732 2.63541 9.77148C2.53992 9.50239 2.46831 9.22461 2.42057 8.93815C2.37282 8.65169 2.34895 8.35655 2.34895 8.05273C2.35763 7.77496 2.3815 7.49935 2.42057 7.22591C2.45963 6.95247 2.51388 6.69857 2.58333 6.46419L2.60937 6.46419C2.73958 6.46419 2.85677 6.4924 2.96093 6.54883C3.0651 6.60525 3.15624 6.68121 3.23437 6.77669C3.17361 6.57704 3.29079 6.28624 3.58593 5.9043C3.88107 5.52235 4.20659 5.28798 4.56249 5.20117C4.39756 5.07096 4.26519 4.9082 4.16536 4.71289C4.06553 4.51758 4.01562 4.30708 4.01562 4.08138C4.39756 3.70812 4.83159 3.39128 5.3177 3.13086C5.80381 2.87044 6.33333 2.68381 6.90625 2.57096C6.90625 2.57096 7.16449 2.60569 7.68098 2.67513C8.19748 2.74457 8.58159 2.98329 8.83333 3.39128C9.03298 3.17426 9.37586 3.07878 9.86197 3.10482C10.3481 3.13086 10.5911 3.14388 10.5911 3.14388L10.6172 3.16992C11.0859 3.43034 11.5091 3.75152 11.8867 4.13346C12.2643 4.51541 12.5877 4.95378 12.8568 5.44857C12.8568 5.44857 12.7526 5.68077 12.5443 6.14518C12.3359 6.60959 12.0321 6.85916 11.6328 6.89388C11.8672 7.05013 12.056 7.25629 12.1992 7.51237C12.3424 7.76845 12.4141 8.0484 12.4141 8.35221C12.4141 8.43034 12.4097 8.50629 12.401 8.58008C12.3924 8.65386 12.3793 8.72548 12.362 8.79492C12.4488 8.7602 12.5378 8.73199 12.6289 8.71029C12.72 8.68859 12.8134 8.67774 12.9088 8.67774C13.013 8.67774 13.1107 8.68859 13.2018 8.71029C13.293 8.73199 13.3776 8.7602 13.4557 8.79492L13.4557 8.82096C13.4036 9.19423 13.3168 9.55447 13.1953 9.90169C13.0738 10.2489 12.9219 10.5766 12.7396 10.8848C12.5573 11.1929 12.349 11.4816 12.1146 11.7507C11.8715 12.0197 11.6068 12.2628 11.3203 12.4798L11.3333 12.4798Z" fill="white"/>
<path d="M8.74218 3.74284C8.57725 3.97721 8.3559 4.19423 8.07812 4.39388C7.80034 4.59353 7.49218 4.7628 7.15364 4.90169C6.8151 5.04058 6.46354 5.14475 6.09895 5.21419C5.72569 5.28364 5.36545 5.301 5.01822 5.26628C5.40017 5.78711 5.63237 6.31662 5.71484 6.85482C5.7973 7.39301 5.68663 8.03971 5.38281 8.79492C5.6519 8.64735 5.96874 8.56923 6.33333 8.56055C6.69791 8.55187 7.06249 8.59744 7.42708 8.69727C7.79166 8.79709 8.13454 8.94683 8.45572 9.14648C8.7769 9.33746 9.0243 9.55881 9.19791 9.81055C9.20659 9.27235 9.31293 8.72765 9.51692 8.17643C9.72092 7.62522 10.2396 7.15864 11.0729 6.77669C10.8125 6.68989 10.5521 6.5293 10.2917 6.29492C10.0399 6.06923 9.80555 5.80881 9.58854 5.51367C9.37152 5.21853 9.18923 4.91037 9.04166 4.58919C8.88541 4.27669 8.78559 3.99458 8.74218 3.74284Z" fill="#6CFE00"/>
</svg>
