<svg width="16" height="16" viewBox="0 0 16 16" fill="none" xmlns="http://www.w3.org/2000/svg">
<path d="M5.64514 10.4428L10.3537 10.4428C11.295 10.4428 12.0607 9.4959 12.0607 8.33229C12.0607 7.16828 11.295 6.22137 10.3537 6.22137L5.64514 6.22136C4.70387 6.22136 3.93815 7.16828 3.93815 8.33229C3.93815 9.49589 4.70387 10.4428 5.64514 10.4428Z" fill="#6CFE00"/>
<path d="M10.7334 13.3333L11.2976 13.3333C13.4433 13.3333 15.1987 11.2664 15.3327 8.65466L12.5646 8.65469C12.4503 9.86667 11.6968 10.8406 10.7333 11.0466L10.7334 13.3333Z" fill="white"/>
<path d="M10.2138 13.3333L10.2138 11.0864L5.78442 11.0864L5.78442 13.3333L10.2138 13.3333Z" fill="white"/>
<path d="M5.26496 13.3333L5.26496 11.0466C4.3015 10.8406 3.54792 9.86667 3.43363 8.65469L0.666198 8.65469C0.800148 11.2663 2.55499 13.3333 4.70071 13.3333L5.26496 13.3333Z" fill="white"/>
<path d="M0.666198 8.0123L3.43366 8.0123C3.54795 6.80031 4.30153 5.82597 5.26499 5.62042L5.26499 3.33345L4.70071 3.33334C2.55496 3.33334 0.800081 5.40052 0.666198 8.0123Z" fill="white"/>
<path d="M5.78446 3.33345L5.78446 5.58014L10.2139 5.58014L10.2139 3.33345L5.78446 3.33345Z" fill="white"/>
<path d="M10.7331 3.33345L11.2977 3.33334C13.4434 3.33334 15.1988 5.40042 15.3327 8.01219L12.5647 8.0123C12.4504 6.80031 11.6968 5.82597 10.7333 5.62042L10.7331 3.33345Z" fill="white"/>
</svg>
