<svg xmlns="http://www.w3.org/2000/svg" width="20" height="20" viewBox="0 0 20 20" fill="none">
<path d="M6 15.3996V4.59933C6.00031 4.48998 6.02716 4.3828 6.07767 4.28932C6.12819 4.19583 6.20045 4.11959 6.28667 4.0688C6.3729 4.01801 6.46983 3.99458 6.56703 4.00105C6.66423 4.00752 6.75802 4.04364 6.8383 4.10552L13.784 9.50567C14.072 9.72948 14.072 10.2683 13.784 10.4927L6.8383 15.8929C6.75818 15.9554 6.66435 15.992 6.56699 15.9988C6.46963 16.0057 6.37246 15.9824 6.28605 15.9315C6.19964 15.8807 6.12729 15.8042 6.07686 15.7105C6.02643 15.6167 5.99985 15.5092 6 15.3996Z" fill="#21262C"/>
</svg>