<svg xmlns="http://www.w3.org/2000/svg" width="26" height="26" viewBox="0 0 26 26" fill="none">
<path d="M18.6875 8.53125C19.0107 8.53125 19.3207 8.40285 19.5493 8.17429C19.7778 7.94573 19.9062 7.63573 19.9062 7.3125V4.46875C19.9062 4.14552 19.7778 3.83552 19.5493 3.60696C19.3207 3.3784 19.0107 3.25 18.6875 3.25C18.3643 3.25 18.0543 3.3784 17.8257 3.60696C17.5972 3.83552 17.4688 4.14552 17.4688 4.46875V7.3125C17.4688 7.63573 17.5972 7.94573 17.8257 8.17429C18.0543 8.40285 18.3643 8.53125 18.6875 8.53125ZM7.3125 8.53125C7.63573 8.53125 7.94573 8.40285 8.17429 8.17429C8.40285 7.94573 8.53125 7.63573 8.53125 7.3125V4.46875C8.53125 4.14552 8.40285 3.83552 8.17429 3.60696C7.94573 3.3784 7.63573 3.25 7.3125 3.25C6.98927 3.25 6.67927 3.3784 6.45071 3.60696C6.22215 3.83552 6.09375 4.14552 6.09375 4.46875V7.3125C6.09375 7.63573 6.22215 7.94573 6.45071 8.17429C6.67927 8.40285 6.98927 8.53125 7.3125 8.53125ZM3.25 22.3438C3.25 22.4515 3.2928 22.5548 3.36899 22.631C3.44517 22.7072 3.54851 22.75 3.65625 22.75H22.3438C22.4515 22.75 22.5548 22.7072 22.631 22.631C22.7072 22.5548 22.75 22.4515 22.75 22.3438V11.5131H3.25V22.3438ZM8.90094 15.6203C8.92448 15.5481 8.9678 15.484 9.02596 15.4351C9.08413 15.3863 9.15481 15.3547 9.23 15.3441L11.6269 14.9947L12.6994 12.8212C12.7329 12.7529 12.7849 12.6953 12.8496 12.6551C12.9142 12.6148 12.9889 12.5936 13.065 12.5938C13.1411 12.5936 13.2158 12.6148 13.2804 12.6551C13.3451 12.6953 13.3971 12.7529 13.4306 12.8212L14.5031 14.9947L16.9041 15.34C16.9793 15.3507 17.0499 15.3822 17.1081 15.4311C17.1663 15.4799 17.2096 15.544 17.2331 15.6163C17.2542 15.6872 17.2555 15.7625 17.2368 15.8341C17.2182 15.9057 17.1804 15.9708 17.1275 16.0225L15.3928 17.7166L15.7991 20.1053C15.814 20.1811 15.807 20.2595 15.779 20.3315C15.7509 20.4034 15.7029 20.4659 15.6406 20.5116C15.5792 20.5569 15.5062 20.584 15.43 20.5898C15.3538 20.5955 15.2776 20.5797 15.21 20.5441L13.0691 19.4187L10.9241 20.5481C10.8565 20.5837 10.7802 20.5996 10.7041 20.5938C10.6279 20.5881 10.5549 20.561 10.4934 20.5156C10.4304 20.4705 10.3816 20.4082 10.3528 20.3362C10.324 20.2643 10.3164 20.1855 10.3309 20.1094L10.7372 17.7166L8.99844 16.0266C8.94692 15.974 8.91064 15.9085 8.89346 15.8369C8.87629 15.7654 8.87887 15.6905 8.90094 15.6203Z" fill="#009349"/>
<path d="M22.3438 6.09375H20.7188V7.3125C20.7188 7.85122 20.5047 8.36788 20.1238 8.74881C19.7429 9.12974 19.2262 9.34375 18.6875 9.34375C18.1488 9.34375 17.6321 9.12974 17.2512 8.74881C16.8703 8.36788 16.6562 7.85122 16.6562 7.3125V6.09375H9.34375V7.3125C9.34375 7.85122 9.12974 8.36788 8.74881 8.74881C8.36788 9.12974 7.85122 9.34375 7.3125 9.34375C6.77378 9.34375 6.25712 9.12974 5.87619 8.74881C5.49526 8.36788 5.28125 7.85122 5.28125 7.3125V6.09375H3.65625C3.54851 6.09375 3.44517 6.13655 3.36899 6.21274C3.2928 6.28892 3.25 6.39226 3.25 6.5V10.7006H22.75V6.5C22.75 6.39226 22.7072 6.28892 22.631 6.21274C22.5548 6.13655 22.4515 6.09375 22.3438 6.09375Z" fill="#009349"/>
</svg>