<svg xmlns="http://www.w3.org/2000/svg" width="26" height="26" viewBox="0 0 26 26" fill="none">
<path d="M24.6437 7.80376C23.8449 4.6688 21.3344 2.15637 18.1963 1.35634L16.5845 1.08325H15.2345L15.1222 1.13166C10.9147 1.32159 7.37698 4.01773 5.25371 7.5108C4.99427 7.93782 4.06577 9.58629 4.06204 9.99655C4.05894 10.377 4.40465 10.7215 4.78449 10.7196C5.016 10.7178 5.79244 10.2771 6.09967 10.1722C6.40069 10.0692 6.72033 9.96117 7.04183 9.9742C7.10079 10.5551 6.70295 11.0355 6.34483 11.4414C4.99551 12.9732 3.67723 13.6857 3.37063 15.9617C3.3098 16.4111 3.20367 17.2881 3.81688 17.4116C4.48347 17.5456 5.19537 17.3706 5.47218 18.224C6.13629 20.2734 4.19114 22.1931 2.57432 23.0788C2.25965 23.2507 1.5372 23.504 1.31811 23.6846C1.19397 23.787 1.19211 23.9285 1.0835 24.0321V24.4045C1.2219 24.6708 1.32928 24.7782 1.59554 24.9166H2.85238L4.54554 24.7714C7.65566 24.4145 10.07 23.3805 12.3956 21.3099C13.2553 20.5447 14.2204 19.3195 15.3643 19.0185C15.4965 18.9837 15.7937 18.9123 15.9142 18.9142C16.1761 18.9179 15.8968 19.6999 15.8403 19.8669C15.7342 20.1828 15.2997 20.9394 15.2829 21.1746C15.2538 21.5849 15.633 21.9653 16.0439 21.9356C16.3834 21.9114 17.6086 21.2609 17.9654 21.061C21.2239 19.2375 23.8996 16.2273 24.6704 12.4972L24.9168 10.7655V9.41561L24.6437 7.80376ZM22.3076 14.0879C19.2769 18.8105 12.2367 18.6014 9.46364 13.7397C6.67254 8.84584 10.0787 2.75655 15.6709 2.4996C21.7266 2.22154 25.5878 8.97742 22.3076 14.0879Z" fill="#009349"/>
<path d="M13.5613 7.28098C13.3918 7.59999 12.4739 9.65562 12.2852 9.72141L10.2619 10.0255C10.224 8.35968 11.0011 6.705 12.2647 5.63374C12.3262 5.58285 12.6272 5.3321 12.6775 5.36996L13.5613 7.28098Z" fill="#28C70B"/>
<path d="M17.7365 10.9596L15.7119 11.9701L14.087 10.4103L14.0572 10.2614L15.0447 8.26783L17.3994 8.63463L17.7365 10.9596Z" fill="#28C70B"/>
<path d="M14.5556 13.3684L14.2695 15.4476C12.5297 15.0001 10.9949 13.4708 10.5567 11.7348L12.5397 11.4425L12.7104 11.4953L14.5556 13.3684Z" fill="#28C70B"/>
<path d="M20.3705 13.7396C19.2987 15.0032 17.6446 15.7803 15.9781 15.7424L16.2835 13.7191C16.3325 13.5751 18.4601 12.5442 18.7736 12.443L20.6343 13.3268C20.6722 13.3771 20.4214 13.6781 20.3705 13.7396Z" fill="#28C70B"/>
<path d="M19.3353 5.39479L17.8376 6.87817L15.3047 6.48591C15.1905 6.48157 15.1601 6.41019 15.1036 6.33323C14.7635 5.87208 14.5425 5.04474 14.2105 4.54573C15.6219 4.10134 17.1555 4.19692 18.4937 4.82875C18.6296 4.89268 19.3613 5.28245 19.3353 5.39479Z" fill="#28C70B"/>
<path d="M21.4586 11.7938L19.5444 10.792L19.1553 8.10894C19.6233 7.76261 20.0912 7.03519 20.5449 6.72362C20.594 6.69011 20.6058 6.64356 20.6927 6.66652C21.7 8.17907 22.0227 10.0454 21.4586 11.7938Z" fill="#28C70B"/>
</svg>