<svg width="20" height="20" viewBox="0 0 20 20" fill="none" xmlns="http://www.w3.org/2000/svg">
<path d="M18.0209 10.7716C17.5736 10.3391 16.9796 10.1003 16.3498 10.1003C15.7701 10.1003 15.219 10.3045 14.786 10.6713C13.852 9.88926 12.4421 9.91694 11.5618 10.7578C11.1109 11.1903 10.8604 11.7681 10.8568 12.3841C10.8532 13 11.1001 13.5778 11.551 14.0138L14.3172 16.6955C14.4425 16.8166 14.6106 16.8858 14.7896 16.8858C14.9649 16.8858 15.1331 16.8166 15.2619 16.6955L18.0281 14.0138C18.9442 13.1211 18.9442 11.6643 18.0209 10.7716Z" fill="#009349"/>
<path d="M15.7343 5.29066C14.8791 4.45675 13.7375 4 12.528 4C11.4151 4 10.3594 4.391 9.53281 5.09689C7.73998 3.59862 5.03822 3.65052 3.34917 5.26298C2.48318 6.08997 2.00366 7.19723 2.00008 8.37716C1.99292 9.55709 2.46886 10.6644 3.3277 11.4983L8.62745 16.6367C8.87079 16.872 9.19285 17 9.53281 17C9.87276 17 10.1948 16.8685 10.4346 16.6367L11.7264 15.3841L10.7459 14.4325C10.1734 13.8616 9.86203 13.1038 9.86561 12.2941C9.86918 11.4844 10.1877 10.7266 10.7602 10.1592C11.8803 9.05536 13.5944 8.83737 14.7825 9.86505C15.3335 9.38062 16.0135 9.21107 16.7542 9.21107C16.8294 9.21107 16.9045 9.21453 16.9796 9.21799C17.2516 7.84083 16.8365 6.3564 15.7343 5.29066ZM6.51972 7.13149C6.17618 7.13149 5.85769 7.25606 5.62151 7.48443C5.36744 7.72318 5.22788 8.04498 5.22788 8.391C5.22788 8.6782 4.98454 8.91003 4.69111 8.91003C4.39051 8.90311 4.15433 8.67474 4.15433 8.38408C4.15433 7.76471 4.41198 7.18339 4.87003 6.74394C5.30661 6.3218 5.89348 6.08997 6.51972 6.08997C6.81673 6.08997 7.05649 6.32526 7.05649 6.609C7.05649 6.90311 6.81315 7.13149 6.51972 7.13149Z" fill="#009349"/>
</svg>
