<svg xmlns="http://www.w3.org/2000/svg" width="26" height="26" viewBox="0 0 26 26" fill="none">
<path d="M12.2745 7.02421C11.2894 6.95586 10.5594 6.24395 9.64548 5.88514C3.75243 3.59562 1.29551 10.6578 0.998779 14.9236V16.6208C1.04626 17.515 1.23616 19.1496 1.81775 19.8729C3.73463 22.2478 6.87996 18.0162 8.16184 16.8202C8.42296 16.6436 8.74343 16.5126 9.06389 16.4842C10.3161 16.5525 11.6217 16.5069 12.9154 16.4728V7.04699C12.6899 7.04699 12.4704 7.04699 12.2745 7.02421ZM10.0668 12.1557H8.39329V13.6536C7.90665 13.9896 7.26571 13.9782 6.76721 13.6764V12.1557H5.18267C4.93342 11.6431 4.85627 11.0451 5.20641 10.5496H6.81468V8.9891C7.33099 8.78407 7.99567 8.78407 8.48824 9.05744V10.5496H9.99563C10.4289 11.0622 10.328 11.5976 10.0668 12.1557Z" fill="#009349"/>
<path d="M24.8132 15.0775C24.6114 10.4814 21.7272 3.06039 15.5552 6.15296C15.1754 6.3466 14.8015 6.65415 14.4217 6.80792C14.0004 6.98447 13.4425 7.04143 12.9143 7.04712V16.4729C14.1962 16.433 15.4721 16.3989 16.6947 16.4843C17.0389 16.5071 17.3356 16.621 17.6205 16.7975C18.6768 17.7543 20.564 20.1919 21.9824 20.5166C24.8725 21.1829 24.8844 16.7918 24.8132 15.0775ZM17.3059 13.8473C15.9232 13.6879 15.9054 11.6319 17.2644 11.4097C19.2287 11.0851 19.3712 14.0866 17.3059 13.8473ZM16.5938 10.0884C15.3891 8.86393 17.3653 7.14964 18.5047 8.40831C19.5967 9.61002 17.7214 11.2275 16.5938 10.0884ZM21.6738 11.9166C20.5403 13.0671 18.6768 11.4325 19.7629 10.2365C20.9023 8.98354 22.8845 10.6978 21.6738 11.9166Z" fill="#009349"/>
</svg>