<svg xmlns="http://www.w3.org/2000/svg" width="26" height="26" viewBox="0 0 26 26" fill="none">
<path d="M16.2007 9.2573L15.7265 9.13639C15.681 9.12476 15.3895 9.27208 15.4393 9.06443L16.8953 8.44825C16.7429 8.31983 16.5923 8.23889 16.4434 8.19286C15.6511 7.94619 14.9066 8.67723 14.1597 8.38258C13.8746 8.27015 13.5949 7.78263 13.2088 7.53306C11.4219 6.37848 8.91599 5.56288 6.80612 5.58081C6.70293 5.53477 6.42067 4.44391 6.22771 4.5624C6.23195 4.93773 6.18129 5.40077 5.96524 5.71577C5.86228 5.86576 5.56918 5.89265 5.3913 6.05839C4.81147 6.59897 5.20305 6.95783 5.00867 7.30432C4.89629 7.50423 4.21962 7.95758 4.00192 8.22096C3.8033 8.46133 3.68691 8.76809 3.48547 9.00991C2.98339 9.61252 1.32471 11.2556 1.15248 11.8359C0.841477 12.8832 1.62534 13.5858 2.56495 13.7727C3.48594 13.9558 3.40725 13.3307 3.88176 12.7882C4.25473 12.362 4.81194 12.078 5.34818 11.9496C6.30051 11.7215 7.332 12.0278 7.92502 10.9772L8.72232 9.77463L8.33545 11.202C9.5903 12.3537 10.1188 13.5679 10.2097 15.2893C10.2997 16.991 9.73449 19.0985 11.4544 20.1618L12.2126 19.1889L11.6947 20.3217L11.6844 20.3445L11.6761 20.3626C12.4459 21.0433 13.3457 21.539 14.1364 21.8867C14.244 21.8046 14.3343 21.736 14.3986 21.6866C14.4016 21.6842 14.4047 21.682 14.4078 21.6796C14.6257 21.5121 14.8632 21.3646 15.0981 21.2148C15.3542 21.0515 15.6073 20.8858 15.8285 20.6888C15.7566 20.6413 15.6857 20.5921 15.6155 20.5412C14.7817 19.9379 14.0892 19.131 13.6124 18.2071C13.1204 17.2541 12.8603 16.1756 12.8603 15.0884C12.8603 12.6421 14.1514 10.4226 16.2007 9.2573ZM1.7653 12.7562C1.37772 12.7753 1.64985 12.1863 1.47668 11.9665C1.87438 11.8008 2.11682 12.7387 1.7653 12.7562ZM4.50259 9.18922C4.48468 8.77124 5.2775 8.85944 5.49662 9.04286C5.36538 9.28638 4.52002 9.59702 4.50259 9.18922Z" fill="#009349"/>
<path d="M19.3388 9.13857C16.2585 9.13857 13.7613 11.7068 13.7613 14.8747C13.7613 18.0426 16.2585 20.611 19.3388 20.611C22.4191 20.611 24.9166 18.0428 24.9166 14.8747C24.9166 11.7065 22.4194 9.13857 19.3388 9.13857ZM19.8904 17.9483H18.3514L19.2083 12.6292H19.1647L17.5383 13.6677L17.7612 12.274L19.3789 11.2488H20.9704L19.8904 17.9483Z" fill="#009349"/>
</svg>