<svg width="26" height="26" viewBox="0 0 26 26" fill="none" xmlns="http://www.w3.org/2000/svg">
<path d="M22.5803 14.3811H17.7591V24.6992H22.5803C23.1422 24.6992 23.6812 24.476 24.0786 24.0786C24.4759 23.6812 24.6992 23.1423 24.6992 22.5803V16.5C24.6992 15.938 24.4759 15.3991 24.0786 15.0017C23.6812 14.6043 23.1422 14.3811 22.5803 14.3811ZM22.9119 17.6173L20.7009 22.0393C20.663 22.1151 20.6106 22.1826 20.5466 22.2381C20.4827 22.2936 20.4084 22.336 20.328 22.3628C20.2477 22.3896 20.1628 22.4003 20.0784 22.3943C19.9939 22.3883 19.9114 22.3657 19.8356 22.3279C19.7599 22.29 19.6923 22.2376 19.6368 22.1736C19.5813 22.1096 19.539 22.0354 19.5122 21.955C19.4854 21.8747 19.4747 21.7898 19.4807 21.7053C19.4867 21.6209 19.5092 21.5384 19.5471 21.4626L21.2905 17.974H20.1231C19.9521 17.9739 19.7881 17.9059 19.6672 17.785C19.5463 17.6641 19.4783 17.5001 19.4782 17.3291C19.4782 17.1581 19.5461 16.9941 19.6671 16.8731C19.788 16.7522 19.952 16.6842 20.1231 16.6842H22.3341C22.4441 16.6841 22.5523 16.7121 22.6484 16.7655C22.7445 16.8189 22.8254 16.8961 22.8833 16.9896C22.9412 17.0831 22.9742 17.1898 22.9792 17.2997C22.9842 17.4096 22.9611 17.5189 22.9119 17.6173Z" fill="#31AA6B"/>
<path d="M9.52896 24.6992H16.4694V14.3811H9.52896V24.6992ZM11.2484 17.3291C11.2484 17.2444 11.265 17.1605 11.2974 17.0822C11.3298 17.0039 11.3774 16.9328 11.4373 16.8729C11.4972 16.813 11.5684 16.7655 11.6467 16.7331C11.725 16.7007 11.8089 16.6841 11.8937 16.6842H14.1047C14.2146 16.6842 14.3227 16.7122 14.4187 16.7657C14.5148 16.8192 14.5955 16.8964 14.6533 16.9899C14.7111 17.0834 14.744 17.1901 14.7489 17.2999C14.7538 17.4097 14.7306 17.519 14.6814 17.6173L12.4704 22.0393C12.4334 22.1166 12.3815 22.1858 12.3175 22.2427C12.2536 22.2997 12.1789 22.3434 12.0979 22.3712C12.0169 22.399 11.9311 22.4104 11.8457 22.4047C11.7602 22.399 11.6767 22.3763 11.6001 22.338C11.5235 22.2997 11.4553 22.2465 11.3995 22.1816C11.3436 22.1166 11.3013 22.0412 11.2749 21.9597C11.2486 21.8782 11.2387 21.7923 11.2459 21.7069C11.2531 21.6216 11.2773 21.5385 11.3169 21.4626L13.0607 17.974H11.8937C11.7226 17.974 11.5586 17.9061 11.4377 17.7851C11.3167 17.6642 11.2484 17.5001 11.2484 17.3291Z" fill="#31AA6B"/>
<path d="M1.29916 16.5V22.5803C1.29916 23.1423 1.5224 23.6812 1.91977 24.0786C2.31714 24.476 2.85609 24.6992 3.41806 24.6992H8.2392V14.3811H3.41806C2.85609 14.3811 2.31714 14.6043 1.91977 15.0017C1.5224 15.3991 1.29916 15.938 1.29916 16.5ZM5.87451 16.6842C5.98443 16.6842 6.09255 16.7122 6.18857 16.7657C6.2846 16.8192 6.36535 16.8964 6.42314 16.9899C6.48094 17.0834 6.51385 17.1901 6.51877 17.2999C6.52368 17.4097 6.50043 17.519 6.45122 17.6173L4.24019 22.0393C4.20233 22.1151 4.14991 22.1826 4.08593 22.2381C4.02196 22.2936 3.94767 22.336 3.86733 22.3628C3.78698 22.3896 3.70215 22.4003 3.61766 22.3943C3.53318 22.3883 3.45071 22.3657 3.37495 22.3279C3.29919 22.29 3.23163 22.2376 3.17613 22.1736C3.12063 22.1096 3.07827 22.0354 3.05148 21.955C3.02469 21.8747 3.01398 21.7898 3.01997 21.7053C3.02597 21.6209 3.04854 21.5384 3.08641 21.4626L4.83091 17.974H3.66348C3.49245 17.974 3.32842 17.9061 3.20748 17.7851C3.08655 17.6642 3.0186 17.5001 3.0186 17.3291C3.01855 17.2444 3.0352 17.1605 3.06759 17.0823C3.09998 17.004 3.14748 16.9329 3.20738 16.873C3.26727 16.8131 3.33838 16.7656 3.41664 16.7332C3.4949 16.7008 3.57878 16.6842 3.66348 16.6842H5.87451Z" fill="#31AA6B"/>
<path d="M14.2889 2.58896C14.2889 3.30128 13.7115 3.87872 12.9992 3.87872C12.2868 3.87872 11.7094 3.30128 11.7094 2.58896C11.7094 1.87664 12.2868 1.29919 12.9992 1.29919C13.7115 1.29919 14.2889 1.87664 14.2889 2.58896Z" fill="#28C70B"/>
<path d="M6.27397 5.90549C6.98628 5.90549 7.56373 5.32805 7.56373 4.61573C7.56373 3.90341 6.98628 3.32597 6.27397 3.32597C5.56165 3.32597 4.9842 3.90341 4.9842 4.61573C4.9842 5.32805 5.56165 5.90549 6.27397 5.90549Z" fill="#28C70B"/>
<path d="M19.7244 5.90549C20.4367 5.90549 21.0141 5.32805 21.0141 4.61573C21.0141 3.90341 20.4367 3.32597 19.7244 3.32597C19.012 3.32597 18.4346 3.90341 18.4346 4.61573C18.4346 5.32805 19.012 5.90549 19.7244 5.90549Z" fill="#28C70B"/>
<path d="M18.2503 11.8016H7.74798C7.40592 11.8016 7.07786 11.9374 6.83598 12.1793C6.5941 12.4212 6.45822 12.7493 6.45822 13.0913H19.5401C19.5401 12.7493 19.4042 12.4212 19.1623 12.1793C18.9205 11.9374 18.5924 11.8016 18.2503 11.8016Z" fill="#28C70B"/>
<path d="M7.74805 10.5116C7.63586 10.5124 7.52385 10.5205 7.41271 10.5359L6.67534 7.16371C7.02658 7.10771 7.36244 6.97967 7.66183 6.78765C7.96122 6.59562 8.21766 6.34376 8.41505 6.04788L10.4197 7.1029L11.8805 4.91178C12.2293 5.08057 12.6117 5.16824 12.9992 5.16824C13.3867 5.16824 13.7692 5.08057 14.118 4.91178L15.5788 7.1029L17.5831 6.04788C17.7804 6.34376 18.0369 6.59562 18.3363 6.78765C18.6357 6.97967 18.9715 7.10771 19.3228 7.16371L18.5858 10.5359C18.4746 10.5205 18.3626 10.5124 18.2504 10.5116H7.74805Z" fill="#28C70B"/>
</svg>
