<svg width="20" height="20" viewBox="0 0 20 20" fill="none" xmlns="http://www.w3.org/2000/svg">
<path d="M14.7034 6.93041C14.6367 6.86363 14.5551 6.81372 14.4652 6.78481C14.3754 6.75589 14.2799 6.74881 14.1868 6.76415C14.0944 6.7796 14.0069 6.8167 13.9316 6.87243C13.8563 6.92816 13.7952 7.00093 13.7534 7.08479C13.5718 7.39903 13.3502 7.68843 13.0943 7.94577C13.034 6.38473 12.4623 4.88676 11.4673 3.68243C10.9106 3.11083 10.2376 2.66552 9.49389 2.37662C8.75015 2.08773 7.95302 1.96201 7.15646 2.00796C7.04905 2.00825 6.94372 2.03767 6.8517 2.09309C6.75968 2.14851 6.68442 2.22785 6.63394 2.32267C6.58626 2.41552 6.5639 2.5193 6.56911 2.62354C6.57433 2.72779 6.60693 2.82882 6.66363 2.91645C6.74675 3.04114 8.55185 5.82004 6.49143 8.31985C5.9689 7.91014 5.37512 7.26292 5.37512 6.75821C5.37433 6.62525 5.32894 6.4964 5.24622 6.39231C5.1635 6.28821 5.04823 6.21489 4.91888 6.1841C4.78954 6.1533 4.6536 6.16681 4.53284 6.22245C4.41208 6.2781 4.3135 6.37267 4.25288 6.49101C3.44181 8.25132 3.01473 10.1641 3 12.1022C3 17.2206 6.80613 18.5507 6.96645 18.6338C7.08153 18.6729 7.20583 18.6758 7.32258 18.642C7.43932 18.6082 7.54289 18.5394 7.61928 18.4448C7.69568 18.3503 7.74123 18.2346 7.74979 18.1134C7.75834 17.9922 7.72948 17.8712 7.66711 17.7669C7.10382 16.7555 6.88106 15.5896 7.03177 14.4417C7.39753 15.1511 7.94192 15.7528 8.61123 16.1874C8.73714 16.2709 8.89014 16.3033 9.03907 16.2779C9.188 16.2525 9.32166 16.1713 9.41283 16.0509C10.2339 14.8495 10.6233 13.4051 10.5173 11.9538C11.1407 12.9098 11.6158 14.6971 10.7429 17.8916C10.7203 17.9789 10.718 18.0703 10.736 18.1587C10.754 18.2471 10.7919 18.3302 10.8469 18.4017C10.9018 18.4733 10.9724 18.5314 11.0531 18.5716C11.1339 18.6118 11.2227 18.6331 11.3129 18.6338C11.366 18.6425 11.4202 18.6425 11.4732 18.6338C12.8354 18.1778 14.0158 17.2977 14.8417 16.1224C15.6676 14.9471 16.0956 13.5383 16.0632 12.1022C16.0632 8.40298 14.84 7.07291 14.7034 6.93041Z" fill="#009349"/>
</svg>
