<svg width="20" height="20" viewBox="0 0 20 20" fill="none" xmlns="http://www.w3.org/2000/svg">
<path d="M15.7034 6.93169C15.6367 6.86492 15.5551 6.815 15.4652 6.78609C15.3754 6.75718 15.2799 6.75009 15.1868 6.76543C15.0944 6.78088 15.0069 6.81799 14.9316 6.87372C14.8563 6.92944 14.7952 7.00221 14.7534 7.08607C14.5718 7.40031 14.3502 7.68971 14.0943 7.94705C14.034 6.38601 13.4623 4.88805 12.4673 3.68371C11.9106 3.11211 11.2376 2.6668 10.4939 2.37791C9.75015 2.08901 8.95302 1.96329 8.15646 2.00925C8.04905 2.00953 7.94372 2.03895 7.8517 2.09437C7.75968 2.14979 7.68442 2.22914 7.63394 2.32395C7.58626 2.4168 7.5639 2.52058 7.56911 2.62482C7.57433 2.72907 7.60693 2.8301 7.66363 2.91773C7.74675 3.04243 9.55185 5.82132 7.49143 8.32113C6.9689 7.91143 6.37512 7.26421 6.37512 6.75949C6.37433 6.62653 6.32894 6.49768 6.24622 6.39359C6.1635 6.28949 6.04823 6.21617 5.91888 6.18538C5.78954 6.15458 5.6536 6.16809 5.53284 6.22374C5.41208 6.27938 5.3135 6.37395 5.25288 6.49229C4.44181 8.25261 4.01473 10.1654 4 12.1035C4 17.2219 7.80613 18.552 7.96645 18.6351C8.08153 18.6742 8.20583 18.677 8.32258 18.6433C8.43932 18.6095 8.54289 18.5407 8.61928 18.4461C8.69568 18.3516 8.74123 18.2359 8.74979 18.1147C8.75834 17.9934 8.72948 17.8725 8.66711 17.7682C8.10382 16.7568 7.88106 15.5909 8.03177 14.443C8.39753 15.1523 8.94192 15.754 9.61123 16.1887C9.73714 16.2722 9.89014 16.3046 10.0391 16.2792C10.188 16.2538 10.3217 16.1726 10.4128 16.0522C11.2339 14.8508 11.6233 13.4064 11.5173 11.9551C12.1407 12.9111 12.6158 14.6983 11.7429 17.8929C11.7203 17.9802 11.718 18.0716 11.736 18.16C11.754 18.2483 11.7919 18.3315 11.8469 18.403C11.9018 18.4746 11.9724 18.5326 12.0531 18.5729C12.1339 18.6131 12.2227 18.6344 12.3129 18.6351C12.366 18.6437 12.4202 18.6437 12.4732 18.6351C13.8354 18.1791 15.0158 17.299 15.8417 16.1237C16.6676 14.9484 17.0956 13.5396 17.0632 12.1035C17.0632 8.40426 15.84 7.0742 15.7034 6.93169Z" fill="#636975"/>
</svg>
