<svg width="30" height="30" viewBox="0 0 30 30" fill="none" xmlns="http://www.w3.org/2000/svg">
    <path fill-rule="evenodd" clip-rule="evenodd" d="M11.5395 8.14064C11.8565 7.97097 12.2412 7.98956 12.5404 8.18901L21.5404 14.1888C21.8116 14.3696 21.9745 14.674 21.9745 15C21.9745 15.326 21.8116 15.6305 21.5404 15.8113L12.5404 21.811C12.2412 22.0105 11.8565 22.0291 11.5395 21.8594C11.2224 21.6897 11.0245 21.3594 11.0245 20.9998V9.00027C11.0245 8.64069 11.2224 8.31031 11.5395 8.14064ZM12.9745 10.822V19.178L19.2418 15L12.9745 10.822Z" fill="white"/>
    <path fill-rule="evenodd" clip-rule="evenodd" d="M0.52478 15C0.52478 7.00595 7.0057 0.525024 14.9998 0.525024C22.9939 0.525024 29.4748 7.00595 29.4748 15C29.4748 22.9941 22.9939 29.475 14.9998 29.475C7.0057 29.475 0.52478 22.9941 0.52478 15ZM14.9998 2.47502C8.08266 2.47502 2.47478 8.0829 2.47478 15C2.47478 21.9171 8.08266 27.525 14.9998 27.525C21.9169 27.525 27.5248 21.9171 27.5248 15C27.5248 8.0829 21.9169 2.47502 14.9998 2.47502Z" fill="white"/>
</svg>
