<svg width="26" height="26" viewBox="0 0 26 26" fill="none" xmlns="http://www.w3.org/2000/svg">
<path d="M11.4176 15.46L11.3973 15.4763C11.3973 16.175 11.3282 16.8778 11.1292 17.5522C10.9346 18.2384 10.601 18.8847 10.4268 19.5794C10.0936 20.9363 10.4755 22.3821 11.1377 23.5769C9.69958 23.0894 8.32646 22.3862 7.29458 21.2491C6.3923 20.2538 5.75489 19.0635 5.46646 17.7517C5.08824 16.0292 5.34864 14.3266 6.08396 12.7426C6.43333 11.9947 6.82739 11.2635 7.08333 10.4758C7.33521 9.69575 7.48958 8.88325 7.63217 8.07888C8.15653 8.87009 8.54127 9.74539 8.76967 10.6667C10.5527 8.27848 11.5275 5.38384 11.5525 2.40356C12.9068 3.17921 14.0752 4.24132 14.9762 5.51563C15.8772 6.78994 16.489 8.24568 16.7687 9.78106C17.5004 8.80606 17.606 7.567 17.5122 6.38481C17.7762 6.69803 18.0407 7.0145 18.2759 7.34763C20.1288 9.97606 21.1445 13.2951 20.5351 16.5045C20.2304 18.1092 19.5109 19.6245 18.451 20.8632C17.4232 22.0657 16.0623 22.9354 14.6404 23.5936C14.9821 22.9273 15.2686 22.2343 15.4972 21.5213C16.4275 18.6085 15.3712 15.2492 13.0962 13.2541C13.4095 14.1032 13.5395 15.0213 13.4257 15.9232C13.3038 16.8738 12.8732 17.7631 12.4869 18.6284C12.2789 17.4949 12.1367 16.3985 11.4176 15.46Z" fill="#009349"/>
</svg>
