<svg xmlns="http://www.w3.org/2000/svg" width="35" height="34" viewBox="0 0 35 34" fill="#000000">
<path fill-rule="evenodd" clip-rule="evenodd" d="M23.7216 26.1653L17.4977 30.2582L11.2739 26.1653C8.21209 24.1519 6.36865 20.7332 6.36865 17.0688V7.15324L17.4977 4.25L28.6268 7.15324V17.0688C28.6268 20.7332 26.7834 24.1519 23.7216 26.1653ZM8.18376 17.0688C8.18376 20.1322 9.71189 22.966 12.2715 24.6493L17.4983 28.0865L22.7252 24.6493C25.2847 22.966 26.8129 20.1322 26.8129 17.0688V8.55517L17.4983 6.12528L8.18376 8.55517V17.0688Z" fill="#000000"/>
<path d="M18.2483 8.18274C18.2483 8.59873 17.911 8.93594 17.4951 8.93594C17.0791 8.93594 16.7419 8.59873 16.7419 8.18274C16.7419 7.76676 17.0791 7.42954 17.4951 7.42954C17.911 7.42954 18.2483 7.76676 18.2483 8.18274Z" fill="#000000"/>
<path d="M14.4319 12.8542H20.5606C20.8085 12.8542 21.0132 12.6605 21.0268 12.413L21.1008 11.0667C20.5962 11.0332 20.1516 10.777 19.8651 10.3952L18.8999 10.9907L18.1337 9.74215C17.9369 9.82289 17.7218 9.86776 17.4962 9.86776C17.2707 9.86776 17.0556 9.82289 16.8588 9.74215L16.0926 10.9907L15.1273 10.3952C14.8409 10.7769 14.3962 11.0332 13.8917 11.0667L13.9657 12.413C13.9793 12.6605 14.184 12.8542 14.4319 12.8542Z" fill="#000000"/>
<path d="M17.0293 14.8673L14.8709 16.4354L12.3757 15.6414C12.6986 14.8697 13.191 14.1868 13.8062 13.6385C13.9945 13.7327 14.2066 13.7859 14.4306 13.7859H17.0293V14.8673Z" fill="#000000"/>
<path d="M20.5607 13.7859C20.7847 13.7859 20.9968 13.7327 21.1852 13.6385C21.7972 14.1839 22.2877 14.8626 22.6108 15.6293L20.1193 16.4346L17.9621 14.8673V13.7859H20.5607Z" fill="#000000"/>
<path d="M18.8297 20.403H16.1662L14.6335 22.5322C15.4696 23.0374 16.4498 23.3282 17.4979 23.3282C18.5461 23.3282 19.5262 23.0374 20.3624 22.5322L18.8297 20.403Z" fill="#000000"/>
<path d="M20.4077 17.3203L22.8994 16.515C22.9943 16.9216 23.0446 17.3453 23.0447 17.7809C23.0447 19.4619 22.2968 20.9681 21.1159 21.9854L19.5835 19.8567L20.4077 17.3203Z" fill="#000000"/>
<path d="M13.8797 21.9856L15.4121 19.8568L14.5883 17.3217L12.0931 16.5278C12.0001 16.9305 11.9509 17.35 11.9509 17.781C11.951 19.462 12.6988 20.9683 13.8797 21.9856Z" fill="#000000"/>
<path d="M15.5037 17.1284L17.497 15.6802L19.4903 17.1284L18.729 19.4717H16.265L15.5037 17.1284Z" fill="#000000"/>
<path d="M13.7791 10.1392C14.1951 10.1392 14.5323 9.80199 14.5323 9.38601C14.5323 8.97003 14.1951 8.63281 13.7791 8.63281C13.3631 8.63281 13.0259 8.97003 13.0259 9.38601C13.0259 9.80199 13.3631 10.1392 13.7791 10.1392Z" fill="#000000"/>
<path d="M21.9687 9.38601C21.9687 9.80202 21.6315 10.1392 21.2155 10.1392C20.7995 10.1392 20.4623 9.80199 20.4623 9.38601C20.4623 8.97004 20.7995 8.63281 21.2155 8.63281C21.6315 8.63281 21.9687 8.97001 21.9687 9.38601Z" fill="#000000"/>
</svg>