<svg xmlns="http://www.w3.org/2000/svg" width="26" height="26" viewBox="0 0 26 26" fill="none">
<path d="M22.75 20.0745C22.5564 20.3236 22.3629 20.5619 22.1591 20.8003C21.9553 21.0277 21.7414 21.2552 21.5071 21.4719C21.0792 20.9627 20.6614 20.4428 20.2335 19.9228C19.8158 19.4028 19.3879 18.8829 18.96 18.3521C19.2249 18.1029 19.4796 17.8646 19.7343 17.6371C19.9788 17.3988 20.2335 17.1605 20.4984 16.9113C20.8754 17.4421 21.2524 17.9621 21.6191 18.4929C21.9961 19.0237 22.373 19.5437 22.75 20.0745Z" fill="#009349"/>
<path d="M18.96 18.3521C18.7766 18.5579 18.5933 18.7529 18.4099 18.9587C18.2265 19.1645 18.0431 19.3595 17.8699 19.5437C17.7273 18.9695 17.6152 18.3954 17.5337 17.8213C17.4522 17.2472 17.4726 16.6514 17.605 16.0556C17.5948 16.608 17.7578 17.0305 18.1144 17.3122C18.4608 17.583 18.7461 17.9404 18.96 18.3521Z" fill="#009349"/>
<path d="M17.5235 19.7495C17.4318 19.9661 17.2994 20.172 17.1262 20.3561C17.0549 20.4644 16.9835 20.5728 16.9122 20.6919C16.8307 20.8111 16.7798 20.9302 16.7288 21.0494C16.5556 21.4719 16.3926 21.8943 16.25 22.3168C16.1074 22.7501 15.9444 23.1618 15.7712 23.5626C15.6998 23.7576 15.6489 23.9417 15.6183 24.1259C15.5878 24.31 15.5776 24.4942 15.598 24.6892C15.2108 24.765 14.8339 24.8192 14.4467 24.8625C14.0596 24.895 13.6622 24.9166 13.2547 24.9166C12.7555 24.9166 12.2665 24.8841 11.7876 24.8192C11.3088 24.765 10.8401 24.6675 10.3817 24.5483C10.4326 24.4833 10.4734 24.4292 10.5243 24.375C10.5752 24.3209 10.6262 24.2559 10.6669 24.1909C10.8707 23.9309 11.0031 23.6601 11.0439 23.3784C11.0846 23.0968 11.0541 22.8043 10.9318 22.501C10.8299 22.1868 10.7281 21.8835 10.6262 21.5802C10.5243 21.2769 10.4122 20.9736 10.3002 20.6811C10.2696 20.6053 10.2288 20.5294 10.1779 20.4644C10.127 20.3886 10.076 20.3345 10.0149 20.2911C9.60737 19.977 9.37304 19.6195 9.31191 19.2295C9.25078 18.8287 9.38323 18.4171 9.68887 17.9838C10.1371 17.3338 10.6058 16.9763 11.0948 16.9113C11.5839 16.8464 12.134 17.1605 12.7453 17.843C12.9287 18.0596 13.0815 18.2979 13.2038 18.5471C13.3362 18.8071 13.4788 19.0562 13.6215 19.3054C13.6215 19.2945 13.6317 19.262 13.6622 19.2187C13.6826 19.1645 13.6928 19.132 13.7132 19.0995C13.8762 18.6987 14.0697 18.3304 14.2939 18.0163C14.518 17.7021 14.8237 17.4421 15.2006 17.2363C15.5776 17.0305 15.9444 16.9872 16.2806 17.0847C16.627 17.1822 16.9122 17.4421 17.1262 17.843C17.2281 18.0271 17.3197 18.2221 17.4013 18.4279C17.4828 18.6229 17.5337 18.8287 17.5643 19.0345C17.6254 19.2945 17.605 19.5328 17.5235 19.7495Z" fill="#009349"/>
<path d="M9.53605 16.4672H9.46473C9.46473 16.4672 9.4953 16.5322 9.4953 16.5539C9.50549 16.5755 9.51567 16.5972 9.53605 16.6297C9.54624 16.6947 9.55643 16.7489 9.5768 16.803C9.58699 16.8572 9.60737 16.9113 9.61756 16.9547C9.65831 17.1605 9.67868 17.3555 9.65831 17.5396C9.65831 17.7238 9.5768 17.9079 9.44436 18.0704C9.27116 18.3196 9.15909 18.5904 9.12853 18.8612C9.08777 19.1429 9.12853 19.4353 9.25078 19.7278C9.01646 19.6953 8.78213 19.6737 8.55799 19.6412C8.33386 19.6195 8.10972 19.5978 7.88558 19.5653C7.68182 19.5437 7.48824 19.5328 7.28448 19.5112C7.09091 19.4787 6.88715 19.4678 6.68339 19.4462L6.66301 19.4028C6.81583 19.3703 6.95846 19.3379 7.11129 19.3054C7.26411 19.2729 7.42712 19.2404 7.57994 19.197C7.55956 19.1754 7.51881 19.1645 7.47806 19.1429C7.42712 19.132 7.38636 19.1104 7.34561 19.0779C7.22335 19.0345 7.11129 18.9804 6.99922 18.9262C6.89734 18.8721 6.78527 18.8287 6.68339 18.7962C6.64263 18.7962 6.59169 18.7962 6.53056 18.7962C6.47962 18.8071 6.42868 18.8396 6.39812 18.8937C6.14342 19.1429 5.87853 19.392 5.61364 19.6412C5.34875 19.9011 5.09404 20.1611 4.82915 20.4211C4.75784 20.4861 4.67633 20.5619 4.60502 20.6378C4.5337 20.7136 4.46238 20.7786 4.39107 20.8436C4.1873 20.6161 3.98354 20.367 3.80016 20.1178C3.60658 19.8795 3.4232 19.6195 3.25 19.3595C3.48433 19.1104 3.71865 18.8504 3.95298 18.6012C4.1873 18.3413 4.42163 18.0813 4.65596 17.8213C4.67633 17.7996 4.7069 17.7888 4.71708 17.7563C4.72727 17.7346 4.74765 17.713 4.75784 17.7021C4.77821 17.6913 4.7884 17.6805 4.79859 17.6696C4.79859 17.6588 4.80878 17.648 4.80878 17.6371C4.57445 17.5396 4.34013 17.4421 4.12618 17.3447C3.91223 17.2363 3.6779 17.1388 3.44357 17.0522L3.47414 17.0305L3.49451 17.0088C3.49451 17.0088 3.60658 17.0305 3.66771 17.0522C3.72884 17.063 3.77978 17.0738 3.82053 17.0738C3.95298 17.1172 4.08542 17.1605 4.21787 17.1822C4.34013 17.2038 4.48276 17.2255 4.62539 17.2363C4.81897 17.258 5.00235 17.2147 5.16536 17.128C5.32837 17.0522 5.46081 16.933 5.58307 16.7597H5.59326L5.83777 16.5864C6.04154 16.8139 6.2453 17.063 6.46944 17.323C6.68339 17.5721 6.91771 17.843 7.14185 18.1246C7.17241 18.0921 7.20298 18.0596 7.22335 18.0379C7.24373 18.0163 7.27429 17.9946 7.29467 17.9838C7.3558 17.9404 7.41693 17.8863 7.46787 17.8321C7.51881 17.778 7.55956 17.7238 7.6105 17.6805C7.81426 17.4963 8.00784 17.3013 8.2116 17.1063C8.40517 16.9113 8.59875 16.7272 8.79232 16.543C8.97571 16.3481 9.15909 16.2614 9.34248 16.2614C9.52586 16.2614 9.73981 16.3481 9.97414 16.543C9.89263 16.5214 9.82132 16.5105 9.75 16.4997C9.67868 16.4997 9.60737 16.4889 9.53605 16.4672Z" fill="#009349"/>
<path d="M21.3237 10.3251C21.181 9.24187 20.7633 8.1911 20.0603 7.18367C19.6834 6.64204 19.2657 6.14374 18.8072 5.71044C18.3589 5.2663 17.8801 4.82217 17.3911 4.38886C17.2179 4.2372 17.0447 4.06388 16.8715 3.87973C16.7085 3.69557 16.5556 3.50059 16.4232 3.29477C16.2092 2.99146 15.9749 2.69897 15.7304 2.43899C15.4757 2.17901 15.2108 1.94069 14.9154 1.73487C14.5995 1.51822 14.2633 1.35573 13.9169 1.23657C13.5807 1.11741 13.214 1.07408 12.837 1.08492C12.5619 1.10658 12.3072 1.17158 12.0729 1.30157C11.8386 1.42073 11.6552 1.64821 11.5227 1.97319C11.3088 1.82153 11.105 1.76737 10.9216 1.8107C10.7382 1.85403 10.5752 1.95153 10.4326 2.11401C10.2288 2.309 10.0353 2.52565 9.86207 2.76397C9.68887 2.99145 9.52586 3.22977 9.38323 3.45726C9.09796 3.94472 8.8942 4.44302 8.74138 4.97382C8.59875 5.50462 8.47649 6.03542 8.37461 6.57705L8.32367 6.71787C8.17085 7.50865 7.89577 8.23444 7.51881 8.89522C7.14185 9.55601 6.63245 10.1193 5.9906 10.6068C5.69514 10.8343 5.40987 11.0834 5.12461 11.3434C4.83934 11.5925 4.56426 11.8634 4.29937 12.145C4.12618 12.2967 3.96317 12.47 3.82053 12.665C3.6779 12.86 3.54545 13.0658 3.44357 13.2824C3.23981 13.6832 3.20925 14.1165 3.34169 14.5823C3.47414 15.0481 3.72884 15.4381 4.12618 15.7523C4.28918 15.8714 4.45219 15.9906 4.6152 16.1097C4.7884 16.2289 4.9616 16.3372 5.1348 16.4455C5.20611 16.4889 5.27743 16.543 5.35893 16.5864C5.44044 16.6297 5.52194 16.6839 5.59326 16.7489L5.83777 16.5864C5.93966 16.4455 6.04154 16.3156 6.1536 16.1747C6.25549 16.0447 6.36756 15.9148 6.46944 15.7739C6.68339 15.4814 6.90752 15.189 7.13166 14.8965C7.36599 14.6148 7.57994 14.3224 7.80408 14.0299C8.04859 13.7049 8.33386 13.4666 8.64969 13.3258C8.95533 13.1849 9.3221 13.1849 9.72962 13.3041C9.79075 13.3041 9.85188 13.3366 9.91301 13.3474C9.98433 13.3691 10.0455 13.3908 10.0964 13.4233C10.3002 13.4882 10.5141 13.5424 10.7179 13.5966C10.9216 13.6507 11.1254 13.7049 11.3495 13.7482C11.4514 13.7591 11.5737 13.7591 11.7265 13.7266C11.8895 13.6941 11.9812 13.6399 12.0219 13.5641C12.1136 13.3908 12.2257 13.2608 12.3582 13.1849C12.4906 13.1091 12.6332 13.0441 12.7962 12.9791C12.8064 12.9683 12.8268 12.9466 12.8472 12.9466C12.8676 12.9358 12.8981 12.925 12.9287 12.9141C13.0408 12.86 13.1528 12.8058 13.2547 12.7191C13.3566 12.6433 13.4585 12.5675 13.5603 12.4916C13.5705 12.4916 13.5909 12.4808 13.6011 12.47C13.6215 12.4483 13.6317 12.4375 13.6418 12.4158C13.7234 12.3725 13.7845 12.3183 13.8558 12.2533C13.9169 12.1992 13.9984 12.1342 14.0799 12.0692C14.1105 12.0367 14.1513 12.0042 14.1818 11.9825C14.2226 11.95 14.2531 11.9175 14.2837 11.885C14.2837 11.9175 14.2837 11.9392 14.2939 11.9717C14.2939 11.9933 14.2939 12.015 14.2939 12.0475V12.2858C14.3041 12.795 14.4161 13.1524 14.6097 13.3799C14.8033 13.5966 15.1497 13.7049 15.6285 13.7266C15.8221 13.7266 16.0157 13.7157 16.2194 13.7049C16.4232 13.6832 16.6168 13.6724 16.8103 13.6507C17.2484 13.5966 17.6356 13.6507 17.9718 13.7916C18.308 13.9432 18.5933 14.2249 18.848 14.6365C18.9498 14.8207 19.0619 15.0048 19.1842 15.1781C19.3064 15.3515 19.4389 15.5464 19.5713 15.7523C19.6223 15.8389 19.6834 15.9364 19.7547 16.0231C19.8158 16.1206 19.8871 16.2181 19.9585 16.3264C20.0196 16.1747 20.0807 16.0231 20.1317 15.8823C20.1928 15.7523 20.2539 15.6114 20.315 15.4706C20.4271 15.1565 20.5494 14.864 20.6614 14.5715C20.7735 14.2899 20.8856 13.9974 20.9875 13.7049C21.3542 12.535 21.4663 11.4084 21.3135 10.3251H21.3237ZM15.7915 7.93112V7.99612C15.7915 7.99612 15.761 8.09361 15.761 8.14777C15.7508 8.20194 15.7508 8.2561 15.7508 8.29943C15.7202 8.46192 15.6897 8.60274 15.6693 8.7544C15.6489 8.90606 15.6183 9.04688 15.5674 9.1877C15.4451 9.77267 15.1904 10.2601 14.8237 10.6501C14.4671 11.0401 14.0494 11.3759 13.5807 11.6792C13.4483 11.755 13.3158 11.7875 13.1732 11.7875C13.0408 11.7875 12.8981 11.7442 12.7759 11.6575C12.7147 11.6034 12.6536 11.56 12.5823 11.5275C12.5212 11.4842 12.46 11.4517 12.3989 11.4192C12.2665 11.3217 12.134 11.2351 12.0016 11.1484C11.8691 11.0617 11.7469 10.9751 11.6144 10.8884C11.2069 10.5851 10.9114 10.2168 10.7382 9.7835C10.565 9.33936 10.4224 8.87356 10.3205 8.39692C10.3002 8.36443 10.29 8.33193 10.29 8.31026C10.2798 8.2886 10.2798 8.26693 10.2798 8.23444C10.2187 8.01778 10.1779 7.7903 10.1575 7.55198C10.1371 7.3245 10.1779 7.08618 10.2798 6.85869C10.2594 6.85869 10.2492 6.85869 10.2492 6.84786V6.81536C10.2492 6.81536 10.2492 6.78287 10.239 6.7612C10.239 6.75037 10.239 6.73954 10.2492 6.71787C10.4122 6.38206 10.5752 6.03542 10.7382 5.68877C10.8911 5.3313 11.0643 4.98465 11.2375 4.62718L11.431 4.20471C11.482 4.65968 11.5737 5.07132 11.7163 5.45046C11.8691 5.8296 12.1136 6.15458 12.46 6.41456C12.7249 6.62038 13.0102 6.77203 13.3158 6.86953C13.6215 6.96702 13.9373 7.06451 14.2633 7.14034C14.3041 7.14034 14.355 7.17284 14.4161 7.18367C14.4671 7.20534 14.5282 7.21617 14.5893 7.227L15.6387 7.55198C15.7406 7.57365 15.7915 7.61698 15.8017 7.68197C15.8119 7.7578 15.8017 7.83363 15.7915 7.93112Z" fill="#009349"/>
</svg>