<svg width="18" height="18" viewBox="0 0 18 18" fill="none" xmlns="http://www.w3.org/2000/svg">
<path d="M11.8286 9.47009C11.8286 11.1372 10.4996 12.4742 8.87782 12.4742C7.25609 12.4742 5.927 11.1372 5.927 9.47009C5.927 7.80293 7.25609 6.46594 8.87782 6.46594C10.4996 6.46594 11.8286 7.80293 11.8286 9.47009Z" fill="#F81B40" stroke="#D31736" stroke-width="1.125"/>
<path d="M2.73 13.1448C1.91417 11.9908 1.48334 10.602 1.50049 9.18159C1.51765 7.76118 1.98188 6.38357 2.82533 5.25012L3.60786 5.85025C2.89054 6.8142 2.49573 7.98579 2.48114 9.19379C2.46655 10.4018 2.83295 11.5829 3.52678 12.5644L2.73 13.1448Z" fill="#F81B40"/>
<path d="M4.49337 11.7597C3.90658 11.0704 3.57381 10.1957 3.55193 9.28491C3.53006 8.37416 3.82044 7.48397 4.37345 6.76648L4.92652 7.2058C4.4738 7.79318 4.23607 8.52194 4.25398 9.26753C4.27188 10.0131 4.54431 10.7293 5.02469 11.2935L4.49337 11.7597Z" fill="#F81B40"/>
<path d="M15.27 5.25005C16.0858 6.40415 16.5167 7.79289 16.4995 9.21331C16.4824 10.6337 16.0181 12.0113 15.1747 13.1448L14.3921 12.5446C15.1095 11.5807 15.5043 10.4091 15.5189 9.2011C15.5334 7.9931 15.167 6.81203 14.4732 5.83053L15.27 5.25005Z" fill="#F81B40"/>
<path d="M13.5066 6.63507C14.0934 7.32435 14.4262 8.19911 14.4481 9.10987C14.4699 10.0206 14.1796 10.9108 13.6265 11.6283L13.0735 11.189C13.5262 10.6016 13.7639 9.87284 13.746 9.12724C13.7281 8.38165 13.4557 7.66551 12.9753 7.10123L13.5066 6.63507Z" fill="#F81B40"/>
</svg>
