<svg width="26" height="26" viewBox="0 0 26 26" fill="none" xmlns="http://www.w3.org/2000/svg">
<path d="M24.2548 1.08325H7.04189C6.67632 1.08325 6.37977 1.39718 6.37977 1.78431V22.8133C6.37737 23.5741 6.13893 24.3129 5.70114 24.9162H21.6068C23.4341 24.9141 24.9149 23.3462 24.9169 21.4112V1.78431C24.9169 1.39724 24.6204 1.08325 24.2548 1.08325ZM20.2825 19.3083H11.0141C10.6485 19.3083 10.352 18.9946 10.352 18.6075C10.352 18.2204 10.6485 17.9064 11.0141 17.9064H20.2825C20.6481 17.9064 20.9447 18.2204 20.9447 18.6075C20.9447 18.9946 20.6482 19.3083 20.2825 19.3083ZM20.2825 15.1025H11.0141C10.6485 15.1025 10.352 14.7888 10.352 14.4017C10.352 14.0146 10.6485 13.7006 11.0141 13.7006H20.2825C20.6481 13.7006 20.9447 14.0146 20.9447 14.4017C20.9447 14.7888 20.6482 15.1025 20.2825 15.1025ZM20.2825 10.8967H11.0141C10.6485 10.8967 10.352 10.583 10.352 10.1959C10.352 9.80877 10.6485 9.49484 11.0141 9.49484H20.2825C20.6481 9.49484 20.9447 9.80877 20.9447 10.1959C20.9447 10.583 20.6482 10.8967 20.2825 10.8967ZM20.2825 6.69089H11.0141C10.6485 6.69089 10.352 6.37723 10.352 5.9901C10.352 5.60297 10.6485 5.28905 11.0141 5.28905H20.2825C20.6481 5.28905 20.9447 5.60297 20.9447 5.9901C20.9447 6.37723 20.6482 6.69089 20.2825 6.69089Z" fill="#009349"/>
<path d="M1.74568 3.88761H4.39366C4.75929 3.88761 5.05578 4.20134 5.05578 4.5884V22.8137C5.05578 23.975 4.1665 24.9166 3.06967 24.9166C1.97284 24.9166 1.08356 23.975 1.08356 22.8137V4.5884C1.08356 4.20127 1.38011 3.88761 1.74568 3.88761Z" fill="#009349"/>
</svg>
