<svg width="26" height="26" viewBox="0 0 26 26" fill="none" xmlns="http://www.w3.org/2000/svg">
<path d="M14.125 5C14.3942 5.125 14.4821 5.33667 14.4708 5.62917C14.4233 6.85125 14.0621 7.96583 13.3671 8.97167C13.1367 9.30542 12.9033 9.63708 12.6692 9.96833C12.5142 10.1879 12.3221 10.2633 12.1083 10.1938C11.8933 10.1238 11.7846 9.955 11.7813 9.68458C11.7654 8.32333 11.4696 7.02708 10.8867 5.79625C10.7004 5.40333 10.7558 5.21792 11.1254 5H14.125Z" fill="#31AA6B"/>
<path d="M21 14.875C20.9171 14.9704 20.8483 15.0858 20.7479 15.1571C20.5988 15.2625 20.4321 15.2254 20.2738 15.1479C19.4563 14.7479 18.6 14.4617 17.6987 14.3342C17.2417 14.2696 16.7779 14.2492 16.3162 14.2213C16.0408 14.2046 15.8687 14.1021 15.8017 13.8775C15.7396 13.67 15.8146 13.4771 16.0321 13.3321C16.6025 12.9517 17.1575 12.5429 17.7542 12.2079C18.5596 11.7558 19.4479 11.5662 20.3712 11.5287C20.6637 11.5171 20.8746 11.6058 21 11.8746V14.875Z" fill="#31AA6B"/>
<path d="M5 20.4062C5.145 20.0242 5.29292 19.6429 5.43458 19.2596C5.69542 18.5529 5.9525 17.845 6.21125 17.1375C6.22708 17.0942 6.24417 17.0517 6.27208 16.9788C6.8475 18.0338 7.41125 19.0667 7.98167 20.1121C7.50458 20.2867 7.04125 20.4542 6.57958 20.6254C6.25 20.7475 5.92208 20.875 5.59375 21H5.34375C5.18917 20.9254 5.07333 20.8121 5 20.6562C5 20.5729 5 20.4896 5 20.4062Z" fill="#009349"/>
<path d="M8.47541 10.9388C10.6717 13.135 12.8637 15.3271 15.0608 17.5246C14.7308 17.6463 14.3871 17.7733 14.0429 17.8996C13.4425 18.1192 12.8412 18.3358 12.2425 18.56C12.1317 18.6017 12.0729 18.5908 12.0058 18.4833C10.7137 16.4075 9.4175 14.3342 8.11958 12.2617C8.06166 12.1696 8.04708 12.0938 8.08833 11.9883C8.22541 11.6367 8.35041 11.2804 8.47541 10.9388Z" fill="#009349"/>
<path d="M9.55625 9.02542C9.62208 9.05875 9.74208 9.09875 9.83792 9.17083C12.0946 10.8696 14.1213 12.8096 15.9113 14.9946C16.2279 15.3812 16.5333 15.7767 16.8388 16.1721C17.0792 16.4833 16.9808 16.8171 16.6113 16.9583C16.4367 17.025 16.2438 17.1596 16.0875 17.1271C15.9321 17.0946 15.8092 16.8946 15.6775 16.7625C13.4383 14.5242 11.2004 12.2846 8.95875 10.0487C8.8675 9.9575 8.84667 9.885 8.89958 9.76875C8.96417 9.6275 9.00583 9.47542 9.06375 9.33083C9.14167 9.13667 9.29417 9.04417 9.55625 9.02542Z" fill="#009349"/>
<path d="M11.1908 18.9396C10.4108 19.225 9.65083 19.5025 8.87916 19.785C8.85125 19.7383 8.82333 19.6963 8.79958 19.6521C8.12458 18.4154 7.45125 17.1775 6.77291 15.9429C6.7175 15.8421 6.70958 15.7596 6.74958 15.6521C7.02666 14.9071 7.29708 14.1596 7.57 13.4129C7.58708 13.3658 7.60958 13.3204 7.6375 13.255C8.825 15.155 10.0021 17.0375 11.1908 18.9396Z" fill="#009349"/>
<path d="M16.3163 7.27583C16.3771 7.31 16.5071 7.35125 16.5938 7.43625C17.255 8.08583 17.9104 8.74125 18.5621 9.4C18.8233 9.66417 18.76 10.0258 18.4225 10.1846C17.19 10.7646 15.955 11.3383 14.7196 11.9121C14.5096 12.0096 14.3192 11.9762 14.1713 11.8321C14.0258 11.6904 13.9888 11.4925 14.085 11.2854C14.6608 10.0454 15.2396 8.80625 15.8179 7.56708C15.9029 7.38542 16.0488 7.29208 16.3163 7.27583Z" fill="#31AA6B"/>
<path d="M10.4683 7.50375C10.4658 7.7575 10.2533 7.96792 10 7.96792C9.74125 7.96792 9.525 7.74625 9.53167 7.4875C9.53833 7.23458 9.755 7.02667 10.0079 7.03125C10.2617 7.03583 10.4708 7.25 10.4683 7.50375Z" fill="#31AA6B"/>
<path d="M18.5 15.5317C18.7533 15.5317 18.9662 15.7421 18.9683 15.9954C18.9704 16.2554 18.7525 16.4721 18.4929 16.4679C18.2404 16.4638 18.03 16.2483 18.0321 15.9958C18.0342 15.7425 18.2467 15.5317 18.5 15.5317Z" fill="#31AA6B"/>
</svg>
