<svg width="20" height="20" viewBox="0 0 20 20" fill="none" xmlns="http://www.w3.org/2000/svg">
<path fill-rule="evenodd" clip-rule="evenodd" d="M1.6 2.8V6.8785C1.6 7.1662 1.804 7.4131 2.0863 7.4677C2.3686 7.5223 2.65 7.3687 2.7568 7.102C3.9085 4.2304 6.7189 2.2 10 2.2C14.305 2.2 17.8 5.695 17.8 10C17.8 14.305 14.305 17.8 10 17.8C5.695 17.8 2.2 14.305 2.2 10C2.2 9.6688 1.9312 9.4 1.6 9.4C1.2688 9.4 1 9.6688 1 10C1 14.9671 5.0329 19 10 19C14.9671 19 19 14.9671 19 10C19 5.0329 14.9671 1 10 1C7.0573 1 4.4428 2.4151 2.8003 4.6015L2.8 2.8C2.8 2.4688 2.5312 2.2 2.2 2.2C1.8688 2.2 1.6 2.4688 1.6 2.8Z" fill="#009349"/>
<path fill-rule="evenodd" clip-rule="evenodd" d="M10 3.4C6.358 3.4 3.4 6.3574 3.4 10C3.4 13.6426 6.358 16.6 10 16.6C13.642 16.6 16.6 13.6426 16.6 10C16.6 6.3574 13.642 3.4 10 3.4ZM12.523 11.6758L10.6 9.7516V5.2C10.6 4.8688 10.33 4.6 10 4.6C9.67 4.6 9.4 4.8688 9.4 5.2V10C9.4 10.159 9.46299 10.3117 9.57699 10.4242L11.677 12.5242C11.911 12.7585 12.289 12.7585 12.523 12.5242C12.757 12.2902 12.757 11.9098 12.523 11.6758Z" fill="#009349"/>
</svg>
