<svg width="32" height="32" viewBox="0 0 32 32" fill="none" xmlns="http://www.w3.org/2000/svg">
<path d="M11.4859 8.23415L11.896 8.32411C12.8182 8.44823 14.3927 8.22513 15.005 7.71173L14.9166 7.18816C14.6768 7.04617 13.9959 6.84738 13.1903 7.18816C12.3847 7.52894 11.7037 7.99278 11.464 8.1821L11.4859 8.23415Z" fill="#009349"/>
<path d="M18.5136 15.8034L19.0914 17.7992C19.6177 17.5789 20.1999 17.3327 20.763 17.0872L19.9522 14.8095L22.3978 7.42596L20.3838 7.99393L18.5136 14.2415V8.27791L16.6435 8.84587V18.8496C17.1642 18.6557 17.6433 18.449 17.9924 18.2617L18.0343 18.2392L18.5136 18.04V15.8034Z" fill="#009349"/>
<path d="M13.6451 19.6009L12.7162 19.4363L12.6153 10.9757C13.0558 10.9032 13.2341 10.9787 13.4942 11.0889C13.7438 11.1945 14.0688 11.3322 14.7732 11.4017V19.4284C14.3247 19.5354 13.927 19.6009 13.6451 19.6009Z" fill="#009349"/>
<path fill-rule="evenodd" clip-rule="evenodd" d="M5.42285 11.4017L5.56671 24.6068L7.43683 24.0388L7.29298 18.2172L8.87539 23.7548L11.1771 23.3289L9.45082 17.7913C9.52533 17.7311 9.61037 17.6664 9.70148 17.597C10.2553 17.1756 11.0332 16.5837 11.0332 15.8034C11.0332 14.8946 10.8414 12.8216 10.7455 12.1116C10.3063 10.3425 8.69007 10.5136 5.42285 11.4017ZM7.2926 12.5377V16.7974C8.88418 16.6559 9.1829 16.0633 9.16273 13.9575C9.01865 12.328 8.95451 12.1246 7.2926 12.5377Z" fill="#009349"/>
<path d="M11.486 8.33014L11.8953 8.4199C12.8178 8.54407 14.3932 8.32075 15.0049 7.80692L15.2043 8.98789C15.3482 9.03522 15.6934 9.18667 15.9236 9.41386C16.2113 9.69784 16.2113 10.5498 15.7797 10.8338C15.4958 11.0206 14.776 10.9001 14.1529 10.7958C13.8289 10.7416 13.531 10.6918 13.3342 10.6918C13.1788 10.6918 12.9814 10.7125 12.7732 10.7343C12.2105 10.7934 11.569 10.8607 11.464 10.5498C11.3489 10.209 11.8956 10.0292 12.1833 9.98182L11.486 8.33014Z" fill="#009349"/>
<path d="M21.9394 19.6193L21.8971 19.634L21.5801 18.7462L21.6625 18.7176C21.7751 18.6784 21.8598 18.6919 21.9167 18.758C21.9744 18.8223 22.0281 18.9239 22.0777 19.0628C22.1308 19.2114 22.1555 19.3294 22.1518 19.4165C22.1481 19.5037 22.0773 19.5713 21.9394 19.6193Z" fill="#009349"/>
<path fill-rule="evenodd" clip-rule="evenodd" d="M25.0124 21.7927L27.5138 21.4849L26.0226 19.4956L26.5071 16.5388L25.0481 17.1528C24.8561 16.61 24.3536 16.0433 23.4226 16.5608C22.4356 17.1095 19.8266 18.0917 18.3963 18.6302L18.1682 18.7161C17.0039 19.2909 15.0779 20.114 14.446 20.2939C14.1536 20.3771 13.3159 20.3094 12.8961 19.8874L14.5989 24.6069C14.6624 24.7772 14.9886 25.0894 15.7851 24.9757C16.5815 24.8619 20.2287 23.1454 21.9527 22.3013C22.1683 22.1958 22.425 22.0478 22.6967 21.8913C23.4679 21.4468 24.3598 20.9328 24.7747 21.1212C24.8736 21.1661 24.9498 21.2079 25.0082 21.2472L25.0124 21.7927ZM20.6108 18.3314L21.805 21.6204L22.5355 21.3663L22.1323 20.2925L22.4342 20.1875C22.6397 20.116 22.7819 20.0157 22.8609 19.8868C22.9412 19.7573 22.974 19.603 22.959 19.4239C22.9436 19.2434 22.8963 19.042 22.8169 18.8197C22.7345 18.5891 22.6376 18.3995 22.526 18.2509C22.4144 18.1023 22.2819 18.0039 22.1286 17.9557C21.9767 17.907 21.798 17.9184 21.5925 17.9899L20.6108 18.3314ZM20.2837 22.225L19.1509 19.0527L19.8688 18.803L21.0015 21.9753L20.2837 22.225ZM16.5307 20.1188L18.2062 23.0642L19.2196 22.7117L18.4433 19.3374L17.736 19.5835L18.3088 21.7096L17.238 19.8727L16.5307 20.1188ZM17.0797 23.4224C16.9456 23.469 16.834 23.4695 16.7447 23.4237C16.654 23.3738 16.5895 23.2954 16.5514 23.1887L16.5217 23.1055C16.4821 22.9945 16.4825 22.8936 16.523 22.8028C16.5635 22.7119 16.6507 22.6432 16.7848 22.5966C16.9232 22.5484 17.0348 22.548 17.1197 22.5952C17.209 22.6409 17.2734 22.7193 17.313 22.8302L17.3427 22.9134C17.3808 23.0201 17.3804 23.1211 17.3414 23.2162C17.3053 23.3055 17.218 23.3743 17.0797 23.4224Z" fill="#009349"/>
<path d="M14.4426 24.8403L11.9498 24.8724L12.4842 22.4546L10.8147 19.9535L12.4776 19.922L14.4426 24.8403Z" fill="#009349"/>
</svg>
