<svg xmlns="http://www.w3.org/2000/svg" width="20" height="20" viewBox="0 0 20 20" fill="none">
<path d="M0 4C0 1.79086 1.79086 0 4 0H16C18.2091 0 20 1.79086 20 4V16C20 18.2091 18.2091 20 16 20H4C1.79086 20 0 18.2091 0 16V4Z" fill="black" fill-opacity="0.5"/>
<path d="M4 8.58271V11.4199C4 11.81 4.3 12.1291 4.66667 12.1291H6.66667L8.86 14.4627C9.28 14.9095 10 14.5904 10 13.9591V6.03638C10 5.40511 9.28 5.08593 8.86 5.53278L6.66667 7.87343H4.66667C4.3 7.87343 4 8.19261 4 8.58271ZM13 10.0013C13 8.74585 12.32 7.66773 11.3333 7.14286V12.8526C12.32 12.3348 13 11.2567 13 10.0013ZM11.3333 4.64618V4.78803C11.3333 5.05756 11.5 5.29163 11.7333 5.39093C13.4533 6.12149 14.6667 7.91598 14.6667 10.0013C14.6667 12.0866 13.4533 13.8811 11.7333 14.6116C11.4933 14.7109 11.3333 14.945 11.3333 15.2145V15.3564C11.3333 15.8032 11.7533 16.1153 12.14 15.9593C14.4 15.0443 16 12.7249 16 10.0013C16 7.27763 14.4 4.95826 12.14 4.04328C11.7533 3.88015 11.3333 4.19933 11.3333 4.64618Z" fill="white"/>
</svg>