<svg xmlns="http://www.w3.org/2000/svg" width="20" height="20" viewBox="0 0 20 20" fill="none">
<path d="M0 4C0 1.79086 1.79086 0 4 0H16C18.2091 0 20 1.79086 20 4V16C20 18.2091 18.2091 20 16 20H4C1.79086 20 0 18.2091 0 16V4Z" fill="black" fill-opacity="0.5"/>
<path d="M4.42 4.20271C4.16 4.473 4.16 4.90962 4.42 5.1799L6.86 7.71643L6.66667 7.92434H4.66667C4.3 7.92434 4 8.23621 4 8.61738V11.3895C4 11.7707 4.3 12.0826 4.66667 12.0826H6.66667L8.86 14.3627C9.28 14.7993 10 14.4874 10 13.8706V10.9807L12.7867 13.8776C12.46 14.134 12.1067 14.3488 11.72 14.5082C11.48 14.6122 11.3333 14.8755 11.3333 15.1458C11.3333 15.6448 11.82 15.9636 12.26 15.7765C12.7933 15.5478 13.2933 15.2429 13.74 14.8686L14.6333 15.7973C14.8933 16.0676 15.3133 16.0676 15.5733 15.7973C15.8333 15.527 15.8333 15.0904 15.5733 14.8201L5.36667 4.20271C5.10667 3.93243 4.68667 3.93243 4.42 4.20271ZM14.6667 10.0035C14.6667 10.5718 14.5667 11.1193 14.3933 11.6252L15.4133 12.6855C15.7867 11.8747 16 10.9668 16 10.0035C16 7.34912 14.4 5.07595 12.1467 4.18192C11.7533 4.02252 11.3333 4.34132 11.3333 4.77794V4.90962C11.3333 5.17297 11.5 5.40167 11.74 5.4987C13.4533 6.21946 14.6667 7.96592 14.6667 10.0035ZM8.86 5.64424L8.74667 5.76206L10 7.06497V6.12937C10 5.51256 9.28 5.20762 8.86 5.64424ZM13 10.0035C13 8.77678 12.32 7.72336 11.3333 7.21051V8.45105L12.9867 10.1698C12.9933 10.1144 13 10.0589 13 10.0035Z" fill="white"/>
</svg>