<svg xmlns="http://www.w3.org/2000/svg" width="25" height="24" viewBox="0 0 25 24" fill="none">
<path d="M12.5 1.0083C6.43488 1.0083 1.5 5.94318 1.5 12.0083C1.5 18.0734 6.43488 23.0083 12.5 23.0083C18.5651 23.0083 23.5 18.0734 23.5 12.0083C23.5 5.94318 18.5651 1.0083 12.5 1.0083ZM13.1985 4.58193L16.0269 3.06118C17.593 3.6813 18.9597 4.69743 19.9993 5.98993L19.3255 9.10018L17.1681 10.1576L13.1985 7.26593V4.58193ZM8.9965 3.05293L11.8249 4.57918V7.26593L7.858 10.1576L5.68962 9.0988L5.01587 5.9693C6.05813 4.67955 7.42762 3.66893 8.9965 3.05293ZM4.56625 17.4451C3.66837 16.1388 3.084 14.6029 2.92312 12.9433L5.251 10.4147L7.374 11.4528L8.97312 15.9944L7.6215 17.6142L4.56625 17.4451ZM14.9516 21.3047C14.1665 21.5123 13.3484 21.6333 12.5 21.6333C11.4742 21.6333 10.487 21.4683 9.55888 21.1699L8.694 18.4777L10.0731 16.8208H14.9324L16.2867 18.4241L14.9516 21.3047ZM17.3593 17.5674L16.0296 15.993L17.6508 11.4528L19.7641 10.4174L22.0783 12.9447C21.9394 14.376 21.4787 15.7112 20.7789 16.8923L17.3593 17.5674Z" fill="#8B98B2"/>
</svg>