<svg xmlns="http://www.w3.org/2000/svg" width="25" height="34" viewBox="0 0 25 34" fill="none">
<path d="M21.8552 29.9201C19.7557 31.1171 17.5194 31.1368 15.2561 30.5069C13.9644 30.1517 12.7658 29.5137 11.7452 28.638C11.6799 28.5891 11.6117 28.5441 11.5411 28.5034L14.0414 25.4586C14.7038 25.8292 15.3295 26.2368 15.9967 26.5579C16.907 27.0219 17.9459 27.1608 18.9443 26.952C19.3207 26.8717 19.6494 26.7049 19.8425 26.3443C20.0686 25.9218 20.0001 25.4216 19.6152 25.1301C19.3059 24.9018 18.9707 24.7119 18.6168 24.5643C17.6257 24.132 16.6248 23.7232 15.624 23.3118C14.2614 22.7511 13.1738 21.8889 12.5615 20.4956C12.5471 20.4725 12.5294 20.4517 12.509 20.4338L8.12309 34L10.4975 23.8183H10.1236C8.66935 23.8183 7.2139 23.8109 5.75967 23.8257C5.50304 23.8257 5.41383 23.7442 5.34539 23.507C3.76407 18.0771 2.17827 12.6484 0.587987 7.22095C0.554992 7.10732 0.532995 6.98874 0.5 6.8504H5.18286L8.17808 19.6396H8.30029C9.27792 15.3757 10.2592 11.1052 11.2442 6.82816H14.1526C14.562 6.82816 14.9714 6.8084 15.3747 6.83557C15.6545 6.85287 15.7706 6.75158 15.8525 6.48725L18.486 0C17.1295 4.84073 15.7046 9.66664 14.259 14.4963C17.7723 12.5125 20.9936 13.014 24.0585 15.5054C23.285 16.4874 22.5542 17.4138 21.8295 18.3352C21.3835 18.0882 20.9655 17.8202 20.5231 17.6077C19.6335 17.1803 18.6901 17.0025 17.721 17.2174C17.4424 17.2828 17.1833 17.415 16.9658 17.6028C16.8645 17.6858 16.7833 17.7912 16.7284 17.9109C16.6736 18.0305 16.6465 18.1613 16.6494 18.2931C16.6522 18.4249 16.6848 18.5544 16.7447 18.6715C16.8047 18.7886 16.8903 18.8904 16.9951 18.9689C17.3221 19.2137 17.6796 19.4139 18.0583 19.5643C19.1129 20.004 20.181 20.4054 21.2356 20.8328C22.3806 21.2935 23.3705 21.9556 23.9522 23.0982C24.9677 25.0745 24.7343 28.286 21.8552 29.9201Z" fill="url(#paint0_linear_48_8207)"/>
<defs>
<linearGradient id="paint0_linear_48_8207" x1="-0.415299" y1="31.6926" x2="14.9153" y2="-0.326395" gradientUnits="userSpaceOnUse">
<stop stop-color="#00F57A"/>
<stop offset="0.244509" stop-color="#008743"/>
<stop offset="0.61242" stop-color="#00C662"/>
<stop offset="1" stop-color="#00AB55"/>
</linearGradient>
</defs>
</svg>