<svg width="25" height="24" viewBox="0 0 25 24" fill="none" xmlns="http://www.w3.org/2000/svg">
<path d="M14.2331 2H4.47535C4.15733 2 3.89996 2.25331 3.89996 2.56633V15.6983C3.89996 16.0113 4.15733 16.2646 4.47535 16.2646H14.2331C14.5511 16.2646 14.8085 16.0113 14.8085 15.6983V2.56633C14.8085 2.25331 14.5511 2 14.2331 2ZM6.68262 14.3979C6.62771 14.7407 6.11543 15.1852 5.98511 15.2796C5.85561 15.374 5.71873 15.5418 5.71873 15.5418C5.71873 15.5418 5.58185 15.3732 5.45235 15.2796C5.32285 15.1852 4.80976 14.7415 4.75484 14.3979C4.69993 14.055 4.89172 13.7186 5.22695 13.6984C5.22695 13.6984 5.45235 13.671 5.62038 13.8404C5.5671 13.7049 5.48432 13.5516 5.35481 13.3999V13.3346H6.08265V13.3999C5.95315 13.5516 5.87036 13.7049 5.81709 13.8404C5.98511 13.6718 6.21051 13.6984 6.21051 13.6984C6.54574 13.7186 6.73672 14.055 6.68262 14.3979ZM10.8644 11.4033C10.8644 11.4033 10.1718 11.4864 9.65707 10.9684C9.82018 11.3839 10.0743 11.8542 10.471 12.3189V12.5198H8.23665V12.3189C8.63335 11.8534 8.88826 11.3839 9.05054 10.9676C8.53581 11.4864 7.8424 11.4025 7.8424 11.4025C6.81458 11.3403 6.2269 10.3077 6.39493 9.25494C6.56295 8.20135 8.13665 6.83878 8.53499 6.54997C8.93334 6.26116 9.35299 5.74485 9.35299 5.74485C9.35299 5.74485 9.77264 6.26116 10.171 6.54997C10.5693 6.83878 12.143 8.20216 12.311 9.25494C12.4791 10.3077 11.8914 11.3403 10.8636 11.4025L10.8644 11.4033ZM13.3282 4.70336C13.3282 4.70336 13.1028 4.73079 12.9348 4.56138C12.9881 4.69691 13.0708 4.85019 13.2004 5.00185V5.0672H12.4725V5.00185C12.602 4.85019 12.6848 4.69691 12.7381 4.56138C12.5701 4.72998 12.3447 4.70336 12.3447 4.70336C12.0094 4.68319 11.8184 4.34678 11.8725 4.00392C11.9275 3.66106 12.4397 3.21655 12.5701 3.12216C12.7004 3.02778 12.8364 2.85998 12.8364 2.85998C12.8364 2.85998 12.9733 3.02858 13.1028 3.12216C13.2323 3.21655 13.7454 3.66025 13.8003 4.00392C13.8552 4.34678 13.6634 4.68319 13.3282 4.70336Z" fill="#AAAEB7"/>
<path d="M21.542 8.76855L18.5274 7.54554L16.898 18.3001C16.8586 18.5574 16.7267 18.7922 16.5267 18.9608C16.3283 19.1278 16.0759 19.2198 15.8152 19.2198C15.7611 19.2198 15.7062 19.2157 15.6529 19.2077L6.65501 17.887C6.69189 18.0653 6.81566 18.2234 6.99925 18.2977L16.021 21.957C16.3144 22.0764 16.6513 21.9385 16.7717 21.6496L21.8559 9.50832C21.9772 9.21951 21.8371 8.88794 21.5428 8.76935L21.542 8.76855Z" fill="#CFD1D9"/>
<path d="M5.59039 16.7772C5.61416 17.0305 5.81087 17.2451 6.07808 17.2838L6.75919 17.3839L7.01328 16.7772H5.59039Z" fill="#CFD1D9"/>
<path d="M17.8699 4.59208L15.3282 4.21857V15.6976C15.3282 16.2921 14.8365 16.7762 14.2324 16.7762H7.01633L6.76224 17.3828L15.7323 18.6994C15.761 18.7034 15.7897 18.7059 15.8176 18.7059C16.0979 18.7059 16.3429 18.5042 16.3856 18.2234L18.3543 5.23505C18.401 4.92607 18.1847 4.63887 17.8699 4.59208Z" fill="#CFD1D9"/>
</svg>
