<svg width="25" height="24" viewBox="0 0 25 24" fill="none" xmlns="http://www.w3.org/2000/svg">
<path d="M18.0544 12.2915C17.7537 11.8544 17.3846 11.4516 16.9604 11.0938C16.0927 11.3335 14.6992 11.6234 12.8616 11.697L13.5403 12.9403C13.6807 13.1974 13.5804 13.5167 13.3163 13.6534C13.0523 13.7901 12.7243 13.6925 12.5839 13.4353L11.9764 12.3227L11.3749 13.4338C11.2779 13.6129 11.0898 13.7153 10.8953 13.7153C10.8074 13.7153 10.7209 13.6943 10.6432 13.6543C10.3786 13.5185 10.2772 13.1995 10.4167 12.9419L11.0907 11.6972C9.25142 11.6238 7.85671 11.3337 6.98845 11.0938C6.56432 11.4517 6.19522 11.8544 5.89453 12.2916C5.29259 13.1669 4.97443 14.1662 4.97443 15.1815C4.97443 16.7541 5.71466 18.2272 7.05878 19.3292C8.37612 20.4093 10.1219 21.0042 11.9744 21.0042C13.827 21.0042 15.5728 20.4093 16.8901 19.3292C18.2342 18.2271 18.9744 16.7541 18.9744 15.1814C18.9745 14.1662 18.6563 13.1669 18.0544 12.2915Z" fill="#AAAEB7"/>
<path d="M11.9744 10.6559C14.0499 10.6559 15.6146 10.3536 16.5507 10.1048C16.868 9.54311 17.0369 8.92513 17.0369 8.29323C17.0369 6.90913 16.2399 5.837 14.732 5.1928C14.0493 4.90114 13.6082 4.24921 13.6082 3.53191V3.52734C13.6082 3.23611 13.3657 3 13.0666 3H10.8913C10.5922 3 10.3497 3.23611 10.3497 3.52734C10.3497 4.24576 9.90776 4.89802 9.22382 5.18911C7.71137 5.83282 6.91193 6.90621 6.91193 8.29323C6.91193 8.92436 7.08043 9.54156 7.39693 10.1027C8.33664 10.3519 9.90657 10.6559 11.9744 10.6559Z" fill="#CFD1D9"/>
</svg>
