<svg width="25" height="24" viewBox="0 0 25 24" fill="none" xmlns="http://www.w3.org/2000/svg">
<path d="M20.8524 6.28718L16.8315 5.33391C16.696 5.30218 16.5664 5.40497 16.5664 5.54418V18.2762C16.5664 18.89 16.0171 19.084 15.4034 19.0781H8.39035C8.30353 19.0773 8.23281 19.3821 8.23303 19.4689C8.23381 19.8677 8.51839 20.2233 8.92441 20.2993L17.9198 21.9803C17.9722 21.9902 18.0247 21.9948 18.0763 21.9948C18.4834 21.9948 18.8332 21.7041 18.9079 21.3034L21.5296 7.2752C21.6153 6.81633 21.3112 6.3731 20.8524 6.28718Z" fill="#CFD1D9"/>
<path d="M14.1337 16.7717L14.3535 15.5722H13.9137L14.1337 16.7717Z" fill="#AAAEB7"/>
<path d="M6.55835 5.10894H6.99832L6.77833 3.90953L6.55835 5.10894Z" fill="#AAAEB7"/>
<path d="M15.3377 2H5.78428C5.29672 2 4.90002 2.39669 4.90002 2.88425V17.7824C4.90002 18.27 5.29672 18.6667 5.78428 18.6667H15.3377C15.8253 18.6667 16.222 18.27 16.222 17.7824V2.88425C16.222 2.39669 15.8253 2 15.3377 2ZM7.18058 6.00964L7.08424 5.50785H6.47246L6.37973 6.00964C6.37285 6.04043 6.3557 6.05769 6.32479 6.05769H5.95702C5.91935 6.05769 5.90208 6.03693 5.91235 5.99926L6.48284 3.35618C6.48972 3.32189 6.51037 3.30812 6.54128 3.30812H7.01904C7.04994 3.30812 7.07059 3.32189 7.07736 3.35618L7.64796 5.99926C7.65484 6.03693 7.64108 6.05769 7.59991 6.05769H7.23552C7.20461 6.05769 7.18735 6.04043 7.18058 6.00964ZM12.9979 11.72C12.3234 12.1918 11.3328 11.9658 10.6547 11.233C10.7192 12.0951 11.0314 12.9277 11.5938 13.5879C11.812 13.844 12.0549 14.0631 12.3243 14.2416H8.79757C9.06701 14.0631 9.30986 13.844 9.52809 13.5879C10.0905 12.9277 10.4027 12.095 10.4672 11.233C9.78913 11.9658 8.79851 12.1918 8.12397 11.72C7.36954 11.1923 7.29722 10.2832 7.96254 9.33191C8.62786 8.38059 10.5608 6.67192 10.5608 6.19976C10.5608 6.67204 12.4938 8.38059 13.1591 9.33191C13.8244 10.2832 13.7525 11.1922 12.9979 11.72ZM15.0031 14.682L14.4325 17.3251C14.4256 17.3594 14.4051 17.3731 14.374 17.3731H13.8964C13.8656 17.3731 13.8448 17.3594 13.838 17.3251L13.2674 14.682C13.2572 14.6443 13.2742 14.6236 13.3123 14.6236H13.6799C13.7107 14.6236 13.728 14.6408 13.7349 14.6716L13.8276 15.1734H14.4394L14.5356 14.6716C14.5425 14.6408 14.5597 14.6236 14.5905 14.6236H14.955C14.9962 14.6236 15.01 14.6443 15.0031 14.682Z" fill="#AAAEB7"/>
</svg>
