<svg width="24" height="24" viewBox="0 0 24 24" fill="none" xmlns="http://www.w3.org/2000/svg">
<path d="M3.125 19.1059V19.6875C3.12511 19.9361 3.22391 20.1745 3.3997 20.3503C3.5755 20.5261 3.81389 20.6249 4.0625 20.625H16.8125C17.0611 20.6249 17.2995 20.5261 17.4753 20.3503C17.6511 20.1745 17.7499 19.9361 17.75 19.6875V19.1059C18.0611 19.0602 18.3456 18.9047 18.5519 18.6674C18.7583 18.4302 18.8729 18.1269 18.875 17.8125V13.875H20.1875C20.5355 13.8746 20.8691 13.7362 21.1151 13.4901C21.3612 13.2441 21.4996 12.9105 21.5 12.5625V8.70126C21.8227 8.57072 22.09 8.33201 22.256 8.02604C22.422 7.72007 22.4764 7.36589 22.4099 7.0242C22.3434 6.6825 22.1601 6.37458 21.8915 6.15318C21.6229 5.93179 21.2856 5.81072 20.9375 5.81072C20.5894 5.81072 20.2521 5.93179 19.9835 6.15318C19.7149 6.37458 19.5316 6.6825 19.4651 7.0242C19.3986 7.36589 19.453 7.72007 19.619 8.02604C19.785 8.33201 20.0523 8.57072 20.375 8.70126V12.5625C20.3749 12.6122 20.3551 12.6598 20.32 12.695C20.2848 12.7301 20.2372 12.7499 20.1875 12.75H18.875V7.3125C18.8733 6.96492 18.7345 6.63204 18.4887 6.38626C18.243 6.14048 17.9101 6.00166 17.5625 6H16.9376L16.6085 5.01288C16.5587 4.86354 16.4632 4.73365 16.3355 4.6416C16.2078 4.54955 16.0544 4.50001 15.897 4.5H14.9075L14.3714 3.4172C14.3093 3.29193 14.2135 3.1865 14.0947 3.11278C13.976 3.03906 13.839 3 13.6992 3H7.17584C7.03605 3.00001 6.89905 3.03907 6.78028 3.11279C6.66151 3.1865 6.5657 3.29194 6.50366 3.4172L5.9675 4.5H4.83557C4.6683 4.49999 4.50583 4.55589 4.37398 4.65883C4.24214 4.76176 4.14848 4.90581 4.10791 5.06809L3.875 6H3.3125C2.96492 6.00166 2.63204 6.14048 2.38626 6.38626C2.14048 6.63204 2.00166 6.96492 2 7.3125V17.8125C2.0021 18.1269 2.11671 18.4302 2.32307 18.6674C2.52942 18.9047 2.8139 19.0602 3.125 19.1059ZM17.1875 15.5625H11.5625V9.5625H17.1875V15.5625ZM3.6875 9.5625H9.3125V15.5625H3.6875V9.5625Z" fill="#AAAEB7"/>
<path d="M3.125 19.1059V19.6875C3.12511 19.9361 3.22391 20.1745 3.3997 20.3503C3.5755 20.5261 3.81389 20.6249 4.0625 20.625H16.8125C17.0611 20.6249 17.2995 20.5261 17.4753 20.3503C17.6511 20.1745 17.7499 19.9361 17.75 19.6875V19.1059C18.0611 19.0602 18.3456 18.9047 18.5519 18.6674C18.7583 18.4302 18.8729 18.1269 18.875 17.8125V13.875H20.1875C20.5355 13.8746 20.8691 13.7362 21.1151 13.4901C21.3612 13.2441 21.4996 12.9105 21.5 12.5625V8.70126C21.8227 8.57072 22.09 8.33201 22.256 8.02604C22.422 7.72007 22.4764 7.36589 22.4099 7.0242C22.3434 6.6825 22.1601 6.37458 21.8915 6.15318C21.6229 5.93179 21.2856 5.81072 20.9375 5.81072C20.5894 5.81072 20.2521 5.93179 19.9835 6.15318C19.7149 6.37458 19.5316 6.6825 19.4651 7.0242C19.3986 7.36589 19.453 7.72007 19.619 8.02604C19.785 8.33201 20.0523 8.57072 20.375 8.70126V12.5625C20.3749 12.6122 20.3551 12.6598 20.32 12.695C20.2848 12.7301 20.2372 12.7499 20.1875 12.75H18.875V7.3125C18.8733 6.96492 18.7345 6.63204 18.4887 6.38626C18.243 6.14048 17.9101 6.00166 17.5625 6H16.9376L16.6085 5.01288C16.5587 4.86354 16.4632 4.73365 16.3355 4.6416C16.2078 4.54955 16.0544 4.50001 15.897 4.5H14.9075L14.3714 3.4172C14.3093 3.29193 14.2135 3.1865 14.0947 3.11278C13.976 3.03906 13.839 3 13.6992 3H7.17584C7.03605 3.00001 6.89905 3.03907 6.78028 3.11279C6.66151 3.1865 6.5657 3.29194 6.50366 3.4172L5.9675 4.5H4.83557C4.6683 4.49999 4.50583 4.55589 4.37398 4.65883C4.24214 4.76176 4.14848 4.90581 4.10791 5.06809L3.875 6H3.3125C2.96492 6.00166 2.63204 6.14048 2.38626 6.38626C2.14048 6.63204 2.00166 6.96492 2 7.3125V17.8125C2.0021 18.1269 2.11671 18.4302 2.32307 18.6674C2.52942 18.9047 2.8139 19.0602 3.125 19.1059ZM17.1875 15.5625H11.5625V9.5625H17.1875V15.5625ZM3.6875 9.5625H9.3125V15.5625H3.6875V9.5625Z" fill="#AAAEB7"/>
<path d="M8.25129 11.7317H7.46595C7.40512 11.7318 7.34562 11.7139 7.29484 11.6804C7.24406 11.6469 7.20424 11.5992 7.18031 11.5433L6.80072 10.6573C6.77678 10.6013 6.73694 10.5536 6.68614 10.5201C6.63534 10.4866 6.57583 10.4687 6.51497 10.4688C6.45412 10.4687 6.3946 10.4866 6.34381 10.5201C6.29301 10.5536 6.25317 10.6013 6.22922 10.6573L5.84965 11.5433C5.8257 11.5993 5.78584 11.647 5.73502 11.6805C5.68421 11.7139 5.62468 11.7318 5.56382 11.7317H4.77869C4.7172 11.7318 4.65709 11.75 4.60596 11.7842C4.55483 11.8184 4.51498 11.8669 4.49145 11.9238C4.46792 11.9806 4.46175 12.0431 4.47374 12.1034C4.48572 12.1637 4.51532 12.2191 4.55879 12.2626L5.1471 12.8512C5.18506 12.8892 5.21255 12.9364 5.22689 12.9881C5.24123 13.0398 5.24194 13.0944 5.22895 13.1465L4.95081 14.259C4.93604 14.3181 4.93897 14.3802 4.95922 14.4377C4.97947 14.4952 5.01616 14.5454 5.06473 14.5822C5.11329 14.619 5.1716 14.6407 5.2324 14.6447C5.29321 14.6486 5.35383 14.6346 5.40674 14.6044L6.36075 14.059C6.4077 14.0322 6.46084 14.018 6.51493 14.018C6.56901 14.018 6.62216 14.0322 6.6691 14.059L7.62326 14.6044C7.67616 14.6346 7.73678 14.6487 7.79758 14.6447C7.85838 14.6408 7.91668 14.6191 7.96524 14.5822C8.0138 14.5454 8.05047 14.4952 8.0707 14.4377C8.09092 14.3802 8.09382 14.3181 8.07901 14.259L7.80106 13.1465C7.78808 13.0945 7.78878 13.0399 7.80309 12.9882C7.81739 12.9364 7.84483 12.8893 7.88273 12.8513L8.47123 12.2627C8.51471 12.2192 8.54432 12.1638 8.55631 12.1034C8.5683 12.0431 8.56214 11.9806 8.5386 11.9238C8.51506 11.8669 8.4752 11.8184 8.42406 11.7842C8.37292 11.75 8.3128 11.7317 8.25129 11.7317Z" fill="#CFD1D9"/>
<path d="M12.9928 12.8512C13.0307 12.8892 13.0582 12.9364 13.0725 12.9881C13.0868 13.0399 13.0875 13.0944 13.0745 13.1465L12.7965 14.259C12.7817 14.3181 12.7846 14.3802 12.8048 14.4377C12.825 14.4951 12.8617 14.5454 12.9103 14.5822C12.9588 14.619 13.0171 14.6407 13.0779 14.6447C13.1387 14.6486 13.1993 14.6346 13.2523 14.6044L14.2064 14.059C14.2534 14.0322 14.3065 14.0181 14.3606 14.0181C14.4147 14.0181 14.4678 14.0322 14.5148 14.059L15.4688 14.6044C15.5217 14.6346 15.5823 14.6486 15.6431 14.6447C15.7039 14.6408 15.7622 14.619 15.8108 14.5822C15.8594 14.5454 15.896 14.4952 15.9163 14.4377C15.9366 14.3803 15.9395 14.3181 15.9247 14.259L15.6468 13.1465C15.6337 13.0945 15.6343 13.0399 15.6487 12.9881C15.663 12.9364 15.6904 12.8892 15.7284 12.8513L16.3167 12.2627C16.3602 12.2192 16.3898 12.1638 16.4018 12.1034C16.4138 12.0431 16.4076 11.9806 16.3841 11.9238C16.3605 11.867 16.3207 11.8184 16.2696 11.7842C16.2184 11.7501 16.1583 11.7318 16.0968 11.7318H15.3117C15.2508 11.7318 15.1913 11.714 15.1405 11.6805C15.0897 11.647 15.0498 11.5993 15.0258 11.5434L14.6462 10.6573C14.6223 10.6014 14.5825 10.5537 14.5317 10.5202C14.4809 10.4867 14.4214 10.4688 14.3606 10.4688C14.2998 10.4688 14.2403 10.4867 14.1895 10.5202C14.1387 10.5537 14.0989 10.6014 14.075 10.6573L13.6952 11.5434C13.6713 11.5993 13.6314 11.647 13.5807 11.6804C13.5299 11.7139 13.4704 11.7318 13.4095 11.7318H12.6242C12.5627 11.7318 12.5026 11.7501 12.4515 11.7843C12.4004 11.8184 12.3605 11.867 12.337 11.9238C12.3135 11.9807 12.3074 12.0432 12.3194 12.1035C12.3314 12.1638 12.361 12.2192 12.4045 12.2627L12.9928 12.8512Z" fill="#CFD1D9"/>
<path d="M8.25129 11.7317H7.46595C7.40512 11.7318 7.34562 11.7139 7.29484 11.6804C7.24406 11.6469 7.20424 11.5992 7.18031 11.5433L6.80072 10.6573C6.77678 10.6013 6.73694 10.5536 6.68614 10.5201C6.63534 10.4866 6.57583 10.4687 6.51497 10.4688C6.45412 10.4687 6.3946 10.4866 6.34381 10.5201C6.29301 10.5536 6.25317 10.6013 6.22922 10.6573L5.84965 11.5433C5.8257 11.5993 5.78584 11.647 5.73502 11.6805C5.68421 11.7139 5.62468 11.7318 5.56382 11.7317H4.77869C4.7172 11.7318 4.65709 11.75 4.60596 11.7842C4.55483 11.8184 4.51498 11.8669 4.49145 11.9238C4.46792 11.9806 4.46175 12.0431 4.47374 12.1034C4.48572 12.1637 4.51532 12.2191 4.55879 12.2626L5.1471 12.8512C5.18506 12.8892 5.21255 12.9364 5.22689 12.9881C5.24123 13.0398 5.24194 13.0944 5.22895 13.1465L4.95081 14.259C4.93604 14.3181 4.93897 14.3802 4.95922 14.4377C4.97947 14.4952 5.01616 14.5454 5.06473 14.5822C5.11329 14.619 5.1716 14.6407 5.2324 14.6447C5.29321 14.6486 5.35383 14.6346 5.40674 14.6044L6.36075 14.059C6.4077 14.0322 6.46084 14.018 6.51493 14.018C6.56901 14.018 6.62216 14.0322 6.6691 14.059L7.62326 14.6044C7.67616 14.6346 7.73678 14.6487 7.79758 14.6447C7.85838 14.6408 7.91668 14.6191 7.96524 14.5822C8.0138 14.5454 8.05047 14.4952 8.0707 14.4377C8.09092 14.3802 8.09382 14.3181 8.07901 14.259L7.80106 13.1465C7.78808 13.0945 7.78878 13.0399 7.80309 12.9882C7.81739 12.9364 7.84483 12.8893 7.88273 12.8513L8.47123 12.2627C8.51471 12.2192 8.54432 12.1638 8.55631 12.1034C8.5683 12.0431 8.56214 11.9806 8.5386 11.9238C8.51506 11.8669 8.4752 11.8184 8.42406 11.7842C8.37292 11.75 8.3128 11.7317 8.25129 11.7317Z" fill="#CFD1D9"/>
<path d="M12.9928 12.8512C13.0307 12.8892 13.0582 12.9364 13.0725 12.9881C13.0868 13.0399 13.0875 13.0944 13.0745 13.1465L12.7965 14.259C12.7817 14.3181 12.7846 14.3802 12.8048 14.4377C12.825 14.4951 12.8617 14.5454 12.9103 14.5822C12.9588 14.619 13.0171 14.6407 13.0779 14.6447C13.1387 14.6486 13.1993 14.6346 13.2523 14.6044L14.2064 14.059C14.2534 14.0322 14.3065 14.0181 14.3606 14.0181C14.4147 14.0181 14.4678 14.0322 14.5148 14.059L15.4688 14.6044C15.5217 14.6346 15.5823 14.6486 15.6431 14.6447C15.7039 14.6408 15.7622 14.619 15.8108 14.5822C15.8594 14.5454 15.896 14.4952 15.9163 14.4377C15.9366 14.3803 15.9395 14.3181 15.9247 14.259L15.6468 13.1465C15.6337 13.0945 15.6343 13.0399 15.6487 12.9881C15.663 12.9364 15.6904 12.8892 15.7284 12.8513L16.3167 12.2627C16.3602 12.2192 16.3898 12.1638 16.4018 12.1034C16.4138 12.0431 16.4076 11.9806 16.3841 11.9238C16.3605 11.867 16.3207 11.8184 16.2696 11.7842C16.2184 11.7501 16.1583 11.7318 16.0968 11.7318H15.3117C15.2508 11.7318 15.1913 11.714 15.1405 11.6805C15.0897 11.647 15.0498 11.5993 15.0258 11.5434L14.6462 10.6573C14.6223 10.6014 14.5825 10.5537 14.5317 10.5202C14.4809 10.4867 14.4214 10.4688 14.3606 10.4688C14.2998 10.4688 14.2403 10.4867 14.1895 10.5202C14.1387 10.5537 14.0989 10.6014 14.075 10.6573L13.6952 11.5434C13.6713 11.5993 13.6314 11.647 13.5807 11.6804C13.5299 11.7139 13.4704 11.7318 13.4095 11.7318H12.6242C12.5627 11.7318 12.5026 11.7501 12.4515 11.7843C12.4004 11.8184 12.3605 11.867 12.337 11.9238C12.3135 11.9807 12.3074 12.0432 12.3194 12.1035C12.3314 12.1638 12.361 12.2192 12.4045 12.2627L12.9928 12.8512Z" fill="#CFD1D9"/>
</svg>
