<svg width="24" height="24" viewBox="0 0 24 24" fill="none" xmlns="http://www.w3.org/2000/svg">
<path d="M16.2083 8.75637L12.0093 19.9899L12.0003 20L11.9912 19.9898L7.79304 8.75637H16.2083ZM15.6311 7.85272L12.0047 4H11.9959L8.37058 7.85272H15.6311ZM6.43042 7.85272L5.15829 4.44875L2.01562 7.85272H6.43042ZM17.5709 7.85272H21.9851L18.8434 4.44868L17.5709 7.85272Z" fill="#AAAEB7"/>
<path d="M7.34903 7.56913L10.7075 4H6.01516L7.34903 7.56913ZM17.9859 4H13.2927L16.6519 7.56887L17.9859 4ZM17.2329 8.75637L13.7768 18.0022L22 8.75637H17.2329ZM6.76786 8.75637H2L10.2233 18.0024L6.76786 8.75637Z" fill="#CFD1D9"/>
</svg>
