<svg width="24" height="24" viewBox="0 0 24 24" fill="none" xmlns="http://www.w3.org/2000/svg">
<path d="M13 6.5C13 4.01472 15.0147 2 17.5 2C19.9853 2 22 4.01472 22 6.5C22 8.98528 19.9853 11 17.5 11C15.0147 11 13 8.98528 13 6.5Z" fill="#CFD1D9"/>
<path d="M10.3592 16.4635C11.2136 16.8906 11.2136 18.1094 10.3592 18.5365L3.67762 21.8762C2.90686 22.2614 2 21.7011 2 20.8397L2 14.1603C2 13.2989 2.90686 12.7386 3.67762 13.1238L10.3592 16.4635Z" fill="#AAAEB7"/>
<path d="M2 3C2 2.44772 2.44772 2 3 2H10C10.5523 2 11 2.44772 11 3V10C11 10.5523 10.5523 11 10 11H3C2.44772 11 2 10.5523 2 10V3Z" fill="#AAAEB7"/>
<path d="M13 14C13 13.4477 13.4477 13 14 13H21C21.5523 13 22 13.4477 22 14V21C22 21.5523 21.5523 22 21 22H14C13.4477 22 13 21.5523 13 21V14Z" fill="#AAAEB7"/>
</svg>
