<svg width="24" height="24" viewBox="0 0 24 24" fill="none" xmlns="http://www.w3.org/2000/svg">
<path d="M20.3246 7C20.3968 5.71234 20.8944 4.46955 21.7502 3.55476C21.994 3.29416 22.0672 2.90283 21.9349 2.56213C21.8035 2.2215 21.4922 2 21.1478 2H18.4452C17.2481 2 16.0233 2.37743 15 3.02329C17.0442 3.8861 19.5 5 20.3246 7Z" fill="#CFD1D9"/>
<path d="M7.04687 8.48129C7.35455 8.48129 7.60352 8.73183 7.60352 9.04146C7.60352 9.35108 7.35455 9.60162 7.04687 9.60162H4.0268C5.34419 10.9797 7.22771 11.8423 9.27344 11.8423H10.2063C10.833 13.1661 12.1752 14.1203 13.7266 14.1203C14.0342 14.1203 14.2832 13.8698 14.2832 13.5601V12.142C14.9551 12.5343 15.3965 13.3052 15.3965 14.1203C15.3965 15.3561 14.3979 16.361 13.1699 16.361H12.7802C12.1392 15.006 10.7765 14.1203 9.27344 14.1203C9.06796 14.1203 8.87934 14.2341 8.78255 14.4162C8.68577 14.5984 8.69668 14.8194 8.81028 14.9912C10.0377 16.844 10.0377 19.2763 8.81028 21.1291C8.69665 21.3009 8.68581 21.5219 8.78255 21.704C8.8793 21.8862 9.06793 22 9.27344 22C10.7765 22 12.1393 21.1143 12.7802 19.7593H13.1699C17.467 19.7593 21 16.1667 21 11.8423C21 7.51799 17.467 4 13.1699 4H2.55664C2.24897 4 2 4.25054 2 4.56017C2 6.0042 2.42501 7.348 3.14842 8.48133L7.04687 8.48129ZM11.1065 7.19683C10.889 6.97803 10.889 6.62352 11.1065 6.40472C11.3239 6.18592 11.6762 6.18592 11.8936 6.40472C12.7247 7.2406 12.7247 8.60161 11.8936 9.43749C11.6762 9.65629 11.3239 9.65629 11.1065 9.43749C10.889 9.21869 10.889 8.86418 11.1065 8.64538C11.5033 8.24606 11.5033 7.59615 11.1065 7.19683ZM8.87989 7.19683C8.66247 6.97803 8.66247 6.62352 8.87989 6.40472C9.09732 6.18592 9.4496 6.18592 9.66702 6.40472C10.4982 7.2406 10.4982 8.60161 9.66702 9.43749C9.4496 9.65629 9.09732 9.65629 8.87989 9.43749C8.66247 9.21869 8.66247 8.86418 8.87989 8.64538C9.2767 8.24606 9.2767 7.59615 8.87989 7.19683ZM7.04687 6.24063C7.35429 6.24063 7.60352 6.49143 7.60352 6.80079C7.60352 7.11015 7.35429 7.36096 7.04687 7.36096C6.73946 7.36096 6.49023 7.11015 6.49023 6.80079C6.49023 6.49143 6.73946 6.24063 7.04687 6.24063Z" fill="#AAAEB7"/>
</svg>
