<svg width="24" height="24" viewBox="0 0 24 24" fill="none" xmlns="http://www.w3.org/2000/svg">
<path d="M8.46869 15.6603H15.5315C16.9434 15.6603 18.092 14.2399 18.092 12.4945C18.092 10.7485 16.9434 9.32812 15.5315 9.32812H8.46869C7.05678 9.32812 5.9082 10.7485 5.9082 12.4945C5.9082 14.2399 7.05678 15.6603 8.46869 15.6603Z" fill="#CFD1D9"/>
<path d="M16.101 20H16.9474C20.166 20 22.799 16.8996 23 12.982L18.8479 12.982C18.6765 14.8 17.5461 16.2608 16.1009 16.5698L16.101 20Z" fill="#AAAEB7"/>
<path d="M15.3217 20V16.6296H8.67761V20L15.3217 20Z" fill="#AAAEB7"/>
<path d="M7.89842 20V16.5698C6.45322 16.2608 5.32285 14.8 5.15142 12.982H1.00027C1.2012 16.8995 3.83346 20 7.05204 20H7.89842Z" fill="#AAAEB7"/>
<path d="M1.00027 12.0184H5.15147C5.3229 10.2005 6.45327 8.73894 7.89847 8.43061V5.00016L7.05204 5C3.83341 5 1.2011 8.10077 1.00027 12.0184Z" fill="#AAAEB7"/>
<path d="M8.67766 5.00016V8.37019H15.3218V5.00016H8.67766Z" fill="#AAAEB7"/>
<path d="M16.1007 5.00016L16.9475 5C20.1661 5 22.7992 8.10061 23 12.0183L18.848 12.0184C18.6765 10.2005 17.5462 8.73894 16.101 8.43061L16.1007 5.00016Z" fill="#AAAEB7"/>
</svg>
