<svg width="24" height="24" viewBox="0 0 24 24" fill="none" xmlns="http://www.w3.org/2000/svg">
<path d="M10.0571 7.71877C8.53168 9.29448 7.25502 10.9908 6.26484 12.7525C6.21206 12.843 6.16181 12.9309 6.11653 13.0189L2.23663 12.4879C2.01269 12.4572 1.92056 12.1835 2.08039 12.0237L6.30526 7.79882C6.35653 7.74755 6.42606 7.71875 6.49857 7.71875L10.0571 7.71877Z" fill="#CFD1D9"/>
<path d="M16.2822 13.9438V17.5021C16.2822 17.5746 16.2534 17.6442 16.2021 17.6954L11.9772 21.9203C11.8174 22.0801 11.5437 21.988 11.513 21.7641L10.9821 17.8868C11.07 17.8416 11.158 17.7938 11.2434 17.7435L11.6279 17.5248V17.5198C13.2514 16.5648 14.8146 15.3636 16.2822 13.9438Z" fill="#CFD1D9"/>
<path d="M16.0934 13.0696C16.1585 13.0045 16.2219 12.9411 16.2836 12.8759C19.4899 9.60461 21.4983 5.87916 21.9918 2.76375C22.062 2.31992 21.6816 1.9395 21.2395 2.00803C18.1172 2.49815 14.3935 4.50481 11.1221 7.71446C11.0571 7.77617 10.9919 7.84129 10.9285 7.90469C9.26287 9.56691 7.91422 11.3508 6.9203 13.1227C6.84834 13.2461 6.7815 13.3677 6.71641 13.4877L10.5121 17.28C10.6304 17.2166 10.7537 17.1515 10.8754 17.0812L10.8737 17.0795C12.6439 16.0873 14.4278 14.7352 16.0934 13.0696ZM13.5538 10.4443C12.8187 9.70914 12.8187 8.51643 13.5521 7.78301C14.2873 7.05128 15.4799 7.05128 16.2117 7.78301C16.9468 8.51815 16.9451 9.70912 16.2099 10.4443C15.4782 11.176 14.2872 11.1777 13.5538 10.4443Z" fill="#AAAEB7"/>
<path d="M8.89958 17.472C8.89958 18.7278 7.05272 20.1257 5.79725 19.9468C6.44958 19.5119 6.80561 18.8569 6.91456 18.0183C5.69604 19.3501 4.04898 20.2189 2.14453 20.8096C5.04708 17.907 3.29433 16.6336 6.3157 14.8881L8.89958 17.472Z" fill="#AAAEB7"/>
</svg>
