<svg width="24" height="24" viewBox="0 0 24 24" fill="none" xmlns="http://www.w3.org/2000/svg">
<path d="M11 7.1C10.6 6.5 10.1 6 9.4 5.6C8.7 5.2 8.1 5.1 7.4 5C6.7 5 5.9 5.1 5.3 5.3C4.6 5.6 4 6 3.5 6.5C3 7 2.6 7.6 2.3 8.3C2.1 8.9 2 9.7 2 10.4C2.1 11.1 2.3 11.8 2.6 12.4C3 13.1 3.5 13.6 4.1 14C4.3 12.2 5.1 10.6 6.4 9.3C7.7 8 9.3 7.3 11 7.1Z" fill="#AAAEB7"/>
<path d="M12 6.7C12.8 5.4 14.1 4.6 15.6 4.2C15.3 3.5 14.8 3 14.1 2.6C13.5 2.2 12.7 2 12 2C11.3 2 10.5 2.2 9.9 2.6C9.3 3 8.8 3.5 8.4 4.2C9.9 4.5 11.2 5.4 12 6.7Z" fill="#AAAEB7"/>
<path d="M21.7 8.3C21.4 7.6 21 7 20.5 6.5C20 6 19.4 5.6 18.7 5.3C18.1 5.1 17.3 5 16.6 5C15.9 5.1 15.2 5.3 14.6 5.6C13.9 6 13.4 6.5 13 7.1C14.8 7.3 16.4 8.1 17.7 9.4C19 10.7 19.8 12.3 20 14.1C20.6 13.7 21.1 13.1 21.4 12.5C21.8 11.9 22 11.2 22 10.5C22 9.7 21.9 8.9 21.7 8.3Z" fill="#AAAEB7"/>
<path d="M12.6 15.9C12.8 16.1 12.8 16.4 12.8 16.7C12.8 17 12.7 17.2 12.6 17.4C12.5 17.6 12.2 17.6 11.9 17.6C11.6 17.6 11.4 17.5 11.2 17.4C11.1 17.2 11 17 11 16.7C11 16.4 11.1 16.1 11.2 15.9C11.4 15.7 11.6 15.6 11.9 15.6C12.2 15.6 12.5 15.7 12.6 15.9Z" fill="#AAAEB7"/>
<path d="M17 10C15.6 8.7 13.9 8 12 8C10.1 8 8.4 8.7 7 10C5.7 11.4 5 13.1 5 15C5 16.9 5.7 18.6 7 20C8.3 21.3 10.1 22 12 22C13.9 22 15.6 21.3 17 20C18.3 18.7 19 16.9 19 15C19 13.1 18.3 11.4 17 10ZM14.4 16.6C14.4 17.4 14.2 18.1 13.8 18.5C13.4 19 12.7 19.2 12 19.2C11.3 19.2 10.5 19 10.1 18.5C9.7 18.1 9.5 17.4 9.5 16.6C9.5 16.2 9.5 15.8 9.7 15.4C9.7 15 9.9 14.6 10 14.2L11.7 10.5H13.5L11.8 14C11.9 14 12 14 12.1 14C12.8 14 13.4 14.2 13.7 14.7C14.2 15.1 14.4 15.8 14.4 16.6Z" fill="#AAAEB7"/>
<path d="M11 7.1C10.6 6.5 10.1 6 9.4 5.6C8.7 5.2 8.1 5.1 7.4 5C6.7 5 5.9 5.1 5.3 5.3C4.6 5.6 4 6 3.5 6.5C3 7 2.6 7.6 2.3 8.3C2.1 8.9 2 9.7 2 10.4C2.1 11.1 2.3 11.8 2.6 12.4C3 13.1 3.5 13.6 4.1 14C4.3 12.2 5.1 10.6 6.4 9.3C7.7 8 9.3 7.3 11 7.1Z" fill="#CFD1D9"/>
</svg>
