<svg width="24" height="24" viewBox="0 0 24 24" fill="none" xmlns="http://www.w3.org/2000/svg">
<path fill-rule="evenodd" clip-rule="evenodd" d="M21.6773 12C21.6773 16.9706 17.5179 21 12.387 21C7.2561 21 3.09668 16.9706 3.09668 12C3.09668 7.02944 7.2561 3 12.387 3C17.5179 3 21.6773 7.02944 21.6773 12ZM18.3594 12C18.3594 15.1954 15.6854 17.7857 12.387 17.7857C9.08856 17.7857 6.41465 15.1954 6.41465 12C6.41465 8.80464 9.08856 6.21429 12.387 6.21429C15.6854 6.21429 18.3594 8.80464 18.3594 12Z" fill="#AAAEB7"/>
<path fill-rule="evenodd" clip-rule="evenodd" d="M10.9223 15.3399C11.338 15.5122 11.823 15.5984 12.3773 15.5984C12.9378 15.5984 13.426 15.5122 13.8417 15.3399C14.2637 15.1609 14.5912 14.9122 14.8242 14.594C15.0573 14.2692 15.1738 13.8913 15.1738 13.4603C15.1738 13.0294 15.0573 12.6647 14.8242 12.3664C14.6579 12.1426 14.4389 11.9599 14.1675 11.8182C14.3466 11.7016 14.4962 11.5627 14.6164 11.4018C14.8305 11.1167 14.9376 10.7785 14.9376 10.3874C14.9376 9.97634 14.8274 9.62496 14.6069 9.33324C14.3928 9.0349 14.0936 8.80617 13.7094 8.64706C13.3315 8.48131 12.8874 8.39844 12.3773 8.39844C11.8797 8.39844 11.4388 8.48131 11.0546 8.64706C10.6704 8.80617 10.3712 9.0349 10.157 9.33324C9.94288 9.62496 9.8358 9.97634 9.8358 10.3874C9.8358 10.7785 9.93973 11.1167 10.1476 11.4018C10.2713 11.5626 10.4223 11.7014 10.6007 11.818C10.3312 11.9597 10.1108 12.1425 9.93973 12.3664C9.71298 12.6647 9.59961 13.0294 9.59961 13.4603C9.59961 13.8913 9.71613 14.2692 9.94918 14.594C10.1822 14.9122 10.5066 15.1609 10.9223 15.3399ZM13.2842 14.1465C13.0638 14.3255 12.7615 14.415 12.3773 14.415C11.9993 14.415 11.7002 14.3255 11.4797 14.1465C11.2593 13.9675 11.149 13.7222 11.149 13.4106C11.149 13.099 11.2593 12.857 11.4797 12.6846C11.7002 12.5056 11.9993 12.4161 12.3773 12.4161C12.7615 12.4161 13.0638 12.5056 13.2842 12.6846C13.511 12.857 13.6244 13.099 13.6244 13.4106C13.6244 13.7222 13.511 13.9675 13.2842 14.1465ZM13.1331 11.0835C12.9504 11.236 12.6985 11.3122 12.3773 11.3122C12.0623 11.3122 11.8135 11.236 11.6309 11.0835C11.4482 10.931 11.3569 10.7222 11.3569 10.457C11.3569 10.1785 11.4514 9.96308 11.6403 9.81059C11.8293 9.65811 12.0749 9.58186 12.3773 9.58186C12.6859 9.58186 12.9347 9.65811 13.1236 9.81059C13.3189 9.96308 13.4165 10.1785 13.4165 10.457C13.4165 10.7222 13.322 10.931 13.1331 11.0835Z" fill="#CFD1D9"/>
</svg>
