<svg width="24" height="24" viewBox="0 0 24 24" fill="none" xmlns="http://www.w3.org/2000/svg">
<path d="M11.4246 3H4.24967C3.5602 3 3 3.5602 3 4.24967V16.8073C3 17.4967 3.5602 18.0569 4.24967 18.0569H11.4246C12.1141 18.0569 12.6743 17.4967 12.6743 16.8073V4.24967C12.6743 3.5602 12.1141 3 11.4246 3ZM5.02394 6.30153C5.02394 6.30153 4.21099 5.86712 4.21099 5.23628C4.21099 4.99433 4.40787 4.79673 4.65054 4.79673C4.80893 4.79673 4.94696 4.88029 5.02394 5.00524C5.10097 4.88029 5.23971 4.79673 5.39667 4.79673C5.64005 4.79673 5.83622 4.99433 5.83622 5.23628C5.83618 5.86712 5.02394 6.30153 5.02394 6.30153ZM7.83806 12.4162C7.83806 12.4162 5.79818 11.3262 5.79818 9.74332C5.79818 9.13628 6.2922 8.6404 6.90106 8.6404C7.29845 8.6404 7.64481 8.85005 7.83803 9.16359C8.03124 8.85005 8.37945 8.6404 8.77322 8.6404C9.38393 8.6404 9.8761 9.13624 9.8761 9.74332C9.87613 11.3262 7.83806 12.4162 7.83806 12.4162ZM10.6511 16.2599C10.6511 16.2599 9.83817 15.8255 9.83817 15.1946C9.83817 14.9527 10.0351 14.7551 10.2777 14.7551C10.4361 14.7551 10.5741 14.8386 10.6511 14.9636C10.7281 14.8386 10.8669 14.7551 11.0239 14.7551C11.2672 14.7551 11.4634 14.9527 11.4634 15.1946C11.4634 15.8255 10.6511 16.2599 10.6511 16.2599Z" fill="#AAAEB7"/>
<path d="M21.2454 7.52566L14.6601 4.67958C14.0626 4.42298 13.3693 4.6698 13.0656 5.23196V16.8024C13.0656 17.7073 12.3291 18.4438 11.4242 18.4438H8.57031C8.60752 18.4653 8.64669 18.4849 8.68783 18.5026L15.2712 21.3486C15.9258 21.6247 16.6494 21.3155 16.9166 20.6964L21.8977 9.17106C22.17 8.53637 21.8781 7.79987 21.2454 7.52566ZM14.7365 6.45421L14.8697 7.54916L13.9804 8.20142L13.8472 7.10647L14.7365 6.45421ZM15.1968 19.574L15.0616 18.481L15.9509 17.8287L16.0841 18.9217L15.1968 19.574ZM13.8061 15.6976L13.3928 12.3363L16.1272 10.3306L16.5366 13.6937L13.8061 15.6976Z" fill="#CFD1D9"/>
</svg>
