<svg width="24" height="24" viewBox="0 0 24 24" fill="none" xmlns="http://www.w3.org/2000/svg">
<path d="M11.3846 6.22154C12.2847 5.77671 13.1692 5.79764 14.0274 6.31574C14.8281 6.80243 15.4613 7.46706 15.9742 8.24159C16.3353 8.78585 16.7383 9.29348 17.2145 9.74878C18.1408 10.628 18.9153 11.6223 19.4596 12.7841C19.9463 13.836 20.1294 14.935 19.9829 16.0811C19.894 16.7719 19.7631 17.4574 19.648 18.143C19.6428 18.1848 19.6218 18.2267 19.6009 18.2947C19.5643 18.2372 19.5486 18.1953 19.5224 18.1639C19.3916 17.9755 19.2084 17.8813 18.9834 17.9232C18.7531 17.965 18.5909 18.1063 18.549 18.3418C18.4391 18.928 18.2978 19.5089 17.9995 20.027C17.7326 20.4927 17.4029 20.9271 17.0994 21.3719C17.068 21.419 17.0209 21.4504 16.9738 21.4923C16.9633 21.2306 16.9528 20.9847 16.9371 20.7387C16.9214 20.477 16.8168 20.2729 16.5499 20.1892C16.3091 20.1107 16.1155 20.1892 15.9219 20.4299C15.4352 21.037 14.8438 21.508 14.1216 21.8272C14.0955 21.6284 14.085 21.4347 14.0484 21.2516C13.9437 20.7753 13.5198 20.6183 13.1325 20.9219C12.4731 21.44 11.7457 21.7958 10.9293 21.9737C10.8822 21.9842 10.8404 21.9894 10.7933 21.9947C10.7776 21.9947 10.7566 21.9947 10.7671 21.9947C10.7776 21.7226 10.8142 21.4609 10.7933 21.1992C10.7566 20.7963 10.4322 20.6026 10.0449 20.723C9.68903 20.8329 9.3384 20.9585 8.98777 21.0736C8.91973 21.0946 8.85693 21.1155 8.8046 21.1312C8.83077 20.7282 8.90403 20.3253 8.8674 19.938C8.83077 19.5612 8.9145 19.3152 9.22327 19.0745C9.68379 18.7186 9.9036 18.1744 10.1286 17.6511C10.7252 16.2485 11.034 14.7832 11.0654 13.2603C11.0654 13.0876 11.123 12.962 11.2329 12.8417C11.6515 12.3654 12.201 12.0671 12.7505 11.7898C13.3157 11.5019 13.839 11.1722 14.2158 10.6437C14.6921 9.98428 14.9171 9.25685 14.7444 8.44569C14.556 7.5822 13.9751 7.0327 13.2058 6.66114C12.6301 6.389 12.0178 6.28434 11.3899 6.21631L11.3846 6.22154Z" fill="#AAAEB7"/>
<path d="M11.0026 12.0305C10.8718 11.1775 10.6624 10.3663 10.1705 9.65458C9.8408 9.17835 9.44306 8.75969 8.9459 8.46139C8.6319 8.27822 8.37547 8.03749 8.12427 7.7392C8.55864 7.5351 8.97207 7.3153 9.41167 7.14783C9.69426 7.04317 10.003 6.99083 10.3013 6.96467C11.0654 6.89663 11.8242 6.9385 12.5621 7.174C12.7243 7.22633 12.8813 7.28913 13.0331 7.36763C14.0431 7.89096 14.3571 8.91145 13.8181 9.91625C13.5669 10.382 13.2058 10.7483 12.7296 10.9786C12.1434 11.2664 11.5782 11.5909 11.0654 11.9991C11.0497 12.0096 11.034 12.0148 10.9974 12.0305H11.0026ZM10.3641 8.44569C10.3641 9.03705 10.8351 9.52375 11.4265 9.52898C12.0231 9.53421 12.515 9.04752 12.515 8.45092C12.515 7.8648 12.0283 7.3781 11.4422 7.3781C10.8561 7.3781 10.3694 7.85956 10.3694 8.44569H10.3641Z" fill="#AAAEB7"/>
<path d="M5.00523 9.70168C5.06803 9.30395 5.26166 8.96378 5.57566 8.70212C6.02573 8.32532 6.56999 8.15786 7.14041 8.11076C7.43871 8.08459 7.66898 8.27299 7.84691 8.50326C8.07194 8.79632 8.15568 9.14172 8.18184 9.48711C7.11948 9.56038 6.06236 9.63365 5 9.70168H5.00523Z" fill="#AAAEB7"/>
<path d="M8.19754 10.9367C7.40208 10.8111 6.62232 10.7065 5.88966 10.3977C5.88966 10.3768 5.88966 10.3558 5.88966 10.3349C6.65372 10.3035 7.41255 10.2669 8.19231 10.2355V10.9367H8.19754Z" fill="#AAAEB7"/>
<path d="M11.4317 8.10029C11.6306 8.10029 11.7876 8.25729 11.7876 8.45615C11.7876 8.64455 11.6358 8.80679 11.4474 8.81202C11.259 8.81725 11.0811 8.65502 11.0759 8.46139C11.0706 8.26776 11.2328 8.10029 11.4317 8.10029Z" fill="#AAAEB7"/>
<path d="M5.19369 15.7357C5.23032 15.2962 5.40825 14.9194 5.65945 14.5687C6.14092 13.9041 6.77938 13.4226 7.44924 12.9778C7.9935 12.6219 8.44356 12.1771 8.78896 11.6276C8.86223 11.5072 8.91456 11.3502 8.91456 11.209C8.9198 10.6071 8.9041 10.0105 8.89886 9.4087C8.89886 9.393 8.9041 9.37207 8.91456 9.33543C9.39603 9.7541 9.74142 10.2513 9.96122 10.8322C10.2543 11.5962 10.359 12.4021 10.3433 13.2133C10.3119 14.7571 9.98215 16.2381 9.33846 17.6459C8.81513 18.7972 7.88884 19.3153 6.66948 19.3572C6.01532 19.3781 5.54432 19.017 5.32452 18.3943C5.20939 18.0698 5.15182 17.7401 5.17799 17.3947C5.22509 16.7719 5.53385 16.3166 6.06765 16.0079C6.09382 15.9922 6.12522 15.9765 6.15662 15.966C6.39211 15.8404 6.47061 15.652 6.37118 15.4584C6.27175 15.2648 6.06765 15.2072 5.83215 15.3328C5.61759 15.4479 5.41349 15.5892 5.18322 15.7305L5.19369 15.7357Z" fill="#CFD1D9"/>
<path d="M9.43789 3.10258C9.63675 2.46935 10.2333 2.03499 10.8666 2.00359C12.311 1.93556 13.1221 2.84615 13.5408 3.76721C13.567 3.82478 13.5879 3.88757 13.6193 3.94514C13.7135 4.12831 13.8967 4.20157 14.0798 4.12831C14.2578 4.05504 14.352 3.86664 14.2735 3.67301C14.1688 3.42181 14.0484 3.17585 13.9071 2.94035C13.792 2.74148 13.6402 2.55832 13.4989 2.36469C13.8286 2.22862 14.1426 2.28619 14.4252 2.45365C15.2625 2.94035 15.8382 3.63638 15.9952 4.60454C16.058 4.99703 16.0109 5.41046 15.9847 5.80819C15.969 6.04892 16.058 6.23209 16.2621 6.27396C16.4662 6.31582 16.6337 6.18499 16.6912 5.94426C16.7017 5.90763 16.7069 5.86576 16.7122 5.82913C16.754 5.5256 17.0314 5.33196 17.3245 5.42093C17.5129 5.4785 17.5704 5.66689 17.5652 5.82913C17.5652 6.01229 17.5338 6.21116 17.4605 6.37862C17.225 6.92288 16.9634 7.45668 16.7069 8.01141C16.6651 7.95384 16.6284 7.91198 16.597 7.86488C16.1627 7.21072 15.6446 6.64029 15.0375 6.14312C13.7344 5.0703 12.3371 4.8976 10.8142 5.66689C9.75712 6.20069 8.67383 6.68739 7.60624 7.20548C7.41261 7.29968 7.2713 7.27351 7.10384 7.16362C6.27175 6.59842 6.18278 5.2744 6.92591 4.60977C8.0249 3.63114 9.78329 3.53171 11.0602 4.3795C11.1073 4.4109 11.1544 4.44754 11.2067 4.47894C11.3899 4.58884 11.5992 4.5522 11.7091 4.38474C11.819 4.21727 11.7876 4.01841 11.6045 3.88757C11.0497 3.48461 10.4322 3.23341 9.75712 3.14445C9.65245 3.12875 9.55302 3.11828 9.43789 3.10258Z" fill="#CFD1D9"/>
</svg>
