<svg width="25" height="24" viewBox="0 0 25 24" fill="none" xmlns="http://www.w3.org/2000/svg">
<path d="M12.6997 17.8941C9.44542 17.8941 6.80731 15.256 6.80731 12.0018C6.80731 8.74748 9.44542 6.10938 12.6997 6.10938C15.954 6.10938 18.5921 8.74748 18.5921 12.0018C18.5921 15.256 15.954 17.8941 12.6997 17.8941Z" fill="#AAAEB7"/>
<path d="M12.1107 22C9.78813 21.8653 7.67792 20.9393 6.04561 19.4876L8.13398 17.3992C9.22544 18.3232 10.6008 18.9221 12.1107 19.0467V22ZM5.2123 18.6543C3.7606 17.022 2.83461 14.9118 2.69989 12.5892H5.65324C5.7778 14.0991 6.37674 15.4745 7.30067 16.5659L5.2123 18.6543ZM2.69989 11.4108C2.83461 9.08824 3.7606 6.97803 5.2123 5.34572L7.30067 7.43409C6.37674 8.52555 5.7778 9.9009 5.65324 11.4108H2.69989ZM6.04561 4.51241C7.67792 3.06071 9.78813 2.13472 12.1107 2V4.95335C10.6008 5.07791 9.22544 5.67685 8.13398 6.60078L6.04561 4.51241ZM13.2891 2C15.6117 2.13472 17.7219 3.06071 19.3542 4.51241L17.2658 6.60078C16.1743 5.67685 14.799 5.07791 13.2891 4.95335V2ZM20.1875 5.34572C21.6392 6.97803 22.5652 9.08824 22.6999 11.4108H19.7465C19.622 9.9009 19.023 8.52555 18.0991 7.43409L20.1875 5.34572ZM22.6999 12.5892C22.5652 14.9118 21.6392 17.022 20.1875 18.6543L18.0991 16.5659C19.023 15.4745 19.622 14.0991 19.7465 12.5892H22.6999ZM19.3542 19.4876C17.7219 20.9393 15.6117 21.8653 13.2891 22V19.0467C14.799 18.9221 16.1743 18.3232 17.2658 17.3992L19.3542 19.4876Z" fill="#CFD1D9"/>
</svg>
