<svg width="25" height="24" viewBox="0 0 25 24" fill="none" xmlns="http://www.w3.org/2000/svg">
<path d="M15.6587 11.0762L13.0864 8.51214C12.8722 8.29804 12.5249 8.29804 12.3107 8.51214L9.74125 11.0738C9.04713 11.7714 9.04994 12.8995 9.7475 13.5937C10.3365 14.1797 11.2523 14.2809 11.955 13.8376L11.7129 15.1441C11.6698 15.3753 11.8224 15.5977 12.0536 15.6407C12.0794 15.6455 12.1056 15.6479 12.1318 15.6479H13.2677C13.5029 15.6481 13.6936 15.4575 13.6938 15.2224C13.6938 15.1961 13.6914 15.1699 13.6866 15.1441L13.4416 13.8302C14.1463 14.2767 15.0662 14.1759 15.6574 13.5873C16.3512 12.897 16.354 11.7751 15.6637 11.0813C15.6621 11.0796 15.6604 11.0779 15.6587 11.0762Z" fill="#CFD1D9"/>
<path d="M5.55933 11.755C5.61738 10.0301 6.30007 8.38497 7.48036 7.12577L7.47668 7.12249L5.45561 5.10143C3.73995 6.89835 2.75723 9.27124 2.70003 11.755H5.55933Z" fill="#AAAEB7"/>
<path d="M7.8262 6.78033C9.08533 5.60014 10.7303 4.91745 12.455 4.8593V2C9.97157 2.0572 7.59902 3.03979 5.80226 4.75518L7.82292 6.77665L7.8262 6.78033Z" fill="#AAAEB7"/>
<path d="M17.5743 17.2193C16.3151 18.3997 14.67 19.0826 12.945 19.1407V22C15.4294 21.9434 17.803 20.9606 19.6002 19.2444L17.5792 17.2229L17.5743 17.2193Z" fill="#AAAEB7"/>
<path d="M12.455 19.1407C10.7299 19.0827 9.08462 18.3998 7.82536 17.2193L7.82248 17.2229L5.80145 19.2444C7.59868 20.9606 9.97228 21.9434 12.4567 22V19.1452L12.455 19.1407Z" fill="#AAAEB7"/>
<path d="M7.48036 16.8738C6.30017 15.6147 5.61748 13.9698 5.55933 12.245H2.70124C2.75753 14.7292 3.73985 17.1028 5.45561 18.9002L7.47667 16.8787L7.48036 16.8738Z" fill="#AAAEB7"/>
<path d="M19.8407 12.245C19.7827 13.9699 19.1 15.615 17.9197 16.8742L17.9234 16.8771L19.9444 18.9002C21.6606 17.103 22.6434 14.7294 22.7 12.245H19.8407Z" fill="#AAAEB7"/>
<path d="M17.9197 7.12617C19.0999 8.3853 19.7826 10.0302 19.8407 11.755H22.6988C22.6418 9.27155 21.6596 6.89883 19.9444 5.10183L17.9234 7.1229L17.9197 7.12617Z" fill="#AAAEB7"/>
<path d="M12.945 4.8593C14.6699 4.91735 16.3151 5.60004 17.5743 6.78033L17.5775 6.77665L19.5982 4.75518C17.8013 3.03969 15.4286 2.0571 12.945 2V4.8593Z" fill="#AAAEB7"/>
</svg>
