<svg width="25" height="24" viewBox="0 0 25 24" fill="none" xmlns="http://www.w3.org/2000/svg">
<path d="M20.3987 13.6045C20.2142 13.1329 19.5482 11.4287 19.3742 10.9841C20.3605 11.6509 21.3125 12.2949 22.2997 12.9626C22.0746 12.44 21.7866 11.9729 21.4542 11.5431C21.2329 11.2563 20.9917 10.9861 20.7368 10.7263C20.6092 10.5966 20.4782 10.4693 20.3444 10.3438C20.0766 10.093 19.7977 9.85017 19.5126 9.60939C19.7132 9.29649 19.891 8.97987 20.036 8.65744C20.0725 8.57662 20.1065 8.49581 20.1388 8.41458C20.203 8.25171 20.2582 8.08718 20.3038 7.92058C20.5077 7.17087 20.5089 6.37972 20.1931 5.51562C20.1599 5.53096 20.1351 5.54132 20.1073 5.55334C20.0356 5.58401 19.9739 5.61012 19.9233 5.64244C18.6547 6.45183 17.3886 6.60517 15.9622 5.93213C15.7201 5.81775 15.4516 5.75351 15.1714 5.71621C14.9845 5.69134 14.7922 5.6785 14.5991 5.67062C14.4055 5.66275 14.2112 5.66026 14.0193 5.6557C13.9236 5.65363 13.8282 5.65073 13.7346 5.647C13.3492 5.63125 12.9451 5.76677 12.563 5.79247C12.5108 5.7962 12.459 5.79578 12.4076 5.79454V6.48664C12.4229 6.48664 12.4387 6.48788 12.454 6.4883C13.2787 6.48913 14.1076 6.05646 14.8801 6.34863C14.1018 6.57326 13.2646 6.81446 12.4465 7.05027C12.4337 7.04654 12.4204 7.04281 12.4076 7.03908V7.27821C12.5816 7.28111 12.7574 7.26204 12.9148 7.2177C13.8585 6.95329 14.7889 6.88284 15.7417 7.255C14.568 7.35239 13.379 7.38596 12.4453 8.29398C12.4329 8.28196 12.42 8.27202 12.4076 8.26041V8.31512C12.6189 8.32009 12.8311 8.29854 13.0213 8.24425C14.0346 7.9558 15.2087 7.91519 16.2369 8.28984C14.8759 8.32548 13.539 8.43033 12.4532 9.45646C12.4382 9.44237 12.4225 9.43035 12.4076 9.41668V14.9842C12.5899 14.985 12.7731 14.9726 12.9509 14.9452C13.1349 14.917 13.3156 14.871 13.4959 14.8196C13.6761 14.7682 13.8556 14.7119 14.0363 14.6634C14.0827 14.7309 14.1291 14.7985 14.1755 14.8656C14.2493 14.6137 14.3235 14.3617 14.3973 14.1093C14.4279 14.0044 14.4586 13.9 14.4893 13.7952C14.7238 14.2771 14.7582 14.6601 14.5709 14.9995C14.5067 15.1164 14.4213 15.2291 14.3011 15.3373C14.2966 15.3414 14.2941 15.346 14.2891 15.3501C14.1275 15.4923 13.9161 15.629 13.6513 15.765C13.4751 15.8553 13.3243 15.9568 13.1962 16.0708C12.8121 16.4135 12.6343 16.8719 12.5999 17.5014C13.6007 17.4911 14.4677 18.3796 15.5046 17.7447C15.3074 17.6585 15.1006 17.6444 14.8983 17.6067C14.6932 17.5686 14.4926 17.5072 14.2903 17.4558C14.6791 17.3742 15.0906 17.4015 15.4814 17.3651C15.5477 17.3589 15.6132 17.3502 15.6783 17.3394C15.762 17.3257 15.844 17.3071 15.9249 17.2826C15.9605 17.2718 15.9957 17.2594 16.0305 17.2457C16.2158 17.1749 16.3911 17.0671 16.5482 16.8947C16.6356 16.799 16.7177 16.6842 16.7931 16.5466C16.239 16.6092 15.7537 16.6639 15.2684 16.7181C15.6683 16.5859 15.9808 16.479 16.2278 16.3825C16.3227 16.3456 16.4114 16.3095 16.4868 16.2747C16.6269 16.2109 16.7318 16.1495 16.8138 16.0866C16.8437 16.0638 16.8702 16.0401 16.893 16.0165C16.9299 15.9788 16.9614 15.9403 16.9829 15.8988C17.009 15.8487 17.0235 15.7948 17.0306 15.7364C17.0351 15.6986 17.0372 15.6593 17.0351 15.6166C17.0297 15.5084 17.0045 15.3841 16.9684 15.2353C16.4491 15.4661 15.9253 15.6995 15.401 15.9328C15.6824 15.6274 16.0359 15.4608 16.3405 15.2299C16.508 15.1027 16.6124 14.9311 16.6538 14.7604C16.7168 14.4989 16.6277 14.2398 16.3604 14.152C15.6895 13.9311 15.6418 13.1826 14.8879 12.8992C15.9887 12.9526 17.6017 14.2767 17.7973 15.1487C17.8209 15.2531 17.8329 15.3621 17.8366 15.4715C17.8408 15.5809 17.8366 15.6912 17.8283 15.7989C17.8196 15.9129 17.7989 16.0256 17.7753 16.1384C17.7517 16.2511 17.7247 16.3634 17.7028 16.4765C17.7562 16.4475 18.8052 17.3253 18.8126 17.295C18.9465 16.7484 19.0816 16.1976 19.2333 15.578C19.2436 15.5354 19.2536 15.4956 19.2644 15.4521C19.4732 15.6742 19.6365 15.8478 19.7998 16.0215C19.7998 16.0215 19.8897 16.0066 19.9349 15.9991C19.823 15.1064 19.7111 14.2133 19.5959 13.2949C19.7235 13.3443 20.2934 13.5631 20.3999 13.6041L20.3987 13.6045ZM15.2228 12.0251C15.2195 12.0251 15.2162 12.0251 15.2129 12.0251C14.9149 12.0218 14.6153 12.1892 14.3314 12.2767C14.4097 10.3603 17.215 9.95958 17.7102 9.07809C17.7044 10.1017 17.8988 11.9634 15.2228 12.0251Z" fill="#CFD1D9"/>
<path d="M14.6655 19.7477C14.6526 19.7854 14.5971 19.7779 14.595 19.7381L14.5299 18.4302C14.5299 18.4302 14.8055 18.298 15.0807 18.5114" fill="#CFD1D9"/>
<path d="M13.627 18.5118C13.622 18.397 13.6166 18.2785 13.6108 18.1459H12.4064V18.5433C12.8586 18.5359 13.3223 18.6378 13.6419 18.8554C13.6365 18.7377 13.6323 18.6266 13.627 18.5118Z" fill="#CFD1D9"/>
<path d="M15.0326 11.3861C15.5822 11.6521 16.026 11.878 16.4608 11.4959C16.8329 11.1689 16.8561 10.754 16.4889 10.1784C15.9945 10.5883 15.544 10.9621 15.0326 11.3861Z" fill="#CFD1D9"/>
<path d="M9.85224 11.6438C8.24548 10.9384 7.86918 9.64623 7.86918 9.64623C7.27737 10.4353 7.84928 11.0466 8.30309 11.5203C8.75689 11.994 9.85224 11.6438 9.85224 11.6438Z" fill="#AAAEB7"/>
<path d="M6.21888 13.8349C4.87736 12.6513 4.9561 10.0209 4.9561 10.0209L5.29842 10.3628C4.92999 8.6002 6.37677 6.86456 6.37677 6.86456L5.50895 5.15502L4.66724 5.65483C5.11441 7.65405 3.01034 8.5745 3.01034 8.5745C3.87816 10.468 2.3 11.4411 2.3 11.4411C4.37755 12.1249 3.93038 14.5713 3.93038 14.5713C5.763 15.5328 5.0021 17.5196 4.77541 18.0161C5.38255 16.9083 7.74399 16.5701 7.74399 16.5701C7.74399 16.5701 7.55998 15.0189 6.21888 13.8349Z" fill="#AAAEB7"/>
<path d="M11.8734 7.5434C11.8681 7.45222 11.8117 7.1845 11.3475 7.02287C10.7818 6.8256 10.19 5.98389 10.19 5.98389C10.19 5.98389 10.1768 7.02287 10.374 7.47004C10.374 7.47004 9.45316 6.6677 9.40094 6.03652C9.40094 6.03652 9.30893 6.94371 9.51946 7.35152C9.51946 7.35152 7.32919 6.11568 7.30267 4C7.30267 4 5.57324 7.83847 8.82239 10.0209L8.79628 9.38969C8.79628 9.38969 9.87463 11.6517 11.1635 11.9148C11.1635 11.9148 10.0586 12.1249 10.0586 12.7827C10.0586 13.4404 10.1639 13.7296 9.58536 14.3347C9.58536 14.3347 9.99648 13.3877 9.30437 12.9144C8.61186 12.4407 6.29725 11.6517 7.0337 9.04779L6.53389 7.81195C6.53389 7.81195 5.69923 9.92224 6.62631 12.2107L5.99513 11.5004C5.99513 11.5004 5.82397 12.4867 7.27034 13.8871C8.71712 15.2879 8.38185 16.2544 8.46059 16.7865C8.50866 17.1093 8.72375 17.7057 9.5062 18.1317L9.88126 19.5093L10.1983 18.4098L10.1954 18.4086C10.6364 18.5358 11.1863 18.6166 11.8734 18.6216V7.54174V7.5434ZM10.0984 16.2912L9.85225 16.6095C9.85225 16.6095 9.34872 15.8204 9.85225 15.4454C10.3558 15.0703 11.1436 17.181 11.1436 17.181C10.5912 16.0177 10.0984 16.2912 10.0984 16.2912Z" fill="#AAAEB7"/>
</svg>
