<svg width="25" height="24" viewBox="0 0 25 24" fill="none" xmlns="http://www.w3.org/2000/svg">
<path d="M8.56872 14.6642H15.6315C17.0435 14.6642 18.192 13.2438 18.192 11.4984C18.192 9.7524 17.0435 8.33203 15.6315 8.33203H8.56872C7.1568 8.33203 6.00823 9.7524 6.00823 11.4984C6.00823 13.2438 7.1568 14.6642 8.56872 14.6642Z" fill="#CFD1D9"/>
<path d="M16.201 19H17.0474C20.266 19 22.899 15.8996 23.1 11.982L18.948 11.982C18.7765 13.8 17.6462 15.2608 16.201 15.5698L16.201 19Z" fill="#AAAEB7"/>
<path d="M15.4218 19V15.6296H8.77764V19L15.4218 19Z" fill="#AAAEB7"/>
<path d="M7.99844 19V15.5698C6.55325 15.2608 5.42288 13.8 5.25145 11.982H1.1003C1.30122 15.8995 3.93349 19 7.15206 19H7.99844Z" fill="#AAAEB7"/>
<path d="M1.1003 11.0184H5.2515C5.42293 9.20045 6.5533 7.73894 7.99849 7.43061V4.00016L7.15206 4C3.93344 4 1.30112 7.10077 1.1003 11.0184Z" fill="#AAAEB7"/>
<path d="M8.77769 4.00016V7.37019H15.4218V4.00016H8.77769Z" fill="#AAAEB7"/>
<path d="M16.2007 4.00016L17.0475 4C20.2662 4 22.8992 7.10061 23.1 11.0183L18.948 11.0184C18.7766 9.20045 17.6462 7.73894 16.201 7.43061L16.2007 4.00016Z" fill="#AAAEB7"/>
</svg>
