<svg width="25" height="24" viewBox="0 0 25 24" fill="none" xmlns="http://www.w3.org/2000/svg">
<path d="M21.7085 8.31109L14.4126 3.07998C14.3726 3.05089 14.329 3.02545 14.2854 3L10.7955 13.7312C10.8283 13.7494 19.2039 19.4749 19.2039 19.4749C19.2699 19.3736 19.3213 19.2635 19.3565 19.1478L22.2066 9.77973C22.2886 9.51366 22.2846 9.2285 22.1952 8.96483C22.1058 8.70116 21.9355 8.4724 21.7085 8.31109ZM16.4811 12.7824C15.0491 12.7315 15.0531 10.2691 16.4811 10.2196C17.9146 10.2683 17.9177 12.7329 16.4811 12.7824Z" fill="#AAAEB7"/>
<path d="M10.4757 14.3929C10.4139 14.3481 10.3439 14.316 10.2696 14.2985C10.1953 14.281 10.1183 14.2785 10.0431 14.2911C9.51128 14.3728 2.78788 15.4271 2.49994 15.4725C2.5978 15.6152 2.72251 15.7374 2.8671 15.8324L10.2394 20.62C10.4954 20.7866 10.8009 20.8597 11.1046 20.8272L18.2224 20.082C18.3657 20.0673 18.5057 20.0292 18.6368 19.9693L10.4757 14.3929ZM11.8062 17.9118C12.2042 16.959 14.4378 17.8035 14.1509 18.6679C13.8301 19.5803 11.5342 18.8443 11.8062 17.9118ZM7.46205 16.2832C7.86032 15.3896 9.99293 16.0438 9.81041 17.0393C9.52665 17.8937 7.25438 17.314 7.46205 16.2832Z" fill="#AAAEB7"/>
<path d="M10.165 13.7349C10.2195 13.7276 10.2704 13.724 10.3213 13.7203L13.8075 3C13.7415 3.00007 13.6757 3.00738 13.6112 3.02181L6.75879 4.39593C6.53239 4.44265 6.32197 4.54724 6.14804 4.69951C5.97411 4.85178 5.84261 5.04652 5.76637 5.26476L2.57099 14.4437C2.51608 14.6025 2.49262 14.7704 2.50192 14.9381C2.61491 14.9289 9.7995 13.7836 10.165 13.7349ZM5.03205 13.6513C4.29072 13.2271 5.17271 11.464 6.04994 11.8845C6.85189 12.4223 5.76983 14.0851 5.03205 13.6513ZM8.84542 12.9787C8.06997 12.449 9.05755 10.8002 9.86329 11.2157C10.6228 11.7465 9.68703 13.3714 8.84542 12.9787ZM7.07506 7.66765C6.33682 7.2413 7.21865 5.48547 8.09658 5.90092C8.89837 6.44414 7.81567 8.09693 7.07506 7.66765ZM10.8557 6.8679C10.1167 6.44679 10.9952 4.67959 11.8736 5.10481C12.6483 5.57987 11.6586 7.305 10.8557 6.8679Z" fill="#CFD1D9"/>
</svg>
