<svg width="25" height="24" viewBox="0 0 25 24" fill="none" xmlns="http://www.w3.org/2000/svg">
<path d="M22.0843 17.83C22.2299 17.83 22.3634 17.9223 22.4403 18.0679H22.4363C22.5131 18.2135 22.5212 18.398 22.4565 18.5533C21.8699 19.9563 20.6926 20.83 19.3858 20.83H5.61422C4.30341 20.83 3.13016 19.9563 2.54353 18.5533C2.4788 18.398 2.48689 18.2135 2.56376 18.0679C2.64063 17.9223 2.77414 17.83 2.91978 17.83H22.0843Z" fill="#CFD1D9"/>
<path d="M4.6121 17.1196C4.24786 17.1581 3.84879 16.9065 3.80982 16.5382C3.70498 16.2513 3.68204 16.0344 3.65086 15.7397C2.9899 9.49191 4.0801 8.86964 5.9097 7.82531C6.30206 7.60136 6.72842 7.358 7.17881 7.03558L7.05455 5.86101C6.96926 5.05477 7.55846 4.32616 8.3647 4.24086L14.2294 3.62043C15.0356 3.53513 15.7642 4.12433 15.8495 4.93058L15.9738 6.10515C16.633 6.4081 17.2183 6.52603 17.7401 6.63114C19.5011 6.98591 20.5378 7.19477 21.2449 13.8784L21.3302 14.6847C21.2951 15.0567 21.0357 15.3821 20.6673 15.4211L4.6121 17.1196Z" fill="#AAAEB7"/>
</svg>
