<svg width="122" height="36" viewBox="0 0 122 36" fill="none" xmlns="http://www.w3.org/2000/svg">
<g id="Icon game/Logo">
<g id="Vector">
<path d="M39.16 3.78516H45.4847C46.7962 3.78516 47.8752 4.3066 48.7218 5.32942C49.5684 6.35224 50 7.65583 50 9.24021V14.6752C50 16.4401 49.0704 17.8439 47.759 18.1648C49.0704 18.4857 50 19.8896 50 21.6544V27.3301C50 28.9145 49.5684 30.2381 48.7218 31.261C47.8752 32.2838 46.7962 32.7852 45.4847 32.7852H39.16C37.8486 32.7852 36.753 32.2637 35.9064 31.2409C35.0597 30.2181 34.6281 28.9145 34.6281 27.3301V21.6544C34.6281 19.8896 35.5578 18.4857 36.8858 18.1648C36.2384 18.0044 35.6906 17.6033 35.2589 16.9615C34.8439 16.2997 34.6281 15.5376 34.6281 14.6752V9.24021C34.6281 7.65583 35.0597 6.35224 35.9064 5.32942C36.753 4.3066 37.8486 3.78516 39.16 3.78516ZM43.7417 10.2029H40.8864V15.1164H43.7417V10.2029ZM43.7417 21.4539H40.8864V26.3875H43.7417V21.4539Z" fill="#009349"/>
<path d="M29.7146 32.745H20.2026C19.356 32.745 18.6588 32.4242 18.111 31.7623C17.5631 31.1005 17.2975 30.2782 17.2975 29.2554V7.27478C17.2975 6.25196 17.5631 5.42969 18.111 4.76787C18.6588 4.10604 19.356 3.78516 20.2026 3.78516H29.7146C30.5612 3.78516 31.2418 4.10604 31.7896 4.76787C32.3374 5.42969 32.603 6.25196 32.603 7.27478V29.2554C32.603 30.2782 32.3374 31.1005 31.7896 31.7623C31.2418 32.4242 30.5612 32.745 29.7146 32.745ZM23.5226 10.2029V26.3273H26.3779V10.2029H23.5226Z" fill="#009349"/>
<path d="M4.53188 10.1628H0.215804C0.0830014 10.1628 0.0166003 10.0825 0 9.90203V4.02582C0 3.86538 0.0664012 3.78516 0.215804 3.78516H15.0731C15.2059 3.78516 15.2723 3.86538 15.2723 4.02582V9.90203C15.2723 10.0625 15.2059 10.1427 15.0731 10.1628H10.7902V32.5445C10.7902 32.7049 10.7238 32.7852 10.5744 32.7852H4.73108C4.59828 32.7852 4.53188 32.7049 4.53188 32.5445V10.1628Z" fill="#009349"/>
</g>
<g id="Vector_2">
<path d="M106.03 32.1745C105.565 32.3631 105.095 32.5113 104.62 32.619C104.156 32.7402 103.675 32.8008 103.177 32.8008C102.138 32.8008 101.618 32.3631 101.618 31.4876C101.618 31.2182 101.657 30.9286 101.734 30.6188C101.812 30.309 101.939 29.9521 102.116 29.548C102.669 28.3088 103.266 27.009 103.907 25.6486C104.548 24.2882 105.211 22.8874 105.897 21.4462C106.593 20.005 107.301 18.5436 108.02 17.0619C108.749 15.5803 109.479 14.0987 110.209 12.6171C110.806 11.3779 111.442 10.0781 112.116 8.71771C112.801 7.34384 113.492 5.88915 114.189 4.35365C114.742 3.84182 115.339 3.47815 115.98 3.26264C116.632 3.04713 117.307 2.98651 118.003 3.0808C118.855 3.20202 119.313 4.08426 119.38 5.72752C119.38 6.15854 119.38 6.62997 119.38 7.1418C119.38 7.65363 119.391 8.21261 119.413 8.81873C119.413 9.45179 119.424 10.0377 119.446 10.5765C119.479 11.1152 119.496 11.6203 119.496 12.0918C119.507 12.3073 119.524 12.6642 119.546 13.1626C119.579 13.6609 119.606 14.2334 119.629 14.8799C119.662 15.513 119.695 16.1797 119.728 16.8801C119.761 17.5805 119.789 18.2472 119.811 18.8803C119.844 19.5134 119.866 20.0723 119.877 20.5572C119.899 21.0421 119.916 21.3856 119.927 21.5876C119.993 22.7729 120.076 23.8909 120.176 24.9415C120.286 25.9921 120.419 26.9484 120.574 27.8105C120.729 28.686 120.917 29.4335 121.138 30.0531C121.359 30.6727 121.646 31.1778 122 31.5684C121.447 32.0398 120.85 32.3766 120.209 32.5786C119.579 32.7941 118.915 32.8682 118.219 32.8008C117.677 32.747 117.235 32.4372 116.892 31.8715C116.549 31.3057 116.312 30.3966 116.179 29.1439C116.024 28.1203 115.919 27.1101 115.864 26.1133C115.82 25.1031 115.759 24.0795 115.682 23.0423C115.449 23.2713 115.212 23.4195 114.968 23.4868C114.736 23.5407 114.504 23.5676 114.272 23.5676C113.432 23.608 112.602 23.635 111.784 23.6484C110.966 23.6619 110.142 23.6686 109.313 23.6686C108.904 23.938 108.6 24.2074 108.401 24.4768C108.213 24.7327 108.042 25.0358 107.887 25.386C107.666 25.7631 107.439 26.2413 107.207 26.8205C106.986 27.3862 106.787 27.9047 106.61 28.3762C106.4 28.9688 106.218 29.5884 106.063 30.2349C105.919 30.8815 105.908 31.528 106.03 32.1745ZM114.836 20.5168C114.991 20.5168 115.123 20.5034 115.234 20.4764C115.344 20.4495 115.46 20.4225 115.582 20.3956C115.582 19.8838 115.571 19.2979 115.549 18.6379C115.538 17.9779 115.521 17.2842 115.499 16.5568C115.488 15.8295 115.466 15.0887 115.433 14.3344C115.411 13.5667 115.383 12.8258 115.35 12.112C115.317 11.3981 115.284 10.7246 115.25 10.0916C115.217 9.44505 115.184 8.87934 115.151 8.39444C114.797 9.18913 114.416 10.0512 114.007 10.9806C113.597 11.8965 113.166 12.8663 112.713 13.8899C112.26 14.9136 111.79 15.9844 111.303 17.1024C110.817 18.2068 110.319 19.345 109.811 20.5168H114.836Z" fill="url(#paint0_linear_1251_26004)"/>
<path d="M97.4389 32.4574C97.2288 32.4574 97.0519 32.4439 96.9082 32.417C96.7645 32.39 96.6484 32.3362 96.5599 32.2554C96.4715 32.1745 96.4051 32.0533 96.3609 31.8917C96.3277 31.7301 96.3112 31.5145 96.3112 31.2452C95.9795 31.5684 95.6036 31.8445 95.1834 32.0735C94.7633 32.289 94.3211 32.4641 93.8567 32.5988C93.3923 32.7335 92.9169 32.8278 92.4305 32.8817C91.9551 32.949 91.4852 32.9827 91.0208 32.9827C89.9705 32.9827 89.0252 32.747 88.1849 32.2756C87.3447 31.7907 86.626 31.1239 86.029 30.2754C85.443 29.4133 84.9897 28.3829 84.6691 27.1842C84.3596 25.9719 84.2048 24.6385 84.2048 23.1838C84.2048 21.4058 84.3761 19.675 84.7189 17.9913C85.0616 16.2942 85.5425 14.6981 86.1617 13.203C86.7808 11.7079 87.5216 10.3408 88.384 9.1016C89.2463 7.84895 90.1916 6.77141 91.2198 5.86896C92.2481 4.96652 93.3426 4.26612 94.5035 3.76775C95.6754 3.25592 96.8805 3 98.1188 3C99.0144 3 99.8159 3.08082 100.524 3.24245C101.231 3.40408 101.828 3.63979 102.315 3.94959C102.801 4.25938 103.171 4.63652 103.426 5.08101C103.691 5.5255 103.824 6.02386 103.824 6.5761C103.824 7.30345 103.597 7.97691 103.144 8.5965C102.691 9.21609 101.972 9.83568 100.988 10.4553C100.8 9.01405 100.319 7.9163 99.5451 7.16202C98.7711 6.39427 97.8148 6.01039 96.676 6.01039C95.88 6.01039 95.1392 6.26631 94.4537 6.77814C93.7683 7.27651 93.1436 7.94997 92.5797 8.79854C92.0159 9.64711 91.5128 10.6304 91.0706 11.7483C90.6394 12.8528 90.2745 14.0112 89.976 15.2234C89.6775 16.4356 89.4509 17.6681 89.2961 18.9207C89.1413 20.1599 89.0639 21.3317 89.0639 22.4362C89.0639 23.5138 89.1413 24.4836 89.2961 25.3456C89.4509 26.2076 89.6775 26.935 89.976 27.5276C90.2856 28.1203 90.6726 28.5782 91.1369 28.9015C91.6013 29.2113 92.143 29.3662 92.7622 29.3662C93.2376 29.3662 93.7185 29.2652 94.205 29.0631C94.6914 28.8611 95.1669 28.6052 95.6312 28.2954C95.8744 27.8913 96.079 27.4535 96.2448 26.9821C96.4217 26.5107 96.571 26.0123 96.6926 25.487C96.8253 24.9617 96.9413 24.4095 97.0409 23.8303C97.1514 23.2376 97.2565 22.6181 97.356 21.9715C97.356 21.6213 97.3283 21.3721 97.273 21.224C97.2288 21.0758 97.1293 20.9479 96.9745 20.8401C96.7313 20.8401 96.4825 20.867 96.2282 20.9209C95.985 20.9748 95.7362 21.0758 95.4819 21.224C95.4819 20.5101 95.5593 19.9646 95.7141 19.5875C95.88 19.2103 96.1508 18.9342 96.5268 18.7591C96.9137 18.584 97.4223 18.4762 98.0525 18.4358C98.6937 18.382 99.4898 18.3281 100.441 18.2742C100.573 18.2607 100.728 18.254 100.905 18.254C101.082 18.254 101.248 18.2742 101.402 18.3146C101.568 18.3415 101.707 18.3887 101.817 18.456C101.928 18.5234 101.988 18.6177 102 18.7389C102.011 19.0083 101.983 19.2979 101.917 19.6077C101.85 19.904 101.778 20.2273 101.701 20.5775C101.491 21.6415 101.297 22.645 101.121 23.5878C100.955 24.5307 100.805 25.3995 100.673 26.1942C100.551 26.9754 100.457 27.6691 100.391 28.2752C100.325 28.8678 100.291 29.346 100.291 29.7097C100.291 30.0868 100.341 30.4505 100.441 30.8007C100.54 31.1374 100.59 31.4203 100.59 31.6492C100.413 31.7839 100.203 31.9052 99.9597 32.0129C99.7164 32.1072 99.4511 32.188 99.1636 32.2554C98.8872 32.3227 98.5998 32.3698 98.3012 32.3968C98.0027 32.4372 97.7153 32.4574 97.4389 32.4574Z" fill="url(#paint1_linear_1251_26004)"/>
<path d="M71.9658 4.05059C73.2594 3.90243 74.5474 3.79467 75.8299 3.72733C77.1235 3.64651 78.4226 3.60611 79.7272 3.60611C80.3463 3.60611 80.9323 3.5859 81.4851 3.54549C82.0379 3.49162 82.5244 3.46468 82.9445 3.46468C83.2541 3.46468 83.5194 3.47815 83.7405 3.50508C83.9616 3.51855 84.1496 3.55223 84.3044 3.60611C84.4702 3.65998 84.6139 3.72733 84.7356 3.80814C84.8572 3.88896 84.9677 3.99671 85.0672 4.13141C85.012 4.5759 84.918 5.02712 84.7853 5.48507C84.6526 5.94303 84.4813 6.36058 84.2712 6.73772C84.0722 7.11486 83.8345 7.42465 83.5581 7.6671C83.2817 7.89608 82.9776 8.01057 82.646 8.01057C82.5465 8.01057 82.4304 7.96343 82.2977 7.86914C82.1761 7.77486 82.0158 7.6671 81.8168 7.54588C81.6178 7.42466 81.3745 7.3169 81.0871 7.22262C80.8107 7.12833 80.4735 7.08119 80.0754 7.08119H78.9477C78.5165 7.08119 78.1019 7.06772 77.7039 7.04078C77.3169 7.00037 76.9632 6.98017 76.6425 6.98017H75.2992C75.4429 7.16874 75.5424 7.35731 75.5977 7.54588C75.653 7.73445 75.6806 7.92302 75.6806 8.11159C75.6806 8.20587 75.6751 8.3069 75.6641 8.41465C75.6641 8.50894 75.6475 8.60995 75.6143 8.71771C75.4264 9.76832 75.2218 10.893 75.0007 12.0918C74.7906 13.2905 74.5585 14.5432 74.3042 15.8497H76.0953C77.0903 15.8497 78.0522 15.7958 78.9809 15.6881C79.9096 15.5669 80.7499 15.4322 81.5017 15.284C81.5017 15.4322 81.4961 15.5803 81.4851 15.7285C81.474 15.8632 81.4519 16.0181 81.4187 16.1932C81.2529 16.934 81.0152 17.5199 80.7056 17.9509C80.4071 18.3685 80.0423 18.685 79.6111 18.9005C79.191 19.1026 78.7155 19.2305 78.1848 19.2844C77.6542 19.3248 77.0792 19.345 76.4601 19.345H73.7237C73.6132 19.7491 73.4915 20.2407 73.3589 20.8199C73.2373 21.3856 73.1212 21.9783 73.0106 22.5978C72.9 23.2174 72.8061 23.837 72.7287 24.4566C72.6513 25.0762 72.6126 25.6352 72.6126 26.1335C72.6126 26.8878 72.7287 27.4603 72.9609 27.8509C73.193 28.228 73.4805 28.4974 73.8232 28.659C74.166 28.8072 74.5308 28.888 74.9178 28.9015C75.3158 28.9015 75.6751 28.9015 75.9957 28.9015C76.7697 28.9015 77.4938 28.8207 78.1683 28.659C78.8537 28.4839 79.4674 28.2954 80.0091 28.0933C80.5508 27.8913 81.0152 27.7094 81.4022 27.5478C81.7891 27.3727 82.0766 27.2852 82.2645 27.2852C82.2645 28.457 82.0821 29.3931 81.7173 30.0935C81.3524 30.7804 80.8328 31.3058 80.1584 31.6694C79.495 32.0331 78.6934 32.2688 77.7537 32.3766C76.825 32.4843 75.7912 32.5382 74.6524 32.5382C73.9338 32.5382 73.2207 32.5315 72.5131 32.518C71.8166 32.5045 71.12 32.4978 70.4235 32.4978C69.8596 32.4978 69.4008 32.417 69.047 32.2553C68.7043 32.0937 68.4389 31.8715 68.251 31.5886C68.0741 31.2923 67.9525 30.9421 67.8861 30.538C67.8308 30.1205 67.8032 29.6558 67.8032 29.1439C67.8032 28.7803 67.8198 28.3896 67.853 27.9721C67.8972 27.5411 67.9525 27.1033 68.0188 26.6588C68.0851 26.2144 68.157 25.7699 68.2344 25.3254C68.3228 24.8809 68.4113 24.4499 68.4997 24.0323C68.8756 22.2678 69.2294 20.6111 69.5611 19.0621C69.9039 17.5132 70.1968 16.0854 70.4401 14.7789C70.6944 13.4724 70.8934 12.2938 71.0371 11.2432C71.1919 10.1791 71.2693 9.25648 71.2693 8.47526C71.2693 8.34057 71.2693 8.20588 71.2693 8.07118C71.2693 7.92302 71.2638 7.79506 71.2527 7.68731C71.2527 7.56608 71.2416 7.4718 71.2195 7.40445C71.1974 7.33711 71.1642 7.31017 71.12 7.32363C70.921 7.39098 70.7275 7.43139 70.5396 7.44486C70.3627 7.44486 70.23 7.44486 70.1416 7.44486C70.0421 7.40445 70.0089 7.18894 70.0421 6.79833C70.0421 6.44813 70.1029 6.10466 70.2245 5.76793C70.3572 5.4312 70.4788 5.16181 70.5893 4.95977C70.7109 4.74426 70.8326 4.57589 70.9542 4.45467C71.0869 4.33345 71.2306 4.2459 71.3854 4.19202C71.5402 4.12467 71.7336 4.07753 71.9658 4.05059Z" fill="url(#paint2_linear_1251_26004)"/>
<path d="M51.5508 30.0329C51.5508 29.5076 51.6116 28.7129 51.7332 27.6488C51.8548 26.5713 52.0207 25.3321 52.2307 23.9313C52.4408 22.517 52.684 20.9883 52.9604 19.345C53.2479 17.7018 53.5519 16.0518 53.8726 14.395C54.2042 12.7383 54.5414 11.1287 54.8842 9.56629C55.238 7.99038 55.5918 6.56263 55.9456 5.28305C56.034 4.9059 56.1667 4.58938 56.3436 4.33346C56.5205 4.07754 56.7305 3.83509 56.9738 3.60612C57.2281 3.40408 57.4879 3.26938 57.7532 3.20204C58.0296 3.12122 58.2839 3.08755 58.5161 3.10102C59.0026 3.15489 59.4669 3.27612 59.9092 3.46469C60.3625 3.63979 60.8102 3.94285 61.2525 4.37387C60.965 4.76448 60.7328 5.12141 60.5559 5.44468C60.379 5.76794 60.2243 6.12488 60.0916 6.51549C59.7599 7.63344 59.4282 8.83221 59.0965 10.1118C58.7759 11.3779 58.4719 12.6642 58.1844 13.9708C57.897 15.2773 57.6261 16.5771 57.3718 17.8701C57.1286 19.1632 56.9185 20.3956 56.7416 21.5674C56.5647 22.7393 56.4265 23.8303 56.327 24.8405C56.2275 25.8372 56.1777 26.6925 56.1777 27.4064C56.1777 27.6758 56.2109 27.9115 56.2772 28.1135C56.5094 28.2213 56.7748 28.3021 57.0733 28.356C57.3718 28.4099 57.6758 28.457 57.9854 28.4974C58.295 28.5243 58.599 28.5446 58.8975 28.558C59.2071 28.558 59.4946 28.558 59.7599 28.558C60.8545 28.558 61.8827 28.4435 62.8445 28.2146C63.8064 27.9856 64.619 27.669 65.2824 27.265C65.3709 27.1976 65.4206 27.1639 65.4317 27.1639C65.4648 27.1639 65.4814 27.2448 65.4814 27.4064C65.4261 28.686 65.2548 29.676 64.9673 30.3764C64.6909 31.0633 64.2653 31.5751 63.6903 31.9119C63.1265 32.2486 62.4078 32.4439 61.5344 32.4978C60.672 32.5651 59.6328 32.5988 58.4166 32.5988C57.5432 32.5988 56.7195 32.5988 55.9456 32.5988C55.1716 32.5988 54.3535 32.6123 53.4911 32.6392C53.071 32.6392 52.7338 32.5786 52.4795 32.4574C52.2252 32.3362 52.0262 32.1678 51.8825 31.9523C51.7498 31.7233 51.6613 31.4472 51.6171 31.1239C51.5729 30.8007 51.5508 30.437 51.5508 30.0329Z" fill="url(#paint3_linear_1251_26004)"/>
</g>
</g>
<defs>
<linearGradient id="paint0_linear_1251_26004" x1="92.8535" y1="3" x2="83.0092" y2="45.4781" gradientUnits="userSpaceOnUse">
<stop stop-color="#FFEDB4"/>
<stop offset="1" stop-color="#FFC300"/>
</linearGradient>
<linearGradient id="paint1_linear_1251_26004" x1="92.8535" y1="3" x2="83.0092" y2="45.4781" gradientUnits="userSpaceOnUse">
<stop stop-color="#FFEDB4"/>
<stop offset="1" stop-color="#FFC300"/>
</linearGradient>
<linearGradient id="paint2_linear_1251_26004" x1="92.8535" y1="3" x2="83.0092" y2="45.4781" gradientUnits="userSpaceOnUse">
<stop stop-color="#FFEDB4"/>
<stop offset="1" stop-color="#FFC300"/>
</linearGradient>
<linearGradient id="paint3_linear_1251_26004" x1="92.8535" y1="3" x2="83.0092" y2="45.4781" gradientUnits="userSpaceOnUse">
<stop stop-color="#FFEDB4"/>
<stop offset="1" stop-color="#FFC300"/>
</linearGradient>
</defs>
</svg>
