<svg width="20" height="20" viewBox="0 0 20 20" fill="none" xmlns="http://www.w3.org/2000/svg">
<path d="M9.14 1.13613C9.38968 0.939157 9.69084 0.833008 10 0.833008C10.3092 0.833008 10.6103 0.939157 10.86 1.13613L17.0442 6.01233C17.8583 6.65337 17.4392 8.04438 16.4325 8.04708H3.56667C2.56 8.04438 2.14167 6.65337 2.955 6.01233L9.14 1.13613ZM10.8333 4.66994C10.8333 4.43115 10.7455 4.20215 10.5893 4.03331C10.433 3.86446 10.221 3.7696 10 3.7696C9.77899 3.7696 9.56702 3.86446 9.41074 4.03331C9.25446 4.20215 9.16667 4.43115 9.16667 4.66994C9.16667 4.90872 9.25446 5.13772 9.41074 5.30657C9.56702 5.47541 9.77899 5.57027 10 5.57027C10.221 5.57027 10.433 5.47541 10.5893 5.30657C10.7455 5.13772 10.8333 4.90872 10.8333 4.66994ZM9.375 12.9482C9.375 13.2243 9.15114 13.4482 8.875 13.4482H8.20833C7.93219 13.4482 7.70833 13.2243 7.70833 12.9482V9.44652C7.70833 9.17037 7.93219 8.94652 8.20833 8.94652H8.875C9.15114 8.94652 9.375 9.17037 9.375 9.44652V12.9482ZM12.2917 12.9482C12.2917 13.2243 12.0678 13.4482 11.7917 13.4482H11.125C10.8489 13.4482 10.625 13.2243 10.625 12.9482V9.44652C10.625 9.17037 10.8489 8.94652 11.125 8.94652H11.7917C12.0678 8.94652 12.2917 9.17037 12.2917 9.44652V12.9482ZM15.4167 12.9482C15.4167 13.2243 15.1928 13.4482 14.9167 13.4482H14.0417C13.7655 13.4482 13.5417 13.2243 13.5417 12.9482V9.44652C13.5417 9.17037 13.7655 8.94652 14.0417 8.94652H14.9167C15.1928 8.94652 15.4167 9.17037 15.4167 9.44652V12.9482ZM15.625 14.3485H4.375C3.87772 14.3485 3.40081 14.5619 3.04917 14.9418C2.69754 15.3217 2.5 15.837 2.5 16.3743V16.8244C2.5 17.1981 2.78 17.4997 3.125 17.4997H16.875C17.0408 17.4997 17.1997 17.4285 17.3169 17.3019C17.4342 17.1753 17.5 17.0035 17.5 16.8244V16.3743C17.5 15.837 17.3025 15.3217 16.9508 14.9418C16.5992 14.5619 16.1223 14.3485 15.625 14.3485ZM6.45833 12.9482C6.45833 13.2243 6.23448 13.4482 5.95833 13.4482H5.08333C4.80719 13.4482 4.58333 13.2243 4.58333 12.9482V9.44652C4.58333 9.17037 4.80719 8.94652 5.08333 8.94652H5.95833C6.23448 8.94652 6.45833 9.17037 6.45833 9.44652V12.9482Z" fill="#009349"/>
</svg>
