<svg width="25" height="25" viewBox="0 0 25 25" fill="none" xmlns="http://www.w3.org/2000/svg">
<path d="M7.6865 8.31395C7.6865 7.03721 8.19364 5.81277 9.09636 4.90997C9.99908 4.00718 11.2234 3.5 12.5001 3.5C13.7767 3.5 15.0011 4.00718 15.9038 4.90997C16.8065 5.81277 17.3137 7.03721 17.3137 8.31395C17.3137 9.59069 16.8065 10.8151 15.9038 11.7179C15.0011 12.6207 13.7767 13.1279 12.5001 13.1279C11.2234 13.1279 9.99908 12.6207 9.09636 11.7179C8.19364 10.8151 7.6865 9.59069 7.6865 8.31395ZM12.331 14.3929C12.367 14.3875 12.4034 14.3844 12.4398 14.3837H12.5604C12.5972 14.3837 12.6335 14.3868 12.6692 14.3929L18.7761 15.4671L18.808 15.4738C19.9331 15.7333 21.1419 16.4474 21.3772 17.8347L21.3805 17.859L21.4759 18.5932V18.5949C21.6969 20.2768 20.3634 21.5 18.7887 21.5C18.754 21.4994 18.7193 21.4966 18.6849 21.4916H6.21145C4.63678 21.4916 3.30237 20.2676 3.52422 18.5848L3.61965 17.8573L3.62384 17.8322C3.85824 16.47 5.07712 15.7157 6.19973 15.4721L6.22401 15.4671L12.331 14.3929Z" fill="#CFD1D9"/>
</svg>
