<svg width="25" height="25" viewBox="0 0 25 25" fill="none" xmlns="http://www.w3.org/2000/svg">
<path d="M15.5 7.79V3.5C15.5 2.95 15.05 2.5 14.5 2.5H10.5C9.95 2.5 9.5 2.95 9.5 3.5V7.79C9.5 7.92 9.55 8.05 9.65 8.14L12.15 10.64C12.35 10.84 12.66 10.84 12.86 10.64L15.36 8.14C15.45 8.05 15.5 7.93 15.5 7.79ZM9.5 17.21V21.5C9.5 22.05 9.95 22.5 10.5 22.5H14.5C15.05 22.5 15.5 22.05 15.5 21.5V17.21C15.5 17.08 15.45 16.95 15.35 16.86L12.85 14.36C12.65 14.16 12.34 14.16 12.14 14.36L9.64 16.86C9.55 16.95 9.5 17.07 9.5 17.21ZM16.85 9.65L14.35 12.15C14.15 12.35 14.15 12.66 14.35 12.86L16.85 15.36C16.94 15.45 17.07 15.51 17.2 15.51H21.5C22.05 15.51 22.5 15.06 22.5 14.51V10.51C22.5 9.96 22.05 9.51 21.5 9.51H17.21C17.07 9.5 16.95 9.55 16.85 9.65Z" fill="#CFD1D9"/>
<path d="M7.79 9.5H3.5C2.95 9.5 2.5 9.95 2.5 10.5V14.5C2.5 15.05 2.95 15.5 3.5 15.5H7.79C7.92 15.5 8.05 15.45 8.14 15.35L10.64 12.85C10.84 12.65 10.84 12.34 10.64 12.14L8.14 9.64C8.05 9.55 7.93 9.5 7.79 9.5Z" fill="#CFD1D9"/>
</svg>
