<svg width="70" height="52" viewBox="0 0 70 52" fill="none" xmlns="http://www.w3.org/2000/svg">
<path opacity="0.5" d="M32.7574 4.16061C35.1005 1.81747 38.8995 1.81746 41.2426 4.16061L59.0056 21.9236C61.3488 24.2667 61.3488 28.0657 59.0056 30.4089L41.2426 48.1719C38.8995 50.515 35.1005 50.515 32.7574 48.1719L14.9944 30.4089C12.6512 28.0657 12.6512 24.2667 14.9944 21.9236L32.7574 4.16061Z" fill="#6CFE00"/>
<path d="M30.0054 4.16061C32.3485 1.81747 36.1475 1.81746 38.4907 4.16061L56.2537 21.9236C58.5968 24.2667 58.5968 28.0657 56.2537 30.4089L38.4907 48.1719C36.1475 50.515 32.3486 50.515 30.0054 48.1719L12.2424 30.4089C9.89928 28.0657 9.89927 24.2667 12.2424 21.9236L30.0054 4.16061Z" fill="#009349"/>
<path d="M35 17C30.5827 17 27 20.5827 27 25C27 29.4173 30.5827 33 35 33C39.4173 33 43 29.4173 43 25C43 20.5827 39.4173 17 35 17ZM37.3003 28.1552C36.9542 28.5827 36.4962 28.8677 35.9669 29.0102C35.7328 29.0712 35.631 29.1934 35.6412 29.4377C35.6514 29.6718 35.6412 29.9058 35.6412 30.1501C35.6412 30.3639 35.5293 30.4759 35.3257 30.4759C35.0712 30.486 34.8168 30.486 34.5623 30.4759C34.3384 30.4759 34.2366 30.3435 34.2366 30.1298C34.2366 29.9568 34.2366 29.7837 34.2366 29.6107C34.2366 29.2341 34.2163 29.2137 33.8499 29.1527C33.3817 29.0814 32.9237 28.9695 32.4962 28.7659C32.1603 28.603 32.1196 28.5216 32.2214 28.1654C32.2926 27.9008 32.3639 27.6362 32.4453 27.3817C32.5369 27.0764 32.6183 27.0458 32.9033 27.1883C33.3817 27.4326 33.8804 27.5751 34.4097 27.6361C34.7456 27.6769 35.0814 27.6463 35.3969 27.5038C35.9873 27.2494 36.0789 26.5674 35.5802 26.1603C35.4071 26.0178 35.2239 25.916 35.0204 25.8346C34.5013 25.6107 33.9618 25.4377 33.4835 25.1425C32.6896 24.6743 32.1908 24.0229 32.2519 23.056C32.313 21.9669 32.9338 21.2952 33.9313 20.9288C34.3384 20.7761 34.3486 20.7863 34.3486 20.3588C34.3486 20.2163 34.3486 20.0636 34.3486 19.9211C34.3588 19.5954 34.4097 19.5445 34.7354 19.5344C34.8372 19.5344 34.9389 19.5344 35.0305 19.5344C35.7226 19.5344 35.7227 19.5344 35.7227 20.2265C35.7227 20.715 35.7226 20.715 36.2112 20.7863C36.5776 20.8473 36.9338 20.9491 37.2799 21.1018C37.4733 21.1832 37.5445 21.3155 37.4835 21.5191C37.402 21.8143 37.3206 22.1196 37.2188 22.4046C37.1272 22.6794 37.0356 22.7201 36.771 22.598C36.2316 22.3333 35.6718 22.2315 35.0814 22.2621C34.9288 22.2723 34.7761 22.2926 34.6336 22.3537C34.1247 22.5776 34.0331 23.1476 34.4707 23.4937C34.6947 23.6667 34.9389 23.799 35.2036 23.911C35.6616 24.0942 36.1094 24.2773 36.5471 24.5216C37.8906 25.2646 38.2672 26.9847 37.3003 28.1552Z" fill="white"/>
</svg>
