<svg width="25" height="25" viewBox="0 0 25 25" fill="none" xmlns="http://www.w3.org/2000/svg">
<path d="M22.5 19.3206C22.5 21.0557 21.0452 22.4989 19.2052 22.4989L16.9444 22.4991V17.5741C16.9444 16.527 16.5332 15.5203 15.7973 14.7762C15.0608 14.0316 14.0595 13.6111 13.0127 13.6111H11.9873C10.9405 13.6111 9.93924 14.0316 9.20275 14.7762C8.4668 15.5203 8.05556 16.527 8.05556 17.5741V22.4998L5.79482 22.5C3.95482 22.5 2.50001 21.0568 2.50001 19.3217V10.8875C2.49866 10.4146 2.60825 9.94731 2.82065 9.51925C3.03305 9.09119 3.34311 8.71301 3.72858 8.41187L10.4338 3.2034C11.0154 2.74872 11.7464 2.5 12.5011 2.5C13.2557 2.5 13.9868 2.74872 14.5687 3.2034L21.2714 8.41078C21.6569 8.71192 21.9669 9.09014 22.1793 9.51816C22.3918 9.94622 22.5013 10.4135 22.5 10.8864V19.3206Z" fill="#CFD1D9"/>
<path d="M15.7765 17.8304V22.5H9.22266V17.8304C9.22266 17.1134 9.51479 16.4258 10.0348 15.9188C10.5548 15.4118 11.26 15.127 11.9954 15.127H13.0037C13.7391 15.127 14.4444 15.4118 14.9643 15.9188C15.4843 16.4258 15.7765 17.1134 15.7765 17.8304Z" fill="#CFD1D9"/>
</svg>
