<svg width="25" height="25" viewBox="0 0 25 25" fill="none" xmlns="http://www.w3.org/2000/svg">
<path fill-rule="evenodd" clip-rule="evenodd" d="M12.5 4C7.80558 4 4 7.80558 4 12.5V19C4 20.1046 4.89543 21 6 21H12.5C17.1944 21 21 17.1944 21 12.5C21 7.80558 17.1944 4 12.5 4ZM9.44872 8.35897C8.84687 8.35897 8.35897 8.84687 8.35897 9.44872V12.0641C8.35897 12.666 8.84687 13.1538 9.44872 13.1538C10.0506 13.1538 10.5385 12.666 10.5385 12.0641V9.44872C10.5385 8.84687 10.0506 8.35897 9.44872 8.35897ZM15.1154 8.35897C14.5135 8.35897 14.0256 8.84687 14.0256 9.44872V12.0641C14.0256 12.666 14.5135 13.1538 15.1154 13.1538C15.7172 13.1538 16.2051 12.666 16.2051 12.0641V9.44872C16.2051 8.84687 15.7172 8.35897 15.1154 8.35897Z" fill="#009349"/>
</svg>
