<svg width="24" height="25" viewBox="0 0 24 25" fill="none" xmlns="http://www.w3.org/2000/svg">
<path d="M13.4063 2.5C13.7427 2.65625 13.8526 2.92083 13.8385 3.28646C13.7792 4.81406 13.3276 6.20729 12.4589 7.46458C12.1708 7.88177 11.8792 8.29635 11.5865 8.71042C11.3927 8.9849 11.1526 9.07917 10.8854 8.99219C10.6167 8.90469 10.4807 8.69375 10.4766 8.35573C10.4568 6.65417 10.087 5.03385 9.35833 3.49531C9.12552 3.00417 9.19479 2.7724 9.65677 2.5H13.4063Z" fill="#009349"/>
<path d="M22 14.8438C21.8964 14.963 21.8104 15.1073 21.6849 15.1964C21.4984 15.3281 21.2901 15.2818 21.0922 15.1849C20.0703 14.6849 19 14.3271 17.8734 14.1677C17.3021 14.087 16.7224 14.0615 16.1453 14.0266C15.801 14.0057 15.5859 13.8776 15.5021 13.5969C15.4245 13.3375 15.5182 13.0964 15.7901 12.9151C16.5031 12.4396 17.1969 11.9286 17.9427 11.5099C18.9495 10.9448 20.0599 10.7078 21.2141 10.6609C21.5797 10.6464 21.8432 10.7573 22 11.0932V14.8438Z" fill="#009349"/>
<path d="M2 21.7578C2.18125 21.2802 2.36615 20.8036 2.54323 20.3245C2.86927 19.4411 3.19063 18.5562 3.51406 17.6719C3.53385 17.6177 3.55521 17.5646 3.5901 17.4734C4.30938 18.7922 5.01406 20.0833 5.72708 21.3901C5.13073 21.6083 4.55156 21.8177 3.97448 22.0318C3.5625 22.1844 3.1526 22.3438 2.74219 22.5H2.42969C2.23646 22.4068 2.09167 22.2651 2 22.0703C2 21.9661 2 21.862 2 21.7578Z" fill="#009349"/>
<path d="M6.34427 9.92344C9.08958 12.6688 11.8297 15.4089 14.576 18.1557C14.1635 18.3078 13.7338 18.4667 13.3036 18.6245C12.5531 18.899 11.8016 19.1698 11.0531 19.45C10.9146 19.5021 10.8411 19.4885 10.7573 19.3542C9.14218 16.7594 7.52187 14.1677 5.89947 11.5771C5.82708 11.462 5.80885 11.3672 5.86041 11.2354C6.03177 10.7958 6.18802 10.3505 6.34427 9.92344Z" fill="#009349"/>
<path d="M7.69531 7.53177C7.7776 7.57344 7.92761 7.62344 8.0474 7.71354C10.8682 9.83698 13.4016 12.262 15.6391 14.9932C16.0349 15.4766 16.4167 15.9708 16.7984 16.4651C17.099 16.8542 16.976 17.2714 16.5141 17.4479C16.2958 17.5312 16.0547 17.6995 15.8594 17.6589C15.6651 17.6182 15.5115 17.3682 15.3469 17.2031C12.5479 14.4052 9.75052 11.6057 6.94844 8.81094C6.83438 8.69687 6.80833 8.60625 6.87448 8.46094C6.95521 8.28437 7.00729 8.09427 7.07969 7.91354C7.17708 7.67083 7.36771 7.55521 7.69531 7.53177Z" fill="#009349"/>
<path d="M9.73854 19.9245C8.76354 20.2813 7.81354 20.6281 6.84896 20.9813C6.81406 20.9229 6.77916 20.8703 6.74948 20.8151C5.90573 19.2693 5.06406 17.7219 4.21614 16.1786C4.14687 16.0526 4.13698 15.9495 4.18698 15.8151C4.53333 14.8839 4.87135 13.9495 5.2125 13.0161C5.23385 12.9573 5.26198 12.9005 5.29687 12.8188C6.78125 15.1938 8.2526 17.5469 9.73854 19.9245Z" fill="#009349"/>
<path d="M16.1453 5.34479C16.2214 5.3875 16.3839 5.43906 16.4922 5.54531C17.3188 6.35729 18.138 7.17656 18.9526 8C19.2792 8.33021 19.2 8.78229 18.7781 8.98073C17.2375 9.70573 15.6938 10.4229 14.1495 11.1401C13.887 11.262 13.649 11.2203 13.4641 11.0401C13.2823 10.863 13.2359 10.6156 13.3563 10.3568C14.0761 8.80677 14.7995 7.25781 15.5224 5.70885C15.6287 5.48177 15.8109 5.3651 16.1453 5.34479Z" fill="#009349"/>
<path d="M8.83542 5.62969C8.83229 5.94688 8.56666 6.2099 8.25 6.2099C7.92656 6.2099 7.65625 5.93281 7.66458 5.60938C7.67291 5.29323 7.94375 5.03333 8.25989 5.03906C8.57708 5.04479 8.83854 5.3125 8.83542 5.62969Z" fill="#009349"/>
<path d="M18.875 15.6646C19.1917 15.6646 19.4578 15.9276 19.4604 16.2443C19.463 16.5693 19.1906 16.8401 18.8661 16.8349C18.5505 16.8297 18.2875 16.5604 18.2901 16.2448C18.2927 15.9281 18.5583 15.6646 18.875 15.6646Z" fill="#009349"/>
</svg>
