<svg width="184" height="43" viewBox="0 0 184 43" fill="none" xmlns="http://www.w3.org/2000/svg">
<g filter="url(#filter0_d_1517_12926)">
<path d="M58.3621 2.09905H67.7881C69.7426 2.09905 71.3507 2.83448 72.6125 4.27704C73.8742 5.7196 74.5175 7.55817 74.5175 9.79273V17.4581C74.5175 19.9473 73.132 21.9272 71.1775 22.3798C73.132 22.8324 74.5175 24.8124 74.5175 27.3015V35.3063C74.5175 37.5409 73.8742 39.4077 72.6125 40.8503C71.3507 42.2929 69.7426 43 67.7881 43H58.3621C56.4076 43 54.7748 42.2646 53.513 40.822C52.2513 39.3794 51.608 37.5409 51.608 35.3063V27.3015C51.608 24.8124 52.9935 22.8324 54.9727 22.3798C54.0078 22.1535 53.1914 21.5878 52.5482 20.6827C51.9296 19.7493 51.608 18.6744 51.608 17.4581V9.79273C51.608 7.55817 52.2513 5.7196 53.513 4.27704C54.7748 2.83448 56.4076 2.09905 58.3621 2.09905ZM65.1904 11.1504H60.9351V18.0804H65.1904V11.1504ZM65.1904 27.0186H60.9351V33.9769H65.1904V27.0186Z" fill="white"/>
<path d="M44.2851 42.9434H30.1089C28.8472 42.9434 27.8081 42.4909 26.9916 41.5574C26.1752 40.624 25.7794 39.4643 25.7794 38.0217V7.02074C25.7794 5.57818 26.1752 4.41847 26.9916 3.48504C27.8081 2.55162 28.8472 2.09905 30.1089 2.09905H44.2851C45.5468 2.09905 46.5612 2.55162 47.3776 3.48504C48.194 4.41847 48.5899 5.57818 48.5899 7.02074V38.0217C48.5899 39.4643 48.194 40.624 47.3776 41.5574C46.5612 42.4909 45.5468 42.9434 44.2851 42.9434ZM35.057 11.1504V33.892H39.3123V11.1504H35.057Z" fill="white"/>
<path d="M6.75408 11.0939H0.321623C0.123701 11.0939 0.0247402 10.9807 0 10.7262V2.43848C0 2.21219 0.0989609 2.09905 0.321623 2.09905H22.4641C22.662 2.09905 22.761 2.21219 22.761 2.43848V10.7262C22.761 10.9524 22.662 11.0656 22.4641 11.0939H16.0811V42.6606C16.0811 42.8869 15.9822 43 15.7595 43H7.05096C6.85304 43 6.75408 42.8869 6.75408 42.6606V11.0939Z" fill="white"/>
<path d="M158.175 41.8444C157.482 42.1084 156.781 42.3158 156.072 42.4666C155.38 42.6364 154.662 42.7212 153.92 42.7212C152.369 42.7212 151.594 42.1084 151.594 40.8826C151.594 40.5055 151.652 40.1001 151.767 39.6664C151.883 39.2327 152.073 38.7329 152.336 38.1672C153.161 36.4324 154.052 34.6127 155.008 32.7081C155.965 30.8036 156.955 28.8424 157.977 26.8247C159.016 24.807 160.072 22.761 161.144 20.6867C162.233 18.6125 163.321 16.5382 164.41 14.4639C165.3 12.7291 166.249 10.9094 167.255 9.0048C168.277 7.08138 169.308 5.04482 170.347 2.89511C171.172 2.17854 172.063 1.6694 173.019 1.36769C173.992 1.06598 174.999 0.981121 176.038 1.11312C177.308 1.28283 177.992 2.51797 178.091 4.81853C178.091 5.42196 178.091 6.08195 178.091 6.79852C178.091 7.51509 178.108 8.29766 178.141 9.14622C178.141 10.0325 178.157 10.8528 178.19 11.6071C178.239 12.3614 178.264 13.0685 178.264 13.7285C178.281 14.0302 178.305 14.5299 178.338 15.2276C178.388 15.9253 178.429 16.7268 178.462 17.6319C178.512 18.5182 178.561 19.4516 178.611 20.4322C178.66 21.4127 178.701 22.3462 178.734 23.2324C178.784 24.1187 178.817 24.9013 178.833 25.5801C178.866 26.259 178.891 26.7399 178.907 27.0227C179.006 28.6821 179.13 30.2473 179.279 31.7181C179.443 33.189 179.641 34.5278 179.872 35.7347C180.103 36.9604 180.384 38.0069 180.714 38.8744C181.043 39.7418 181.472 40.4489 182 40.9958C181.175 41.6558 180.285 42.1272 179.328 42.4101C178.388 42.7118 177.398 42.8155 176.359 42.7212C175.551 42.6458 174.891 42.2121 174.38 41.4201C173.869 40.6281 173.514 39.3552 173.316 37.6015C173.085 36.1684 172.929 34.7541 172.846 33.3587C172.78 31.9444 172.689 30.5113 172.574 29.0593C172.228 29.3798 171.873 29.5873 171.51 29.6816C171.164 29.757 170.817 29.7947 170.471 29.7947C169.218 29.8513 167.981 29.889 166.76 29.9078C165.54 29.9267 164.311 29.9361 163.074 29.9361C162.463 30.3133 162.01 30.6904 161.713 31.0676C161.433 31.4258 161.177 31.8501 160.946 32.3404C160.616 32.8684 160.278 33.5378 159.932 34.3487C159.602 35.1407 159.305 35.8667 159.041 36.5267C158.728 37.3564 158.456 38.2238 158.225 39.1289C158.01 40.0341 157.994 40.9392 158.175 41.8444ZM171.312 25.5236C171.543 25.5236 171.741 25.5047 171.906 25.467C172.071 25.4293 172.244 25.3916 172.426 25.3539C172.426 24.6373 172.409 23.817 172.376 22.893C172.36 21.969 172.335 20.9979 172.302 19.9796C172.285 18.9613 172.252 17.9242 172.203 16.8682C172.17 15.7933 172.129 14.7562 172.079 13.7568C172.03 12.7574 171.98 11.8145 171.931 10.9282C171.881 10.0231 171.832 9.23108 171.782 8.55223C171.255 9.66479 170.685 10.8716 170.075 12.1728C169.465 13.4551 168.822 14.8128 168.145 16.2459C167.469 17.679 166.768 19.1782 166.043 20.7433C165.317 22.2896 164.575 23.883 163.816 25.5236H171.312Z" fill="url(#paint0_linear_1517_12926)"/>
<path d="M145.36 42.2404C145.046 42.2404 144.782 42.2215 144.568 42.1838C144.353 42.1461 144.18 42.0707 144.048 41.9575C143.916 41.8444 143.817 41.6747 143.751 41.4484C143.702 41.2221 143.677 40.9204 143.677 40.5432C143.182 40.9958 142.622 41.3824 141.995 41.703C141.368 42.0047 140.708 42.2498 140.016 42.4384C139.323 42.6269 138.614 42.7589 137.888 42.8344C137.179 42.9287 136.478 42.9758 135.785 42.9758C134.218 42.9758 132.808 42.6458 131.554 41.9858C130.301 41.307 129.229 40.3735 128.338 39.1855C127.464 37.9787 126.788 36.5361 126.31 34.8578C125.848 33.1607 125.617 31.2939 125.617 29.2573C125.617 26.7682 125.872 24.345 126.384 21.9879C126.895 19.6119 127.613 17.3774 128.536 15.2842C129.46 13.1911 130.565 11.2771 131.851 9.54224C133.138 7.78854 134.548 6.27997 136.082 5.01655C137.616 3.75313 139.249 2.77256 140.98 2.07485C142.729 1.35828 144.527 1 146.374 1C147.71 1 148.906 1.11314 149.961 1.33943C151.017 1.56571 151.907 1.89571 152.633 2.32942C153.359 2.76313 153.911 3.29113 154.291 3.91341C154.687 4.5357 154.884 5.23341 154.884 6.00655C154.884 7.02483 154.546 7.96768 153.87 8.83511C153.194 9.70253 152.122 10.57 150.654 11.4374C150.374 9.41967 149.656 7.88282 148.502 6.82683C147.347 5.75198 145.92 5.21455 144.221 5.21455C143.034 5.21455 141.929 5.57284 140.906 6.2894C139.884 6.98712 138.952 7.92997 138.111 9.11796C137.269 10.306 136.519 11.6825 135.859 13.2477C135.216 14.7939 134.672 16.4156 134.226 18.1128C133.781 19.8099 133.443 21.5353 133.212 23.289C132.981 25.0239 132.866 26.6645 132.866 28.2107C132.866 29.7193 132.981 31.077 133.212 32.2839C133.443 33.4907 133.781 34.509 134.226 35.3387C134.688 36.1684 135.265 36.8095 135.958 37.2621C136.651 37.6958 137.459 37.9127 138.383 37.9127C139.092 37.9127 139.809 37.7713 140.535 37.4884C141.261 37.2055 141.97 36.8473 142.663 36.4135C143.026 35.8478 143.331 35.235 143.578 34.575C143.842 33.915 144.065 33.2173 144.246 32.4819C144.444 31.7464 144.617 30.9733 144.766 30.1624C144.931 29.3327 145.087 28.4653 145.236 27.5602C145.236 27.0699 145.195 26.721 145.112 26.5136C145.046 26.3062 144.898 26.127 144.667 25.9762C144.304 25.9762 143.933 26.0139 143.553 26.0893C143.191 26.1647 142.82 26.3062 142.44 26.5136C142.44 25.5142 142.556 24.7505 142.787 24.2225C143.034 23.6945 143.438 23.3079 143.999 23.0628C144.576 22.8176 145.335 22.6668 146.275 22.6102C147.232 22.5348 148.419 22.4593 149.837 22.3839C150.035 22.365 150.266 22.3556 150.53 22.3556C150.794 22.3556 151.042 22.3839 151.272 22.4405C151.52 22.4782 151.726 22.5442 151.891 22.6385C152.056 22.7328 152.147 22.8648 152.163 23.0345C152.18 23.4116 152.138 23.817 152.039 24.2507C151.94 24.6656 151.833 25.1182 151.718 25.6085C151.404 27.0982 151.116 28.503 150.852 29.823C150.604 31.143 150.382 32.3593 150.184 33.4718C150.002 34.5656 149.862 35.5367 149.763 36.3853C149.664 37.215 149.615 37.8844 149.615 38.3935C149.615 38.9215 149.689 39.4307 149.837 39.921C149.986 40.3924 150.06 40.7884 150.06 41.109C149.796 41.2975 149.483 41.4672 149.12 41.6181C148.757 41.7501 148.361 41.8632 147.932 41.9575C147.52 42.0518 147.091 42.1178 146.646 42.1555C146.201 42.2121 145.772 42.2404 145.36 42.2404Z" fill="url(#paint1_linear_1517_12926)"/>
<path d="M107.359 2.47083C109.288 2.2634 111.21 2.11254 113.123 2.01826C115.053 1.90512 116.991 1.84855 118.937 1.84855C119.861 1.84855 120.735 1.82026 121.56 1.76369C122.384 1.68826 123.11 1.65055 123.737 1.65055C124.199 1.65055 124.594 1.6694 124.924 1.70712C125.254 1.72598 125.535 1.77312 125.765 1.84855C126.013 1.92398 126.227 2.01826 126.409 2.1314C126.59 2.24454 126.755 2.3954 126.903 2.58397C126.821 3.20625 126.681 3.83797 126.483 4.47911C126.285 5.12025 126.029 5.70481 125.716 6.23281C125.419 6.76081 125.064 7.19452 124.652 7.53395C124.24 7.85452 123.786 8.0148 123.291 8.0148C123.143 8.0148 122.97 7.9488 122.772 7.8168C122.59 7.6848 122.351 7.53395 122.054 7.36424C121.757 7.19452 121.395 7.04366 120.966 6.91167C120.553 6.77967 120.05 6.71367 119.457 6.71367H117.774C117.131 6.71367 116.513 6.69481 115.919 6.65709C115.342 6.60052 114.814 6.57224 114.335 6.57224H112.331C112.546 6.83624 112.694 7.10024 112.777 7.36424C112.859 7.62823 112.901 7.89223 112.901 8.15623C112.901 8.28823 112.892 8.42966 112.876 8.58052C112.876 8.71251 112.851 8.85394 112.802 9.0048C112.521 10.4756 112.216 12.0502 111.886 13.7285C111.573 15.4068 111.226 17.1605 110.847 18.9896H113.519C115.003 18.9896 116.438 18.9142 117.824 18.7633C119.209 18.5936 120.463 18.405 121.584 18.1976C121.584 18.405 121.576 18.6125 121.56 18.8199C121.543 19.0085 121.51 19.2253 121.461 19.4705C121.213 20.5076 120.859 21.3279 120.397 21.9313C119.951 22.5159 119.407 22.959 118.764 23.2607C118.137 23.5436 117.428 23.7227 116.636 23.7982C115.845 23.8547 114.987 23.883 114.063 23.883H109.981C109.816 24.4487 109.635 25.137 109.437 25.9479C109.255 26.7399 109.082 27.5696 108.917 28.437C108.752 29.3044 108.612 30.1718 108.497 31.0393C108.381 31.9067 108.324 32.6893 108.324 33.387C108.324 34.443 108.497 35.2444 108.843 35.7912C109.189 36.3192 109.618 36.6964 110.13 36.9227C110.641 37.1301 111.185 37.2432 111.762 37.2621C112.356 37.2621 112.892 37.2621 113.371 37.2621C114.525 37.2621 115.605 37.1489 116.612 36.9227C117.634 36.6775 118.55 36.4135 119.358 36.1307C120.166 35.8478 120.859 35.5932 121.436 35.367C122.013 35.1218 122.442 34.9992 122.722 34.9992C122.722 36.6398 122.45 37.9504 121.906 38.9309C121.362 39.8927 120.586 40.6281 119.58 41.1372C118.591 41.6464 117.395 41.9764 115.993 42.1272C114.608 42.2781 113.065 42.3535 111.367 42.3535C110.295 42.3535 109.231 42.3441 108.175 42.3252C107.136 42.3064 106.097 42.2969 105.058 42.2969C104.217 42.2969 103.532 42.1838 103.004 41.9575C102.493 41.7312 102.097 41.4201 101.817 41.0241C101.553 40.6092 101.372 40.1189 101.273 39.5532C101.19 38.9687 101.149 38.3181 101.149 37.6015C101.149 37.0924 101.174 36.5455 101.223 35.961C101.289 35.3575 101.372 34.7447 101.471 34.1224C101.569 33.5001 101.677 32.8778 101.792 32.2555C101.924 31.6333 102.056 31.0298 102.188 30.4453C102.749 27.975 103.277 25.6556 103.771 23.487C104.283 21.3185 104.72 19.3196 105.083 17.4905C105.462 15.6613 105.759 14.0113 105.973 12.5405C106.204 11.0508 106.32 9.75908 106.32 8.66537C106.32 8.4768 106.32 8.28823 106.32 8.09966C106.32 7.89223 106.311 7.71309 106.295 7.56223C106.295 7.39252 106.278 7.26052 106.245 7.16624C106.212 7.07195 106.163 7.03424 106.097 7.05309C105.8 7.14738 105.511 7.20395 105.231 7.22281C104.967 7.22281 104.769 7.22281 104.637 7.22281C104.489 7.16624 104.439 6.86452 104.489 6.31767C104.489 5.82738 104.58 5.34653 104.761 4.8751C104.959 4.40368 105.14 4.02654 105.305 3.74368C105.487 3.44197 105.668 3.20625 105.85 3.03654C106.047 2.86683 106.262 2.74426 106.493 2.66883C106.724 2.57454 107.012 2.50854 107.359 2.47083Z" fill="url(#paint2_linear_1517_12926)"/>
<path d="M76.9035 38.8461C76.9035 38.1107 76.9942 36.9981 77.1756 35.5084C77.357 33.9998 77.6044 32.265 77.9178 30.3039C78.2312 28.3239 78.594 26.1836 79.0064 23.883C79.4352 21.5825 79.8888 19.2725 80.3671 16.9531C80.8619 14.6336 81.365 12.3802 81.8763 10.1928C82.404 7.98653 82.9318 5.98769 83.4596 4.19627C83.5916 3.66827 83.7895 3.22513 84.0534 2.86684C84.3173 2.50856 84.6307 2.16913 84.9935 1.84856C85.3729 1.56571 85.7605 1.37714 86.1563 1.28285C86.5686 1.16971 86.948 1.12256 87.2944 1.14142C88.0201 1.21685 88.7128 1.38657 89.3725 1.65056C90.0488 1.89571 90.7168 2.31999 91.3765 2.92341C90.9477 3.47027 90.6013 3.96998 90.3374 4.42255C90.0735 4.87512 89.8426 5.37483 89.6447 5.92169C89.1499 7.48682 88.6551 9.1651 88.1603 10.9565C87.682 12.7291 87.2284 14.5299 86.7996 16.3591C86.3707 18.1882 85.9666 20.0079 85.5873 21.8182C85.2244 23.6285 84.911 25.3539 84.6472 26.9944C84.3833 28.635 84.1771 30.1624 84.0286 31.5767C83.8802 32.9721 83.806 34.1696 83.806 35.169C83.806 35.5461 83.8555 35.8761 83.9544 36.159C84.3008 36.3098 84.6966 36.423 85.142 36.4984C85.5873 36.5738 86.0409 36.6398 86.5027 36.6964C86.9645 36.7341 87.4181 36.7624 87.8634 36.7813C88.3252 36.7813 88.754 36.7813 89.1499 36.7813C90.7827 36.7813 92.3166 36.621 93.7516 36.3004C95.1865 35.9798 96.3988 35.5367 97.3884 34.971C97.5203 34.8767 97.5945 34.8296 97.611 34.8296C97.6605 34.8296 97.6852 34.9427 97.6852 35.169C97.6028 36.9604 97.3471 38.3464 96.9183 39.327C96.506 40.2887 95.871 41.0052 95.0133 41.4767C94.1721 41.9481 93.1001 42.2215 91.7971 42.2969C90.5106 42.3912 88.9602 42.4384 87.1459 42.4384C85.8429 42.4384 84.6142 42.4384 83.4596 42.4384C82.3051 42.4384 81.0846 42.4572 79.7981 42.4949C79.1713 42.4949 78.6683 42.4101 78.2889 42.2404C77.9096 42.0707 77.6127 41.8349 77.3983 41.5332C77.2003 41.2127 77.0684 40.8261 77.0024 40.3735C76.9365 39.921 76.9035 39.4118 76.9035 38.8461Z" fill="url(#paint3_linear_1517_12926)"/>
</g>
<defs>
<filter id="filter0_d_1517_12926" x="0" y="0.5" width="184" height="42.5" filterUnits="userSpaceOnUse" color-interpolation-filters="sRGB">
<feFlood flood-opacity="0" result="BackgroundImageFix"/>
<feColorMatrix in="SourceAlpha" type="matrix" values="0 0 0 0 0 0 0 0 0 0 0 0 0 0 0 0 0 0 127 0" result="hardAlpha"/>
<feOffset dx="2" dy="-0.5"/>
<feComposite in2="hardAlpha" operator="out"/>
<feColorMatrix type="matrix" values="0 0 0 0 0 0 0 0 0 0 0 0 0 0 0 0 0 0 0.25 0"/>
<feBlend mode="normal" in2="BackgroundImageFix" result="effect1_dropShadow_1517_12926"/>
<feBlend mode="normal" in="SourceGraphic" in2="effect1_dropShadow_1517_12926" result="shape"/>
</filter>
<linearGradient id="paint0_linear_1517_12926" x1="138.519" y1="0.999997" x2="125.506" y2="60.8332" gradientUnits="userSpaceOnUse">
<stop stop-color="#FFEDB4"/>
<stop offset="1" stop-color="#FFC300"/>
</linearGradient>
<linearGradient id="paint1_linear_1517_12926" x1="138.519" y1="0.999997" x2="125.506" y2="60.8332" gradientUnits="userSpaceOnUse">
<stop stop-color="#FFEDB4"/>
<stop offset="1" stop-color="#FFC300"/>
</linearGradient>
<linearGradient id="paint2_linear_1517_12926" x1="138.519" y1="0.999997" x2="125.506" y2="60.8332" gradientUnits="userSpaceOnUse">
<stop stop-color="#FFEDB4"/>
<stop offset="1" stop-color="#FFC300"/>
</linearGradient>
<linearGradient id="paint3_linear_1517_12926" x1="138.519" y1="0.999997" x2="125.506" y2="60.8332" gradientUnits="userSpaceOnUse">
<stop stop-color="#FFEDB4"/>
<stop offset="1" stop-color="#FFC300"/>
</linearGradient>
</defs>
</svg>
