<svg width="33" height="32" viewBox="0 0 33 32" fill="none" xmlns="http://www.w3.org/2000/svg">
<g id="Vector">
<rect id="Rectangle 41141" x="0.5" y="15.9995" width="22.6274" height="22.6274" rx="3.05788" transform="rotate(-45 0.5 15.9995)" fill="url(#paint0_linear_2686_7872)"/>
<path id="icon" fill-rule="evenodd" clip-rule="evenodd" d="M16.2485 7.81445L11.3745 12.6882L13.1674 14.4809L16.2485 11.4001L19.3315 14.4826L21.1244 12.69L16.2485 7.81445ZM8.31543 15.7467L10.1082 17.5392L11.9012 15.7465L10.1083 13.9539L8.31543 15.7467ZM13.1674 17.0128L16.2485 20.0936L19.3314 17.0111L21.1252 18.8028L21.1244 18.804L16.2485 23.6791L11.3744 18.8055L11.3718 18.803L13.1674 17.0128ZM20.5962 15.7474L22.389 17.54L24.182 15.7474L22.389 13.9547L20.5962 15.7474ZM14.9041 15.2711L16.2486 13.9267L18.0679 15.7459H18.0671L18.0688 15.7467L18.0679 15.7477L16.2486 17.5669L14.4309 15.7494L14.4284 15.7467L14.4309 15.7442L14.7495 15.4256L14.9039 15.2711H14.9041Z" fill="url(#paint1_linear_2686_7872)"/>
</g>
<defs>
<linearGradient id="paint0_linear_2686_7872" x1="20.005" y1="58.1177" x2="6.11573" y2="13.6008" gradientUnits="userSpaceOnUse">
<stop stop-color="#FF8C68"/>
<stop offset="1" stop-color="#FFC700"/>
</linearGradient>
<linearGradient id="paint1_linear_2686_7872" x1="30.1319" y1="28.6368" x2="15.2587" y2="14.7535" gradientUnits="userSpaceOnUse">
<stop offset="0.541667" stop-color="#CED2EB"/>
<stop offset="1" stop-color="white"/>
</linearGradient>
</defs>
</svg>
