<svg width="33" height="32" viewBox="0 0 33 32" fill="none" xmlns="http://www.w3.org/2000/svg">
<g id="Vecttor">
<rect id="Rectangle 41141" x="0.5" y="15.9995" width="22.6274" height="22.6274" rx="3.05788" transform="rotate(-45 0.5 15.9995)" fill="url(#paint0_linear_2686_7896)"/>
<g id="Vector">
<path d="M18.7503 9.8324C18.7917 11.4625 18.0492 12.9092 17.0099 14.2416C16.4682 14.9356 15.9079 15.6167 15.3876 16.3268C14.6284 17.3636 14.1171 18.5031 14.0106 19.8071C13.8666 21.5676 14.3979 23.0827 15.6012 24.3681C15.638 24.4075 15.6774 24.4436 15.7123 24.4849C15.7659 24.5476 15.8646 24.5992 15.8188 24.6986C15.7736 24.7974 15.6742 24.769 15.5903 24.7522C15.3805 24.7096 15.1687 24.6741 14.9615 24.6211C11.7814 23.8019 9.6807 20.9859 9.84274 17.709C9.93506 15.8433 10.7239 14.2636 11.9589 12.8885C12.7414 12.0177 13.5664 11.1842 14.2727 10.2462C15.5954 8.49025 16.2391 6.52901 16.0886 4.3218C16.0815 4.21786 15.997 4.06809 16.1551 4.00999C16.2804 3.96351 16.3372 4.09908 16.4089 4.1688C17.8717 5.60778 18.749 7.69039 18.7503 9.8324Z" fill="white"/>
<path d="M23.3804 18.4456C23.2616 20.3087 22.3662 22.1667 20.3352 23.3907C19.769 23.7315 19.1461 24.0072 18.7781 24.6076C18.6806 24.767 18.5896 24.6741 18.4992 24.5824C16.8653 22.9226 16.3456 21.0234 17.2313 18.8065C17.6122 17.8536 18.1086 16.9666 18.6845 16.1215C19.2113 15.3488 19.7213 14.567 20.1235 13.72C20.29 13.3701 20.4237 13.008 20.5282 12.6355C20.6231 12.2959 20.6612 12.283 20.9324 12.5283C21.5586 13.0958 22.0821 13.7452 22.4863 14.4889C23.0879 15.5954 23.381 16.749 23.3804 18.4456Z" fill="#F1F1F1"/>
</g>
</g>
<defs>
<linearGradient id="paint0_linear_2686_7896" x1="20.005" y1="58.1177" x2="6.11573" y2="13.6008" gradientUnits="userSpaceOnUse">
<stop stop-color="#68FFE4"/>
<stop offset="1" stop-color="#00A2FF"/>
</linearGradient>
</defs>
</svg>
