<svg width="33" height="33" viewBox="0 0 33 33" fill="none" xmlns="http://www.w3.org/2000/svg">
<g id="Vector">
<rect id="Rectangle 41141" x="0.5" y="16.1904" width="22.8968" height="22.8968" rx="3.05788" transform="rotate(-45 0.5 16.1904)" fill="url(#paint0_linear_2686_7884)"/>
<g id="Vector_2">
<path d="M17.3603 15.2001C18.0474 14.5096 18.6604 13.8889 19.2789 13.2746C19.3859 13.169 19.3894 13.0998 19.2803 12.9915C18.6611 12.3771 18.0481 11.7572 17.419 11.1246C17.3897 11.1756 17.3631 11.2015 17.3617 11.2274C17.3459 11.6239 17.1439 11.8222 16.7557 11.8222C15.1726 11.8222 13.5902 11.8159 12.0071 11.8284C11.7282 11.8305 11.6458 11.7641 11.7017 11.4825C11.831 10.8338 11.9365 10.1803 12.0505 9.52892C12.0847 9.34161 12.1148 9.20252 12.3846 9.20461C14.596 9.21999 16.8075 9.19762 19.0182 9.22139C20.7747 9.24026 22.4423 10.4585 22.8988 12.0521C23.2601 13.3165 23.0232 14.467 22.0936 15.4399C21.7057 15.846 21.2625 16.1857 20.8068 16.5086C20.6195 16.6414 20.5943 16.7511 20.7118 16.9601C21.5882 18.5187 22.4507 20.0851 23.316 21.65C23.504 21.9897 23.5012 21.9925 23.1063 21.9932C22.3151 21.9939 21.5218 21.9631 20.7327 22.0016C19.922 22.0414 19.3551 21.6814 18.9036 21.058C18.5611 20.5848 18.3109 20.0613 18.0572 19.5392C17.793 18.9961 17.5393 18.4446 17.18 17.9575C16.6886 17.2907 16.0792 16.8727 15.1824 16.9014C13.8104 16.9454 12.4363 16.907 11.0629 16.9181C10.8028 16.9202 10.7518 16.8469 10.8014 16.5987C10.9321 15.9508 11.0447 15.298 11.1481 14.6452C11.1866 14.4034 11.2676 14.309 11.5388 14.3111C13.3659 14.3265 15.1929 14.3251 17.0206 14.3125C17.2918 14.3104 17.4016 14.3775 17.3638 14.6557C17.3443 14.8011 17.3603 14.9506 17.3603 15.2001Z" fill="white"/>
<path d="M15.2642 21.989C13.5105 21.989 11.7974 21.9876 10.085 21.9918C9.92008 21.9918 9.85508 21.9575 9.89002 21.7758C10.0263 21.072 10.1535 20.3667 10.2772 19.6608C10.2989 19.5364 10.3101 19.4483 10.4764 19.4504C11.2886 19.463 12.1022 19.4441 12.9137 19.4728C13.7 19.5007 14.1829 19.9774 14.4758 20.6631C14.675 21.13 14.8728 21.5934 15.2642 21.9883V21.989Z" fill="white"/>
</g>
</g>
<defs>
<linearGradient id="paint0_linear_2686_7884" x1="20.2372" y1="58.81" x2="6.18259" y2="13.7632" gradientUnits="userSpaceOnUse">
<stop stop-color="#9668FF"/>
<stop offset="1" stop-color="#D800FF"/>
</linearGradient>
</defs>
</svg>
